G04 Layer: BoardOutline*
G04 EasyEDA v6.3.53, 2020-06-17T09:28:47+02:00*
G04 2fc62430105348e8968ca0d9d06def79,a119ccecc66d453fa3e160aadb19915c,10*
G04 Gerber Generator version 0.2*
G04 Scale: 100 percent, Rotated: No, Reflected: No *
G04 Dimensions in inches *
G04 leading zeros omitted , absolute positions ,2 integer and 4 decimal *
%FSLAX24Y24*%
%MOIN*%
G90*
G70D02*

%ADD10C,0.010000*%
G54D10*
G01X17550Y3090D02*
G01X17400Y3090D01*
G01X17400Y690D01*
G01X18150Y690D01*
G01X18150Y3090D01*
G01X17550Y3090D01*
G01X22600Y3090D02*
G01X22450Y3090D01*
G01X22450Y690D01*
G01X23200Y690D01*
G01X23200Y3090D01*
G01X22600Y3090D01*
G01X27600Y3090D02*
G01X27450Y3090D01*
G01X27450Y690D01*
G01X28200Y690D01*
G01X28200Y3090D01*
G01X27600Y3090D01*
G01X31496Y18490D02*
G01X31496Y3149D01*
G01X31496Y18490D02*
G01X31496Y7073D01*
G01X28346Y0D02*
G01X3149Y0D01*
G01X0Y3149D02*
G01X0Y18490D01*
G01X3149Y21640D02*
G01X28346Y21640D01*
G01X3149Y21640D02*
G01X28346Y21640D01*
G01X0Y7073D02*
G01X0Y18490D01*
G75*
G01X3150Y0D02*
G02X0Y3150I0J3150D01*
G01*
G75*
G01X31496Y3150D02*
G02X28346Y0I-3150J0D01*
G01*
G75*
G01X0Y18490D02*
G02X3150Y21640I3150J0D01*
G01*
G75*
G01X0Y18490D02*
G02X3150Y21640I3150J0D01*
G01*
G75*
G01X28346Y21640D02*
G02X31496Y18490I0J-3150D01*
G01*
G75*
G01X28347Y21640D02*
G02X31496Y18490I0J-3150D01*
G01*
G75*
G01X30096Y2050D02*
G03X30096Y2050I-650J0D01*
G01*
G75*
G01X30096Y19590D02*
G03X30096Y19590I-650J0D01*
G01*
G75*
G01X2700Y2050D02*
G03X2700Y2050I-650J0D01*
G01*
G75*
G01X2700Y19590D02*
G03X2700Y19590I-650J0D01*
G01*

%LPD*%
M00*
M02*
