G04 Layer: BottomSilkLayer*
G04 EasyEDA v6.3.53, 2020-06-17T09:28:47+02:00*
G04 2fc62430105348e8968ca0d9d06def79,a119ccecc66d453fa3e160aadb19915c,10*
G04 Gerber Generator version 0.2*
G04 Scale: 100 percent, Rotated: No, Reflected: No *
G04 Dimensions in inches *
G04 leading zeros omitted , absolute positions ,2 integer and 4 decimal *
%FSLAX24Y24*%
%MOIN*%
G90*
G70D02*


%LPD*%

%LPD*%
G36*
G01X18926Y18638D02*
G01X18904Y18638D01*
G01X18894Y18635D01*
G01X18886Y18631D01*
G01X18878Y18625D01*
G01X18873Y18617D01*
G01X18869Y18609D01*
G01X18867Y18601D01*
G01X18867Y18582D01*
G01X18869Y18573D01*
G01X18873Y18566D01*
G01X18878Y18559D01*
G01X18886Y18552D01*
G01X18894Y18548D01*
G01X18904Y18545D01*
G01X18926Y18545D01*
G01X18935Y18548D01*
G01X18944Y18552D01*
G01X18951Y18559D01*
G01X18956Y18566D01*
G01X18960Y18573D01*
G01X18962Y18582D01*
G01X18963Y18592D01*
G01X18962Y18601D01*
G01X18960Y18609D01*
G01X18956Y18617D01*
G01X18951Y18625D01*
G01X18944Y18631D01*
G01X18935Y18635D01*
G01X18926Y18638D01*
G37*

%LPD*%
G36*
G01X23070Y18638D02*
G01X23047Y18638D01*
G01X23038Y18635D01*
G01X23029Y18631D01*
G01X23022Y18625D01*
G01X23017Y18617D01*
G01X23011Y18601D01*
G01X23010Y18592D01*
G01X23011Y18582D01*
G01X23014Y18573D01*
G01X23017Y18566D01*
G01X23022Y18559D01*
G01X23029Y18552D01*
G01X23038Y18548D01*
G01X23047Y18545D01*
G01X23070Y18545D01*
G01X23080Y18548D01*
G01X23088Y18552D01*
G01X23100Y18566D01*
G01X23103Y18573D01*
G01X23106Y18582D01*
G01X23106Y18601D01*
G01X23100Y18617D01*
G01X23094Y18625D01*
G01X23088Y18631D01*
G01X23080Y18635D01*
G01X23070Y18638D01*
G37*

%LPD*%
G36*
G01X16956Y18630D02*
G01X16719Y18630D01*
G01X16670Y18626D01*
G01X16626Y18616D01*
G01X16587Y18599D01*
G01X16555Y18576D01*
G01X16528Y18547D01*
G01X16510Y18513D01*
G01X16498Y18476D01*
G01X16494Y18434D01*
G01X16498Y18390D01*
G01X16509Y18351D01*
G01X16528Y18318D01*
G01X16553Y18291D01*
G01X16586Y18268D01*
G01X16624Y18252D01*
G01X16669Y18243D01*
G01X16719Y18240D01*
G01X16871Y18240D01*
G01X16871Y17990D01*
G01X16956Y17990D01*
G01X16956Y18630D01*
G37*

%LPC*%
G36*
G01X16871Y18559D02*
G01X16714Y18559D01*
G01X16658Y18550D01*
G01X16615Y18525D01*
G01X16589Y18484D01*
G01X16580Y18432D01*
G01X16589Y18380D01*
G01X16615Y18341D01*
G01X16660Y18317D01*
G01X16719Y18309D01*
G01X16871Y18309D01*
G01X16871Y18559D01*
G37*

%LPD*%
G36*
G01X17835Y18458D02*
G01X17769Y18474D01*
G01X17749Y18472D01*
G01X17741Y18470D01*
G01X17734Y18468D01*
G01X17734Y18393D01*
G01X17743Y18394D01*
G01X17753Y18395D01*
G01X17763Y18395D01*
G01X17773Y18396D01*
G01X17810Y18391D01*
G01X17841Y18378D01*
G01X17865Y18357D01*
G01X17882Y18327D01*
G01X17882Y17990D01*
G01X17964Y17990D01*
G01X17964Y18465D01*
G01X17885Y18465D01*
G01X17884Y18411D01*
G01X17835Y18458D01*
G37*

%LPD*%
G36*
G01X18139Y18458D02*
G01X18075Y18474D01*
G01X18063Y18473D01*
G01X18053Y18472D01*
G01X18045Y18470D01*
G01X18039Y18468D01*
G01X18039Y18393D01*
G01X18057Y18395D01*
G01X18068Y18395D01*
G01X18078Y18396D01*
G01X18115Y18391D01*
G01X18146Y18378D01*
G01X18169Y18357D01*
G01X18186Y18327D01*
G01X18186Y17990D01*
G01X18268Y17990D01*
G01X18268Y18465D01*
G01X18189Y18465D01*
G01X18188Y18411D01*
G01X18139Y18458D01*
G37*

%LPD*%
G36*
G01X18956Y18465D02*
G01X18875Y18465D01*
G01X18875Y17990D01*
G01X18956Y17990D01*
G01X18956Y18465D01*
G37*

%LPD*%
G36*
G01X19518Y18630D02*
G01X19282Y18630D01*
G01X19233Y18626D01*
G01X19189Y18616D01*
G01X19150Y18599D01*
G01X19118Y18576D01*
G01X19092Y18547D01*
G01X19073Y18513D01*
G01X19062Y18476D01*
G01X19059Y18434D01*
G01X19062Y18390D01*
G01X19073Y18351D01*
G01X19091Y18318D01*
G01X19117Y18291D01*
G01X19149Y18268D01*
G01X19187Y18252D01*
G01X19232Y18243D01*
G01X19284Y18240D01*
G01X19434Y18240D01*
G01X19434Y17990D01*
G01X19518Y17990D01*
G01X19518Y18630D01*
G37*

%LPC*%
G36*
G01X19434Y18559D02*
G01X19277Y18559D01*
G01X19221Y18550D01*
G01X19178Y18525D01*
G01X19152Y18484D01*
G01X19143Y18432D01*
G01X19152Y18380D01*
G01X19178Y18341D01*
G01X19222Y18317D01*
G01X19282Y18309D01*
G01X19434Y18309D01*
G01X19434Y18559D01*
G37*

%LPD*%
G36*
G01X22203Y18469D02*
G01X22161Y18474D01*
G01X22115Y18469D01*
G01X22077Y18455D01*
G01X22048Y18431D01*
G01X22027Y18398D01*
G01X22014Y18355D01*
G01X22010Y18303D01*
G01X22010Y17990D01*
G01X22090Y17990D01*
G01X22090Y18305D01*
G01X22092Y18328D01*
G01X22097Y18349D01*
G01X22104Y18366D01*
G01X22114Y18380D01*
G01X22128Y18391D01*
G01X22144Y18399D01*
G01X22164Y18403D01*
G01X22186Y18405D01*
G01X22206Y18403D01*
G01X22223Y18399D01*
G01X22240Y18393D01*
G01X22256Y18384D01*
G01X22270Y18372D01*
G01X22282Y18359D01*
G01X22293Y18345D01*
G01X22302Y18328D01*
G01X22302Y17990D01*
G01X22384Y17990D01*
G01X22384Y18465D01*
G01X22306Y18465D01*
G01X22305Y18405D01*
G01X22275Y18435D01*
G01X22241Y18457D01*
G01X22203Y18469D01*
G37*

%LPD*%
G36*
G01X23100Y18465D02*
G01X23018Y18465D01*
G01X23018Y17990D01*
G01X23100Y17990D01*
G01X23100Y18465D01*
G37*

%LPD*%
G36*
G01X24626Y18630D02*
G01X24444Y18630D01*
G01X24404Y18627D01*
G01X24366Y18620D01*
G01X24330Y18609D01*
G01X24297Y18593D01*
G01X24266Y18572D01*
G01X24240Y18548D01*
G01X24217Y18520D01*
G01X24197Y18488D01*
G01X24182Y18452D01*
G01X24171Y18414D01*
G01X24165Y18374D01*
G01X24163Y18330D01*
G01X24163Y18291D01*
G01X24165Y18247D01*
G01X24171Y18205D01*
G01X24182Y18167D01*
G01X24197Y18132D01*
G01X24217Y18100D01*
G01X24240Y18071D01*
G01X24267Y18047D01*
G01X24297Y18027D01*
G01X24331Y18011D01*
G01X24368Y17999D01*
G01X24407Y17992D01*
G01X24448Y17990D01*
G01X24626Y17990D01*
G01X24626Y18630D01*
G37*

%LPC*%
G36*
G01X24540Y18559D02*
G01X24443Y18559D01*
G01X24398Y18556D01*
G01X24359Y18544D01*
G01X24326Y18525D01*
G01X24297Y18499D01*
G01X24275Y18466D01*
G01X24259Y18426D01*
G01X24249Y18381D01*
G01X24246Y18330D01*
G01X24246Y18292D01*
G01X24249Y18239D01*
G01X24259Y18193D01*
G01X24277Y18153D01*
G01X24301Y18120D01*
G01X24330Y18093D01*
G01X24365Y18074D01*
G01X24406Y18062D01*
G01X24452Y18059D01*
G01X24540Y18059D01*
G01X24540Y18559D01*
G37*

%LPD*%
G36*
G01X14775Y18466D02*
G01X14721Y18474D01*
G01X14677Y18470D01*
G01X14638Y18458D01*
G01X14605Y18439D01*
G01X14577Y18413D01*
G01X14554Y18379D01*
G01X14538Y18338D01*
G01X14528Y18291D01*
G01X14525Y18238D01*
G01X14525Y18203D01*
G01X14847Y18203D01*
G01X14836Y18140D01*
G01X14806Y18091D01*
G01X14761Y18058D01*
G01X14706Y18048D01*
G01X14685Y18049D01*
G01X14666Y18052D01*
G01X14648Y18057D01*
G01X14632Y18065D01*
G01X14618Y18074D01*
G01X14605Y18085D01*
G01X14592Y18098D01*
G01X14581Y18111D01*
G01X14531Y18073D01*
G01X14564Y18032D01*
G01X14606Y18003D01*
G01X14654Y17986D01*
G01X14710Y17980D01*
G01X14756Y17984D01*
G01X14798Y17997D01*
G01X14835Y18017D01*
G01X14868Y18045D01*
G01X14894Y18079D01*
G01X14913Y18119D01*
G01X14925Y18164D01*
G01X14928Y18215D01*
G01X14928Y18230D01*
G01X14922Y18296D01*
G01X14902Y18355D01*
G01X14869Y18405D01*
G01X14826Y18443D01*
G01X14775Y18466D01*
G37*

%LPC*%
G36*
G01X14744Y18404D02*
G01X14721Y18407D01*
G01X14696Y18404D01*
G01X14675Y18398D01*
G01X14656Y18387D01*
G01X14639Y18373D01*
G01X14616Y18332D01*
G01X14606Y18277D01*
G01X14606Y18271D01*
G01X14844Y18271D01*
G01X14830Y18328D01*
G01X14803Y18372D01*
G01X14785Y18387D01*
G01X14766Y18398D01*
G01X14744Y18404D01*
G37*

%LPD*%
G36*
G01X15113Y18465D02*
G01X15031Y18465D01*
G01X15031Y17990D01*
G01X15109Y17990D01*
G01X15110Y18036D01*
G01X15137Y18012D01*
G01X15169Y17995D01*
G01X15206Y17984D01*
G01X15250Y17980D01*
G01X15317Y17992D01*
G01X15365Y18025D01*
G01X15396Y18080D01*
G01X15406Y18155D01*
G01X15406Y18465D01*
G01X15325Y18465D01*
G01X15325Y18157D01*
G01X15319Y18110D01*
G01X15302Y18077D01*
G01X15275Y18056D01*
G01X15236Y18050D01*
G01X15194Y18054D01*
G01X15159Y18067D01*
G01X15132Y18089D01*
G01X15113Y18120D01*
G01X15113Y18465D01*
G37*

%LPD*%
G36*
G01X16245Y18472D02*
G01X16219Y18474D01*
G01X16147Y18463D01*
G01X16092Y18432D01*
G01X16056Y18384D01*
G01X16043Y18320D01*
G01X16043Y18101D01*
G01X16039Y18042D01*
G01X16027Y17997D01*
G01X16027Y17990D01*
G01X16111Y17990D01*
G01X16115Y17998D01*
G01X16118Y18009D01*
G01X16120Y18023D01*
G01X16122Y18040D01*
G01X16152Y18014D01*
G01X16185Y17995D01*
G01X16220Y17984D01*
G01X16259Y17980D01*
G01X16322Y17991D01*
G01X16373Y18021D01*
G01X16407Y18066D01*
G01X16418Y18122D01*
G01X16404Y18187D01*
G01X16361Y18236D01*
G01X16331Y18255D01*
G01X16294Y18267D01*
G01X16252Y18275D01*
G01X16203Y18278D01*
G01X16125Y18278D01*
G01X16125Y18316D01*
G01X16126Y18336D01*
G01X16131Y18353D01*
G01X16139Y18370D01*
G01X16150Y18384D01*
G01X16164Y18395D01*
G01X16181Y18402D01*
G01X16201Y18407D01*
G01X16225Y18409D01*
G01X16246Y18407D01*
G01X16265Y18403D01*
G01X16282Y18396D01*
G01X16297Y18386D01*
G01X16311Y18375D01*
G01X16320Y18362D01*
G01X16326Y18349D01*
G01X16327Y18334D01*
G01X16409Y18334D01*
G01X16407Y18351D01*
G01X16402Y18368D01*
G01X16394Y18385D01*
G01X16384Y18402D01*
G01X16370Y18418D01*
G01X16354Y18432D01*
G01X16335Y18444D01*
G01X16314Y18455D01*
G01X16293Y18463D01*
G01X16269Y18469D01*
G01X16245Y18472D01*
G37*

%LPC*%
G36*
G01X16188Y18221D02*
G01X16125Y18221D01*
G01X16125Y18123D01*
G01X16133Y18108D01*
G01X16144Y18094D01*
G01X16158Y18082D01*
G01X16173Y18072D01*
G01X16191Y18063D01*
G01X16209Y18057D01*
G01X16227Y18053D01*
G01X16247Y18052D01*
G01X16265Y18053D01*
G01X16283Y18057D01*
G01X16298Y18063D01*
G01X16311Y18073D01*
G01X16323Y18084D01*
G01X16331Y18099D01*
G01X16336Y18115D01*
G01X16338Y18132D01*
G01X16328Y18171D01*
G01X16300Y18199D01*
G01X16253Y18215D01*
G01X16188Y18221D01*
G37*

%LPD*%
G36*
G01X17535Y18466D02*
G01X17481Y18474D01*
G01X17437Y18470D01*
G01X17398Y18458D01*
G01X17365Y18439D01*
G01X17336Y18413D01*
G01X17314Y18379D01*
G01X17297Y18338D01*
G01X17288Y18291D01*
G01X17285Y18238D01*
G01X17285Y18203D01*
G01X17606Y18203D01*
G01X17595Y18140D01*
G01X17565Y18091D01*
G01X17521Y18058D01*
G01X17465Y18048D01*
G01X17445Y18049D01*
G01X17426Y18052D01*
G01X17408Y18057D01*
G01X17393Y18065D01*
G01X17378Y18074D01*
G01X17364Y18085D01*
G01X17340Y18111D01*
G01X17290Y18073D01*
G01X17324Y18032D01*
G01X17365Y18003D01*
G01X17414Y17986D01*
G01X17471Y17980D01*
G01X17516Y17984D01*
G01X17558Y17997D01*
G01X17595Y18017D01*
G01X17627Y18045D01*
G01X17654Y18079D01*
G01X17673Y18119D01*
G01X17685Y18164D01*
G01X17689Y18215D01*
G01X17689Y18230D01*
G01X17681Y18296D01*
G01X17660Y18355D01*
G01X17628Y18405D01*
G01X17585Y18443D01*
G01X17535Y18466D01*
G37*

%LPC*%
G36*
G01X17504Y18404D02*
G01X17481Y18407D01*
G01X17456Y18404D01*
G01X17435Y18398D01*
G01X17416Y18387D01*
G01X17400Y18373D01*
G01X17376Y18332D01*
G01X17365Y18277D01*
G01X17365Y18271D01*
G01X17605Y18271D01*
G01X17590Y18328D01*
G01X17563Y18372D01*
G01X17545Y18387D01*
G01X17526Y18398D01*
G01X17504Y18404D01*
G37*

%LPD*%
G36*
G01X18612Y18466D02*
G01X18557Y18474D01*
G01X18514Y18470D01*
G01X18475Y18458D01*
G01X18442Y18439D01*
G01X18414Y18413D01*
G01X18391Y18379D01*
G01X18375Y18338D01*
G01X18366Y18291D01*
G01X18363Y18238D01*
G01X18363Y18203D01*
G01X18685Y18203D01*
G01X18673Y18140D01*
G01X18643Y18091D01*
G01X18598Y18058D01*
G01X18543Y18048D01*
G01X18523Y18049D01*
G01X18504Y18052D01*
G01X18486Y18057D01*
G01X18471Y18065D01*
G01X18456Y18074D01*
G01X18442Y18085D01*
G01X18418Y18111D01*
G01X18368Y18073D01*
G01X18402Y18032D01*
G01X18443Y18003D01*
G01X18492Y17986D01*
G01X18547Y17980D01*
G01X18594Y17984D01*
G01X18635Y17997D01*
G01X18672Y18017D01*
G01X18705Y18045D01*
G01X18731Y18079D01*
G01X18750Y18119D01*
G01X18762Y18164D01*
G01X18765Y18215D01*
G01X18765Y18230D01*
G01X18759Y18296D01*
G01X18739Y18355D01*
G01X18706Y18405D01*
G01X18663Y18443D01*
G01X18612Y18466D01*
G37*

%LPC*%
G36*
G01X18581Y18404D02*
G01X18557Y18407D01*
G01X18533Y18404D01*
G01X18512Y18398D01*
G01X18493Y18387D01*
G01X18477Y18373D01*
G01X18453Y18332D01*
G01X18443Y18277D01*
G01X18443Y18271D01*
G01X18681Y18271D01*
G01X18667Y18328D01*
G01X18640Y18372D01*
G01X18622Y18387D01*
G01X18603Y18398D01*
G01X18581Y18404D01*
G37*

%LPD*%
G36*
G01X20680Y18665D02*
G01X20598Y18665D01*
G01X20598Y18413D01*
G01X20572Y18439D01*
G01X20540Y18458D01*
G01X20504Y18470D01*
G01X20463Y18474D01*
G01X20422Y18470D01*
G01X20385Y18457D01*
G01X20354Y18437D01*
G01X20327Y18409D01*
G01X20305Y18373D01*
G01X20290Y18331D01*
G01X20281Y18283D01*
G01X20277Y18230D01*
G01X20277Y18222D01*
G01X20281Y18170D01*
G01X20290Y18123D01*
G01X20306Y18082D01*
G01X20327Y18047D01*
G01X20355Y18018D01*
G01X20386Y17997D01*
G01X20422Y17985D01*
G01X20461Y17980D01*
G01X20504Y17984D01*
G01X20542Y17997D01*
G01X20574Y18017D01*
G01X20602Y18045D01*
G01X20606Y17990D01*
G01X20680Y17990D01*
G01X20680Y18665D01*
G37*

%LPC*%
G36*
G01X20520Y18400D02*
G01X20482Y18405D01*
G01X20430Y18393D01*
G01X20390Y18359D01*
G01X20367Y18305D01*
G01X20359Y18232D01*
G01X20367Y18152D01*
G01X20392Y18095D01*
G01X20430Y18061D01*
G01X20482Y18050D01*
G01X20519Y18054D01*
G01X20551Y18068D01*
G01X20577Y18092D01*
G01X20598Y18125D01*
G01X20598Y18330D01*
G01X20578Y18363D01*
G01X20552Y18386D01*
G01X20520Y18400D01*
G37*

%LPD*%
G36*
G01X21110Y18665D02*
G01X21028Y18665D01*
G01X21028Y17990D01*
G01X21103Y17990D01*
G01X21107Y18041D01*
G01X21134Y18014D01*
G01X21166Y17996D01*
G01X21202Y17984D01*
G01X21243Y17980D01*
G01X21283Y17985D01*
G01X21318Y17998D01*
G01X21350Y18019D01*
G01X21377Y18049D01*
G01X21400Y18085D01*
G01X21417Y18127D01*
G01X21426Y18174D01*
G01X21430Y18226D01*
G01X21430Y18232D01*
G01X21426Y18283D01*
G01X21417Y18330D01*
G01X21401Y18371D01*
G01X21378Y18407D01*
G01X21351Y18436D01*
G01X21318Y18457D01*
G01X21282Y18469D01*
G01X21243Y18474D01*
G01X21203Y18470D01*
G01X21168Y18459D01*
G01X21137Y18442D01*
G01X21110Y18417D01*
G01X21110Y18665D01*
G37*

%LPC*%
G36*
G01X21275Y18393D02*
G01X21222Y18405D01*
G01X21187Y18400D01*
G01X21156Y18388D01*
G01X21131Y18367D01*
G01X21110Y18338D01*
G01X21110Y18120D01*
G01X21131Y18089D01*
G01X21156Y18067D01*
G01X21187Y18054D01*
G01X21222Y18050D01*
G01X21275Y18061D01*
G01X21315Y18096D01*
G01X21340Y18150D01*
G01X21348Y18222D01*
G01X21340Y18301D01*
G01X21315Y18359D01*
G01X21275Y18393D01*
G37*

%LPD*%
G36*
G01X21755Y18466D02*
G01X21700Y18474D01*
G01X21656Y18470D01*
G01X21618Y18458D01*
G01X21584Y18439D01*
G01X21556Y18413D01*
G01X21533Y18379D01*
G01X21517Y18338D01*
G01X21508Y18291D01*
G01X21505Y18238D01*
G01X21505Y18203D01*
G01X21827Y18203D01*
G01X21815Y18140D01*
G01X21785Y18091D01*
G01X21740Y18058D01*
G01X21685Y18048D01*
G01X21665Y18049D01*
G01X21646Y18052D01*
G01X21628Y18057D01*
G01X21613Y18065D01*
G01X21598Y18074D01*
G01X21585Y18085D01*
G01X21572Y18098D01*
G01X21560Y18111D01*
G01X21510Y18073D01*
G01X21544Y18032D01*
G01X21585Y18003D01*
G01X21634Y17986D01*
G01X21689Y17980D01*
G01X21736Y17984D01*
G01X21777Y17997D01*
G01X21815Y18017D01*
G01X21847Y18045D01*
G01X21874Y18079D01*
G01X21893Y18119D01*
G01X21904Y18164D01*
G01X21907Y18215D01*
G01X21907Y18230D01*
G01X21901Y18296D01*
G01X21881Y18355D01*
G01X21848Y18405D01*
G01X21806Y18443D01*
G01X21755Y18466D01*
G37*

%LPC*%
G36*
G01X21723Y18404D02*
G01X21700Y18407D01*
G01X21675Y18404D01*
G01X21654Y18398D01*
G01X21635Y18387D01*
G01X21618Y18373D01*
G01X21596Y18332D01*
G01X21585Y18277D01*
G01X21585Y18271D01*
G01X21823Y18271D01*
G01X21809Y18328D01*
G01X21782Y18372D01*
G01X21765Y18387D01*
G01X21745Y18398D01*
G01X21723Y18404D01*
G37*

%LPD*%
G36*
G01X23469Y18463D02*
G01X23398Y18474D01*
G01X23325Y18463D01*
G01X23268Y18432D01*
G01X23230Y18385D01*
G01X23218Y18326D01*
G01X23298Y18326D01*
G01X23300Y18342D01*
G01X23306Y18356D01*
G01X23315Y18370D01*
G01X23327Y18382D01*
G01X23343Y18393D01*
G01X23359Y18401D01*
G01X23378Y18405D01*
G01X23398Y18407D01*
G01X23420Y18405D01*
G01X23439Y18402D01*
G01X23455Y18396D01*
G01X23468Y18388D01*
G01X23480Y18377D01*
G01X23487Y18366D01*
G01X23492Y18352D01*
G01X23493Y18338D01*
G01X23492Y18324D01*
G01X23488Y18311D01*
G01X23480Y18301D01*
G01X23469Y18293D01*
G01X23456Y18285D01*
G01X23437Y18278D01*
G01X23414Y18271D01*
G01X23385Y18265D01*
G01X23331Y18249D01*
G01X23288Y18232D01*
G01X23270Y18222D01*
G01X23255Y18211D01*
G01X23242Y18199D01*
G01X23231Y18186D01*
G01X23223Y18172D01*
G01X23217Y18157D01*
G01X23214Y18140D01*
G01X23213Y18122D01*
G01X23225Y18064D01*
G01X23264Y18020D01*
G01X23322Y17990D01*
G01X23397Y17980D01*
G01X23450Y17986D01*
G01X23497Y18001D01*
G01X23518Y18012D01*
G01X23536Y18025D01*
G01X23552Y18041D01*
G01X23565Y18057D01*
G01X23577Y18076D01*
G01X23584Y18095D01*
G01X23589Y18115D01*
G01X23590Y18136D01*
G01X23510Y18136D01*
G01X23507Y18116D01*
G01X23500Y18099D01*
G01X23490Y18084D01*
G01X23477Y18072D01*
G01X23460Y18061D01*
G01X23442Y18053D01*
G01X23420Y18049D01*
G01X23397Y18048D01*
G01X23374Y18049D01*
G01X23355Y18052D01*
G01X23337Y18058D01*
G01X23322Y18066D01*
G01X23310Y18076D01*
G01X23302Y18088D01*
G01X23296Y18101D01*
G01X23294Y18116D01*
G01X23296Y18131D01*
G01X23301Y18145D01*
G01X23308Y18157D01*
G01X23318Y18167D01*
G01X23333Y18176D01*
G01X23353Y18184D01*
G01X23377Y18192D01*
G01X23406Y18199D01*
G01X23461Y18213D01*
G01X23503Y18230D01*
G01X23520Y18239D01*
G01X23535Y18250D01*
G01X23547Y18261D01*
G01X23557Y18274D01*
G01X23565Y18287D01*
G01X23570Y18302D01*
G01X23573Y18318D01*
G01X23575Y18334D01*
G01X23562Y18388D01*
G01X23526Y18434D01*
G01X23469Y18463D01*
G37*

%LPD*%
G36*
G01X23915Y18466D02*
G01X23860Y18474D01*
G01X23817Y18470D01*
G01X23778Y18458D01*
G01X23745Y18439D01*
G01X23717Y18413D01*
G01X23694Y18379D01*
G01X23678Y18338D01*
G01X23669Y18291D01*
G01X23665Y18238D01*
G01X23665Y18203D01*
G01X23988Y18203D01*
G01X23976Y18140D01*
G01X23947Y18091D01*
G01X23902Y18058D01*
G01X23847Y18048D01*
G01X23826Y18049D01*
G01X23807Y18052D01*
G01X23789Y18057D01*
G01X23773Y18065D01*
G01X23759Y18074D01*
G01X23745Y18085D01*
G01X23732Y18098D01*
G01X23721Y18111D01*
G01X23672Y18073D01*
G01X23705Y18032D01*
G01X23746Y18003D01*
G01X23794Y17986D01*
G01X23851Y17980D01*
G01X23897Y17984D01*
G01X23938Y17997D01*
G01X23975Y18017D01*
G01X24007Y18045D01*
G01X24034Y18079D01*
G01X24053Y18119D01*
G01X24065Y18164D01*
G01X24068Y18215D01*
G01X24068Y18230D01*
G01X24062Y18296D01*
G01X24042Y18355D01*
G01X24009Y18405D01*
G01X23965Y18443D01*
G01X23915Y18466D01*
G37*

%LPC*%
G36*
G01X23884Y18404D02*
G01X23860Y18407D01*
G01X23836Y18404D01*
G01X23815Y18398D01*
G01X23796Y18387D01*
G01X23780Y18373D01*
G01X23756Y18332D01*
G01X23747Y18277D01*
G01X23747Y18271D01*
G01X23985Y18271D01*
G01X23970Y18328D01*
G01X23943Y18372D01*
G01X23926Y18387D01*
G01X23906Y18398D01*
G01X23884Y18404D01*
G37*

%LPD*%
G36*
G01X15787Y18470D02*
G01X15746Y18474D01*
G01X15706Y18470D01*
G01X15670Y18459D01*
G01X15639Y18442D01*
G01X15613Y18418D01*
G01X15609Y18465D01*
G01X15535Y18465D01*
G01X15535Y17807D01*
G01X15615Y17807D01*
G01X15615Y18034D01*
G01X15642Y18010D01*
G01X15673Y17994D01*
G01X15707Y17984D01*
G01X15747Y17980D01*
G01X15787Y17985D01*
G01X15824Y17997D01*
G01X15856Y18018D01*
G01X15884Y18048D01*
G01X15906Y18084D01*
G01X15922Y18126D01*
G01X15932Y18173D01*
G01X15935Y18226D01*
G01X15935Y18232D01*
G01X15932Y18284D01*
G01X15922Y18332D01*
G01X15906Y18373D01*
G01X15884Y18409D01*
G01X15856Y18437D01*
G01X15823Y18457D01*
G01X15787Y18470D01*
G37*

%LPC*%
G36*
G01X15778Y18395D02*
G01X15726Y18407D01*
G01X15663Y18391D01*
G01X15615Y18345D01*
G01X15615Y18111D01*
G01X15662Y18063D01*
G01X15727Y18048D01*
G01X15779Y18059D01*
G01X15819Y18094D01*
G01X15845Y18149D01*
G01X15853Y18222D01*
G01X15851Y18265D01*
G01X15845Y18302D01*
G01X15834Y18334D01*
G01X15819Y18361D01*
G01X15778Y18395D01*
G37*

%LPD*%
G36*
G01X22761Y18470D02*
G01X22721Y18474D01*
G01X22679Y18470D01*
G01X22643Y18458D01*
G01X22611Y18439D01*
G01X22585Y18413D01*
G01X22581Y18465D01*
G01X22506Y18465D01*
G01X22506Y18001D01*
G01X22510Y17957D01*
G01X22520Y17918D01*
G01X22537Y17884D01*
G01X22560Y17855D01*
G01X22590Y17832D01*
G01X22625Y17816D01*
G01X22664Y17806D01*
G01X22707Y17803D01*
G01X22759Y17808D01*
G01X22809Y17825D01*
G01X22831Y17836D01*
G01X22852Y17851D01*
G01X22869Y17867D01*
G01X22884Y17884D01*
G01X22842Y17934D01*
G01X22814Y17905D01*
G01X22784Y17885D01*
G01X22750Y17873D01*
G01X22714Y17869D01*
G01X22661Y17877D01*
G01X22622Y17903D01*
G01X22596Y17943D01*
G01X22588Y17997D01*
G01X22588Y18036D01*
G01X22614Y18012D01*
G01X22646Y17995D01*
G01X22681Y17984D01*
G01X22722Y17980D01*
G01X22761Y17985D01*
G01X22797Y17997D01*
G01X22828Y18018D01*
G01X22856Y18048D01*
G01X22879Y18084D01*
G01X22895Y18128D01*
G01X22904Y18177D01*
G01X22907Y18232D01*
G01X22904Y18284D01*
G01X22895Y18331D01*
G01X22879Y18373D01*
G01X22856Y18409D01*
G01X22829Y18437D01*
G01X22797Y18457D01*
G01X22761Y18470D01*
G37*

%LPC*%
G36*
G01X22753Y18393D02*
G01X22700Y18405D01*
G01X22665Y18400D01*
G01X22635Y18388D01*
G01X22609Y18366D01*
G01X22588Y18336D01*
G01X22588Y18120D01*
G01X22608Y18089D01*
G01X22634Y18067D01*
G01X22664Y18054D01*
G01X22701Y18050D01*
G01X22754Y18061D01*
G01X22793Y18096D01*
G01X22818Y18150D01*
G01X22827Y18222D01*
G01X22818Y18301D01*
G01X22793Y18359D01*
G01X22753Y18393D01*
G37*

%LPD*%
G36*
G01X19914Y18465D02*
G01X19827Y18465D01*
G01X20018Y17917D01*
G01X20043Y17865D01*
G01X20075Y17827D01*
G01X20113Y17805D01*
G01X20159Y17798D01*
G01X20175Y17799D01*
G01X20205Y17805D01*
G01X20205Y17871D01*
G01X20182Y17869D01*
G01X20163Y17870D01*
G01X20146Y17873D01*
G01X20131Y17878D01*
G01X20118Y17886D01*
G01X20106Y17896D01*
G01X20097Y17909D01*
G01X20088Y17926D01*
G01X20080Y17947D01*
G01X20061Y17995D01*
G01X20231Y18465D01*
G01X20143Y18465D01*
G01X20025Y18109D01*
G01X19914Y18465D01*
G37*

%LPD*%
G36*
G01X9885Y17638D02*
G01X9862Y17638D01*
G01X9852Y17635D01*
G01X9844Y17631D01*
G01X9838Y17625D01*
G01X9832Y17617D01*
G01X9828Y17609D01*
G01X9826Y17601D01*
G01X9826Y17582D01*
G01X9828Y17573D01*
G01X9832Y17566D01*
G01X9844Y17552D01*
G01X9852Y17548D01*
G01X9862Y17545D01*
G01X9885Y17545D01*
G01X9894Y17548D01*
G01X9903Y17552D01*
G01X9910Y17559D01*
G01X9915Y17566D01*
G01X9918Y17573D01*
G01X9921Y17582D01*
G01X9922Y17592D01*
G01X9921Y17601D01*
G01X9915Y17617D01*
G01X9910Y17625D01*
G01X9903Y17631D01*
G01X9894Y17635D01*
G01X9885Y17638D01*
G37*

%LPD*%
G36*
G01X13184Y17638D02*
G01X13162Y17638D01*
G01X13152Y17635D01*
G01X13144Y17631D01*
G01X13138Y17625D01*
G01X13132Y17617D01*
G01X13128Y17609D01*
G01X13125Y17601D01*
G01X13125Y17582D01*
G01X13128Y17573D01*
G01X13132Y17566D01*
G01X13144Y17552D01*
G01X13152Y17548D01*
G01X13162Y17545D01*
G01X13184Y17545D01*
G01X13194Y17548D01*
G01X13202Y17552D01*
G01X13209Y17559D01*
G01X13214Y17566D01*
G01X13218Y17573D01*
G01X13220Y17582D01*
G01X13221Y17592D01*
G01X13220Y17601D01*
G01X13218Y17609D01*
G01X13214Y17617D01*
G01X13209Y17625D01*
G01X13202Y17631D01*
G01X13194Y17635D01*
G01X13184Y17638D01*
G37*

%LPD*%
G36*
G01X23925Y17638D02*
G01X23902Y17638D01*
G01X23893Y17635D01*
G01X23884Y17631D01*
G01X23877Y17625D01*
G01X23872Y17617D01*
G01X23868Y17609D01*
G01X23865Y17601D01*
G01X23864Y17592D01*
G01X23865Y17582D01*
G01X23868Y17573D01*
G01X23872Y17566D01*
G01X23877Y17559D01*
G01X23884Y17552D01*
G01X23893Y17548D01*
G01X23902Y17545D01*
G01X23925Y17545D01*
G01X23935Y17548D01*
G01X23943Y17552D01*
G01X23950Y17559D01*
G01X23955Y17566D01*
G01X23959Y17573D01*
G01X23961Y17582D01*
G01X23961Y17601D01*
G01X23959Y17609D01*
G01X23955Y17617D01*
G01X23950Y17625D01*
G01X23943Y17631D01*
G01X23935Y17635D01*
G01X23925Y17638D01*
G37*

%LPD*%
G36*
G01X9914Y17465D02*
G01X9834Y17465D01*
G01X9834Y16990D01*
G01X9914Y16990D01*
G01X9914Y17465D01*
G37*

%LPD*%
G36*
G01X10098Y17458D02*
G01X10032Y17474D01*
G01X10012Y17472D01*
G01X10004Y17470D01*
G01X9997Y17468D01*
G01X9997Y17393D01*
G01X10006Y17394D01*
G01X10016Y17395D01*
G01X10026Y17395D01*
G01X10036Y17396D01*
G01X10073Y17391D01*
G01X10104Y17378D01*
G01X10128Y17357D01*
G01X10146Y17327D01*
G01X10146Y16990D01*
G01X10227Y16990D01*
G01X10227Y17465D01*
G01X10147Y17465D01*
G01X10147Y17411D01*
G01X10098Y17458D01*
G37*

%LPD*%
G36*
G01X11235Y17665D02*
G01X11155Y17665D01*
G01X11155Y17407D01*
G01X11126Y17436D01*
G01X11092Y17457D01*
G01X11055Y17469D01*
G01X11014Y17474D01*
G01X10967Y17469D01*
G01X10930Y17455D01*
G01X10900Y17431D01*
G01X10879Y17398D01*
G01X10866Y17355D01*
G01X10861Y17303D01*
G01X10861Y16990D01*
G01X10943Y16990D01*
G01X10943Y17305D01*
G01X10944Y17328D01*
G01X10949Y17349D01*
G01X10956Y17366D01*
G01X10967Y17380D01*
G01X10980Y17391D01*
G01X10996Y17399D01*
G01X11016Y17403D01*
G01X11039Y17405D01*
G01X11057Y17403D01*
G01X11075Y17399D01*
G01X11092Y17393D01*
G01X11107Y17384D01*
G01X11122Y17372D01*
G01X11134Y17359D01*
G01X11145Y17345D01*
G01X11155Y17328D01*
G01X11155Y16990D01*
G01X11235Y16990D01*
G01X11235Y17665D01*
G37*

%LPD*%
G36*
G01X13214Y17465D02*
G01X13134Y17465D01*
G01X13134Y16990D01*
G01X13214Y16990D01*
G01X13214Y17465D01*
G37*

%LPD*%
G36*
G01X13397Y17458D02*
G01X13332Y17474D01*
G01X13321Y17473D01*
G01X13311Y17472D01*
G01X13303Y17470D01*
G01X13297Y17468D01*
G01X13297Y17393D01*
G01X13315Y17395D01*
G01X13326Y17395D01*
G01X13336Y17396D01*
G01X13373Y17391D01*
G01X13403Y17378D01*
G01X13427Y17357D01*
G01X13444Y17327D01*
G01X13444Y16990D01*
G01X13526Y16990D01*
G01X13526Y17465D01*
G01X13447Y17465D01*
G01X13446Y17411D01*
G01X13397Y17458D01*
G37*

%LPD*%
G36*
G01X14022Y17665D02*
G01X13940Y17665D01*
G01X13940Y17407D01*
G01X13911Y17436D01*
G01X13878Y17457D01*
G01X13841Y17469D01*
G01X13800Y17474D01*
G01X13754Y17469D01*
G01X13716Y17455D01*
G01X13686Y17431D01*
G01X13665Y17398D01*
G01X13652Y17355D01*
G01X13647Y17303D01*
G01X13647Y16990D01*
G01X13728Y16990D01*
G01X13728Y17305D01*
G01X13730Y17328D01*
G01X13735Y17349D01*
G01X13742Y17366D01*
G01X13752Y17380D01*
G01X13766Y17391D01*
G01X13782Y17399D01*
G01X13802Y17403D01*
G01X13825Y17405D01*
G01X13843Y17403D01*
G01X13861Y17399D01*
G01X13878Y17393D01*
G01X13893Y17384D01*
G01X13908Y17372D01*
G01X13920Y17359D01*
G01X13931Y17345D01*
G01X13940Y17328D01*
G01X13940Y16990D01*
G01X14022Y16990D01*
G01X14022Y17665D01*
G37*

%LPD*%
G36*
G01X15547Y17630D02*
G01X15367Y17630D01*
G01X15326Y17627D01*
G01X15288Y17620D01*
G01X15252Y17609D01*
G01X15218Y17593D01*
G01X15188Y17572D01*
G01X15162Y17548D01*
G01X15139Y17520D01*
G01X15119Y17488D01*
G01X15104Y17452D01*
G01X15093Y17414D01*
G01X15087Y17374D01*
G01X15085Y17330D01*
G01X15085Y17291D01*
G01X15087Y17247D01*
G01X15093Y17205D01*
G01X15104Y17167D01*
G01X15119Y17132D01*
G01X15139Y17100D01*
G01X15162Y17071D01*
G01X15188Y17047D01*
G01X15218Y17027D01*
G01X15252Y17011D01*
G01X15289Y16999D01*
G01X15328Y16992D01*
G01X15369Y16990D01*
G01X15547Y16990D01*
G01X15547Y17630D01*
G37*

%LPC*%
G36*
G01X15463Y17559D02*
G01X15364Y17559D01*
G01X15320Y17556D01*
G01X15281Y17544D01*
G01X15247Y17525D01*
G01X15218Y17499D01*
G01X15196Y17466D01*
G01X15180Y17426D01*
G01X15171Y17381D01*
G01X15168Y17330D01*
G01X15168Y17292D01*
G01X15171Y17239D01*
G01X15181Y17193D01*
G01X15198Y17153D01*
G01X15222Y17120D01*
G01X15252Y17093D01*
G01X15287Y17074D01*
G01X15328Y17062D01*
G01X15373Y17059D01*
G01X15463Y17059D01*
G01X15463Y17559D01*
G37*

%LPD*%
G36*
G01X16099Y17469D02*
G01X16057Y17474D01*
G01X16011Y17469D01*
G01X15973Y17455D01*
G01X15944Y17431D01*
G01X15923Y17398D01*
G01X15910Y17355D01*
G01X15906Y17303D01*
G01X15906Y16990D01*
G01X15986Y16990D01*
G01X15986Y17305D01*
G01X15988Y17328D01*
G01X15992Y17349D01*
G01X16000Y17366D01*
G01X16010Y17380D01*
G01X16023Y17391D01*
G01X16039Y17399D01*
G01X16059Y17403D01*
G01X16081Y17405D01*
G01X16101Y17403D01*
G01X16119Y17399D01*
G01X16136Y17393D01*
G01X16152Y17384D01*
G01X16166Y17372D01*
G01X16178Y17359D01*
G01X16189Y17345D01*
G01X16197Y17328D01*
G01X16197Y16990D01*
G01X16280Y16990D01*
G01X16280Y17465D01*
G01X16202Y17465D01*
G01X16200Y17405D01*
G01X16170Y17435D01*
G01X16137Y17457D01*
G01X16099Y17469D01*
G37*

%LPD*%
G36*
G01X17264Y17665D02*
G01X17184Y17665D01*
G01X17184Y17407D01*
G01X17155Y17436D01*
G01X17121Y17457D01*
G01X17084Y17469D01*
G01X17043Y17474D01*
G01X16996Y17469D01*
G01X16959Y17455D01*
G01X16929Y17431D01*
G01X16908Y17398D01*
G01X16895Y17355D01*
G01X16890Y17303D01*
G01X16890Y16990D01*
G01X16972Y16990D01*
G01X16972Y17305D01*
G01X16973Y17328D01*
G01X16978Y17349D01*
G01X16985Y17366D01*
G01X16996Y17380D01*
G01X17009Y17391D01*
G01X17025Y17399D01*
G01X17045Y17403D01*
G01X17068Y17405D01*
G01X17086Y17403D01*
G01X17104Y17399D01*
G01X17121Y17393D01*
G01X17136Y17384D01*
G01X17151Y17372D01*
G01X17163Y17359D01*
G01X17174Y17345D01*
G01X17184Y17328D01*
G01X17184Y16990D01*
G01X17264Y16990D01*
G01X17264Y17665D01*
G37*

%LPD*%
G36*
G01X18679Y17663D02*
G01X18614Y17674D01*
G01X18599Y17673D01*
G01X18585Y17672D01*
G01X18571Y17670D01*
G01X18557Y17667D01*
G01X18561Y17601D01*
G01X18594Y17604D01*
G01X18606Y17605D01*
G01X18624Y17603D01*
G01X18641Y17599D01*
G01X18655Y17592D01*
G01X18667Y17582D01*
G01X18676Y17569D01*
G01X18683Y17553D01*
G01X18687Y17536D01*
G01X18689Y17516D01*
G01X18689Y17465D01*
G01X18586Y17465D01*
G01X18586Y17403D01*
G01X18689Y17403D01*
G01X18689Y16990D01*
G01X18769Y16990D01*
G01X18769Y17403D01*
G01X18844Y17403D01*
G01X18844Y17465D01*
G01X18769Y17465D01*
G01X18769Y17513D01*
G01X18759Y17582D01*
G01X18728Y17632D01*
G01X18679Y17663D01*
G37*

%LPD*%
G36*
G01X20261Y17665D02*
G01X20181Y17665D01*
G01X20181Y16990D01*
G01X20261Y16990D01*
G01X20261Y17665D01*
G37*

%LPD*%
G36*
G01X21242Y17665D02*
G01X21160Y17665D01*
G01X21160Y17407D01*
G01X21131Y17436D01*
G01X21098Y17457D01*
G01X21061Y17469D01*
G01X21019Y17474D01*
G01X20973Y17469D01*
G01X20935Y17455D01*
G01X20906Y17431D01*
G01X20885Y17398D01*
G01X20872Y17355D01*
G01X20868Y17303D01*
G01X20868Y16990D01*
G01X20948Y16990D01*
G01X20948Y17305D01*
G01X20950Y17328D01*
G01X20955Y17349D01*
G01X20962Y17366D01*
G01X20972Y17380D01*
G01X20986Y17391D01*
G01X21002Y17399D01*
G01X21022Y17403D01*
G01X21044Y17405D01*
G01X21064Y17403D01*
G01X21081Y17399D01*
G01X21098Y17393D01*
G01X21114Y17384D01*
G01X21128Y17372D01*
G01X21140Y17359D01*
G01X21151Y17345D01*
G01X21160Y17328D01*
G01X21160Y16990D01*
G01X21242Y16990D01*
G01X21242Y17665D01*
G37*

%LPD*%
G36*
G01X22436Y17665D02*
G01X22356Y17665D01*
G01X22356Y17407D01*
G01X22327Y17436D01*
G01X22293Y17457D01*
G01X22256Y17469D01*
G01X22214Y17474D01*
G01X22169Y17469D01*
G01X22131Y17455D01*
G01X22102Y17431D01*
G01X22080Y17398D01*
G01X22067Y17355D01*
G01X22063Y17303D01*
G01X22063Y16990D01*
G01X22144Y16990D01*
G01X22144Y17305D01*
G01X22146Y17328D01*
G01X22150Y17349D01*
G01X22157Y17366D01*
G01X22168Y17380D01*
G01X22181Y17391D01*
G01X22197Y17399D01*
G01X22217Y17403D01*
G01X22239Y17405D01*
G01X22259Y17403D01*
G01X22276Y17399D01*
G01X22293Y17393D01*
G01X22309Y17384D01*
G01X22323Y17372D01*
G01X22335Y17359D01*
G01X22346Y17345D01*
G01X22356Y17328D01*
G01X22356Y16990D01*
G01X22436Y16990D01*
G01X22436Y17665D01*
G37*

%LPD*%
G36*
G01X23450Y17665D02*
G01X23368Y17665D01*
G01X23368Y17407D01*
G01X23339Y17436D01*
G01X23306Y17457D01*
G01X23268Y17469D01*
G01X23227Y17474D01*
G01X23181Y17469D01*
G01X23143Y17455D01*
G01X23114Y17431D01*
G01X23093Y17398D01*
G01X23080Y17355D01*
G01X23076Y17303D01*
G01X23076Y16990D01*
G01X23156Y16990D01*
G01X23156Y17305D01*
G01X23158Y17328D01*
G01X23163Y17349D01*
G01X23170Y17366D01*
G01X23181Y17380D01*
G01X23193Y17391D01*
G01X23210Y17399D01*
G01X23229Y17403D01*
G01X23252Y17405D01*
G01X23271Y17403D01*
G01X23289Y17399D01*
G01X23306Y17393D01*
G01X23322Y17384D01*
G01X23336Y17372D01*
G01X23348Y17359D01*
G01X23359Y17345D01*
G01X23368Y17328D01*
G01X23368Y16990D01*
G01X23450Y16990D01*
G01X23450Y17665D01*
G37*

%LPD*%
G36*
G01X23955Y17465D02*
G01X23873Y17465D01*
G01X23873Y16990D01*
G01X23955Y16990D01*
G01X23955Y17465D01*
G37*

%LPD*%
G36*
G01X24126Y17465D02*
G01X24044Y17465D01*
G01X24182Y16990D01*
G01X24248Y16990D01*
G01X24364Y17350D01*
G01X24477Y16990D01*
G01X24543Y16990D01*
G01X24681Y17465D01*
G01X24600Y17465D01*
G01X24506Y17109D01*
G01X24396Y17465D01*
G01X24330Y17465D01*
G01X24217Y17102D01*
G01X24126Y17465D01*
G37*

%LPD*%
G36*
G01X9602Y17463D02*
G01X9531Y17474D01*
G01X9458Y17463D01*
G01X9401Y17432D01*
G01X9362Y17385D01*
G01X9350Y17326D01*
G01X9431Y17326D01*
G01X9433Y17342D01*
G01X9439Y17356D01*
G01X9447Y17370D01*
G01X9460Y17382D01*
G01X9475Y17393D01*
G01X9492Y17401D01*
G01X9511Y17405D01*
G01X9531Y17407D01*
G01X9552Y17405D01*
G01X9571Y17402D01*
G01X9587Y17396D01*
G01X9601Y17388D01*
G01X9611Y17377D01*
G01X9619Y17366D01*
G01X9624Y17352D01*
G01X9626Y17338D01*
G01X9624Y17324D01*
G01X9620Y17311D01*
G01X9613Y17301D01*
G01X9602Y17293D01*
G01X9589Y17285D01*
G01X9570Y17278D01*
G01X9547Y17271D01*
G01X9518Y17265D01*
G01X9463Y17249D01*
G01X9419Y17232D01*
G01X9402Y17222D01*
G01X9386Y17211D01*
G01X9374Y17199D01*
G01X9364Y17186D01*
G01X9356Y17172D01*
G01X9350Y17157D01*
G01X9347Y17140D01*
G01X9346Y17122D01*
G01X9358Y17064D01*
G01X9397Y17020D01*
G01X9455Y16990D01*
G01X9528Y16980D01*
G01X9582Y16986D01*
G01X9630Y17001D01*
G01X9650Y17012D01*
G01X9669Y17025D01*
G01X9685Y17041D01*
G01X9698Y17057D01*
G01X9710Y17076D01*
G01X9717Y17095D01*
G01X9722Y17115D01*
G01X9723Y17136D01*
G01X9643Y17136D01*
G01X9639Y17116D01*
G01X9633Y17099D01*
G01X9623Y17084D01*
G01X9610Y17072D01*
G01X9593Y17061D01*
G01X9574Y17053D01*
G01X9552Y17049D01*
G01X9528Y17048D01*
G01X9507Y17049D01*
G01X9487Y17052D01*
G01X9470Y17058D01*
G01X9455Y17066D01*
G01X9442Y17076D01*
G01X9434Y17088D01*
G01X9428Y17101D01*
G01X9427Y17116D01*
G01X9428Y17131D01*
G01X9433Y17145D01*
G01X9440Y17157D01*
G01X9452Y17167D01*
G01X9466Y17176D01*
G01X9486Y17184D01*
G01X9510Y17192D01*
G01X9539Y17199D01*
G01X9593Y17213D01*
G01X9636Y17230D01*
G01X9653Y17239D01*
G01X9668Y17250D01*
G01X9680Y17261D01*
G01X9689Y17274D01*
G01X9697Y17287D01*
G01X9703Y17302D01*
G01X9706Y17318D01*
G01X9707Y17334D01*
G01X9695Y17388D01*
G01X9657Y17434D01*
G01X9602Y17463D01*
G37*

%LPD*%
G36*
G01X10605Y17466D02*
G01X10546Y17474D01*
G01X10499Y17469D01*
G01X10458Y17457D01*
G01X10421Y17436D01*
G01X10389Y17407D01*
G01X10362Y17370D01*
G01X10343Y17328D01*
G01X10332Y17281D01*
G01X10328Y17228D01*
G01X10328Y17222D01*
G01X10335Y17156D01*
G01X10356Y17098D01*
G01X10388Y17049D01*
G01X10431Y17011D01*
G01X10484Y16988D01*
G01X10544Y16980D01*
G01X10591Y16985D01*
G01X10632Y16997D01*
G01X10669Y17018D01*
G01X10702Y17048D01*
G01X10728Y17084D01*
G01X10747Y17126D01*
G01X10758Y17173D01*
G01X10761Y17226D01*
G01X10761Y17232D01*
G01X10755Y17298D01*
G01X10734Y17357D01*
G01X10701Y17407D01*
G01X10657Y17444D01*
G01X10605Y17466D01*
G37*

%LPC*%
G36*
G01X10600Y17395D02*
G01X10546Y17407D01*
G01X10490Y17395D01*
G01X10447Y17359D01*
G01X10419Y17302D01*
G01X10410Y17232D01*
G01X10419Y17154D01*
G01X10447Y17096D01*
G01X10489Y17059D01*
G01X10544Y17048D01*
G01X10600Y17059D01*
G01X10643Y17095D01*
G01X10670Y17150D01*
G01X10680Y17222D01*
G01X10677Y17264D01*
G01X10670Y17301D01*
G01X10659Y17333D01*
G01X10643Y17359D01*
G01X10600Y17395D01*
G37*

%LPD*%
G36*
G01X12119Y17466D02*
G01X12060Y17474D01*
G01X12013Y17469D01*
G01X11972Y17457D01*
G01X11935Y17436D01*
G01X11902Y17407D01*
G01X11876Y17370D01*
G01X11857Y17328D01*
G01X11846Y17281D01*
G01X11843Y17228D01*
G01X11843Y17222D01*
G01X11849Y17156D01*
G01X11869Y17098D01*
G01X11902Y17049D01*
G01X11946Y17011D01*
G01X11998Y16988D01*
G01X12059Y16980D01*
G01X12105Y16985D01*
G01X12146Y16997D01*
G01X12183Y17018D01*
G01X12215Y17048D01*
G01X12242Y17084D01*
G01X12260Y17126D01*
G01X12272Y17173D01*
G01X12276Y17226D01*
G01X12276Y17232D01*
G01X12268Y17298D01*
G01X12247Y17357D01*
G01X12215Y17407D01*
G01X12172Y17444D01*
G01X12119Y17466D01*
G37*

%LPC*%
G36*
G01X12114Y17395D02*
G01X12060Y17407D01*
G01X12004Y17395D01*
G01X11960Y17359D01*
G01X11933Y17302D01*
G01X11923Y17232D01*
G01X11933Y17154D01*
G01X11960Y17096D01*
G01X12003Y17059D01*
G01X12059Y17048D01*
G01X12114Y17059D01*
G01X12156Y17095D01*
G01X12184Y17150D01*
G01X12193Y17222D01*
G01X12191Y17264D01*
G01X12184Y17301D01*
G01X12173Y17333D01*
G01X12156Y17359D01*
G01X12114Y17395D01*
G37*

%LPD*%
G36*
G01X12510Y17580D02*
G01X12428Y17580D01*
G01X12428Y17465D01*
G01X12339Y17465D01*
G01X12339Y17403D01*
G01X12428Y17403D01*
G01X12428Y17094D01*
G01X12426Y17082D01*
G01X12422Y17073D01*
G01X12417Y17065D01*
G01X12410Y17058D01*
G01X12401Y17054D01*
G01X12389Y17051D01*
G01X12369Y17051D01*
G01X12360Y17052D01*
G01X12349Y17053D01*
G01X12338Y17055D01*
G01X12338Y16990D01*
G01X12353Y16986D01*
G01X12369Y16983D01*
G01X12385Y16981D01*
G01X12401Y16980D01*
G01X12426Y16982D01*
G01X12448Y16989D01*
G01X12467Y16999D01*
G01X12482Y17013D01*
G01X12503Y17053D01*
G01X12510Y17107D01*
G01X12510Y17403D01*
G01X12597Y17403D01*
G01X12597Y17465D01*
G01X12510Y17465D01*
G01X12510Y17580D01*
G37*

%LPD*%
G36*
G01X12901Y17463D02*
G01X12831Y17474D01*
G01X12757Y17463D01*
G01X12700Y17432D01*
G01X12662Y17385D01*
G01X12650Y17326D01*
G01X12731Y17326D01*
G01X12732Y17342D01*
G01X12738Y17356D01*
G01X12747Y17370D01*
G01X12760Y17382D01*
G01X12775Y17393D01*
G01X12791Y17401D01*
G01X12810Y17405D01*
G01X12831Y17407D01*
G01X12852Y17405D01*
G01X12871Y17402D01*
G01X12887Y17396D01*
G01X12901Y17388D01*
G01X12911Y17377D01*
G01X12919Y17366D01*
G01X12924Y17352D01*
G01X12926Y17338D01*
G01X12924Y17324D01*
G01X12919Y17311D01*
G01X12912Y17301D01*
G01X12902Y17293D01*
G01X12888Y17285D01*
G01X12869Y17278D01*
G01X12846Y17271D01*
G01X12818Y17265D01*
G01X12763Y17249D01*
G01X12719Y17232D01*
G01X12702Y17222D01*
G01X12686Y17211D01*
G01X12674Y17199D01*
G01X12664Y17186D01*
G01X12655Y17172D01*
G01X12649Y17157D01*
G01X12646Y17140D01*
G01X12644Y17122D01*
G01X12657Y17064D01*
G01X12696Y17020D01*
G01X12754Y16990D01*
G01X12828Y16980D01*
G01X12882Y16986D01*
G01X12930Y17001D01*
G01X12950Y17012D01*
G01X12968Y17025D01*
G01X12984Y17041D01*
G01X12997Y17057D01*
G01X13009Y17076D01*
G01X13016Y17095D01*
G01X13021Y17115D01*
G01X13022Y17136D01*
G01X12942Y17136D01*
G01X12939Y17116D01*
G01X12932Y17099D01*
G01X12922Y17084D01*
G01X12909Y17072D01*
G01X12892Y17061D01*
G01X12873Y17053D01*
G01X12852Y17049D01*
G01X12828Y17048D01*
G01X12806Y17049D01*
G01X12786Y17052D01*
G01X12769Y17058D01*
G01X12755Y17066D01*
G01X12742Y17076D01*
G01X12734Y17088D01*
G01X12728Y17101D01*
G01X12727Y17116D01*
G01X12728Y17131D01*
G01X12732Y17145D01*
G01X12740Y17157D01*
G01X12751Y17167D01*
G01X12765Y17176D01*
G01X12785Y17184D01*
G01X12809Y17192D01*
G01X12838Y17199D01*
G01X12893Y17213D01*
G01X12935Y17230D01*
G01X12952Y17239D01*
G01X12967Y17250D01*
G01X12979Y17261D01*
G01X12989Y17274D01*
G01X12997Y17287D01*
G01X13002Y17302D01*
G01X13006Y17318D01*
G01X13006Y17334D01*
G01X12994Y17388D01*
G01X12957Y17434D01*
G01X12901Y17463D01*
G37*

%LPD*%
G36*
G01X14363Y17466D02*
G01X14302Y17474D01*
G01X14264Y17471D01*
G01X14229Y17461D01*
G01X14198Y17447D01*
G01X14169Y17426D01*
G01X14129Y17371D01*
G01X14114Y17302D01*
G01X14189Y17302D01*
G01X14193Y17324D01*
G01X14200Y17344D01*
G01X14211Y17361D01*
G01X14225Y17378D01*
G01X14241Y17390D01*
G01X14260Y17399D01*
G01X14280Y17405D01*
G01X14302Y17407D01*
G01X14357Y17396D01*
G01X14398Y17363D01*
G01X14424Y17308D01*
G01X14432Y17234D01*
G01X14432Y17219D01*
G01X14424Y17145D01*
G01X14398Y17092D01*
G01X14357Y17059D01*
G01X14302Y17048D01*
G01X14281Y17049D01*
G01X14261Y17054D01*
G01X14243Y17062D01*
G01X14227Y17074D01*
G01X14212Y17087D01*
G01X14201Y17103D01*
G01X14193Y17120D01*
G01X14189Y17140D01*
G01X14114Y17140D01*
G01X14116Y17119D01*
G01X14122Y17100D01*
G01X14130Y17080D01*
G01X14142Y17061D01*
G01X14156Y17044D01*
G01X14172Y17028D01*
G01X14190Y17015D01*
G01X14210Y17003D01*
G01X14232Y16993D01*
G01X14255Y16986D01*
G01X14278Y16982D01*
G01X14302Y16980D01*
G01X14348Y16984D01*
G01X14389Y16997D01*
G01X14426Y17017D01*
G01X14456Y17046D01*
G01X14481Y17081D01*
G01X14499Y17122D01*
G01X14510Y17170D01*
G01X14514Y17223D01*
G01X14514Y17236D01*
G01X14507Y17302D01*
G01X14489Y17359D01*
G01X14457Y17408D01*
G01X14415Y17444D01*
G01X14363Y17466D01*
G37*

%LPD*%
G36*
G01X14837Y17466D02*
G01X14782Y17474D01*
G01X14739Y17470D01*
G01X14700Y17458D01*
G01X14667Y17439D01*
G01X14639Y17413D01*
G01X14616Y17379D01*
G01X14600Y17338D01*
G01X14590Y17291D01*
G01X14586Y17238D01*
G01X14586Y17203D01*
G01X14909Y17203D01*
G01X14898Y17140D01*
G01X14868Y17091D01*
G01X14823Y17058D01*
G01X14768Y17048D01*
G01X14747Y17049D01*
G01X14728Y17052D01*
G01X14710Y17057D01*
G01X14694Y17065D01*
G01X14680Y17074D01*
G01X14667Y17085D01*
G01X14654Y17098D01*
G01X14643Y17111D01*
G01X14593Y17073D01*
G01X14626Y17032D01*
G01X14668Y17003D01*
G01X14716Y16986D01*
G01X14772Y16980D01*
G01X14818Y16984D01*
G01X14860Y16997D01*
G01X14897Y17017D01*
G01X14930Y17045D01*
G01X14956Y17079D01*
G01X14975Y17119D01*
G01X14987Y17164D01*
G01X14990Y17215D01*
G01X14990Y17230D01*
G01X14984Y17296D01*
G01X14964Y17355D01*
G01X14931Y17405D01*
G01X14888Y17443D01*
G01X14837Y17466D01*
G37*

%LPC*%
G36*
G01X14806Y17404D02*
G01X14782Y17407D01*
G01X14758Y17404D01*
G01X14737Y17398D01*
G01X14718Y17387D01*
G01X14702Y17373D01*
G01X14678Y17332D01*
G01X14668Y17277D01*
G01X14668Y17271D01*
G01X14906Y17271D01*
G01X14892Y17328D01*
G01X14864Y17372D01*
G01X14847Y17387D01*
G01X14827Y17398D01*
G01X14806Y17404D01*
G37*

%LPD*%
G36*
G01X16609Y17472D02*
G01X16584Y17474D01*
G01X16510Y17463D01*
G01X16455Y17432D01*
G01X16419Y17384D01*
G01X16406Y17320D01*
G01X16406Y17101D01*
G01X16402Y17042D01*
G01X16389Y16997D01*
G01X16389Y16990D01*
G01X16476Y16990D01*
G01X16479Y16998D01*
G01X16482Y17009D01*
G01X16484Y17023D01*
G01X16486Y17040D01*
G01X16516Y17014D01*
G01X16549Y16995D01*
G01X16584Y16984D01*
G01X16622Y16980D01*
G01X16686Y16991D01*
G01X16738Y17021D01*
G01X16771Y17066D01*
G01X16782Y17122D01*
G01X16768Y17187D01*
G01X16726Y17236D01*
G01X16694Y17255D01*
G01X16658Y17267D01*
G01X16615Y17275D01*
G01X16567Y17278D01*
G01X16488Y17278D01*
G01X16488Y17316D01*
G01X16489Y17336D01*
G01X16494Y17353D01*
G01X16502Y17370D01*
G01X16514Y17384D01*
G01X16527Y17395D01*
G01X16545Y17402D01*
G01X16565Y17407D01*
G01X16589Y17409D01*
G01X16610Y17407D01*
G01X16629Y17403D01*
G01X16646Y17396D01*
G01X16661Y17386D01*
G01X16674Y17375D01*
G01X16683Y17362D01*
G01X16689Y17349D01*
G01X16690Y17334D01*
G01X16772Y17334D01*
G01X16771Y17351D01*
G01X16766Y17368D01*
G01X16759Y17385D01*
G01X16747Y17402D01*
G01X16734Y17418D01*
G01X16718Y17432D01*
G01X16699Y17444D01*
G01X16678Y17455D01*
G01X16656Y17463D01*
G01X16633Y17469D01*
G01X16609Y17472D01*
G37*

%LPC*%
G36*
G01X16552Y17221D02*
G01X16488Y17221D01*
G01X16488Y17123D01*
G01X16497Y17108D01*
G01X16508Y17094D01*
G01X16522Y17082D01*
G01X16538Y17072D01*
G01X16555Y17063D01*
G01X16573Y17057D01*
G01X16591Y17053D01*
G01X16610Y17052D01*
G01X16630Y17053D01*
G01X16647Y17057D01*
G01X16662Y17063D01*
G01X16676Y17073D01*
G01X16687Y17084D01*
G01X16695Y17099D01*
G01X16700Y17115D01*
G01X16702Y17132D01*
G01X16692Y17171D01*
G01X16664Y17199D01*
G01X16617Y17215D01*
G01X16552Y17221D01*
G37*

%LPD*%
G36*
G01X17643Y17466D02*
G01X17584Y17474D01*
G01X17537Y17469D01*
G01X17496Y17457D01*
G01X17459Y17436D01*
G01X17427Y17407D01*
G01X17400Y17370D01*
G01X17381Y17328D01*
G01X17370Y17281D01*
G01X17367Y17228D01*
G01X17367Y17222D01*
G01X17373Y17156D01*
G01X17393Y17098D01*
G01X17425Y17049D01*
G01X17468Y17011D01*
G01X17522Y16988D01*
G01X17582Y16980D01*
G01X17629Y16985D01*
G01X17670Y16997D01*
G01X17707Y17018D01*
G01X17739Y17048D01*
G01X17766Y17084D01*
G01X17785Y17126D01*
G01X17796Y17173D01*
G01X17800Y17226D01*
G01X17800Y17232D01*
G01X17793Y17298D01*
G01X17772Y17357D01*
G01X17739Y17407D01*
G01X17696Y17444D01*
G01X17643Y17466D01*
G37*

%LPC*%
G36*
G01X17638Y17395D02*
G01X17584Y17407D01*
G01X17528Y17395D01*
G01X17485Y17359D01*
G01X17457Y17302D01*
G01X17447Y17232D01*
G01X17457Y17154D01*
G01X17485Y17096D01*
G01X17527Y17059D01*
G01X17582Y17048D01*
G01X17638Y17059D01*
G01X17681Y17095D01*
G01X17708Y17150D01*
G01X17718Y17222D01*
G01X17715Y17264D01*
G01X17708Y17301D01*
G01X17697Y17333D01*
G01X17681Y17359D01*
G01X17638Y17395D01*
G37*

%LPD*%
G36*
G01X17993Y17630D02*
G01X17909Y17630D01*
G01X17909Y17177D01*
G01X17912Y17133D01*
G01X17922Y17095D01*
G01X17939Y17061D01*
G01X17964Y17032D01*
G01X17993Y17010D01*
G01X18028Y16994D01*
G01X18067Y16984D01*
G01X18110Y16980D01*
G01X18156Y16984D01*
G01X18196Y16993D01*
G01X18230Y17008D01*
G01X18260Y17030D01*
G01X18283Y17057D01*
G01X18299Y17088D01*
G01X18309Y17125D01*
G01X18313Y17167D01*
G01X18228Y17167D01*
G01X18227Y17141D01*
G01X18221Y17118D01*
G01X18212Y17098D01*
G01X18198Y17080D01*
G01X18161Y17057D01*
G01X18110Y17050D01*
G01X18086Y17052D01*
G01X18064Y17058D01*
G01X18044Y17068D01*
G01X18027Y17082D01*
G01X18002Y17122D01*
G01X17993Y17175D01*
G01X17993Y17630D01*
G37*

%LPD*%
G36*
G01X19188Y17466D02*
G01X19128Y17474D01*
G01X19082Y17469D01*
G01X19041Y17457D01*
G01X19004Y17436D01*
G01X18972Y17407D01*
G01X18945Y17370D01*
G01X18927Y17328D01*
G01X18915Y17281D01*
G01X18911Y17228D01*
G01X18911Y17222D01*
G01X18918Y17156D01*
G01X18939Y17098D01*
G01X18971Y17049D01*
G01X19014Y17011D01*
G01X19067Y16988D01*
G01X19127Y16980D01*
G01X19174Y16985D01*
G01X19215Y16997D01*
G01X19252Y17018D01*
G01X19285Y17048D01*
G01X19311Y17084D01*
G01X19330Y17126D01*
G01X19341Y17173D01*
G01X19344Y17226D01*
G01X19344Y17232D01*
G01X19338Y17298D01*
G01X19317Y17357D01*
G01X19284Y17407D01*
G01X19240Y17444D01*
G01X19188Y17466D01*
G37*

%LPC*%
G36*
G01X19183Y17395D02*
G01X19128Y17407D01*
G01X19073Y17395D01*
G01X19030Y17359D01*
G01X19002Y17302D01*
G01X18993Y17232D01*
G01X19002Y17154D01*
G01X19030Y17096D01*
G01X19072Y17059D01*
G01X19127Y17048D01*
G01X19183Y17059D01*
G01X19226Y17095D01*
G01X19253Y17150D01*
G01X19263Y17222D01*
G01X19260Y17264D01*
G01X19253Y17301D01*
G01X19242Y17333D01*
G01X19226Y17359D01*
G01X19183Y17395D01*
G37*

%LPD*%
G36*
G01X20613Y17466D02*
G01X20559Y17474D01*
G01X20515Y17470D01*
G01X20476Y17458D01*
G01X20443Y17439D01*
G01X20414Y17413D01*
G01X20392Y17379D01*
G01X20376Y17338D01*
G01X20366Y17291D01*
G01X20363Y17238D01*
G01X20363Y17203D01*
G01X20685Y17203D01*
G01X20674Y17140D01*
G01X20644Y17091D01*
G01X20600Y17058D01*
G01X20544Y17048D01*
G01X20523Y17049D01*
G01X20504Y17052D01*
G01X20487Y17057D01*
G01X20472Y17065D01*
G01X20457Y17074D01*
G01X20443Y17085D01*
G01X20431Y17098D01*
G01X20418Y17111D01*
G01X20369Y17073D01*
G01X20403Y17032D01*
G01X20444Y17003D01*
G01X20492Y16986D01*
G01X20548Y16980D01*
G01X20595Y16984D01*
G01X20636Y16997D01*
G01X20673Y17017D01*
G01X20706Y17045D01*
G01X20732Y17079D01*
G01X20751Y17119D01*
G01X20763Y17164D01*
G01X20767Y17215D01*
G01X20767Y17230D01*
G01X20760Y17296D01*
G01X20739Y17355D01*
G01X20707Y17405D01*
G01X20664Y17443D01*
G01X20613Y17466D01*
G37*

%LPC*%
G36*
G01X20582Y17404D02*
G01X20559Y17407D01*
G01X20534Y17404D01*
G01X20513Y17398D01*
G01X20494Y17387D01*
G01X20477Y17373D01*
G01X20454Y17332D01*
G01X20444Y17277D01*
G01X20444Y17271D01*
G01X20682Y17271D01*
G01X20668Y17328D01*
G01X20642Y17372D01*
G01X20623Y17387D01*
G01X20604Y17398D01*
G01X20582Y17404D01*
G37*

%LPD*%
G36*
G01X21809Y17466D02*
G01X21753Y17474D01*
G01X21710Y17470D01*
G01X21672Y17458D01*
G01X21638Y17439D01*
G01X21610Y17413D01*
G01X21587Y17379D01*
G01X21571Y17338D01*
G01X21562Y17291D01*
G01X21559Y17238D01*
G01X21559Y17203D01*
G01X21881Y17203D01*
G01X21869Y17140D01*
G01X21839Y17091D01*
G01X21794Y17058D01*
G01X21739Y17048D01*
G01X21719Y17049D01*
G01X21700Y17052D01*
G01X21682Y17057D01*
G01X21667Y17065D01*
G01X21652Y17074D01*
G01X21639Y17085D01*
G01X21626Y17098D01*
G01X21614Y17111D01*
G01X21564Y17073D01*
G01X21598Y17032D01*
G01X21639Y17003D01*
G01X21688Y16986D01*
G01X21743Y16980D01*
G01X21790Y16984D01*
G01X21831Y16997D01*
G01X21869Y17017D01*
G01X21902Y17045D01*
G01X21928Y17079D01*
G01X21947Y17119D01*
G01X21958Y17164D01*
G01X21961Y17215D01*
G01X21961Y17230D01*
G01X21955Y17296D01*
G01X21935Y17355D01*
G01X21902Y17405D01*
G01X21860Y17443D01*
G01X21809Y17466D01*
G37*

%LPC*%
G36*
G01X21777Y17404D02*
G01X21753Y17407D01*
G01X21729Y17404D01*
G01X21708Y17398D01*
G01X21689Y17387D01*
G01X21672Y17373D01*
G01X21650Y17332D01*
G01X21639Y17277D01*
G01X21639Y17271D01*
G01X21877Y17271D01*
G01X21863Y17328D01*
G01X21836Y17372D01*
G01X21819Y17387D01*
G01X21799Y17398D01*
G01X21777Y17404D01*
G37*

%LPD*%
G36*
G01X22702Y17580D02*
G01X22621Y17580D01*
G01X22621Y17465D01*
G01X22531Y17465D01*
G01X22531Y17403D01*
G01X22621Y17403D01*
G01X22621Y17107D01*
G01X22620Y17094D01*
G01X22618Y17082D01*
G01X22614Y17073D01*
G01X22609Y17065D01*
G01X22602Y17058D01*
G01X22593Y17054D01*
G01X22581Y17051D01*
G01X22561Y17051D01*
G01X22552Y17052D01*
G01X22541Y17053D01*
G01X22530Y17055D01*
G01X22530Y16990D01*
G01X22545Y16986D01*
G01X22561Y16983D01*
G01X22576Y16981D01*
G01X22592Y16980D01*
G01X22617Y16982D01*
G01X22640Y16989D01*
G01X22659Y16999D01*
G01X22675Y17013D01*
G01X22695Y17053D01*
G01X22702Y17107D01*
G01X22702Y17403D01*
G01X22789Y17403D01*
G01X22789Y17465D01*
G01X22702Y17465D01*
G01X22702Y17580D01*
G37*

%LPD*%
G36*
G01X23714Y17580D02*
G01X23632Y17580D01*
G01X23632Y17465D01*
G01X23544Y17465D01*
G01X23544Y17403D01*
G01X23632Y17403D01*
G01X23632Y17094D01*
G01X23630Y17082D01*
G01X23626Y17073D01*
G01X23622Y17065D01*
G01X23614Y17058D01*
G01X23605Y17054D01*
G01X23594Y17051D01*
G01X23573Y17051D01*
G01X23564Y17052D01*
G01X23553Y17053D01*
G01X23542Y17055D01*
G01X23542Y16990D01*
G01X23558Y16986D01*
G01X23574Y16983D01*
G01X23589Y16981D01*
G01X23605Y16980D01*
G01X23630Y16982D01*
G01X23652Y16989D01*
G01X23671Y16999D01*
G01X23686Y17013D01*
G01X23707Y17053D01*
G01X23714Y17107D01*
G01X23714Y17403D01*
G01X23801Y17403D01*
G01X23801Y17465D01*
G01X23714Y17465D01*
G01X23714Y17580D01*
G37*

%LPD*%
G36*
G01X11566Y17470D02*
G01X11525Y17474D01*
G01X11484Y17470D01*
G01X11447Y17457D01*
G01X11416Y17438D01*
G01X11389Y17409D01*
G01X11367Y17374D01*
G01X11351Y17332D01*
G01X11342Y17284D01*
G01X11339Y17230D01*
G01X11339Y17222D01*
G01X11342Y17170D01*
G01X11351Y17124D01*
G01X11367Y17083D01*
G01X11389Y17048D01*
G01X11416Y17018D01*
G01X11447Y16997D01*
G01X11483Y16985D01*
G01X11522Y16980D01*
G01X11564Y16984D01*
G01X11600Y16994D01*
G01X11632Y17011D01*
G01X11660Y17036D01*
G01X11660Y16807D01*
G01X11740Y16807D01*
G01X11740Y17465D01*
G01X11667Y17465D01*
G01X11663Y17413D01*
G01X11635Y17439D01*
G01X11603Y17458D01*
G01X11566Y17470D01*
G37*

%LPC*%
G36*
G01X11613Y17388D02*
G01X11548Y17405D01*
G01X11495Y17393D01*
G01X11455Y17359D01*
G01X11429Y17303D01*
G01X11421Y17232D01*
G01X11429Y17151D01*
G01X11455Y17094D01*
G01X11495Y17059D01*
G01X11547Y17048D01*
G01X11613Y17064D01*
G01X11660Y17113D01*
G01X11660Y17340D01*
G01X11613Y17388D01*
G37*

%LPD*%
G36*
G01X19876Y17470D02*
G01X19835Y17474D01*
G01X19794Y17470D01*
G01X19757Y17457D01*
G01X19726Y17438D01*
G01X19698Y17409D01*
G01X19677Y17374D01*
G01X19661Y17332D01*
G01X19652Y17284D01*
G01X19648Y17230D01*
G01X19648Y17222D01*
G01X19652Y17170D01*
G01X19661Y17124D01*
G01X19677Y17083D01*
G01X19698Y17048D01*
G01X19726Y17018D01*
G01X19757Y16997D01*
G01X19793Y16985D01*
G01X19832Y16980D01*
G01X19874Y16984D01*
G01X19910Y16994D01*
G01X19942Y17011D01*
G01X19969Y17036D01*
G01X19969Y16807D01*
G01X20051Y16807D01*
G01X20051Y17465D01*
G01X19977Y17465D01*
G01X19972Y17413D01*
G01X19945Y17439D01*
G01X19913Y17458D01*
G01X19876Y17470D01*
G37*

%LPC*%
G36*
G01X19923Y17388D02*
G01X19859Y17405D01*
G01X19805Y17393D01*
G01X19764Y17359D01*
G01X19739Y17303D01*
G01X19731Y17232D01*
G01X19739Y17151D01*
G01X19764Y17094D01*
G01X19805Y17059D01*
G01X19857Y17048D01*
G01X19923Y17064D01*
G01X19969Y17113D01*
G01X19969Y17340D01*
G01X19923Y17388D01*
G37*

%LPD*%

%LPD*%
G36*
G01X22267Y15488D02*
G01X22244Y15488D01*
G01X22235Y15485D01*
G01X22226Y15481D01*
G01X22219Y15475D01*
G01X22214Y15468D01*
G01X22210Y15460D01*
G01X22208Y15451D01*
G01X22207Y15442D01*
G01X22208Y15432D01*
G01X22210Y15423D01*
G01X22214Y15416D01*
G01X22219Y15409D01*
G01X22226Y15403D01*
G01X22235Y15399D01*
G01X22244Y15396D01*
G01X22267Y15396D01*
G01X22277Y15399D01*
G01X22285Y15403D01*
G01X22292Y15409D01*
G01X22297Y15416D01*
G01X22301Y15423D01*
G01X22303Y15432D01*
G01X22303Y15451D01*
G01X22301Y15460D01*
G01X22297Y15468D01*
G01X22292Y15475D01*
G01X22285Y15481D01*
G01X22277Y15485D01*
G01X22267Y15488D01*
G37*

%LPD*%
G36*
G01X11922Y15488D02*
G01X11900Y15488D01*
G01X11890Y15485D01*
G01X11882Y15481D01*
G01X11876Y15475D01*
G01X11870Y15467D01*
G01X11866Y15459D01*
G01X11863Y15451D01*
G01X11863Y15432D01*
G01X11866Y15423D01*
G01X11870Y15416D01*
G01X11882Y15402D01*
G01X11890Y15398D01*
G01X11900Y15395D01*
G01X11922Y15395D01*
G01X11932Y15398D01*
G01X11940Y15402D01*
G01X11947Y15409D01*
G01X11953Y15416D01*
G01X11956Y15423D01*
G01X11959Y15432D01*
G01X11960Y15442D01*
G01X11959Y15451D01*
G01X11953Y15467D01*
G01X11947Y15475D01*
G01X11940Y15481D01*
G01X11932Y15485D01*
G01X11922Y15488D01*
G37*

%LPD*%
G36*
G01X17363Y15488D02*
G01X17341Y15488D01*
G01X17331Y15485D01*
G01X17323Y15481D01*
G01X17317Y15475D01*
G01X17311Y15467D01*
G01X17307Y15459D01*
G01X17304Y15451D01*
G01X17303Y15442D01*
G01X17304Y15432D01*
G01X17307Y15423D01*
G01X17311Y15416D01*
G01X17323Y15402D01*
G01X17331Y15398D01*
G01X17341Y15395D01*
G01X17363Y15395D01*
G01X17373Y15398D01*
G01X17381Y15402D01*
G01X17388Y15409D01*
G01X17393Y15416D01*
G01X17397Y15423D01*
G01X17399Y15432D01*
G01X17400Y15442D01*
G01X17399Y15451D01*
G01X17397Y15459D01*
G01X17393Y15467D01*
G01X17388Y15475D01*
G01X17381Y15481D01*
G01X17373Y15485D01*
G01X17363Y15488D01*
G37*

%LPD*%
G36*
G01X22078Y15487D02*
G01X22067Y15488D01*
G01X22055Y15487D01*
G01X22046Y15484D01*
G01X22037Y15480D01*
G01X22031Y15475D01*
G01X22025Y15467D01*
G01X22022Y15459D01*
G01X22019Y15450D01*
G01X22018Y15441D01*
G01X22019Y15431D01*
G01X22022Y15422D01*
G01X22025Y15415D01*
G01X22031Y15407D01*
G01X22037Y15402D01*
G01X22046Y15398D01*
G01X22055Y15395D01*
G01X22078Y15395D01*
G01X22088Y15398D01*
G01X22096Y15402D01*
G01X22102Y15407D01*
G01X22108Y15415D01*
G01X22111Y15422D01*
G01X22114Y15431D01*
G01X22114Y15450D01*
G01X22111Y15459D01*
G01X22108Y15467D01*
G01X22102Y15475D01*
G01X22096Y15480D01*
G01X22088Y15484D01*
G01X22078Y15487D01*
G37*

%LPD*%
G36*
G01X17131Y15515D02*
G01X17034Y15515D01*
G01X16948Y15386D01*
G01X17018Y15386D01*
G01X17131Y15515D01*
G37*

%LPD*%
G36*
G01X21539Y15515D02*
G01X21473Y15515D01*
G01X21473Y15466D01*
G01X21482Y15305D01*
G01X21539Y15305D01*
G01X21539Y15515D01*
G37*

%LPD*%
G36*
G01X11952Y15315D02*
G01X11872Y15315D01*
G01X11872Y14840D01*
G01X11952Y14840D01*
G01X11952Y15315D01*
G37*

%LPD*%
G36*
G01X13397Y15515D02*
G01X13314Y15515D01*
G01X13314Y15257D01*
G01X13285Y15286D01*
G01X13252Y15307D01*
G01X13215Y15319D01*
G01X13175Y15324D01*
G01X13128Y15319D01*
G01X13090Y15305D01*
G01X13061Y15281D01*
G01X13040Y15248D01*
G01X13027Y15205D01*
G01X13022Y15153D01*
G01X13022Y14840D01*
G01X13103Y14840D01*
G01X13103Y15155D01*
G01X13105Y15178D01*
G01X13109Y15199D01*
G01X13117Y15216D01*
G01X13127Y15230D01*
G01X13140Y15241D01*
G01X13156Y15249D01*
G01X13176Y15253D01*
G01X13198Y15255D01*
G01X13218Y15253D01*
G01X13236Y15249D01*
G01X13253Y15243D01*
G01X13268Y15234D01*
G01X13283Y15222D01*
G01X13295Y15209D01*
G01X13306Y15195D01*
G01X13314Y15178D01*
G01X13314Y14840D01*
G01X13397Y14840D01*
G01X13397Y15515D01*
G37*

%LPD*%
G36*
G01X13973Y15480D02*
G01X13478Y15480D01*
G01X13478Y15409D01*
G01X13684Y15409D01*
G01X13684Y14840D01*
G01X13768Y14840D01*
G01X13768Y15409D01*
G01X13973Y15409D01*
G01X13973Y15480D01*
G37*

%LPD*%
G36*
G01X15142Y15515D02*
G01X15060Y15515D01*
G01X15060Y15257D01*
G01X15031Y15286D01*
G01X14998Y15307D01*
G01X14961Y15319D01*
G01X14919Y15324D01*
G01X14873Y15319D01*
G01X14835Y15305D01*
G01X14806Y15281D01*
G01X14785Y15248D01*
G01X14772Y15205D01*
G01X14768Y15153D01*
G01X14768Y14840D01*
G01X14848Y14840D01*
G01X14848Y15155D01*
G01X14850Y15178D01*
G01X14855Y15199D01*
G01X14862Y15216D01*
G01X14872Y15230D01*
G01X14886Y15241D01*
G01X14902Y15249D01*
G01X14922Y15253D01*
G01X14944Y15255D01*
G01X14964Y15253D01*
G01X14981Y15249D01*
G01X14998Y15243D01*
G01X15014Y15234D01*
G01X15028Y15222D01*
G01X15040Y15209D01*
G01X15051Y15195D01*
G01X15060Y15178D01*
G01X15060Y14840D01*
G01X15142Y14840D01*
G01X15142Y15515D01*
G37*

%LPD*%
G36*
G01X15697Y15480D02*
G01X15460Y15480D01*
G01X15411Y15476D01*
G01X15367Y15466D01*
G01X15329Y15449D01*
G01X15297Y15426D01*
G01X15270Y15397D01*
G01X15252Y15363D01*
G01X15240Y15326D01*
G01X15236Y15284D01*
G01X15240Y15240D01*
G01X15251Y15201D01*
G01X15269Y15168D01*
G01X15294Y15141D01*
G01X15327Y15118D01*
G01X15366Y15102D01*
G01X15410Y15093D01*
G01X15461Y15090D01*
G01X15613Y15090D01*
G01X15613Y14840D01*
G01X15697Y14840D01*
G01X15697Y15480D01*
G37*

%LPC*%
G36*
G01X15613Y15409D02*
G01X15456Y15409D01*
G01X15400Y15400D01*
G01X15356Y15375D01*
G01X15330Y15334D01*
G01X15321Y15282D01*
G01X15330Y15230D01*
G01X15356Y15191D01*
G01X15401Y15167D01*
G01X15460Y15159D01*
G01X15613Y15159D01*
G01X15613Y15409D01*
G37*

%LPD*%
G36*
G01X16576Y15308D02*
G01X16511Y15324D01*
G01X16500Y15323D01*
G01X16490Y15322D01*
G01X16482Y15320D01*
G01X16476Y15318D01*
G01X16476Y15243D01*
G01X16494Y15245D01*
G01X16505Y15245D01*
G01X16515Y15246D01*
G01X16552Y15241D01*
G01X16582Y15228D01*
G01X16606Y15207D01*
G01X16623Y15176D01*
G01X16623Y14840D01*
G01X16706Y14840D01*
G01X16706Y15315D01*
G01X16627Y15315D01*
G01X16625Y15261D01*
G01X16576Y15308D01*
G37*

%LPD*%
G36*
G01X17393Y15315D02*
G01X17313Y15315D01*
G01X17313Y14840D01*
G01X17393Y14840D01*
G01X17393Y15315D01*
G37*

%LPD*%
G36*
G01X18040Y15308D02*
G01X17976Y15324D01*
G01X17964Y15323D01*
G01X17955Y15322D01*
G01X17946Y15320D01*
G01X17939Y15318D01*
G01X17939Y15243D01*
G01X17959Y15245D01*
G01X17969Y15245D01*
G01X17980Y15246D01*
G01X18016Y15241D01*
G01X18047Y15228D01*
G01X18070Y15207D01*
G01X18088Y15176D01*
G01X18088Y14840D01*
G01X18169Y14840D01*
G01X18169Y15315D01*
G01X18089Y15315D01*
G01X18089Y15261D01*
G01X18040Y15308D01*
G37*

%LPD*%
G36*
G01X20702Y15480D02*
G01X20490Y15480D01*
G01X20439Y15476D01*
G01X20395Y15467D01*
G01X20356Y15452D01*
G01X20323Y15430D01*
G01X20298Y15403D01*
G01X20280Y15370D01*
G01X20269Y15331D01*
G01X20265Y15286D01*
G01X20273Y15231D01*
G01X20297Y15182D01*
G01X20336Y15144D01*
G01X20388Y15117D01*
G01X20238Y14845D01*
G01X20238Y14840D01*
G01X20328Y14840D01*
G01X20467Y15099D01*
G01X20618Y15099D01*
G01X20618Y14840D01*
G01X20702Y14840D01*
G01X20702Y15480D01*
G37*

%LPC*%
G36*
G01X20618Y15409D02*
G01X20489Y15409D01*
G01X20429Y15401D01*
G01X20385Y15378D01*
G01X20359Y15339D01*
G01X20351Y15286D01*
G01X20360Y15238D01*
G01X20388Y15200D01*
G01X20431Y15176D01*
G01X20488Y15168D01*
G01X20618Y15168D01*
G01X20618Y15409D01*
G37*

%LPD*%
G36*
G01X22205Y15315D02*
G01X22123Y15315D01*
G01X22123Y14840D01*
G01X22205Y14840D01*
G01X22205Y15315D01*
G37*

%LPD*%
G36*
G01X23197Y15480D02*
G01X23111Y15480D01*
G01X23111Y14909D01*
G01X22809Y14909D01*
G01X22809Y14840D01*
G01X23197Y14840D01*
G01X23197Y15480D01*
G37*

%LPD*%
G36*
G01X23608Y15308D02*
G01X23543Y15324D01*
G01X23531Y15323D01*
G01X23522Y15322D01*
G01X23513Y15320D01*
G01X23506Y15318D01*
G01X23506Y15243D01*
G01X23526Y15245D01*
G01X23536Y15245D01*
G01X23547Y15246D01*
G01X23583Y15241D01*
G01X23614Y15228D01*
G01X23638Y15207D01*
G01X23656Y15176D01*
G01X23656Y14840D01*
G01X23736Y14840D01*
G01X23736Y15315D01*
G01X23657Y15315D01*
G01X23656Y15261D01*
G01X23608Y15308D01*
G37*

%LPD*%
G36*
G01X24726Y15480D02*
G01X24328Y15480D01*
G01X24328Y15409D01*
G01X24640Y15409D01*
G01X24640Y15192D01*
G01X24372Y15192D01*
G01X24372Y15123D01*
G01X24640Y15123D01*
G01X24640Y14840D01*
G01X24726Y14840D01*
G01X24726Y15480D01*
G37*

%LPD*%
G36*
G01X11639Y15313D02*
G01X11568Y15324D01*
G01X11496Y15313D01*
G01X11438Y15282D01*
G01X11400Y15235D01*
G01X11388Y15176D01*
G01X11469Y15176D01*
G01X11471Y15192D01*
G01X11477Y15206D01*
G01X11485Y15220D01*
G01X11497Y15232D01*
G01X11513Y15243D01*
G01X11529Y15251D01*
G01X11548Y15255D01*
G01X11568Y15257D01*
G01X11590Y15255D01*
G01X11609Y15252D01*
G01X11625Y15246D01*
G01X11639Y15238D01*
G01X11650Y15227D01*
G01X11657Y15216D01*
G01X11662Y15202D01*
G01X11664Y15188D01*
G01X11662Y15174D01*
G01X11658Y15161D01*
G01X11651Y15151D01*
G01X11640Y15143D01*
G01X11626Y15135D01*
G01X11607Y15128D01*
G01X11584Y15121D01*
G01X11556Y15115D01*
G01X11501Y15099D01*
G01X11457Y15082D01*
G01X11440Y15072D01*
G01X11425Y15061D01*
G01X11412Y15049D01*
G01X11402Y15036D01*
G01X11393Y15022D01*
G01X11387Y15007D01*
G01X11384Y14990D01*
G01X11382Y14972D01*
G01X11395Y14914D01*
G01X11434Y14870D01*
G01X11492Y14840D01*
G01X11567Y14830D01*
G01X11620Y14836D01*
G01X11668Y14851D01*
G01X11688Y14862D01*
G01X11707Y14875D01*
G01X11723Y14891D01*
G01X11736Y14907D01*
G01X11747Y14926D01*
G01X11755Y14945D01*
G01X11759Y14965D01*
G01X11760Y14986D01*
G01X11680Y14986D01*
G01X11677Y14966D01*
G01X11670Y14949D01*
G01X11660Y14934D01*
G01X11647Y14922D01*
G01X11630Y14911D01*
G01X11611Y14903D01*
G01X11590Y14899D01*
G01X11567Y14898D01*
G01X11545Y14899D01*
G01X11525Y14902D01*
G01X11508Y14908D01*
G01X11493Y14916D01*
G01X11480Y14926D01*
G01X11472Y14938D01*
G01X11466Y14951D01*
G01X11464Y14966D01*
G01X11466Y14981D01*
G01X11471Y14995D01*
G01X11478Y15007D01*
G01X11489Y15017D01*
G01X11504Y15026D01*
G01X11523Y15034D01*
G01X11547Y15042D01*
G01X11576Y15049D01*
G01X11631Y15063D01*
G01X11673Y15080D01*
G01X11690Y15089D01*
G01X11705Y15100D01*
G01X11717Y15111D01*
G01X11727Y15124D01*
G01X11735Y15137D01*
G01X11740Y15152D01*
G01X11743Y15168D01*
G01X11744Y15184D01*
G01X11732Y15238D01*
G01X11696Y15284D01*
G01X11639Y15313D01*
G37*

%LPD*%
G36*
G01X12322Y15313D02*
G01X12252Y15324D01*
G01X12178Y15313D01*
G01X12121Y15282D01*
G01X12082Y15235D01*
G01X12069Y15176D01*
G01X12152Y15176D01*
G01X12153Y15192D01*
G01X12159Y15206D01*
G01X12167Y15220D01*
G01X12180Y15232D01*
G01X12195Y15243D01*
G01X12212Y15251D01*
G01X12231Y15255D01*
G01X12252Y15257D01*
G01X12272Y15255D01*
G01X12291Y15252D01*
G01X12307Y15246D01*
G01X12321Y15238D01*
G01X12331Y15227D01*
G01X12339Y15216D01*
G01X12344Y15202D01*
G01X12346Y15188D01*
G01X12344Y15174D01*
G01X12340Y15161D01*
G01X12332Y15151D01*
G01X12322Y15143D01*
G01X12309Y15135D01*
G01X12290Y15128D01*
G01X12267Y15121D01*
G01X12239Y15115D01*
G01X12183Y15099D01*
G01X12139Y15082D01*
G01X12122Y15072D01*
G01X12106Y15061D01*
G01X12094Y15049D01*
G01X12084Y15036D01*
G01X12076Y15022D01*
G01X12070Y15007D01*
G01X12067Y14990D01*
G01X12065Y14972D01*
G01X12078Y14914D01*
G01X12117Y14870D01*
G01X12175Y14840D01*
G01X12248Y14830D01*
G01X12302Y14836D01*
G01X12350Y14851D01*
G01X12370Y14862D01*
G01X12389Y14875D01*
G01X12405Y14891D01*
G01X12418Y14907D01*
G01X12430Y14926D01*
G01X12437Y14945D01*
G01X12442Y14965D01*
G01X12443Y14986D01*
G01X12363Y14986D01*
G01X12359Y14966D01*
G01X12353Y14949D01*
G01X12343Y14934D01*
G01X12330Y14922D01*
G01X12313Y14911D01*
G01X12294Y14903D01*
G01X12272Y14899D01*
G01X12248Y14898D01*
G01X12227Y14899D01*
G01X12207Y14902D01*
G01X12190Y14908D01*
G01X12175Y14916D01*
G01X12162Y14926D01*
G01X12153Y14938D01*
G01X12148Y14951D01*
G01X12147Y14966D01*
G01X12148Y14981D01*
G01X12153Y14995D01*
G01X12160Y15007D01*
G01X12172Y15017D01*
G01X12186Y15026D01*
G01X12206Y15034D01*
G01X12230Y15042D01*
G01X12259Y15049D01*
G01X12314Y15063D01*
G01X12356Y15080D01*
G01X12373Y15089D01*
G01X12388Y15100D01*
G01X12400Y15111D01*
G01X12410Y15124D01*
G01X12417Y15137D01*
G01X12423Y15152D01*
G01X12426Y15168D01*
G01X12427Y15184D01*
G01X12415Y15238D01*
G01X12377Y15284D01*
G01X12322Y15313D01*
G37*

%LPD*%
G36*
G01X12768Y15316D02*
G01X12714Y15324D01*
G01X12670Y15320D01*
G01X12631Y15308D01*
G01X12598Y15289D01*
G01X12569Y15263D01*
G01X12547Y15229D01*
G01X12531Y15188D01*
G01X12521Y15141D01*
G01X12518Y15088D01*
G01X12518Y15053D01*
G01X12839Y15053D01*
G01X12829Y14990D01*
G01X12798Y14941D01*
G01X12754Y14908D01*
G01X12698Y14898D01*
G01X12678Y14899D01*
G01X12659Y14902D01*
G01X12641Y14907D01*
G01X12626Y14915D01*
G01X12611Y14924D01*
G01X12597Y14935D01*
G01X12573Y14961D01*
G01X12523Y14923D01*
G01X12557Y14882D01*
G01X12598Y14853D01*
G01X12647Y14836D01*
G01X12703Y14830D01*
G01X12749Y14834D01*
G01X12791Y14847D01*
G01X12828Y14867D01*
G01X12860Y14895D01*
G01X12887Y14929D01*
G01X12906Y14969D01*
G01X12918Y15014D01*
G01X12922Y15065D01*
G01X12922Y15080D01*
G01X12915Y15146D01*
G01X12894Y15205D01*
G01X12862Y15255D01*
G01X12818Y15293D01*
G01X12768Y15316D01*
G37*

%LPC*%
G36*
G01X12737Y15254D02*
G01X12714Y15257D01*
G01X12689Y15254D01*
G01X12668Y15248D01*
G01X12649Y15237D01*
G01X12632Y15223D01*
G01X12609Y15182D01*
G01X12598Y15126D01*
G01X12598Y15121D01*
G01X12838Y15121D01*
G01X12823Y15178D01*
G01X12796Y15222D01*
G01X12778Y15237D01*
G01X12759Y15248D01*
G01X12737Y15254D01*
G37*

%LPD*%
G36*
G01X14346Y15515D02*
G01X14264Y15515D01*
G01X14264Y14840D01*
G01X14339Y14840D01*
G01X14343Y14891D01*
G01X14370Y14864D01*
G01X14401Y14846D01*
G01X14438Y14834D01*
G01X14478Y14830D01*
G01X14518Y14835D01*
G01X14554Y14848D01*
G01X14585Y14869D01*
G01X14614Y14899D01*
G01X14636Y14935D01*
G01X14652Y14977D01*
G01X14662Y15024D01*
G01X14665Y15076D01*
G01X14665Y15082D01*
G01X14662Y15133D01*
G01X14652Y15180D01*
G01X14636Y15221D01*
G01X14614Y15257D01*
G01X14586Y15286D01*
G01X14554Y15307D01*
G01X14518Y15319D01*
G01X14478Y15324D01*
G01X14439Y15320D01*
G01X14403Y15309D01*
G01X14372Y15292D01*
G01X14346Y15267D01*
G01X14346Y15515D01*
G37*

%LPC*%
G36*
G01X14511Y15243D02*
G01X14457Y15255D01*
G01X14422Y15250D01*
G01X14392Y15238D01*
G01X14366Y15217D01*
G01X14346Y15188D01*
G01X14346Y14970D01*
G01X14366Y14939D01*
G01X14392Y14917D01*
G01X14422Y14904D01*
G01X14459Y14900D01*
G01X14511Y14911D01*
G01X14552Y14946D01*
G01X14576Y15000D01*
G01X14585Y15072D01*
G01X14576Y15151D01*
G01X14552Y15209D01*
G01X14511Y15243D01*
G37*

%LPD*%
G36*
G01X16277Y15316D02*
G01X16222Y15324D01*
G01X16178Y15320D01*
G01X16139Y15308D01*
G01X16106Y15289D01*
G01X16077Y15263D01*
G01X16055Y15229D01*
G01X16039Y15188D01*
G01X16030Y15141D01*
G01X16027Y15088D01*
G01X16027Y15053D01*
G01X16348Y15053D01*
G01X16337Y14990D01*
G01X16307Y14941D01*
G01X16263Y14908D01*
G01X16207Y14898D01*
G01X16187Y14899D01*
G01X16168Y14902D01*
G01X16150Y14907D01*
G01X16135Y14915D01*
G01X16120Y14924D01*
G01X16106Y14935D01*
G01X16082Y14961D01*
G01X16032Y14923D01*
G01X16066Y14882D01*
G01X16107Y14853D01*
G01X16156Y14836D01*
G01X16211Y14830D01*
G01X16258Y14834D01*
G01X16300Y14847D01*
G01X16337Y14867D01*
G01X16369Y14895D01*
G01X16396Y14929D01*
G01X16414Y14969D01*
G01X16426Y15014D01*
G01X16430Y15065D01*
G01X16430Y15080D01*
G01X16423Y15146D01*
G01X16402Y15205D01*
G01X16370Y15255D01*
G01X16327Y15293D01*
G01X16277Y15316D01*
G37*

%LPC*%
G36*
G01X16246Y15254D02*
G01X16222Y15257D01*
G01X16197Y15254D01*
G01X16176Y15248D01*
G01X16157Y15237D01*
G01X16140Y15223D01*
G01X16118Y15182D01*
G01X16107Y15126D01*
G01X16107Y15121D01*
G01X16346Y15121D01*
G01X16331Y15178D01*
G01X16305Y15222D01*
G01X16287Y15237D01*
G01X16267Y15248D01*
G01X16246Y15254D01*
G37*

%LPD*%
G36*
G01X17050Y15316D02*
G01X16994Y15324D01*
G01X16951Y15320D01*
G01X16913Y15308D01*
G01X16879Y15289D01*
G01X16851Y15263D01*
G01X16828Y15229D01*
G01X16812Y15188D01*
G01X16803Y15141D01*
G01X16800Y15088D01*
G01X16800Y15053D01*
G01X17122Y15053D01*
G01X17110Y14990D01*
G01X17081Y14941D01*
G01X17035Y14908D01*
G01X16981Y14898D01*
G01X16960Y14899D01*
G01X16941Y14902D01*
G01X16923Y14907D01*
G01X16907Y14915D01*
G01X16893Y14924D01*
G01X16880Y14935D01*
G01X16867Y14948D01*
G01X16856Y14961D01*
G01X16806Y14923D01*
G01X16839Y14882D01*
G01X16880Y14853D01*
G01X16929Y14836D01*
G01X16985Y14830D01*
G01X17031Y14834D01*
G01X17072Y14847D01*
G01X17110Y14867D01*
G01X17143Y14895D01*
G01X17169Y14929D01*
G01X17188Y14969D01*
G01X17199Y15014D01*
G01X17202Y15065D01*
G01X17202Y15080D01*
G01X17196Y15146D01*
G01X17176Y15205D01*
G01X17143Y15255D01*
G01X17101Y15293D01*
G01X17050Y15316D01*
G37*

%LPC*%
G36*
G01X17018Y15254D02*
G01X16994Y15257D01*
G01X16970Y15254D01*
G01X16949Y15248D01*
G01X16930Y15237D01*
G01X16914Y15223D01*
G01X16891Y15182D01*
G01X16881Y15126D01*
G01X16881Y15121D01*
G01X17118Y15121D01*
G01X17104Y15178D01*
G01X17077Y15222D01*
G01X17060Y15237D01*
G01X17040Y15248D01*
G01X17018Y15254D01*
G37*

%LPD*%
G36*
G01X17763Y15313D02*
G01X17693Y15324D01*
G01X17619Y15313D01*
G01X17561Y15282D01*
G01X17523Y15235D01*
G01X17510Y15176D01*
G01X17593Y15176D01*
G01X17594Y15192D01*
G01X17600Y15206D01*
G01X17608Y15220D01*
G01X17621Y15232D01*
G01X17636Y15243D01*
G01X17653Y15251D01*
G01X17672Y15255D01*
G01X17693Y15257D01*
G01X17713Y15255D01*
G01X17732Y15252D01*
G01X17748Y15246D01*
G01X17761Y15238D01*
G01X17772Y15227D01*
G01X17780Y15216D01*
G01X17785Y15202D01*
G01X17786Y15188D01*
G01X17785Y15174D01*
G01X17781Y15161D01*
G01X17773Y15151D01*
G01X17764Y15143D01*
G01X17750Y15135D01*
G01X17731Y15128D01*
G01X17708Y15121D01*
G01X17680Y15115D01*
G01X17624Y15099D01*
G01X17581Y15082D01*
G01X17563Y15072D01*
G01X17547Y15061D01*
G01X17535Y15049D01*
G01X17525Y15036D01*
G01X17517Y15022D01*
G01X17511Y15007D01*
G01X17508Y14990D01*
G01X17506Y14972D01*
G01X17519Y14914D01*
G01X17557Y14870D01*
G01X17616Y14840D01*
G01X17689Y14830D01*
G01X17743Y14836D01*
G01X17790Y14851D01*
G01X17811Y14862D01*
G01X17830Y14875D01*
G01X17846Y14891D01*
G01X17860Y14907D01*
G01X17871Y14926D01*
G01X17878Y14945D01*
G01X17883Y14965D01*
G01X17885Y14986D01*
G01X17802Y14986D01*
G01X17800Y14966D01*
G01X17793Y14949D01*
G01X17784Y14934D01*
G01X17771Y14922D01*
G01X17754Y14911D01*
G01X17735Y14903D01*
G01X17713Y14899D01*
G01X17689Y14898D01*
G01X17668Y14899D01*
G01X17648Y14902D01*
G01X17631Y14908D01*
G01X17615Y14916D01*
G01X17603Y14926D01*
G01X17594Y14938D01*
G01X17589Y14951D01*
G01X17588Y14966D01*
G01X17589Y14981D01*
G01X17594Y14995D01*
G01X17602Y15007D01*
G01X17613Y15017D01*
G01X17627Y15026D01*
G01X17647Y15034D01*
G01X17671Y15042D01*
G01X17700Y15049D01*
G01X17755Y15063D01*
G01X17797Y15080D01*
G01X17814Y15089D01*
G01X17829Y15100D01*
G01X17841Y15111D01*
G01X17851Y15124D01*
G01X17858Y15137D01*
G01X17864Y15152D01*
G01X17867Y15168D01*
G01X17868Y15184D01*
G01X17856Y15238D01*
G01X17818Y15284D01*
G01X17763Y15313D01*
G37*

%LPD*%
G36*
G01X18373Y15315D02*
G01X18293Y15315D01*
G01X18293Y14840D01*
G01X18369Y14840D01*
G01X18372Y14886D01*
G01X18398Y14862D01*
G01X18430Y14845D01*
G01X18468Y14834D01*
G01X18510Y14830D01*
G01X18577Y14842D01*
G01X18627Y14875D01*
G01X18656Y14930D01*
G01X18667Y15005D01*
G01X18667Y15315D01*
G01X18585Y15315D01*
G01X18585Y15007D01*
G01X18580Y14960D01*
G01X18564Y14926D01*
G01X18536Y14906D01*
G01X18497Y14900D01*
G01X18455Y14904D01*
G01X18420Y14917D01*
G01X18393Y14939D01*
G01X18373Y14970D01*
G01X18373Y15315D01*
G37*

%LPD*%
G36*
G01X19044Y15316D02*
G01X18985Y15324D01*
G01X18938Y15319D01*
G01X18897Y15307D01*
G01X18860Y15286D01*
G01X18827Y15257D01*
G01X18801Y15220D01*
G01X18782Y15178D01*
G01X18771Y15131D01*
G01X18768Y15078D01*
G01X18768Y15072D01*
G01X18774Y15006D01*
G01X18793Y14948D01*
G01X18826Y14899D01*
G01X18869Y14861D01*
G01X18923Y14838D01*
G01X18984Y14830D01*
G01X19030Y14835D01*
G01X19071Y14847D01*
G01X19108Y14868D01*
G01X19140Y14898D01*
G01X19166Y14934D01*
G01X19185Y14976D01*
G01X19196Y15023D01*
G01X19200Y15076D01*
G01X19200Y15082D01*
G01X19193Y15148D01*
G01X19172Y15207D01*
G01X19140Y15257D01*
G01X19097Y15294D01*
G01X19044Y15316D01*
G37*

%LPC*%
G36*
G01X19039Y15245D02*
G01X18985Y15257D01*
G01X18929Y15245D01*
G01X18885Y15209D01*
G01X18858Y15152D01*
G01X18848Y15082D01*
G01X18857Y15004D01*
G01X18885Y14946D01*
G01X18928Y14909D01*
G01X18984Y14898D01*
G01X19039Y14909D01*
G01X19081Y14945D01*
G01X19109Y15000D01*
G01X19118Y15072D01*
G01X19116Y15114D01*
G01X19109Y15151D01*
G01X19098Y15183D01*
G01X19081Y15209D01*
G01X19039Y15245D01*
G37*

%LPD*%
G36*
G01X19684Y15515D02*
G01X19602Y15515D01*
G01X19602Y15263D01*
G01X19575Y15289D01*
G01X19543Y15308D01*
G01X19507Y15320D01*
G01X19467Y15324D01*
G01X19425Y15320D01*
G01X19389Y15307D01*
G01X19357Y15287D01*
G01X19331Y15259D01*
G01X19309Y15223D01*
G01X19293Y15181D01*
G01X19284Y15133D01*
G01X19281Y15080D01*
G01X19281Y15072D01*
G01X19284Y15020D01*
G01X19293Y14973D01*
G01X19309Y14932D01*
G01X19331Y14897D01*
G01X19358Y14868D01*
G01X19390Y14847D01*
G01X19426Y14835D01*
G01X19465Y14830D01*
G01X19508Y14834D01*
G01X19545Y14847D01*
G01X19577Y14867D01*
G01X19605Y14895D01*
G01X19609Y14840D01*
G01X19684Y14840D01*
G01X19684Y15515D01*
G37*

%LPC*%
G36*
G01X19524Y15250D02*
G01X19486Y15255D01*
G01X19434Y15243D01*
G01X19394Y15209D01*
G01X19371Y15155D01*
G01X19363Y15082D01*
G01X19371Y15002D01*
G01X19394Y14945D01*
G01X19434Y14911D01*
G01X19485Y14900D01*
G01X19522Y14904D01*
G01X19554Y14918D01*
G01X19581Y14942D01*
G01X19602Y14975D01*
G01X19602Y15180D01*
G01X19582Y15213D01*
G01X19556Y15236D01*
G01X19524Y15250D01*
G37*

%LPD*%
G36*
G01X20027Y15316D02*
G01X19972Y15324D01*
G01X19929Y15320D01*
G01X19890Y15308D01*
G01X19857Y15289D01*
G01X19828Y15263D01*
G01X19806Y15229D01*
G01X19790Y15188D01*
G01X19781Y15141D01*
G01X19777Y15088D01*
G01X19777Y15053D01*
G01X20100Y15053D01*
G01X20088Y14990D01*
G01X20059Y14941D01*
G01X20014Y14908D01*
G01X19959Y14898D01*
G01X19938Y14899D01*
G01X19919Y14902D01*
G01X19901Y14907D01*
G01X19885Y14915D01*
G01X19871Y14924D01*
G01X19857Y14935D01*
G01X19845Y14948D01*
G01X19834Y14961D01*
G01X19784Y14923D01*
G01X19817Y14882D01*
G01X19858Y14853D01*
G01X19907Y14836D01*
G01X19963Y14830D01*
G01X20009Y14834D01*
G01X20051Y14847D01*
G01X20088Y14867D01*
G01X20121Y14895D01*
G01X20147Y14929D01*
G01X20165Y14969D01*
G01X20177Y15014D01*
G01X20181Y15065D01*
G01X20181Y15080D01*
G01X20174Y15146D01*
G01X20153Y15205D01*
G01X20121Y15255D01*
G01X20078Y15293D01*
G01X20027Y15316D01*
G37*

%LPC*%
G36*
G01X19997Y15254D02*
G01X19972Y15257D01*
G01X19949Y15254D01*
G01X19927Y15248D01*
G01X19909Y15237D01*
G01X19893Y15223D01*
G01X19869Y15182D01*
G01X19859Y15126D01*
G01X19859Y15121D01*
G01X20097Y15121D01*
G01X20083Y15178D01*
G01X20056Y15222D01*
G01X20038Y15237D01*
G01X20018Y15248D01*
G01X19997Y15254D01*
G37*

%LPD*%
G36*
G01X21299Y15313D02*
G01X21228Y15324D01*
G01X21156Y15313D01*
G01X21097Y15282D01*
G01X21060Y15235D01*
G01X21047Y15176D01*
G01X21130Y15176D01*
G01X21131Y15192D01*
G01X21136Y15206D01*
G01X21145Y15220D01*
G01X21157Y15232D01*
G01X21172Y15243D01*
G01X21189Y15251D01*
G01X21208Y15255D01*
G01X21228Y15257D01*
G01X21250Y15255D01*
G01X21268Y15252D01*
G01X21285Y15246D01*
G01X21298Y15238D01*
G01X21310Y15227D01*
G01X21317Y15216D01*
G01X21322Y15202D01*
G01X21323Y15188D01*
G01X21322Y15174D01*
G01X21318Y15161D01*
G01X21310Y15151D01*
G01X21301Y15143D01*
G01X21286Y15135D01*
G01X21267Y15128D01*
G01X21244Y15121D01*
G01X21215Y15115D01*
G01X21161Y15099D01*
G01X21118Y15082D01*
G01X21100Y15072D01*
G01X21085Y15061D01*
G01X21072Y15049D01*
G01X21061Y15036D01*
G01X21054Y15022D01*
G01X21048Y15007D01*
G01X21045Y14990D01*
G01X21043Y14972D01*
G01X21056Y14914D01*
G01X21094Y14870D01*
G01X21153Y14840D01*
G01X21227Y14830D01*
G01X21280Y14836D01*
G01X21327Y14851D01*
G01X21348Y14862D01*
G01X21367Y14875D01*
G01X21383Y14891D01*
G01X21397Y14907D01*
G01X21407Y14926D01*
G01X21414Y14945D01*
G01X21419Y14965D01*
G01X21421Y14986D01*
G01X21339Y14986D01*
G01X21337Y14966D01*
G01X21330Y14949D01*
G01X21320Y14934D01*
G01X21306Y14922D01*
G01X21290Y14911D01*
G01X21272Y14903D01*
G01X21250Y14899D01*
G01X21227Y14898D01*
G01X21205Y14899D01*
G01X21185Y14902D01*
G01X21168Y14908D01*
G01X21152Y14916D01*
G01X21140Y14926D01*
G01X21131Y14938D01*
G01X21126Y14951D01*
G01X21125Y14966D01*
G01X21126Y14981D01*
G01X21131Y14995D01*
G01X21139Y15007D01*
G01X21150Y15017D01*
G01X21164Y15026D01*
G01X21184Y15034D01*
G01X21207Y15042D01*
G01X21291Y15063D01*
G01X21334Y15080D01*
G01X21351Y15089D01*
G01X21365Y15100D01*
G01X21378Y15111D01*
G01X21388Y15124D01*
G01X21395Y15137D01*
G01X21400Y15152D01*
G01X21403Y15168D01*
G01X21405Y15184D01*
G01X21392Y15238D01*
G01X21356Y15284D01*
G01X21299Y15313D01*
G37*

%LPD*%
G36*
G01X21859Y15316D02*
G01X21798Y15324D01*
G01X21760Y15321D01*
G01X21725Y15311D01*
G01X21694Y15297D01*
G01X21665Y15276D01*
G01X21626Y15221D01*
G01X21610Y15151D01*
G01X21686Y15151D01*
G01X21690Y15174D01*
G01X21697Y15194D01*
G01X21707Y15211D01*
G01X21722Y15228D01*
G01X21738Y15240D01*
G01X21756Y15249D01*
G01X21777Y15255D01*
G01X21798Y15257D01*
G01X21853Y15246D01*
G01X21894Y15213D01*
G01X21920Y15158D01*
G01X21928Y15084D01*
G01X21928Y15069D01*
G01X21920Y14995D01*
G01X21896Y14942D01*
G01X21854Y14909D01*
G01X21798Y14898D01*
G01X21777Y14899D01*
G01X21757Y14904D01*
G01X21739Y14912D01*
G01X21722Y14924D01*
G01X21708Y14937D01*
G01X21697Y14953D01*
G01X21690Y14970D01*
G01X21686Y14990D01*
G01X21610Y14990D01*
G01X21612Y14969D01*
G01X21618Y14950D01*
G01X21626Y14930D01*
G01X21638Y14911D01*
G01X21652Y14894D01*
G01X21668Y14878D01*
G01X21686Y14865D01*
G01X21706Y14853D01*
G01X21729Y14843D01*
G01X21752Y14836D01*
G01X21775Y14832D01*
G01X21798Y14830D01*
G01X21844Y14834D01*
G01X21885Y14847D01*
G01X21922Y14867D01*
G01X21952Y14896D01*
G01X21978Y14931D01*
G01X21996Y14972D01*
G01X22007Y15020D01*
G01X22010Y15073D01*
G01X22010Y15086D01*
G01X22004Y15152D01*
G01X21985Y15209D01*
G01X21954Y15258D01*
G01X21911Y15294D01*
G01X21859Y15316D01*
G37*

%LPD*%
G36*
G01X22590Y15316D02*
G01X22531Y15324D01*
G01X22484Y15319D01*
G01X22443Y15307D01*
G01X22406Y15286D01*
G01X22373Y15257D01*
G01X22347Y15220D01*
G01X22328Y15178D01*
G01X22317Y15131D01*
G01X22314Y15078D01*
G01X22314Y15072D01*
G01X22320Y15006D01*
G01X22340Y14948D01*
G01X22372Y14899D01*
G01X22417Y14861D01*
G01X22469Y14838D01*
G01X22530Y14830D01*
G01X22576Y14835D01*
G01X22617Y14847D01*
G01X22654Y14868D01*
G01X22686Y14898D01*
G01X22713Y14934D01*
G01X22731Y14976D01*
G01X22743Y15023D01*
G01X22747Y15076D01*
G01X22747Y15082D01*
G01X22739Y15148D01*
G01X22718Y15207D01*
G01X22686Y15257D01*
G01X22643Y15294D01*
G01X22590Y15316D01*
G37*

%LPC*%
G36*
G01X22585Y15245D02*
G01X22531Y15257D01*
G01X22475Y15245D01*
G01X22431Y15209D01*
G01X22404Y15152D01*
G01X22394Y15082D01*
G01X22404Y15004D01*
G01X22431Y14946D01*
G01X22474Y14909D01*
G01X22530Y14898D01*
G01X22585Y14909D01*
G01X22627Y14945D01*
G01X22655Y15000D01*
G01X22664Y15072D01*
G01X22662Y15114D01*
G01X22655Y15151D01*
G01X22644Y15183D01*
G01X22627Y15209D01*
G01X22585Y15245D01*
G37*

%LPD*%
G36*
G01X24115Y15316D02*
G01X24056Y15324D01*
G01X24009Y15319D01*
G01X23968Y15307D01*
G01X23931Y15286D01*
G01X23898Y15257D01*
G01X23872Y15220D01*
G01X23853Y15178D01*
G01X23842Y15131D01*
G01X23839Y15078D01*
G01X23839Y15072D01*
G01X23845Y15006D01*
G01X23865Y14948D01*
G01X23897Y14899D01*
G01X23942Y14861D01*
G01X23994Y14838D01*
G01X24055Y14830D01*
G01X24101Y14835D01*
G01X24142Y14847D01*
G01X24179Y14868D01*
G01X24211Y14898D01*
G01X24238Y14934D01*
G01X24256Y14976D01*
G01X24268Y15023D01*
G01X24272Y15076D01*
G01X24272Y15082D01*
G01X24264Y15148D01*
G01X24243Y15207D01*
G01X24211Y15257D01*
G01X24168Y15294D01*
G01X24115Y15316D01*
G37*

%LPC*%
G36*
G01X24110Y15245D02*
G01X24056Y15257D01*
G01X24000Y15245D01*
G01X23956Y15209D01*
G01X23929Y15152D01*
G01X23919Y15082D01*
G01X23929Y15004D01*
G01X23956Y14946D01*
G01X23999Y14909D01*
G01X24055Y14898D01*
G01X24110Y14909D01*
G01X24152Y14945D01*
G01X24180Y15000D01*
G01X24189Y15072D01*
G01X24187Y15114D01*
G01X24180Y15151D01*
G01X24169Y15183D01*
G01X24152Y15209D01*
G01X24110Y15245D01*
G37*

%LPD*%

%LPD*%
G36*
G01X21534Y13749D02*
G01X21492Y13753D01*
G01X21452Y13750D01*
G01X21416Y13741D01*
G01X21385Y13727D01*
G01X21359Y13707D01*
G01X21322Y13656D01*
G01X21310Y13591D01*
G01X21313Y13559D01*
G01X21322Y13527D01*
G01X21338Y13492D01*
G01X21360Y13456D01*
G01X21388Y13418D01*
G01X21422Y13378D01*
G01X21585Y13203D01*
G01X21281Y13203D01*
G01X21281Y13140D01*
G01X21677Y13140D01*
G01X21677Y13195D01*
G01X21468Y13428D01*
G01X21429Y13475D01*
G01X21405Y13513D01*
G01X21397Y13529D01*
G01X21391Y13546D01*
G01X21388Y13564D01*
G01X21386Y13582D01*
G01X21388Y13604D01*
G01X21394Y13624D01*
G01X21403Y13643D01*
G01X21415Y13659D01*
G01X21431Y13672D01*
G01X21448Y13682D01*
G01X21469Y13688D01*
G01X21492Y13690D01*
G01X21542Y13681D01*
G01X21581Y13657D01*
G01X21605Y13617D01*
G01X21613Y13566D01*
G01X21689Y13566D01*
G01X21686Y13605D01*
G01X21676Y13641D01*
G01X21659Y13673D01*
G01X21635Y13701D01*
G01X21606Y13723D01*
G01X21572Y13740D01*
G01X21534Y13749D01*
G37*

%LPD*%
G36*
G01X22489Y13749D02*
G01X22447Y13753D01*
G01X22406Y13750D01*
G01X22371Y13741D01*
G01X22339Y13727D01*
G01X22313Y13707D01*
G01X22276Y13656D01*
G01X22264Y13591D01*
G01X22267Y13559D01*
G01X22276Y13527D01*
G01X22292Y13492D01*
G01X22314Y13456D01*
G01X22343Y13418D01*
G01X22377Y13378D01*
G01X22539Y13203D01*
G01X22236Y13203D01*
G01X22236Y13140D01*
G01X22631Y13140D01*
G01X22631Y13195D01*
G01X22422Y13428D01*
G01X22384Y13475D01*
G01X22359Y13513D01*
G01X22351Y13529D01*
G01X22346Y13546D01*
G01X22343Y13564D01*
G01X22342Y13582D01*
G01X22343Y13604D01*
G01X22348Y13624D01*
G01X22357Y13643D01*
G01X22369Y13659D01*
G01X22385Y13672D01*
G01X22403Y13682D01*
G01X22424Y13688D01*
G01X22447Y13690D01*
G01X22497Y13681D01*
G01X22535Y13657D01*
G01X22559Y13617D01*
G01X22567Y13566D01*
G01X22643Y13566D01*
G01X22640Y13605D01*
G01X22630Y13641D01*
G01X22613Y13673D01*
G01X22589Y13701D01*
G01X22561Y13723D01*
G01X22527Y13740D01*
G01X22489Y13749D01*
G37*

%LPD*%
G36*
G01X23584Y13593D02*
G01X23544Y13597D01*
G01X23501Y13592D01*
G01X23465Y13579D01*
G01X23437Y13557D01*
G01X23417Y13525D01*
G01X23405Y13485D01*
G01X23401Y13436D01*
G01X23401Y13140D01*
G01X23477Y13140D01*
G01X23477Y13436D01*
G01X23479Y13459D01*
G01X23483Y13479D01*
G01X23490Y13495D01*
G01X23500Y13509D01*
G01X23512Y13519D01*
G01X23527Y13526D01*
G01X23546Y13530D01*
G01X23568Y13532D01*
G01X23585Y13530D01*
G01X23602Y13526D01*
G01X23618Y13520D01*
G01X23634Y13511D01*
G01X23647Y13501D01*
G01X23659Y13488D01*
G01X23669Y13475D01*
G01X23677Y13459D01*
G01X23677Y13140D01*
G01X23753Y13140D01*
G01X23753Y13588D01*
G01X23681Y13588D01*
G01X23678Y13532D01*
G01X23651Y13561D01*
G01X23619Y13580D01*
G01X23584Y13593D01*
G37*

%LPD*%
G36*
G01X21058Y13749D02*
G01X21013Y13753D01*
G01X20967Y13749D01*
G01X20927Y13737D01*
G01X20895Y13717D01*
G01X20868Y13690D01*
G01X20848Y13654D01*
G01X20834Y13610D01*
G01X20825Y13558D01*
G01X20822Y13497D01*
G01X20822Y13398D01*
G01X20824Y13334D01*
G01X20833Y13280D01*
G01X20847Y13234D01*
G01X20868Y13197D01*
G01X20894Y13168D01*
G01X20927Y13148D01*
G01X20966Y13136D01*
G01X21011Y13132D01*
G01X21056Y13136D01*
G01X21095Y13148D01*
G01X21128Y13168D01*
G01X21155Y13196D01*
G01X21175Y13232D01*
G01X21189Y13275D01*
G01X21199Y13327D01*
G01X21202Y13386D01*
G01X21202Y13490D01*
G01X21200Y13552D01*
G01X21191Y13605D01*
G01X21177Y13651D01*
G01X21156Y13688D01*
G01X21130Y13716D01*
G01X21097Y13736D01*
G01X21058Y13749D01*
G37*

%LPC*%
G36*
G01X21063Y13678D02*
G01X21013Y13690D01*
G01X20961Y13678D01*
G01X20926Y13645D01*
G01X20913Y13619D01*
G01X20905Y13586D01*
G01X20899Y13548D01*
G01X20897Y13503D01*
G01X20897Y13376D01*
G01X20906Y13294D01*
G01X20927Y13238D01*
G01X20962Y13205D01*
G01X21011Y13194D01*
G01X21061Y13205D01*
G01X21097Y13241D01*
G01X21110Y13267D01*
G01X21118Y13300D01*
G01X21124Y13340D01*
G01X21126Y13386D01*
G01X21126Y13509D01*
G01X21118Y13588D01*
G01X21097Y13645D01*
G01X21063Y13678D01*
G37*

%LPD*%
G36*
G01X22013Y13749D02*
G01X21967Y13753D01*
G01X21921Y13749D01*
G01X21882Y13737D01*
G01X21850Y13717D01*
G01X21823Y13690D01*
G01X21803Y13654D01*
G01X21788Y13610D01*
G01X21779Y13558D01*
G01X21776Y13497D01*
G01X21776Y13398D01*
G01X21778Y13334D01*
G01X21787Y13280D01*
G01X21801Y13234D01*
G01X21822Y13197D01*
G01X21848Y13168D01*
G01X21881Y13148D01*
G01X21920Y13136D01*
G01X21965Y13132D01*
G01X22011Y13136D01*
G01X22050Y13148D01*
G01X22083Y13168D01*
G01X22110Y13196D01*
G01X22130Y13232D01*
G01X22144Y13275D01*
G01X22154Y13327D01*
G01X22157Y13386D01*
G01X22157Y13490D01*
G01X22155Y13552D01*
G01X22146Y13605D01*
G01X22132Y13651D01*
G01X22111Y13688D01*
G01X22085Y13716D01*
G01X22052Y13736D01*
G01X22013Y13749D01*
G37*

%LPC*%
G36*
G01X22018Y13678D02*
G01X21967Y13690D01*
G01X21915Y13678D01*
G01X21880Y13645D01*
G01X21859Y13586D01*
G01X21852Y13503D01*
G01X21852Y13376D01*
G01X21860Y13294D01*
G01X21881Y13238D01*
G01X21916Y13205D01*
G01X21965Y13194D01*
G01X22016Y13205D01*
G01X22052Y13241D01*
G01X22064Y13267D01*
G01X22073Y13300D01*
G01X22079Y13340D01*
G01X22081Y13386D01*
G01X22081Y13509D01*
G01X22073Y13588D01*
G01X22052Y13645D01*
G01X22018Y13678D01*
G37*

%LPD*%
G36*
G01X23160Y13589D02*
G01X23109Y13597D01*
G01X23067Y13593D01*
G01X23030Y13582D01*
G01X22998Y13565D01*
G01X22972Y13540D01*
G01X22951Y13507D01*
G01X22935Y13469D01*
G01X22927Y13424D01*
G01X22923Y13374D01*
G01X22923Y13343D01*
G01X23227Y13343D01*
G01X23217Y13282D01*
G01X23189Y13234D01*
G01X23147Y13204D01*
G01X23094Y13194D01*
G01X23075Y13195D01*
G01X23057Y13198D01*
G01X23040Y13203D01*
G01X23026Y13211D01*
G01X23012Y13220D01*
G01X22999Y13230D01*
G01X22988Y13242D01*
G01X22977Y13255D01*
G01X22930Y13218D01*
G01X22961Y13180D01*
G01X23000Y13153D01*
G01X23046Y13137D01*
G01X23098Y13132D01*
G01X23142Y13135D01*
G01X23181Y13147D01*
G01X23217Y13165D01*
G01X23247Y13192D01*
G01X23272Y13224D01*
G01X23290Y13261D01*
G01X23301Y13304D01*
G01X23305Y13351D01*
G01X23305Y13366D01*
G01X23298Y13429D01*
G01X23278Y13486D01*
G01X23248Y13532D01*
G01X23207Y13568D01*
G01X23160Y13589D01*
G37*

%LPC*%
G36*
G01X23131Y13531D02*
G01X23109Y13534D01*
G01X23085Y13532D01*
G01X23065Y13526D01*
G01X23047Y13516D01*
G01X23031Y13501D01*
G01X23010Y13463D01*
G01X23001Y13411D01*
G01X23001Y13405D01*
G01X23226Y13405D01*
G01X23212Y13459D01*
G01X23186Y13500D01*
G01X23170Y13514D01*
G01X23151Y13525D01*
G01X23131Y13531D01*
G37*

%LPD*%
G36*
G01X23947Y13588D02*
G01X23871Y13588D01*
G01X23871Y13140D01*
G01X23943Y13140D01*
G01X23946Y13184D01*
G01X23970Y13161D01*
G01X24000Y13145D01*
G01X24036Y13135D01*
G01X24077Y13132D01*
G01X24140Y13142D01*
G01X24186Y13173D01*
G01X24214Y13225D01*
G01X24225Y13297D01*
G01X24225Y13588D01*
G01X24147Y13588D01*
G01X24147Y13299D01*
G01X24142Y13254D01*
G01X24127Y13222D01*
G01X24101Y13203D01*
G01X24064Y13197D01*
G01X24024Y13201D01*
G01X23991Y13213D01*
G01X23966Y13233D01*
G01X23947Y13261D01*
G01X23947Y13588D01*
G37*

%LPD*%
G36*
G01X24427Y13744D02*
G01X24347Y13744D01*
G01X24347Y13316D01*
G01X24350Y13275D01*
G01X24360Y13239D01*
G01X24376Y13207D01*
G01X24398Y13180D01*
G01X24427Y13159D01*
G01X24459Y13144D01*
G01X24496Y13134D01*
G01X24536Y13132D01*
G01X24580Y13134D01*
G01X24617Y13143D01*
G01X24650Y13157D01*
G01X24677Y13178D01*
G01X24699Y13203D01*
G01X24715Y13233D01*
G01X24724Y13267D01*
G01X24727Y13307D01*
G01X24647Y13307D01*
G01X24646Y13282D01*
G01X24640Y13260D01*
G01X24632Y13242D01*
G01X24619Y13226D01*
G01X24603Y13213D01*
G01X24584Y13204D01*
G01X24562Y13198D01*
G01X24536Y13197D01*
G01X24513Y13199D01*
G01X24492Y13204D01*
G01X24474Y13214D01*
G01X24457Y13228D01*
G01X24444Y13245D01*
G01X24434Y13265D01*
G01X24428Y13288D01*
G01X24427Y13315D01*
G01X24427Y13744D01*
G37*

%LPD*%
M00*
M02*
