;Layer: Drill PTH
;EasyEDA v6.3.53, 2020-06-17T09:28:47+02:00
;2fc62430105348e8968ca0d9d06def79,a119ccecc66d453fa3e160aadb19915c,10
;Gerber Generator version 0.2
M48
INCH,LZ,00.0000
;Holesize 1 = 0.012 INCH
T01C0.012
;Holesize 2 = 0.020 INCH
T02C0.020
;Holesize 3 = 0.028 INCH
T03C0.028
;Holesize 4 = 0.035 INCH
T04C0.035
;Holesize 5 = 0.035 INCH
T05C0.035
;Holesize 6 = 0.036 INCH
T06C0.036
;Holesize 7 = 0.039 INCH
T07C0.039
;Holesize 8 = 0.040 INCH
T08C0.040
;Holesize 9 = 0.043 INCH
T09C0.043
;Holesize 10 = 0.047 INCH
T10C0.047
;Holesize 11 = 0.051 INCH
T11C0.051
;Holesize 12 = 0.063 INCH
T12C0.063
%
G05
G90
T01
X+019150Y+017190
X+025300Y+013740
X+006650Y+015340
X+011200Y+015492
X+005200Y+017090
X+019660Y+017901
X+015900Y+017901
X+009000Y+020790
X+009400Y+021390
X+022300Y+009590
X+024450Y+014140
X+017350Y+006290
X+022150Y+012690
X+015000Y+006640
T02
X+011785Y+004789
X+012572Y+004789
X+013360Y+004789
X+014147Y+004789
X+011785Y+003169
X+012572Y+003169
X+013360Y+003169
X+014147Y+003169
T03
X+010600Y+009440
X+011600Y+009440
X+012600Y+009440
X+013600Y+009440
X+013600Y+012440
X+012600Y+012440
X+011600Y+012440
X+010600Y+012440
T04
X+026800Y+017090
X+030800Y+017090
X+026750Y+009090
X+030750Y+009090
X+004400Y+018540
X+008400Y+018540
X+005150Y+013240
X+005150Y+009240
X+007150Y+013240
X+007150Y+009240
T05
X+020010Y+011790
X+018089Y+011790
X+010700Y+016065
X+011700Y+016065
X+012700Y+016065
X+013700Y+016065
X+014700Y+016065
X+015700Y+016065
X+016700Y+016065
X+017700Y+016065
X+018700Y+016065
X+019700Y+016065
X+020700Y+016065
X+021700Y+016065
X+022700Y+016065
X+023700Y+016065
X+010700Y+019214
X+011700Y+019214
X+012700Y+019214
X+013700Y+019214
X+014700Y+019214
X+015700Y+019214
X+016700Y+019214
X+017700Y+019214
X+018700Y+019214
X+019700Y+019214
X+020700Y+019214
X+021700Y+019214
X+022700Y+019214
X+023700Y+019214
T06
X+011957Y+007440
X+012942Y+007440
X+004600Y+004797
X+004600Y+005782
X+030700Y+011590
X+029700Y+011590
X+030700Y+014590
X+029700Y+014590
T07
X+008250Y+007090
X+010250Y+007090
X+008250Y+000840
X+010250Y+000840
X+022000Y+014090
X+020000Y+014090
X+016650Y+014090
X+018650Y+014090
X+016300Y+020590
X+014300Y+020590
X+015650Y+014090
X+013650Y+014090
X+019500Y+020590
X+017500Y+020590
X+010600Y+014090
X+012600Y+014090
T08
X+001500Y+011140
X+001500Y+012140
X+001500Y+013140
X+001500Y+014140
X+001500Y+015140
T09
X+027700Y+005740
X+027700Y+004740
X+026700Y+005740
X+026700Y+004740
X+025700Y+005740
X+025700Y+004740
X+024700Y+005740
X+024700Y+004740
X+023700Y+005740
X+023700Y+004740
X+021900Y+005690
X+021900Y+004690
X+020900Y+005690
X+020900Y+004690
X+019900Y+005690
X+019900Y+004690
X+018900Y+005690
X+018900Y+004690
X+017900Y+005690
X+017900Y+004690
T10
X+001550Y+017090
X+002550Y+017090
X+004500Y+019840
X+004500Y+020840
X+005500Y+019840
X+005500Y+020840
X+006500Y+019840
X+006500Y+020840
X+007500Y+019840
X+007500Y+020840
T11
X+008250Y+004940
X+008250Y+002940
X+008250Y+003940
T12
X+004265Y+001790
X+006234Y+001790
M30
