G04 Layer: BottomSolderMaskLayer*
G04 EasyEDA v6.3.53, 2020-06-17T09:28:47+02:00*
G04 2fc62430105348e8968ca0d9d06def79,a119ccecc66d453fa3e160aadb19915c,10*
G04 Gerber Generator version 0.2*
G04 Scale: 100 percent, Rotated: No, Reflected: No *
G04 Dimensions in inches *
G04 leading zeros omitted , absolute positions ,2 integer and 4 decimal *
%FSLAX24Y24*%
%MOIN*%
G90*
G70D02*

%ADD14C,0.070000*%
%ADD43C,0.086740*%
%ADD44C,0.074929*%
%ADD46C,0.078866*%
%ADD48C,0.068000*%
%ADD49C,0.070992*%
%ADD53C,0.082000*%
%ADD55C,0.067055*%
%ADD57C,0.063000*%
%ADD59C,0.106425*%

%LPD*%
G54D43*
G01X8348Y2940D02*
G01X8151Y2940D01*
G01X8348Y3940D02*
G01X8151Y3940D01*
G54D44*
G01X27700Y5740D03*
G01X27700Y4740D03*
G01X26700Y5740D03*
G01X26700Y4740D03*
G01X25700Y5740D03*
G01X25700Y4740D03*
G01X24700Y5740D03*
G01X24700Y4740D03*
G01X23700Y5740D03*
G36*
G01X23350Y4365D02*
G01X23350Y5115D01*
G01X24050Y5115D01*
G01X24050Y4365D01*
G01X23350Y4365D01*
G37*
G01X21900Y5690D03*
G01X21900Y4690D03*
G01X20900Y5690D03*
G01X20900Y4690D03*
G01X19900Y5690D03*
G01X19900Y4690D03*
G01X18900Y5690D03*
G01X18900Y4690D03*
G01X17900Y5690D03*
G36*
G01X17550Y4315D02*
G01X17550Y5065D01*
G01X18250Y5065D01*
G01X18250Y4315D01*
G01X17550Y4315D01*
G37*
G54D46*
G01X1550Y17090D03*
G36*
G01X2155Y16696D02*
G01X2155Y17484D01*
G01X2944Y17484D01*
G01X2944Y16696D01*
G01X2155Y16696D01*
G37*
G54D48*
G01X11957Y7440D03*
G01X12942Y7440D03*
G01X4600Y4797D03*
G01X4600Y5782D03*
G54D49*
G01X8250Y7090D03*
G01X10250Y7090D03*
G36*
G01X11375Y2375D02*
G01X11375Y5605D01*
G01X14605Y5605D01*
G01X14605Y2375D01*
G01X11375Y2375D01*
G37*
G36*
G01X7718Y4505D02*
G01X7718Y5374D01*
G01X8781Y5374D01*
G01X8781Y4505D01*
G01X7718Y4505D01*
G37*
G01X8250Y840D03*
G01X10250Y840D03*
G36*
G01X30360Y11250D02*
G01X30360Y11930D01*
G01X31039Y11930D01*
G01X31039Y11250D01*
G01X30360Y11250D01*
G37*
G54D48*
G01X29700Y11590D03*
G36*
G01X30360Y14250D02*
G01X30360Y14930D01*
G01X31039Y14930D01*
G01X31039Y14250D01*
G01X30360Y14250D01*
G37*
G01X29700Y14590D03*
G54D53*
G01X26800Y17090D03*
G01X30800Y17090D03*
G54D49*
G01X22000Y14090D03*
G01X20000Y14090D03*
G01X16650Y14090D03*
G01X18650Y14090D03*
G36*
G01X19675Y11455D02*
G01X19675Y12125D01*
G01X20344Y12125D01*
G01X20344Y11455D01*
G01X19675Y11455D01*
G37*
G54D55*
G01X18089Y11790D03*
G36*
G01X10285Y9125D02*
G01X10285Y9755D01*
G01X10914Y9755D01*
G01X10914Y9125D01*
G01X10285Y9125D01*
G37*
G54D57*
G01X11600Y9440D03*
G01X12600Y9440D03*
G01X13600Y9440D03*
G01X13600Y12440D03*
G01X12600Y12440D03*
G01X11600Y12440D03*
G01X10600Y12440D03*
G54D14*
G01X1500Y11140D03*
G01X1500Y12140D03*
G01X1500Y13140D03*
G01X1500Y14140D03*
G36*
G01X1150Y14790D02*
G01X1150Y15490D01*
G01X1850Y15490D01*
G01X1850Y14790D01*
G01X1150Y14790D01*
G37*
G36*
G01X4105Y19446D02*
G01X4105Y20234D01*
G01X4894Y20234D01*
G01X4894Y19446D01*
G01X4105Y19446D01*
G37*
G54D46*
G01X4500Y20840D03*
G01X5500Y19840D03*
G01X5500Y20840D03*
G01X6500Y19840D03*
G01X6500Y20840D03*
G01X7500Y19840D03*
G01X7500Y20840D03*
G36*
G01X10364Y15730D02*
G01X10364Y16400D01*
G01X11035Y16400D01*
G01X11035Y15730D01*
G01X10364Y15730D01*
G37*
G54D55*
G01X11700Y16065D03*
G01X12700Y16065D03*
G01X13700Y16065D03*
G01X14700Y16065D03*
G01X15700Y16065D03*
G01X16700Y16065D03*
G01X17700Y16065D03*
G01X18700Y16065D03*
G01X19700Y16065D03*
G01X20700Y16065D03*
G01X21700Y16065D03*
G01X22700Y16065D03*
G01X23700Y16065D03*
G01X10700Y19214D03*
G01X11700Y19214D03*
G01X12700Y19214D03*
G01X13700Y19214D03*
G01X14700Y19214D03*
G01X15700Y19214D03*
G01X16700Y19214D03*
G01X17700Y19214D03*
G01X18700Y19214D03*
G01X19700Y19214D03*
G01X20700Y19214D03*
G01X21700Y19214D03*
G01X22700Y19214D03*
G01X23700Y19214D03*
G54D53*
G01X26750Y9090D03*
G01X30750Y9090D03*
G54D59*
G01X4265Y1790D03*
G01X6234Y1790D03*
G54D53*
G01X4400Y18540D03*
G01X8400Y18540D03*
G54D49*
G01X16300Y20590D03*
G01X14300Y20590D03*
G01X15650Y14090D03*
G01X13650Y14090D03*
G01X19500Y20590D03*
G01X17500Y20590D03*
G01X10600Y14090D03*
G01X12600Y14090D03*
G54D53*
G01X5150Y13240D03*
G01X5150Y9240D03*
G01X7150Y13240D03*
G01X7150Y9240D03*
M00*
M02*
