;Layer: Drill PTH
;EasyEDA v6.3.53, 2020-06-17T09:27:07+02:00
;37cbf060f6a34a52bf7e715697852531,a119ccecc66d453fa3e160aadb19915c,10
;Gerber Generator version 0.2
M48
METRIC,LZ,000.000
;Holesize 1 = 0.305 METRIC
T01C0.305
;Holesize 2 = 0.501 METRIC
T02C0.501
;Holesize 3 = 0.701 METRIC
T03C0.701
;Holesize 4 = 0.813 METRIC
T04C0.813
;Holesize 5 = 0.900 METRIC
T05C0.900
;Holesize 6 = 0.901 METRIC
T06C0.901
;Holesize 7 = 0.915 METRIC
T07C0.915
;Holesize 8 = 1.000 METRIC
T08C1.000
;Holesize 9 = 1.101 METRIC
T09C1.101
;Holesize 10 = 1.301 METRIC
T10C1.301
;Holesize 11 = 1.600 METRIC
T11C1.600
%
G05
G90
T01
X+052352Y+037191
X+053848Y+030107
X+051562Y+019312
X+055753Y+020582
X+050546Y+020582
X+056261Y+018042
X+035500Y+045553
X+053731Y+043305
X+067467Y+022741
X+072511Y+022741
X+048006Y+037219
X+051024Y+034201
X+093726Y+044839
X+322834Y+042553
X+394970Y+043529
X+394970Y+048776
X+048386Y+011565
X+051562Y+011438
X+056261Y+011444
X+058293Y+011407
X+100865Y+028683
X+100076Y+037270
X+176276Y+028710
X+071880Y+020963
X+066167Y+020963
X+501904Y+027567
X+326903Y+027569
X+401903Y+027569
X+251904Y+025408
X+065024Y+006104
X+046990Y+006358
X+087640Y+026033
X+093218Y+028710
X+096520Y+037219
X+081407Y+020963
T02
X+244600Y+028928
X+244600Y+030928
X+244600Y+032928
X+244600Y+034928
X+240486Y+028928
X+240486Y+030928
X+240486Y+032928
X+240486Y+034928
X+014603Y+028928
X+014603Y+030928
X+014603Y+032928
X+014603Y+034928
X+010489Y+028928
X+010489Y+030928
X+010489Y+032928
X+010489Y+034928
T03
X+039499Y+039999
X+037899Y+039999
X+036100Y+039999
X+034500Y+039999
X+114499Y+039999
X+112899Y+039999
X+111100Y+039999
X+109500Y+039999
X+189499Y+039999
X+187899Y+039999
X+186100Y+039999
X+184500Y+039999
X+264499Y+039999
X+262899Y+039999
X+261100Y+039999
X+259500Y+039999
X+339499Y+039999
X+337899Y+039999
X+336100Y+039999
X+334500Y+039999
X+414499Y+039999
X+412899Y+039999
X+411100Y+039999
X+409500Y+039999
X+514499Y+039999
X+512899Y+039999
X+511100Y+039999
X+509500Y+039999
T04
X+100838Y+012573
X+098298Y+012573
X+090678Y+012573
X+088138Y+012573
X+095758Y+012573
X+093218Y+012573
X+085598Y+012573
X+085598Y+020972
X+088138Y+020972
X+090678Y+020972
X+093218Y+020972
X+095758Y+020972
X+098298Y+020972
X+100838Y+020972
X+077620Y+024800
X+075080Y+024800
X+067460Y+024800
X+064920Y+024800
X+072540Y+024800
X+070000Y+024800
X+062380Y+024800
X+062380Y+033199
X+064920Y+033199
X+067460Y+033199
X+070000Y+033199
X+072540Y+033199
X+075080Y+033199
X+077620Y+033199
T05
X+089999Y+045079
X+089999Y+034919
X+153670Y+028710
X+153670Y+018550
T06
X+089999Y+031269
X+089999Y+028729
T07
X+005060Y+024519
X+002559Y+024519
X+011449Y+011311
X+013950Y+011311
X+251250Y+009999
X+248749Y+009999
X+231250Y+025000
X+228749Y+025000
T08
X+061109Y+037189
X+063649Y+037189
X+066189Y+037189
X+068729Y+037189
X+071269Y+037189
X+073809Y+037189
X+076349Y+037189
X+078889Y+037189
X+078889Y+044809
X+076349Y+044809
X+073809Y+044809
X+071269Y+044809
X+068729Y+044809
X+066189Y+044809
X+063649Y+044809
X+061110Y+044809
X+020319Y+014232
X+020319Y+019312
X+004571Y+014232
X+004571Y+019312
X+250316Y+014233
X+250316Y+019313
X+234568Y+014233
X+234568Y+019313
X+057404Y+043315
X+057404Y+038235
X+105386Y+014259
X+105386Y+019339
X+082169Y+026424
X+082169Y+031504
X+050000Y+031999
X+050000Y+024000
X+125000Y+031999
X+125000Y+024000
X+200000Y+031999
X+200000Y+024000
X+275000Y+031999
X+275000Y+024000
X+350000Y+031999
X+350000Y+024000
X+424999Y+031999
X+424999Y+024000
X+524999Y+031999
X+524999Y+024000
X+029999Y+037459
X+029999Y+042539
X+104999Y+037459
X+104999Y+042539
X+179999Y+037459
X+179999Y+042539
X+254999Y+037459
X+254999Y+042539
X+330000Y+037459
X+330000Y+042539
X+505000Y+037459
X+505000Y+042539
X+405000Y+037459
X+405000Y+042539
X+047433Y+051316
X+039434Y+051316
T09
X+049919Y+006269
X+049919Y+003729
X+052459Y+006269
X+052459Y+003729
X+054999Y+006269
X+054999Y+003729
X+057539Y+006269
X+057539Y+003729
X+060079Y+006269
X+060079Y+003729
X+049919Y+051270
X+049919Y+048730
X+052459Y+051270
X+052459Y+048730
X+054999Y+051270
X+054999Y+048730
X+057539Y+051270
X+057539Y+048730
X+060079Y+051270
X+060079Y+048730
X+490728Y+030488
X+488188Y+030488
X+485648Y+030488
X+483108Y+030488
X+480568Y+030488
X+478028Y+030488
X+475488Y+030488
X+472948Y+030488
X+470408Y+030488
X+467868Y+030488
T10
X+244983Y+019947
X+239903Y+019947
X+242443Y+019947
X+014986Y+019947
X+009906Y+019947
X+012446Y+019947
X+033000Y+030499
X+037000Y+030499
X+041000Y+030499
X+108000Y+030499
X+112000Y+030499
X+115999Y+030499
X+183000Y+030499
X+187000Y+030499
X+190999Y+030499
X+258000Y+030499
X+262000Y+030499
X+266000Y+030499
X+333000Y+030499
X+337000Y+030499
X+341000Y+030499
X+407999Y+030499
X+411999Y+030499
X+415999Y+030499
X+508000Y+030499
X+512000Y+030499
X+516000Y+030499
T11
X+025499Y+050000
X+030499Y+050000
X+030500Y+004999
X+025500Y+004999
M30
