G04 Layer: BottomSilkLayer*
G04 EasyEDA v6.3.53, 2020-06-17T09:27:07+02:00*
G04 37cbf060f6a34a52bf7e715697852531,a119ccecc66d453fa3e160aadb19915c,10*
G04 Gerber Generator version 0.2*
G04 Scale: 100 percent, Rotated: No, Reflected: No *
G04 Dimensions in millimeters *
G04 leading zeros omitted , absolute positions ,3 integer and 3 decimal *
%FSLAX33Y33*%
%MOMM*%
G90*
G71D02*

%ADD10C,0.254000*%
%ADD13C,0.499999*%
%ADD33C,0.203200*%
%ADD36C,0.152400*%
%ADD37C,0.399999*%

%LPD*%
G54D33*
G01X61349Y7539D02*
G01X48649Y7539D01*
G01X48649Y2459D01*
G01X61349Y2459D01*
G01X61349Y7539D01*
G01X61349Y52540D02*
G01X48649Y52540D01*
G01X48649Y47460D01*
G01X61349Y47460D01*
G01X61349Y52540D01*
G54D10*
G01X237143Y22247D02*
G01X247742Y22247D01*
G54D13*
G01X237032Y17941D02*
G01X237032Y41233D01*
G01X237032Y41106D01*
G01X237032Y17890D02*
G01X247777Y17890D01*
G01X247777Y17915D02*
G01X247777Y40991D01*
G01X247777Y41233D01*
G01X237083Y41233D02*
G01X247683Y41233D01*
G54D10*
G01X237210Y22716D02*
G01X247810Y22716D01*
G01X7146Y22247D02*
G01X17745Y22247D01*
G54D13*
G01X7035Y17941D02*
G01X7035Y41233D01*
G01X7035Y41106D01*
G01X7035Y17890D02*
G01X17780Y17890D01*
G01X17780Y17915D02*
G01X17780Y40991D01*
G01X17780Y41233D01*
G01X7086Y41233D02*
G01X17686Y41233D01*
G54D10*
G01X7213Y22716D02*
G01X17813Y22716D01*
G01X60000Y40001D02*
G01X60000Y37801D01*
G01X60000Y44199D02*
G01X60000Y41999D01*
G01X79999Y37800D02*
G01X60000Y37800D01*
G01X79999Y44199D02*
G01X60000Y44199D01*
G01X79999Y44199D02*
G01X79999Y37800D01*
G01X83617Y20072D02*
G01X83617Y13472D01*
G01X102817Y20072D02*
G01X101338Y20072D01*
G01X100337Y20072D02*
G01X98798Y20072D01*
G01X97797Y20072D02*
G01X96258Y20072D01*
G01X95257Y20072D02*
G01X93718Y20072D01*
G01X92717Y20072D02*
G01X91178Y20072D01*
G01X90177Y20072D02*
G01X88638Y20072D01*
G01X87637Y20072D02*
G01X86098Y20072D01*
G01X85097Y20072D02*
G01X83617Y20072D01*
G01X102817Y13472D02*
G01X101846Y13472D01*
G01X99829Y13472D02*
G01X98798Y13472D01*
G01X97797Y13472D02*
G01X96258Y13472D01*
G01X95257Y13472D02*
G01X93718Y13472D01*
G01X92717Y13472D02*
G01X91178Y13472D01*
G01X90177Y13472D02*
G01X88638Y13472D01*
G01X87637Y13472D02*
G01X86098Y13472D01*
G01X85097Y13472D02*
G01X83617Y13472D01*
G01X102817Y20072D02*
G01X102817Y17737D01*
G01X102817Y13472D02*
G01X102817Y15807D01*
G01X60400Y32299D02*
G01X60400Y25699D01*
G01X79600Y32299D02*
G01X78120Y32299D01*
G01X77119Y32299D02*
G01X75580Y32299D01*
G01X74579Y32299D02*
G01X73040Y32299D01*
G01X72039Y32299D02*
G01X70500Y32299D01*
G01X69499Y32299D02*
G01X67960Y32299D01*
G01X66959Y32299D02*
G01X65420Y32299D01*
G01X64419Y32299D02*
G01X62880Y32299D01*
G01X61879Y32299D02*
G01X60400Y32299D01*
G01X79600Y25699D02*
G01X78628Y25699D01*
G01X76611Y25699D02*
G01X75580Y25699D01*
G01X74579Y25699D02*
G01X73040Y25699D01*
G01X72039Y25699D02*
G01X70500Y25699D01*
G01X69499Y25699D02*
G01X67960Y25699D01*
G01X66959Y25699D02*
G01X65420Y25699D01*
G01X64419Y25699D02*
G01X62880Y25699D01*
G01X61879Y25699D02*
G01X60400Y25699D01*
G01X79600Y32299D02*
G01X79600Y29964D01*
G01X79600Y25699D02*
G01X79600Y28034D01*
G01X91269Y28318D02*
G01X88722Y28313D01*
G01X24189Y53683D02*
G01X24189Y51905D01*
G01X26856Y51905D01*
G01X26856Y53683D01*
G01X29142Y53683D02*
G01X29142Y51905D01*
G01X31809Y51905D01*
G01X31809Y53683D01*
G01X22999Y46000D02*
G01X32999Y46000D01*
G01X32999Y53800D01*
G01X22999Y53800D01*
G01X22999Y46000D01*
G01X31810Y1316D02*
G01X31810Y3094D01*
G01X29143Y3094D01*
G01X29143Y1316D01*
G01X26857Y1316D02*
G01X26857Y3094D01*
G01X24190Y3094D01*
G01X24190Y1316D01*
G01X33000Y8999D02*
G01X23000Y8999D01*
G01X23000Y1199D01*
G01X33000Y1199D01*
G01X33000Y8999D01*
G01X21819Y14232D02*
G01X21819Y19312D01*
G01X18819Y14232D02*
G01X18819Y19312D01*
G01X21819Y19312D02*
G01X21351Y19312D01*
G01X19288Y19312D02*
G01X18819Y19312D01*
G01X21819Y14232D02*
G01X21351Y14232D01*
G01X19288Y14232D02*
G01X18819Y14232D01*
G01X6071Y14232D02*
G01X6071Y19312D01*
G01X3071Y14232D02*
G01X3071Y19312D01*
G01X6071Y19312D02*
G01X5603Y19312D01*
G01X3540Y19312D02*
G01X3071Y19312D01*
G01X6071Y14232D02*
G01X5603Y14232D01*
G01X3540Y14232D02*
G01X3071Y14232D01*
G01X251816Y14233D02*
G01X251816Y19313D01*
G01X248816Y14233D02*
G01X248816Y19313D01*
G01X251816Y19313D02*
G01X251348Y19313D01*
G01X249285Y19313D02*
G01X248816Y19313D01*
G01X251816Y14233D02*
G01X251348Y14233D01*
G01X249285Y14233D02*
G01X248816Y14233D01*
G01X236068Y14233D02*
G01X236068Y19313D01*
G01X233068Y14233D02*
G01X233068Y19313D01*
G01X236068Y19313D02*
G01X235600Y19313D01*
G01X233537Y19313D02*
G01X233068Y19313D01*
G01X236068Y14233D02*
G01X235600Y14233D01*
G01X233537Y14233D02*
G01X233068Y14233D01*
G01X55904Y43315D02*
G01X55904Y38235D01*
G01X58903Y43315D02*
G01X58903Y38235D01*
G01X55904Y38235D02*
G01X56372Y38235D01*
G01X58435Y38235D02*
G01X58903Y38235D01*
G01X55904Y43315D02*
G01X56372Y43315D01*
G01X58435Y43315D02*
G01X58903Y43315D01*
G01X106886Y14259D02*
G01X106886Y19339D01*
G01X103886Y14259D02*
G01X103886Y19339D01*
G01X106886Y19339D02*
G01X106418Y19339D01*
G01X104355Y19339D02*
G01X103886Y19339D01*
G01X106886Y14259D02*
G01X106418Y14259D01*
G01X104355Y14259D02*
G01X103886Y14259D01*
G01X83668Y26424D02*
G01X83668Y31504D01*
G01X80669Y26424D02*
G01X80669Y31504D01*
G01X83668Y31504D02*
G01X83200Y31504D01*
G01X81137Y31504D02*
G01X80669Y31504D01*
G01X83668Y26424D02*
G01X83200Y26424D01*
G01X81137Y26424D02*
G01X80669Y26424D01*
G01X91193Y43149D02*
G01X88806Y43149D01*
G01X88806Y43149D02*
G01X88806Y36850D01*
G01X88806Y36850D02*
G01X91193Y36850D01*
G01X91193Y36850D02*
G01X91193Y43149D01*
G01X5588Y25789D02*
G01X5080Y25789D01*
G01X5334Y26104D02*
G01X5334Y25535D01*
G01X10922Y10041D02*
G01X11430Y10041D01*
G01X11176Y9727D02*
G01X11176Y10295D01*
G01X251778Y11269D02*
G01X251270Y11269D01*
G01X251524Y11584D02*
G01X251524Y11015D01*
G01X231777Y26270D02*
G01X231269Y26270D01*
G01X231523Y26584D02*
G01X231523Y26016D01*
G54D33*
G01X27178Y45337D02*
G01X26632Y43905D01*
G01X26087Y45337D02*
G01X26632Y43905D01*
G01X24614Y44996D02*
G01X24682Y45133D01*
G01X24818Y45269D01*
G01X24955Y45337D01*
G01X25227Y45337D01*
G01X25364Y45269D01*
G01X25500Y45133D01*
G01X25568Y44996D01*
G01X25637Y44792D01*
G01X25637Y44451D01*
G01X25568Y44246D01*
G01X25500Y44110D01*
G01X25364Y43974D01*
G01X25227Y43905D01*
G01X24955Y43905D01*
G01X24818Y43974D01*
G01X24682Y44110D01*
G01X24614Y44246D01*
G01X23141Y44996D02*
G01X23209Y45133D01*
G01X23346Y45269D01*
G01X23482Y45337D01*
G01X23755Y45337D01*
G01X23891Y45269D01*
G01X24027Y45133D01*
G01X24096Y44996D01*
G01X24164Y44792D01*
G01X24164Y44451D01*
G01X24096Y44246D01*
G01X24027Y44110D01*
G01X23891Y43974D01*
G01X23755Y43905D01*
G01X23482Y43905D01*
G01X23346Y43974D01*
G01X23209Y44110D01*
G01X23141Y44246D01*
G01X32124Y44996D02*
G01X32192Y45133D01*
G01X32328Y45269D01*
G01X32465Y45337D01*
G01X32737Y45337D01*
G01X32874Y45269D01*
G01X33010Y45133D01*
G01X33078Y44996D01*
G01X33147Y44792D01*
G01X33147Y44451D01*
G01X33078Y44246D01*
G01X33010Y44110D01*
G01X32874Y43974D01*
G01X32737Y43905D01*
G01X32465Y43905D01*
G01X32328Y43974D01*
G01X32192Y44110D01*
G01X32124Y44246D01*
G01X32124Y44451D01*
G01X32465Y44451D02*
G01X32124Y44451D01*
G01X31674Y45337D02*
G01X31674Y43905D01*
G01X31674Y45337D02*
G01X30719Y43905D01*
G01X30719Y45337D02*
G01X30719Y43905D01*
G01X30269Y45337D02*
G01X30269Y43905D01*
G01X30269Y45337D02*
G01X29792Y45337D01*
G01X29587Y45269D01*
G01X29451Y45133D01*
G01X29383Y44996D01*
G01X29315Y44792D01*
G01X29315Y44451D01*
G01X29383Y44246D01*
G01X29451Y44110D01*
G01X29587Y43974D01*
G01X29792Y43905D01*
G01X30269Y43905D01*
G01X32124Y10579D02*
G01X32192Y10716D01*
G01X32328Y10852D01*
G01X32465Y10920D01*
G01X32737Y10920D01*
G01X32874Y10852D01*
G01X33010Y10716D01*
G01X33078Y10579D01*
G01X33147Y10375D01*
G01X33147Y10034D01*
G01X33078Y9829D01*
G01X33010Y9693D01*
G01X32874Y9557D01*
G01X32737Y9488D01*
G01X32465Y9488D01*
G01X32328Y9557D01*
G01X32192Y9693D01*
G01X32124Y9829D01*
G01X32124Y10034D01*
G01X32465Y10034D02*
G01X32124Y10034D01*
G01X31674Y10920D02*
G01X31674Y9488D01*
G01X31674Y10920D02*
G01X30719Y9488D01*
G01X30719Y10920D02*
G01X30719Y9488D01*
G01X30269Y10920D02*
G01X30269Y9488D01*
G01X30269Y10920D02*
G01X29792Y10920D01*
G01X29587Y10852D01*
G01X29451Y10716D01*
G01X29383Y10579D01*
G01X29315Y10375D01*
G01X29315Y10034D01*
G01X29383Y9829D01*
G01X29451Y9693D01*
G01X29587Y9557D01*
G01X29792Y9488D01*
G01X30269Y9488D01*
G01X27178Y10920D02*
G01X26632Y9488D01*
G01X26087Y10920D02*
G01X26632Y9488D01*
G01X24614Y10579D02*
G01X24682Y10716D01*
G01X24818Y10852D01*
G01X24955Y10920D01*
G01X25227Y10920D01*
G01X25364Y10852D01*
G01X25500Y10716D01*
G01X25568Y10579D01*
G01X25637Y10375D01*
G01X25637Y10034D01*
G01X25568Y9829D01*
G01X25500Y9693D01*
G01X25364Y9557D01*
G01X25227Y9488D01*
G01X24955Y9488D01*
G01X24818Y9557D01*
G01X24682Y9693D01*
G01X24614Y9829D01*
G01X23141Y10579D02*
G01X23209Y10716D01*
G01X23346Y10852D01*
G01X23482Y10920D01*
G01X23755Y10920D01*
G01X23891Y10852D01*
G01X24027Y10716D01*
G01X24096Y10579D01*
G01X24164Y10375D01*
G01X24164Y10034D01*
G01X24096Y9829D01*
G01X24027Y9693D01*
G01X23891Y9557D01*
G01X23755Y9488D01*
G01X23482Y9488D01*
G01X23346Y9557D01*
G01X23209Y9693D01*
G01X23141Y9829D01*

%LPD*%
G36*
G01X272047Y22850D02*
G01X271919Y22856D01*
G01X271734Y22842D01*
G01X271599Y22800D01*
G01X271599Y22129D01*
G01X271770Y22149D01*
G01X271955Y22155D01*
G01X272092Y22149D01*
G01X272221Y22130D01*
G01X272340Y22100D01*
G01X272451Y22058D01*
G01X272552Y22003D01*
G01X272644Y21937D01*
G01X272726Y21859D01*
G01X272800Y21768D01*
G01X272865Y21665D01*
G01X272920Y21550D01*
G01X272920Y18550D01*
G01X273644Y18550D01*
G01X273644Y22777D01*
G01X272940Y22777D01*
G01X272928Y22289D01*
G01X272853Y22397D01*
G01X272774Y22493D01*
G01X272687Y22578D01*
G01X272595Y22652D01*
G01X272498Y22714D01*
G01X272394Y22765D01*
G01X272284Y22805D01*
G01X272169Y22833D01*
G01X272047Y22850D01*
G37*

%LPD*%
G36*
G01X279760Y24550D02*
G01X279036Y24550D01*
G01X279036Y18550D01*
G01X279760Y18550D01*
G01X279760Y24550D01*
G37*

%LPD*%
G36*
G01X281701Y24550D02*
G01X280979Y24550D01*
G01X280979Y18550D01*
G01X281701Y18550D01*
G01X281701Y24550D01*
G37*

%LPD*%
G36*
G01X287360Y22850D02*
G01X287233Y22856D01*
G01X287047Y22842D01*
G01X286913Y22800D01*
G01X286913Y22129D01*
G01X287083Y22149D01*
G01X287268Y22155D01*
G01X287406Y22149D01*
G01X287535Y22130D01*
G01X287654Y22100D01*
G01X287764Y22058D01*
G01X287865Y22003D01*
G01X287957Y21937D01*
G01X288040Y21859D01*
G01X288114Y21768D01*
G01X288178Y21665D01*
G01X288234Y21550D01*
G01X288234Y18550D01*
G01X288955Y18550D01*
G01X288955Y22777D01*
G01X288251Y22777D01*
G01X288241Y22289D01*
G01X288167Y22397D01*
G01X288087Y22493D01*
G01X288001Y22578D01*
G01X287909Y22652D01*
G01X287811Y22714D01*
G01X287707Y22765D01*
G01X287598Y22805D01*
G01X287482Y22833D01*
G01X287360Y22850D01*
G37*

%LPD*%
G36*
G01X294138Y22852D02*
G01X294010Y22856D01*
G01X293891Y22853D01*
G01X293777Y22843D01*
G01X293669Y22828D01*
G01X293567Y22806D01*
G01X293470Y22778D01*
G01X293378Y22744D01*
G01X293292Y22703D01*
G01X293212Y22656D01*
G01X293136Y22603D01*
G01X293067Y22543D01*
G01X293003Y22478D01*
G01X292944Y22406D01*
G01X292890Y22328D01*
G01X292843Y22244D01*
G01X292801Y22153D01*
G01X292764Y22056D01*
G01X292732Y21954D01*
G01X292707Y21844D01*
G01X292686Y21729D01*
G01X292672Y21607D01*
G01X292662Y21479D01*
G01X292658Y21344D01*
G01X292658Y18550D01*
G01X293382Y18550D01*
G01X293382Y21347D01*
G01X293389Y21493D01*
G01X293407Y21625D01*
G01X293436Y21745D01*
G01X293476Y21850D01*
G01X293527Y21943D01*
G01X293590Y22023D01*
G01X293665Y22089D01*
G01X293753Y22144D01*
G01X293853Y22186D01*
G01X293965Y22217D01*
G01X294090Y22235D01*
G01X294228Y22241D01*
G01X294343Y22236D01*
G01X294454Y22220D01*
G01X294559Y22194D01*
G01X294659Y22158D01*
G01X294755Y22111D01*
G01X294845Y22053D01*
G01X294931Y21988D01*
G01X295010Y21916D01*
G01X295082Y21838D01*
G01X295148Y21753D01*
G01X295207Y21661D01*
G01X295259Y21563D01*
G01X295259Y18550D01*
G01X295983Y18550D01*
G01X295983Y22777D01*
G01X295300Y22777D01*
G01X295275Y22246D01*
G01X295192Y22344D01*
G01X295105Y22433D01*
G01X295014Y22513D01*
G01X294919Y22585D01*
G01X294820Y22649D01*
G01X294717Y22703D01*
G01X294610Y22750D01*
G01X294498Y22788D01*
G01X294382Y22818D01*
G01X294262Y22839D01*
G01X294138Y22852D01*
G37*

%LPD*%
G36*
G01X323697Y24238D02*
G01X320174Y24238D01*
G01X320174Y23620D01*
G01X322948Y23620D01*
G01X322948Y21675D01*
G01X320560Y21675D01*
G01X320560Y21063D01*
G01X322948Y21063D01*
G01X322948Y18550D01*
G01X323697Y18550D01*
G01X323697Y24238D01*
G37*

%LPD*%
G36*
G01X276341Y22851D02*
G01X276217Y22856D01*
G01X276082Y22852D01*
G01X275953Y22841D01*
G01X275828Y22822D01*
G01X275709Y22795D01*
G01X275595Y22761D01*
G01X275485Y22720D01*
G01X275381Y22671D01*
G01X275282Y22614D01*
G01X275188Y22550D01*
G01X275099Y22478D01*
G01X275015Y22399D01*
G01X274937Y22312D01*
G01X274874Y22232D01*
G01X274815Y22148D01*
G01X274762Y22058D01*
G01X274713Y21963D01*
G01X274668Y21864D01*
G01X274629Y21761D01*
G01X274594Y21652D01*
G01X274563Y21539D01*
G01X274538Y21420D01*
G01X274517Y21297D01*
G01X274500Y21170D01*
G01X274489Y21037D01*
G01X274482Y20900D01*
G01X274480Y20758D01*
G01X274480Y20455D01*
G01X277342Y20455D01*
G01X277335Y20333D01*
G01X277323Y20215D01*
G01X277303Y20102D01*
G01X277276Y19994D01*
G01X277243Y19891D01*
G01X277203Y19793D01*
G01X277157Y19699D01*
G01X277103Y19610D01*
G01X277043Y19526D01*
G01X276976Y19447D01*
G01X276886Y19357D01*
G01X276789Y19278D01*
G01X276687Y19212D01*
G01X276579Y19158D01*
G01X276465Y19115D01*
G01X276345Y19085D01*
G01X276219Y19067D01*
G01X276087Y19061D01*
G01X275963Y19066D01*
G01X275846Y19078D01*
G01X275735Y19100D01*
G01X275630Y19131D01*
G01X275532Y19170D01*
G01X275440Y19219D01*
G01X275311Y19302D01*
G01X275190Y19399D01*
G01X275078Y19510D01*
G01X274975Y19633D01*
G01X274533Y19290D01*
G01X274601Y19191D01*
G01X274674Y19098D01*
G01X274751Y19012D01*
G01X274832Y18932D01*
G01X274917Y18858D01*
G01X275006Y18791D01*
G01X275099Y18730D01*
G01X275197Y18676D01*
G01X275299Y18628D01*
G01X275405Y18587D01*
G01X275515Y18552D01*
G01X275629Y18523D01*
G01X275747Y18501D01*
G01X275870Y18484D01*
G01X275997Y18475D01*
G01X276128Y18472D01*
G01X276269Y18476D01*
G01X276405Y18487D01*
G01X276537Y18507D01*
G01X276665Y18534D01*
G01X276788Y18570D01*
G01X276906Y18612D01*
G01X277021Y18664D01*
G01X277130Y18722D01*
G01X277236Y18789D01*
G01X277337Y18863D01*
G01X277433Y18946D01*
G01X277525Y19036D01*
G01X277599Y19118D01*
G01X277668Y19205D01*
G01X277731Y19296D01*
G01X277789Y19390D01*
G01X277841Y19488D01*
G01X277888Y19591D01*
G01X277929Y19697D01*
G01X277964Y19807D01*
G01X277995Y19920D01*
G01X278019Y20038D01*
G01X278039Y20159D01*
G01X278052Y20285D01*
G01X278061Y20414D01*
G01X278063Y20547D01*
G01X278063Y20679D01*
G01X278061Y20803D01*
G01X278054Y20925D01*
G01X278042Y21045D01*
G01X278025Y21161D01*
G01X278004Y21275D01*
G01X277978Y21386D01*
G01X277947Y21494D01*
G01X277911Y21599D01*
G01X277870Y21702D01*
G01X277825Y21802D01*
G01X277761Y21922D01*
G01X277692Y22036D01*
G01X277617Y22143D01*
G01X277536Y22243D01*
G01X277449Y22337D01*
G01X277356Y22423D01*
G01X277257Y22503D01*
G01X277152Y22576D01*
G01X277042Y22642D01*
G01X276931Y22699D01*
G01X276818Y22747D01*
G01X276702Y22786D01*
G01X276584Y22817D01*
G01X276464Y22839D01*
G01X276341Y22851D01*
G37*

%LPC*%
G36*
G01X276359Y22253D02*
G01X276217Y22261D01*
G01X276071Y22253D01*
G01X275936Y22228D01*
G01X275811Y22186D01*
G01X275697Y22127D01*
G01X275592Y22052D01*
G01X275498Y21959D01*
G01X275435Y21880D01*
G01X275380Y21793D01*
G01X275331Y21698D01*
G01X275290Y21594D01*
G01X275257Y21484D01*
G01X275231Y21366D01*
G01X275212Y21240D01*
G01X275201Y21106D01*
G01X275201Y21050D01*
G01X277319Y21050D01*
G01X277298Y21190D01*
G01X277269Y21321D01*
G01X277234Y21445D01*
G01X277192Y21560D01*
G01X277142Y21668D01*
G01X277086Y21768D01*
G01X277022Y21860D01*
G01X276951Y21944D01*
G01X276848Y22041D01*
G01X276737Y22120D01*
G01X276619Y22182D01*
G01X276493Y22226D01*
G01X276359Y22253D01*
G37*

%LPD*%
G36*
G01X284737Y22852D02*
G01X284599Y22856D01*
G01X284477Y22853D01*
G01X284359Y22844D01*
G01X284244Y22828D01*
G01X284133Y22807D01*
G01X284024Y22779D01*
G01X283920Y22746D01*
G01X283819Y22706D01*
G01X283721Y22660D01*
G01X283626Y22608D01*
G01X283535Y22550D01*
G01X283447Y22486D01*
G01X283363Y22415D01*
G01X283282Y22339D01*
G01X283204Y22256D01*
G01X283131Y22169D01*
G01X283063Y22078D01*
G01X283000Y21983D01*
G01X282943Y21883D01*
G01X282891Y21780D01*
G01X282845Y21673D01*
G01X282805Y21561D01*
G01X282769Y21446D01*
G01X282739Y21326D01*
G01X282715Y21203D01*
G01X282695Y21075D01*
G01X282682Y20944D01*
G01X282674Y20809D01*
G01X282671Y20669D01*
G01X282671Y20618D01*
G01X282674Y20496D01*
G01X282681Y20376D01*
G01X282692Y20259D01*
G01X282709Y20145D01*
G01X282730Y20032D01*
G01X282756Y19923D01*
G01X282787Y19816D01*
G01X282822Y19712D01*
G01X282863Y19610D01*
G01X282907Y19511D01*
G01X282970Y19391D01*
G01X283038Y19279D01*
G01X283113Y19173D01*
G01X283194Y19074D01*
G01X283282Y18982D01*
G01X283376Y18897D01*
G01X283476Y18818D01*
G01X283583Y18746D01*
G01X283695Y18682D01*
G01X283810Y18626D01*
G01X283931Y18579D01*
G01X284055Y18540D01*
G01X284183Y18510D01*
G01X284315Y18489D01*
G01X284451Y18476D01*
G01X284591Y18472D01*
G01X284713Y18475D01*
G01X284831Y18484D01*
G01X284945Y18499D01*
G01X285057Y18521D01*
G01X285164Y18548D01*
G01X285269Y18582D01*
G01X285371Y18622D01*
G01X285469Y18667D01*
G01X285563Y18720D01*
G01X285654Y18778D01*
G01X285742Y18842D01*
G01X285827Y18912D01*
G01X285908Y18988D01*
G01X285986Y19071D01*
G01X286059Y19159D01*
G01X286126Y19249D01*
G01X286189Y19344D01*
G01X286246Y19444D01*
G01X286297Y19547D01*
G01X286343Y19654D01*
G01X286384Y19765D01*
G01X286419Y19879D01*
G01X286449Y19998D01*
G01X286473Y20121D01*
G01X286492Y20248D01*
G01X286506Y20378D01*
G01X286514Y20512D01*
G01X286517Y20651D01*
G01X286517Y20702D01*
G01X286514Y20825D01*
G01X286507Y20946D01*
G01X286495Y21064D01*
G01X286477Y21179D01*
G01X286456Y21292D01*
G01X286429Y21403D01*
G01X286397Y21511D01*
G01X286361Y21616D01*
G01X286319Y21719D01*
G01X286273Y21819D01*
G01X286209Y21940D01*
G01X286139Y22054D01*
G01X286063Y22161D01*
G01X285981Y22260D01*
G01X285894Y22352D01*
G01X285800Y22438D01*
G01X285700Y22515D01*
G01X285595Y22587D01*
G01X285483Y22650D01*
G01X285369Y22704D01*
G01X285250Y22751D01*
G01X285127Y22788D01*
G01X285001Y22818D01*
G01X284871Y22839D01*
G01X284737Y22852D01*
G37*

%LPC*%
G36*
G01X284729Y22255D02*
G01X284599Y22261D01*
G01X284466Y22255D01*
G01X284339Y22235D01*
G01X284220Y22200D01*
G01X284107Y22154D01*
G01X284000Y22093D01*
G01X283901Y22019D01*
G01X283808Y21931D01*
G01X283723Y21830D01*
G01X283660Y21741D01*
G01X283604Y21646D01*
G01X283554Y21547D01*
G01X283511Y21442D01*
G01X283475Y21332D01*
G01X283445Y21216D01*
G01X283422Y21096D01*
G01X283406Y20970D01*
G01X283396Y20839D01*
G01X283392Y20702D01*
G01X283395Y20550D01*
G01X283406Y20405D01*
G01X283422Y20267D01*
G01X283444Y20135D01*
G01X283474Y20011D01*
G01X283509Y19894D01*
G01X283552Y19783D01*
G01X283601Y19679D01*
G01X283656Y19583D01*
G01X283718Y19493D01*
G01X283802Y19392D01*
G01X283893Y19304D01*
G01X283992Y19230D01*
G01X284097Y19169D01*
G01X284210Y19122D01*
G01X284330Y19088D01*
G01X284457Y19068D01*
G01X284591Y19061D01*
G01X284725Y19068D01*
G01X284852Y19088D01*
G01X284971Y19121D01*
G01X285084Y19168D01*
G01X285190Y19228D01*
G01X285289Y19301D01*
G01X285380Y19388D01*
G01X285465Y19488D01*
G01X285527Y19576D01*
G01X285582Y19670D01*
G01X285631Y19769D01*
G01X285673Y19873D01*
G01X285709Y19984D01*
G01X285738Y20099D01*
G01X285761Y20221D01*
G01X285777Y20348D01*
G01X285787Y20480D01*
G01X285790Y20618D01*
G01X285787Y20773D01*
G01X285777Y20920D01*
G01X285761Y21061D01*
G01X285738Y21193D01*
G01X285708Y21319D01*
G01X285672Y21436D01*
G01X285630Y21547D01*
G01X285580Y21650D01*
G01X285525Y21746D01*
G01X285462Y21835D01*
G01X285377Y21935D01*
G01X285286Y22021D01*
G01X285188Y22095D01*
G01X285083Y22155D01*
G01X284972Y22201D01*
G01X284854Y22235D01*
G01X284729Y22255D01*
G37*

%LPD*%
G36*
G01X291310Y23801D02*
G01X290588Y23801D01*
G01X290588Y22777D01*
G01X289798Y22777D01*
G01X289798Y22218D01*
G01X290588Y22218D01*
G01X290588Y19597D01*
G01X290582Y19478D01*
G01X290562Y19374D01*
G01X290528Y19288D01*
G01X290482Y19216D01*
G01X290420Y19161D01*
G01X290340Y19120D01*
G01X290241Y19097D01*
G01X290123Y19089D01*
G01X289976Y19101D01*
G01X289780Y19137D01*
G01X289780Y18550D01*
G01X289922Y18516D01*
G01X290061Y18492D01*
G01X290199Y18477D01*
G01X290334Y18472D01*
G01X290489Y18480D01*
G01X290631Y18504D01*
G01X290760Y18545D01*
G01X290875Y18603D01*
G01X290977Y18676D01*
G01X291066Y18766D01*
G01X291123Y18843D01*
G01X291172Y18928D01*
G01X291215Y19020D01*
G01X291249Y19120D01*
G01X291276Y19228D01*
G01X291294Y19343D01*
G01X291306Y19466D01*
G01X291310Y19597D01*
G01X291310Y22218D01*
G01X292079Y22218D01*
G01X292079Y22777D01*
G01X291310Y22777D01*
G01X291310Y23801D01*
G37*

%LPD*%
G36*
G01X298955Y22852D02*
G01X298818Y22856D01*
G01X298696Y22853D01*
G01X298578Y22844D01*
G01X298463Y22828D01*
G01X298351Y22807D01*
G01X298243Y22779D01*
G01X298138Y22746D01*
G01X298037Y22706D01*
G01X297938Y22660D01*
G01X297844Y22608D01*
G01X297753Y22550D01*
G01X297665Y22486D01*
G01X297580Y22415D01*
G01X297499Y22339D01*
G01X297421Y22256D01*
G01X297348Y22169D01*
G01X297280Y22078D01*
G01X297218Y21983D01*
G01X297161Y21883D01*
G01X297109Y21780D01*
G01X297063Y21673D01*
G01X297023Y21561D01*
G01X296987Y21446D01*
G01X296958Y21326D01*
G01X296933Y21203D01*
G01X296914Y21075D01*
G01X296901Y20944D01*
G01X296892Y20809D01*
G01X296890Y20669D01*
G01X296890Y20618D01*
G01X296892Y20496D01*
G01X296900Y20376D01*
G01X296911Y20259D01*
G01X296928Y20145D01*
G01X296949Y20032D01*
G01X296975Y19923D01*
G01X297006Y19816D01*
G01X297041Y19712D01*
G01X297081Y19610D01*
G01X297126Y19511D01*
G01X297189Y19391D01*
G01X297257Y19279D01*
G01X297332Y19173D01*
G01X297413Y19074D01*
G01X297501Y18982D01*
G01X297595Y18897D01*
G01X297695Y18818D01*
G01X297802Y18746D01*
G01X297914Y18682D01*
G01X298029Y18626D01*
G01X298150Y18579D01*
G01X298274Y18540D01*
G01X298402Y18510D01*
G01X298534Y18489D01*
G01X298670Y18476D01*
G01X298810Y18472D01*
G01X298932Y18475D01*
G01X299049Y18484D01*
G01X299164Y18499D01*
G01X299276Y18521D01*
G01X299383Y18548D01*
G01X299487Y18582D01*
G01X299589Y18622D01*
G01X299686Y18667D01*
G01X299781Y18720D01*
G01X299872Y18778D01*
G01X299959Y18842D01*
G01X300044Y18912D01*
G01X300124Y18988D01*
G01X300202Y19071D01*
G01X300276Y19159D01*
G01X300344Y19249D01*
G01X300406Y19344D01*
G01X300463Y19444D01*
G01X300515Y19547D01*
G01X300561Y19654D01*
G01X300602Y19765D01*
G01X300637Y19879D01*
G01X300667Y19998D01*
G01X300692Y20121D01*
G01X300711Y20248D01*
G01X300725Y20378D01*
G01X300733Y20512D01*
G01X300736Y20651D01*
G01X300736Y20702D01*
G01X300733Y20825D01*
G01X300726Y20946D01*
G01X300714Y21064D01*
G01X300696Y21179D01*
G01X300675Y21292D01*
G01X300648Y21403D01*
G01X300616Y21511D01*
G01X300580Y21616D01*
G01X300538Y21719D01*
G01X300492Y21819D01*
G01X300428Y21940D01*
G01X300358Y22054D01*
G01X300282Y22161D01*
G01X300200Y22260D01*
G01X300113Y22352D01*
G01X300019Y22438D01*
G01X299919Y22515D01*
G01X299813Y22587D01*
G01X299702Y22650D01*
G01X299587Y22704D01*
G01X299469Y22751D01*
G01X299346Y22788D01*
G01X299220Y22818D01*
G01X299090Y22839D01*
G01X298955Y22852D01*
G37*

%LPC*%
G36*
G01X298948Y22255D02*
G01X298818Y22261D01*
G01X298685Y22255D01*
G01X298558Y22235D01*
G01X298439Y22200D01*
G01X298326Y22154D01*
G01X298219Y22093D01*
G01X298120Y22019D01*
G01X298027Y21931D01*
G01X297942Y21830D01*
G01X297879Y21741D01*
G01X297823Y21646D01*
G01X297773Y21547D01*
G01X297730Y21442D01*
G01X297694Y21332D01*
G01X297664Y21216D01*
G01X297641Y21096D01*
G01X297625Y20970D01*
G01X297615Y20839D01*
G01X297611Y20702D01*
G01X297614Y20550D01*
G01X297625Y20405D01*
G01X297641Y20267D01*
G01X297663Y20135D01*
G01X297693Y20011D01*
G01X297728Y19894D01*
G01X297771Y19783D01*
G01X297820Y19679D01*
G01X297874Y19583D01*
G01X297936Y19493D01*
G01X298021Y19392D01*
G01X298112Y19304D01*
G01X298211Y19230D01*
G01X298316Y19169D01*
G01X298429Y19122D01*
G01X298549Y19088D01*
G01X298676Y19068D01*
G01X298810Y19061D01*
G01X298943Y19068D01*
G01X299070Y19088D01*
G01X299189Y19121D01*
G01X299302Y19168D01*
G01X299408Y19228D01*
G01X299507Y19301D01*
G01X299599Y19388D01*
G01X299684Y19488D01*
G01X299746Y19576D01*
G01X299801Y19670D01*
G01X299850Y19769D01*
G01X299892Y19873D01*
G01X299928Y19984D01*
G01X299957Y20099D01*
G01X299980Y20221D01*
G01X299996Y20348D01*
G01X300006Y20480D01*
G01X300009Y20618D01*
G01X300006Y20773D01*
G01X299996Y20920D01*
G01X299980Y21061D01*
G01X299957Y21193D01*
G01X299927Y21319D01*
G01X299891Y21436D01*
G01X299849Y21547D01*
G01X299799Y21650D01*
G01X299744Y21746D01*
G01X299681Y21835D01*
G01X299596Y21935D01*
G01X299505Y22021D01*
G01X299407Y22095D01*
G01X299302Y22155D01*
G01X299191Y22201D01*
G01X299073Y22235D01*
G01X298948Y22255D01*
G37*

%LPD*%
G36*
G01X303680Y24313D02*
G01X303545Y24316D01*
G01X303396Y24313D01*
G01X303253Y24302D01*
G01X303114Y24285D01*
G01X302980Y24260D01*
G01X302852Y24228D01*
G01X302728Y24190D01*
G01X302610Y24144D01*
G01X302496Y24092D01*
G01X302388Y24032D01*
G01X302284Y23965D01*
G01X302185Y23892D01*
G01X302092Y23811D01*
G01X302004Y23724D01*
G01X301923Y23632D01*
G01X301847Y23533D01*
G01X301778Y23430D01*
G01X301716Y23322D01*
G01X301660Y23207D01*
G01X301609Y23088D01*
G01X301566Y22963D01*
G01X301528Y22832D01*
G01X301498Y22697D01*
G01X301473Y22556D01*
G01X301454Y22409D01*
G01X302209Y22409D01*
G01X302237Y22573D01*
G01X302272Y22726D01*
G01X302315Y22866D01*
G01X302364Y22995D01*
G01X302421Y23113D01*
G01X302485Y23219D01*
G01X302555Y23312D01*
G01X302633Y23394D01*
G01X302718Y23466D01*
G01X302812Y23527D01*
G01X302913Y23580D01*
G01X303024Y23623D01*
G01X303141Y23656D01*
G01X303268Y23680D01*
G01X303402Y23694D01*
G01X303545Y23699D01*
G01X303685Y23694D01*
G01X303820Y23678D01*
G01X303948Y23651D01*
G01X304070Y23614D01*
G01X304186Y23566D01*
G01X304296Y23508D01*
G01X304399Y23439D01*
G01X304497Y23359D01*
G01X304588Y23269D01*
G01X304673Y23168D01*
G01X304738Y23077D01*
G01X304796Y22979D01*
G01X304850Y22875D01*
G01X304898Y22764D01*
G01X304941Y22648D01*
G01X304977Y22525D01*
G01X305008Y22396D01*
G01X305034Y22260D01*
G01X305054Y22119D01*
G01X305068Y21971D01*
G01X305076Y21817D01*
G01X305079Y21657D01*
G01X305079Y21106D01*
G01X305076Y20954D01*
G01X305068Y20807D01*
G01X305055Y20666D01*
G01X305036Y20530D01*
G01X305012Y20399D01*
G01X304982Y20274D01*
G01X304947Y20154D01*
G01X304907Y20039D01*
G01X304862Y19929D01*
G01X304811Y19825D01*
G01X304754Y19726D01*
G01X304693Y19633D01*
G01X304613Y19529D01*
G01X304526Y19436D01*
G01X304433Y19354D01*
G01X304334Y19283D01*
G01X304230Y19223D01*
G01X304118Y19174D01*
G01X304000Y19136D01*
G01X303877Y19108D01*
G01X303747Y19092D01*
G01X303611Y19086D01*
G01X303459Y19091D01*
G01X303317Y19104D01*
G01X303183Y19126D01*
G01X303059Y19157D01*
G01X302944Y19197D01*
G01X302838Y19245D01*
G01X302741Y19302D01*
G01X302653Y19368D01*
G01X302588Y19429D01*
G01X302528Y19499D01*
G01X302472Y19577D01*
G01X302421Y19663D01*
G01X302374Y19757D01*
G01X302332Y19861D01*
G01X302295Y19972D01*
G01X302262Y20092D01*
G01X302233Y20220D01*
G01X302209Y20356D01*
G01X301454Y20356D01*
G01X301472Y20229D01*
G01X301494Y20106D01*
G01X301521Y19988D01*
G01X301552Y19873D01*
G01X301588Y19764D01*
G01X301629Y19657D01*
G01X301675Y19556D01*
G01X301725Y19458D01*
G01X301779Y19365D01*
G01X301839Y19276D01*
G01X301903Y19191D01*
G01X301971Y19110D01*
G01X302045Y19034D01*
G01X302122Y18962D01*
G01X302204Y18894D01*
G01X302289Y18832D01*
G01X302379Y18775D01*
G01X302472Y18722D01*
G01X302569Y18674D01*
G01X302669Y18632D01*
G01X302774Y18594D01*
G01X302882Y18562D01*
G01X302994Y18534D01*
G01X303110Y18512D01*
G01X303229Y18494D01*
G01X303353Y18482D01*
G01X303480Y18474D01*
G01X303611Y18472D01*
G01X303735Y18475D01*
G01X303857Y18483D01*
G01X303975Y18497D01*
G01X304090Y18517D01*
G01X304202Y18542D01*
G01X304311Y18573D01*
G01X304416Y18610D01*
G01X304519Y18653D01*
G01X304618Y18701D01*
G01X304715Y18755D01*
G01X304808Y18814D01*
G01X304898Y18879D01*
G01X304984Y18950D01*
G01X305068Y19026D01*
G01X305149Y19108D01*
G01X305226Y19196D01*
G01X305300Y19288D01*
G01X305368Y19384D01*
G01X305432Y19483D01*
G01X305492Y19587D01*
G01X305546Y19695D01*
G01X305596Y19806D01*
G01X305641Y19921D01*
G01X305681Y20039D01*
G01X305717Y20162D01*
G01X305748Y20289D01*
G01X305774Y20419D01*
G01X305795Y20554D01*
G01X305812Y20692D01*
G01X305824Y20833D01*
G01X305831Y20979D01*
G01X305833Y21129D01*
G01X305833Y21675D01*
G01X305831Y21806D01*
G01X305826Y21934D01*
G01X305816Y22060D01*
G01X305802Y22183D01*
G01X305785Y22303D01*
G01X305763Y22421D01*
G01X305737Y22536D01*
G01X305708Y22648D01*
G01X305675Y22757D01*
G01X305638Y22864D01*
G01X305597Y22968D01*
G01X305551Y23069D01*
G01X305492Y23186D01*
G01X305428Y23299D01*
G01X305360Y23405D01*
G01X305286Y23506D01*
G01X305208Y23601D01*
G01X305126Y23691D01*
G01X305039Y23775D01*
G01X304947Y23854D01*
G01X304850Y23926D01*
G01X304749Y23994D01*
G01X304643Y24055D01*
G01X304534Y24110D01*
G01X304422Y24158D01*
G01X304306Y24200D01*
G01X304187Y24236D01*
G01X304065Y24264D01*
G01X303940Y24287D01*
G01X303811Y24304D01*
G01X303680Y24313D01*
G37*

%LPD*%
G36*
G01X310088Y23801D02*
G01X309366Y23801D01*
G01X309366Y22777D01*
G01X308576Y22777D01*
G01X308576Y22218D01*
G01X309366Y22218D01*
G01X309366Y19597D01*
G01X309360Y19478D01*
G01X309340Y19374D01*
G01X309306Y19288D01*
G01X309260Y19216D01*
G01X309198Y19161D01*
G01X309118Y19120D01*
G01X309019Y19097D01*
G01X308902Y19089D01*
G01X308752Y19101D01*
G01X308556Y19137D01*
G01X308556Y18550D01*
G01X308697Y18516D01*
G01X308838Y18492D01*
G01X308976Y18477D01*
G01X309112Y18472D01*
G01X309267Y18480D01*
G01X309408Y18504D01*
G01X309536Y18545D01*
G01X309651Y18603D01*
G01X309753Y18676D01*
G01X309841Y18766D01*
G01X309899Y18843D01*
G01X309949Y18928D01*
G01X309992Y19020D01*
G01X310026Y19120D01*
G01X310053Y19228D01*
G01X310073Y19343D01*
G01X310084Y19466D01*
G01X310088Y19597D01*
G01X310088Y22218D01*
G01X310857Y22218D01*
G01X310857Y22777D01*
G01X310088Y22777D01*
G01X310088Y23801D01*
G37*

%LPD*%
G36*
G01X313319Y22852D02*
G01X313182Y22856D01*
G01X313060Y22853D01*
G01X312942Y22844D01*
G01X312826Y22828D01*
G01X312715Y22807D01*
G01X312607Y22779D01*
G01X312502Y22746D01*
G01X312401Y22706D01*
G01X312302Y22660D01*
G01X312208Y22608D01*
G01X312116Y22550D01*
G01X312028Y22486D01*
G01X311944Y22415D01*
G01X311862Y22339D01*
G01X311785Y22256D01*
G01X311711Y22169D01*
G01X311643Y22078D01*
G01X311580Y21983D01*
G01X311523Y21883D01*
G01X311472Y21780D01*
G01X311425Y21673D01*
G01X311384Y21561D01*
G01X311349Y21446D01*
G01X311319Y21326D01*
G01X311295Y21203D01*
G01X311275Y21075D01*
G01X311262Y20944D01*
G01X311254Y20809D01*
G01X311251Y20669D01*
G01X311251Y20618D01*
G01X311254Y20496D01*
G01X311261Y20376D01*
G01X311272Y20259D01*
G01X311289Y20145D01*
G01X311310Y20032D01*
G01X311336Y19923D01*
G01X311367Y19816D01*
G01X311402Y19712D01*
G01X311443Y19610D01*
G01X311487Y19511D01*
G01X311550Y19391D01*
G01X311618Y19279D01*
G01X311693Y19173D01*
G01X311774Y19074D01*
G01X311862Y18982D01*
G01X311956Y18897D01*
G01X312056Y18818D01*
G01X312163Y18746D01*
G01X312275Y18682D01*
G01X312391Y18626D01*
G01X312511Y18579D01*
G01X312635Y18540D01*
G01X312764Y18510D01*
G01X312897Y18489D01*
G01X313033Y18476D01*
G01X313174Y18472D01*
G01X313295Y18475D01*
G01X313413Y18484D01*
G01X313527Y18499D01*
G01X313638Y18521D01*
G01X313746Y18548D01*
G01X313850Y18582D01*
G01X313951Y18622D01*
G01X314049Y18667D01*
G01X314143Y18720D01*
G01X314235Y18778D01*
G01X314322Y18842D01*
G01X314407Y18912D01*
G01X314488Y18988D01*
G01X314566Y19071D01*
G01X314639Y19159D01*
G01X314708Y19249D01*
G01X314770Y19344D01*
G01X314827Y19444D01*
G01X314879Y19547D01*
G01X314925Y19654D01*
G01X314966Y19765D01*
G01X315001Y19879D01*
G01X315031Y19998D01*
G01X315056Y20121D01*
G01X315075Y20248D01*
G01X315089Y20378D01*
G01X315097Y20512D01*
G01X315099Y20651D01*
G01X315099Y20702D01*
G01X315097Y20825D01*
G01X315090Y20946D01*
G01X315077Y21064D01*
G01X315060Y21179D01*
G01X315038Y21292D01*
G01X315011Y21403D01*
G01X314980Y21511D01*
G01X314943Y21616D01*
G01X314902Y21719D01*
G01X314855Y21819D01*
G01X314791Y21940D01*
G01X314721Y22054D01*
G01X314646Y22161D01*
G01X314563Y22260D01*
G01X314475Y22352D01*
G01X314381Y22438D01*
G01X314281Y22515D01*
G01X314175Y22587D01*
G01X314064Y22650D01*
G01X313950Y22704D01*
G01X313831Y22751D01*
G01X313709Y22788D01*
G01X313583Y22818D01*
G01X313453Y22839D01*
G01X313319Y22852D01*
G37*

%LPC*%
G36*
G01X313312Y22255D02*
G01X313182Y22261D01*
G01X313048Y22255D01*
G01X312922Y22235D01*
G01X312803Y22200D01*
G01X312689Y22154D01*
G01X312583Y22093D01*
G01X312484Y22019D01*
G01X312391Y21931D01*
G01X312305Y21830D01*
G01X312243Y21741D01*
G01X312186Y21646D01*
G01X312137Y21547D01*
G01X312094Y21442D01*
G01X312058Y21332D01*
G01X312028Y21216D01*
G01X312004Y21096D01*
G01X311988Y20970D01*
G01X311979Y20839D01*
G01X311975Y20702D01*
G01X311978Y20550D01*
G01X311988Y20405D01*
G01X312004Y20267D01*
G01X312027Y20135D01*
G01X312056Y20011D01*
G01X312092Y19894D01*
G01X312135Y19783D01*
G01X312183Y19679D01*
G01X312238Y19583D01*
G01X312300Y19493D01*
G01X312384Y19392D01*
G01X312476Y19304D01*
G01X312574Y19230D01*
G01X312680Y19169D01*
G01X312793Y19122D01*
G01X312913Y19088D01*
G01X313040Y19068D01*
G01X313174Y19061D01*
G01X313307Y19068D01*
G01X313433Y19088D01*
G01X313553Y19121D01*
G01X313666Y19168D01*
G01X313771Y19228D01*
G01X313870Y19301D01*
G01X313962Y19388D01*
G01X314048Y19488D01*
G01X314110Y19576D01*
G01X314164Y19670D01*
G01X314213Y19769D01*
G01X314256Y19873D01*
G01X314291Y19984D01*
G01X314321Y20099D01*
G01X314343Y20221D01*
G01X314360Y20348D01*
G01X314370Y20480D01*
G01X314373Y20618D01*
G01X314370Y20773D01*
G01X314360Y20920D01*
G01X314343Y21061D01*
G01X314320Y21193D01*
G01X314291Y21319D01*
G01X314255Y21436D01*
G01X314212Y21547D01*
G01X314163Y21650D01*
G01X314108Y21746D01*
G01X314045Y21835D01*
G01X313960Y21935D01*
G01X313868Y22021D01*
G01X313770Y22095D01*
G01X313666Y22155D01*
G01X313554Y22201D01*
G01X313437Y22235D01*
G01X313312Y22255D01*
G37*

%LPD*%
G36*
G01X317881Y22852D02*
G01X317743Y22856D01*
G01X317621Y22853D01*
G01X317504Y22844D01*
G01X317389Y22828D01*
G01X317277Y22807D01*
G01X317169Y22779D01*
G01X317064Y22746D01*
G01X316963Y22706D01*
G01X316865Y22660D01*
G01X316771Y22608D01*
G01X316680Y22550D01*
G01X316592Y22486D01*
G01X316507Y22415D01*
G01X316427Y22339D01*
G01X316349Y22256D01*
G01X316275Y22169D01*
G01X316207Y22078D01*
G01X316145Y21983D01*
G01X316088Y21883D01*
G01X316036Y21780D01*
G01X315990Y21673D01*
G01X315949Y21561D01*
G01X315914Y21446D01*
G01X315884Y21326D01*
G01X315859Y21203D01*
G01X315840Y21075D01*
G01X315826Y20944D01*
G01X315818Y20809D01*
G01X315815Y20669D01*
G01X315815Y20618D01*
G01X315818Y20496D01*
G01X315825Y20376D01*
G01X315837Y20259D01*
G01X315853Y20145D01*
G01X315874Y20032D01*
G01X315900Y19923D01*
G01X315931Y19816D01*
G01X315967Y19712D01*
G01X316007Y19610D01*
G01X316052Y19511D01*
G01X316114Y19391D01*
G01X316183Y19279D01*
G01X316257Y19173D01*
G01X316339Y19074D01*
G01X316427Y18982D01*
G01X316521Y18897D01*
G01X316621Y18818D01*
G01X316727Y18746D01*
G01X316839Y18682D01*
G01X316955Y18626D01*
G01X317075Y18579D01*
G01X317199Y18540D01*
G01X317327Y18510D01*
G01X317459Y18489D01*
G01X317596Y18476D01*
G01X317736Y18472D01*
G01X317857Y18475D01*
G01X317975Y18484D01*
G01X318090Y18499D01*
G01X318201Y18521D01*
G01X318309Y18548D01*
G01X318413Y18582D01*
G01X318515Y18622D01*
G01X318613Y18667D01*
G01X318708Y18720D01*
G01X318798Y18778D01*
G01X318886Y18842D01*
G01X318971Y18912D01*
G01X319052Y18988D01*
G01X319130Y19071D01*
G01X319203Y19159D01*
G01X319271Y19249D01*
G01X319333Y19344D01*
G01X319390Y19444D01*
G01X319442Y19547D01*
G01X319488Y19654D01*
G01X319528Y19765D01*
G01X319564Y19879D01*
G01X319593Y19998D01*
G01X319618Y20121D01*
G01X319637Y20248D01*
G01X319650Y20378D01*
G01X319659Y20512D01*
G01X319661Y20651D01*
G01X319661Y20702D01*
G01X319659Y20825D01*
G01X319651Y20946D01*
G01X319639Y21064D01*
G01X319622Y21179D01*
G01X319600Y21292D01*
G01X319573Y21403D01*
G01X319542Y21511D01*
G01X319505Y21616D01*
G01X319463Y21719D01*
G01X319417Y21819D01*
G01X319353Y21940D01*
G01X319284Y22054D01*
G01X319207Y22161D01*
G01X319126Y22260D01*
G01X319038Y22352D01*
G01X318944Y22438D01*
G01X318845Y22515D01*
G01X318739Y22587D01*
G01X318628Y22650D01*
G01X318513Y22704D01*
G01X318394Y22751D01*
G01X318272Y22788D01*
G01X318145Y22818D01*
G01X318015Y22839D01*
G01X317881Y22852D01*
G37*

%LPC*%
G36*
G01X317874Y22255D02*
G01X317743Y22261D01*
G01X317610Y22255D01*
G01X317484Y22235D01*
G01X317364Y22200D01*
G01X317251Y22154D01*
G01X317145Y22093D01*
G01X317046Y22019D01*
G01X316953Y21931D01*
G01X316867Y21830D01*
G01X316805Y21741D01*
G01X316748Y21646D01*
G01X316699Y21547D01*
G01X316656Y21442D01*
G01X316620Y21332D01*
G01X316590Y21216D01*
G01X316566Y21096D01*
G01X316550Y20970D01*
G01X316540Y20839D01*
G01X316537Y20702D01*
G01X316540Y20550D01*
G01X316550Y20405D01*
G01X316566Y20267D01*
G01X316589Y20135D01*
G01X316618Y20011D01*
G01X316654Y19894D01*
G01X316696Y19783D01*
G01X316745Y19679D01*
G01X316800Y19583D01*
G01X316862Y19493D01*
G01X316946Y19392D01*
G01X317038Y19304D01*
G01X317136Y19230D01*
G01X317242Y19169D01*
G01X317355Y19122D01*
G01X317475Y19088D01*
G01X317602Y19068D01*
G01X317736Y19061D01*
G01X317869Y19068D01*
G01X317996Y19088D01*
G01X318116Y19121D01*
G01X318228Y19168D01*
G01X318334Y19228D01*
G01X318433Y19301D01*
G01X318525Y19388D01*
G01X318609Y19488D01*
G01X318671Y19576D01*
G01X318726Y19670D01*
G01X318775Y19769D01*
G01X318818Y19873D01*
G01X318853Y19984D01*
G01X318883Y20099D01*
G01X318905Y20221D01*
G01X318921Y20348D01*
G01X318932Y20480D01*
G01X318935Y20618D01*
G01X318932Y20773D01*
G01X318921Y20920D01*
G01X318905Y21061D01*
G01X318882Y21193D01*
G01X318853Y21319D01*
G01X318817Y21436D01*
G01X318774Y21547D01*
G01X318725Y21650D01*
G01X318669Y21746D01*
G01X318607Y21835D01*
G01X318522Y21935D01*
G01X318430Y22021D01*
G01X318332Y22095D01*
G01X318227Y22155D01*
G01X318116Y22201D01*
G01X317998Y22235D01*
G01X317874Y22255D01*
G37*

%LPD*%

%LPD*%
G36*
G01X299041Y32137D02*
G01X298099Y32137D01*
G01X298099Y25027D01*
G01X299041Y25027D01*
G01X299041Y28314D01*
G01X302625Y28314D01*
G01X302625Y25027D01*
G01X303563Y25027D01*
G01X303563Y32137D01*
G01X302625Y32137D01*
G01X302625Y29081D01*
G01X299041Y29081D01*
G01X299041Y32137D01*
G37*

%LPD*%
G36*
G01X309245Y32137D02*
G01X304777Y32137D01*
G01X304777Y31365D01*
G01X308307Y31365D01*
G01X308307Y29081D01*
G01X305226Y29081D01*
G01X305226Y28314D01*
G01X308307Y28314D01*
G01X308307Y25795D01*
G01X304728Y25795D01*
G01X304728Y25027D01*
G01X309245Y25027D01*
G01X309245Y32137D01*
G37*

%LPD*%
G36*
G01X312117Y32137D02*
G01X310901Y32137D01*
G01X310901Y25027D01*
G01X311838Y25027D01*
G01X311838Y27796D01*
G01X311749Y30783D01*
G01X314083Y25027D01*
G01X314802Y25027D01*
G01X317131Y30770D01*
G01X317037Y27796D01*
G01X317037Y25027D01*
G01X317974Y25027D01*
G01X317974Y32137D01*
G01X316765Y32137D01*
G01X314441Y26336D01*
G01X312117Y32137D01*
G37*

%LPD*%
G36*
G01X323659Y32137D02*
G01X319191Y32137D01*
G01X319191Y31365D01*
G01X322722Y31365D01*
G01X322722Y29081D01*
G01X319641Y29081D01*
G01X319641Y28314D01*
G01X322722Y28314D01*
G01X322722Y25795D01*
G01X319143Y25795D01*
G01X319143Y25027D01*
G01X323659Y25027D01*
G01X323659Y32137D01*
G37*

%LPD*%
G36*
G01X293940Y32231D02*
G01X293806Y32233D01*
G01X293669Y32231D01*
G01X293535Y32224D01*
G01X293404Y32214D01*
G01X293276Y32198D01*
G01X293152Y32178D01*
G01X293032Y32153D01*
G01X292914Y32125D01*
G01X292801Y32091D01*
G01X292690Y32054D01*
G01X292583Y32011D01*
G01X292479Y31965D01*
G01X292379Y31913D01*
G01X292283Y31858D01*
G01X292189Y31798D01*
G01X292100Y31734D01*
G01X292013Y31665D01*
G01X291930Y31592D01*
G01X291852Y31515D01*
G01X291777Y31435D01*
G01X291707Y31351D01*
G01X291641Y31264D01*
G01X291578Y31172D01*
G01X291520Y31077D01*
G01X291467Y30978D01*
G01X291417Y30876D01*
G01X291371Y30769D01*
G01X291329Y30659D01*
G01X291292Y30545D01*
G01X291258Y30427D01*
G01X291229Y30306D01*
G01X291204Y30181D01*
G01X291183Y30052D01*
G01X292122Y30052D01*
G01X292149Y30177D01*
G01X292179Y30296D01*
G01X292215Y30410D01*
G01X292255Y30518D01*
G01X292301Y30621D01*
G01X292351Y30717D01*
G01X292406Y30808D01*
G01X292465Y30892D01*
G01X292530Y30971D01*
G01X292599Y31044D01*
G01X292673Y31111D01*
G01X292752Y31172D01*
G01X292835Y31228D01*
G01X292923Y31277D01*
G01X293016Y31321D01*
G01X293114Y31359D01*
G01X293217Y31391D01*
G01X293324Y31417D01*
G01X293436Y31437D01*
G01X293553Y31452D01*
G01X293675Y31461D01*
G01X293801Y31464D01*
G01X293933Y31460D01*
G01X294061Y31450D01*
G01X294184Y31433D01*
G01X294303Y31409D01*
G01X294416Y31380D01*
G01X294525Y31342D01*
G01X294629Y31298D01*
G01X294729Y31247D01*
G01X294824Y31190D01*
G01X294914Y31126D01*
G01X295000Y31054D01*
G01X295081Y30977D01*
G01X295157Y30892D01*
G01X295229Y30801D01*
G01X295288Y30716D01*
G01X295343Y30627D01*
G01X295394Y30532D01*
G01X295441Y30434D01*
G01X295485Y30330D01*
G01X295525Y30222D01*
G01X295562Y30110D01*
G01X295594Y29992D01*
G01X295622Y29870D01*
G01X295648Y29743D01*
G01X295669Y29612D01*
G01X295686Y29476D01*
G01X295700Y29335D01*
G01X295710Y29190D01*
G01X295716Y29040D01*
G01X295719Y28886D01*
G01X295719Y28304D01*
G01X295717Y28156D01*
G01X295710Y28012D01*
G01X295700Y27873D01*
G01X295685Y27737D01*
G01X295666Y27604D01*
G01X295642Y27476D01*
G01X295614Y27351D01*
G01X295582Y27230D01*
G01X295546Y27113D01*
G01X295506Y27000D01*
G01X295461Y26891D01*
G01X295412Y26785D01*
G01X295358Y26684D01*
G01X295301Y26586D01*
G01X295239Y26492D01*
G01X295173Y26402D01*
G01X295093Y26305D01*
G01X295009Y26214D01*
G01X294921Y26131D01*
G01X294829Y26056D01*
G01X294733Y25987D01*
G01X294634Y25926D01*
G01X294530Y25872D01*
G01X294423Y25825D01*
G01X294311Y25785D01*
G01X294196Y25753D01*
G01X294077Y25728D01*
G01X293953Y25710D01*
G01X293826Y25699D01*
G01X293695Y25696D01*
G01X293565Y25698D01*
G01X293439Y25703D01*
G01X293317Y25712D01*
G01X293199Y25725D01*
G01X293086Y25742D01*
G01X292976Y25763D01*
G01X292871Y25787D01*
G01X292770Y25815D01*
G01X292643Y25858D01*
G01X292523Y25910D01*
G01X292410Y25972D01*
G01X292305Y26042D01*
G01X292207Y26121D01*
G01X292117Y26209D01*
G01X292117Y27806D01*
G01X293761Y27806D01*
G01X293761Y28568D01*
G01X291183Y28568D01*
G01X291183Y25960D01*
G01X291258Y25859D01*
G01X291339Y25763D01*
G01X291426Y25672D01*
G01X291518Y25587D01*
G01X291616Y25507D01*
G01X291720Y25432D01*
G01X291829Y25362D01*
G01X291944Y25298D01*
G01X292065Y25239D01*
G01X292191Y25185D01*
G01X292300Y25144D01*
G01X292413Y25107D01*
G01X292528Y25074D01*
G01X292646Y25044D01*
G01X292768Y25017D01*
G01X292891Y24994D01*
G01X293018Y24975D01*
G01X293148Y24959D01*
G01X293281Y24947D01*
G01X293417Y24938D01*
G01X293555Y24932D01*
G01X293697Y24931D01*
G01X293821Y24933D01*
G01X293942Y24939D01*
G01X294061Y24950D01*
G01X294179Y24964D01*
G01X294294Y24983D01*
G01X294407Y25006D01*
G01X294519Y25033D01*
G01X294628Y25064D01*
G01X294736Y25099D01*
G01X294841Y25138D01*
G01X294944Y25182D01*
G01X295045Y25230D01*
G01X295144Y25281D01*
G01X295241Y25337D01*
G01X295352Y25408D01*
G01X295457Y25483D01*
G01X295559Y25563D01*
G01X295657Y25648D01*
G01X295749Y25738D01*
G01X295838Y25832D01*
G01X295923Y25931D01*
G01X296003Y26035D01*
G01X296080Y26144D01*
G01X296152Y26257D01*
G01X296219Y26375D01*
G01X296283Y26498D01*
G01X296334Y26607D01*
G01X296381Y26718D01*
G01X296425Y26831D01*
G01X296465Y26947D01*
G01X296501Y27066D01*
G01X296534Y27186D01*
G01X296563Y27309D01*
G01X296588Y27435D01*
G01X296610Y27563D01*
G01X296627Y27694D01*
G01X296642Y27827D01*
G01X296652Y27962D01*
G01X296658Y28100D01*
G01X296661Y28241D01*
G01X296661Y28860D01*
G01X296660Y29005D01*
G01X296655Y29147D01*
G01X296648Y29286D01*
G01X296636Y29421D01*
G01X296623Y29554D01*
G01X296605Y29683D01*
G01X296586Y29810D01*
G01X296562Y29934D01*
G01X296536Y30054D01*
G01X296506Y30172D01*
G01X296474Y30286D01*
G01X296438Y30398D01*
G01X296400Y30507D01*
G01X296358Y30612D01*
G01X296313Y30715D01*
G01X296265Y30815D01*
G01X296214Y30912D01*
G01X296160Y31005D01*
G01X296103Y31096D01*
G01X296042Y31183D01*
G01X295979Y31268D01*
G01X295912Y31350D01*
G01X295836Y31436D01*
G01X295756Y31518D01*
G01X295674Y31595D01*
G01X295588Y31668D01*
G01X295500Y31736D01*
G01X295408Y31800D01*
G01X295313Y31860D01*
G01X295216Y31915D01*
G01X295115Y31966D01*
G01X295011Y32012D01*
G01X294904Y32055D01*
G01X294794Y32092D01*
G01X294682Y32125D01*
G01X294565Y32154D01*
G01X294446Y32178D01*
G01X294325Y32198D01*
G01X294200Y32214D01*
G01X294072Y32225D01*
G01X293940Y32231D01*
G37*

%LPD*%

%LPD*%
G36*
G01X487852Y22062D02*
G01X487715Y22068D01*
G01X487588Y22063D01*
G01X487469Y22045D01*
G01X487360Y22016D01*
G01X487260Y21976D01*
G01X487169Y21924D01*
G01X487088Y21860D01*
G01X487017Y21787D01*
G01X486959Y21706D01*
G01X486914Y21618D01*
G01X486882Y21521D01*
G01X486863Y21418D01*
G01X486857Y21306D01*
G01X486862Y21221D01*
G01X486878Y21132D01*
G01X486905Y21040D01*
G01X486942Y20945D01*
G01X486991Y20847D01*
G01X487050Y20745D01*
G01X487119Y20640D01*
G01X487199Y20532D01*
G01X487291Y20420D01*
G01X487392Y20306D01*
G01X488154Y19480D01*
G01X486727Y19480D01*
G01X486727Y19185D01*
G01X488589Y19185D01*
G01X488589Y19445D01*
G01X487606Y20539D01*
G01X487505Y20658D01*
G01X487421Y20765D01*
G01X487354Y20860D01*
G01X487304Y20943D01*
G01X487241Y21101D01*
G01X487220Y21263D01*
G01X487228Y21370D01*
G01X487253Y21466D01*
G01X487295Y21553D01*
G01X487354Y21629D01*
G01X487428Y21691D01*
G01X487512Y21736D01*
G01X487608Y21762D01*
G01X487715Y21771D01*
G01X487842Y21762D01*
G01X487954Y21733D01*
G01X488052Y21685D01*
G01X488134Y21619D01*
G01X488200Y21534D01*
G01X488246Y21434D01*
G01X488275Y21321D01*
G01X488284Y21192D01*
G01X488645Y21192D01*
G01X488638Y21319D01*
G01X488616Y21436D01*
G01X488581Y21546D01*
G01X488532Y21648D01*
G01X488468Y21742D01*
G01X488391Y21827D01*
G01X488302Y21901D01*
G01X488204Y21961D01*
G01X488096Y22008D01*
G01X487979Y22041D01*
G01X487852Y22062D01*
G37*

%LPD*%
G36*
G01X492342Y22062D02*
G01X492206Y22068D01*
G01X492078Y22063D01*
G01X491960Y22045D01*
G01X491852Y22016D01*
G01X491752Y21976D01*
G01X491662Y21924D01*
G01X491581Y21860D01*
G01X491510Y21787D01*
G01X491452Y21706D01*
G01X491408Y21618D01*
G01X491376Y21521D01*
G01X491356Y21418D01*
G01X491350Y21306D01*
G01X491355Y21221D01*
G01X491371Y21132D01*
G01X491398Y21040D01*
G01X491435Y20945D01*
G01X491483Y20847D01*
G01X491542Y20745D01*
G01X491611Y20640D01*
G01X491691Y20532D01*
G01X491782Y20420D01*
G01X491883Y20306D01*
G01X492645Y19480D01*
G01X491218Y19480D01*
G01X491218Y19185D01*
G01X493082Y19185D01*
G01X493082Y19445D01*
G01X492097Y20539D01*
G01X491996Y20658D01*
G01X491912Y20765D01*
G01X491845Y20860D01*
G01X491794Y20943D01*
G01X491733Y21101D01*
G01X491713Y21263D01*
G01X491722Y21370D01*
G01X491747Y21466D01*
G01X491789Y21553D01*
G01X491848Y21629D01*
G01X491920Y21691D01*
G01X492005Y21736D01*
G01X492100Y21762D01*
G01X492206Y21771D01*
G01X492333Y21762D01*
G01X492445Y21733D01*
G01X492543Y21685D01*
G01X492625Y21619D01*
G01X492690Y21534D01*
G01X492737Y21434D01*
G01X492766Y21321D01*
G01X492775Y21192D01*
G01X493135Y21192D01*
G01X493128Y21319D01*
G01X493107Y21436D01*
G01X493072Y21546D01*
G01X493024Y21648D01*
G01X492961Y21742D01*
G01X492884Y21827D01*
G01X492795Y21901D01*
G01X492695Y21961D01*
G01X492587Y22008D01*
G01X492469Y22041D01*
G01X492342Y22062D01*
G37*

%LPD*%
G36*
G01X497501Y21328D02*
G01X497375Y21337D01*
G01X497267Y21332D01*
G01X497169Y21316D01*
G01X497081Y21290D01*
G01X497002Y21253D01*
G01X496931Y21206D01*
G01X496870Y21148D01*
G01X496819Y21080D01*
G01X496776Y21002D01*
G01X496743Y20913D01*
G01X496719Y20813D01*
G01X496705Y20703D01*
G01X496699Y20582D01*
G01X496699Y19185D01*
G01X497060Y19185D01*
G01X497060Y20585D01*
G01X497087Y20784D01*
G01X497164Y20923D01*
G01X497296Y21005D01*
G01X497484Y21032D01*
G01X497649Y21009D01*
G01X497794Y20938D01*
G01X497911Y20829D01*
G01X498000Y20692D01*
G01X498000Y19185D01*
G01X498360Y19185D01*
G01X498360Y21299D01*
G01X498020Y21299D01*
G01X498007Y21032D01*
G01X497922Y21125D01*
G01X497830Y21201D01*
G01X497728Y21261D01*
G01X497619Y21303D01*
G01X497501Y21328D01*
G37*

%LPD*%
G36*
G01X485607Y22060D02*
G01X485460Y22068D01*
G01X485313Y22060D01*
G01X485180Y22036D01*
G01X485061Y21995D01*
G01X484955Y21937D01*
G01X484863Y21864D01*
G01X484784Y21774D01*
G01X484733Y21696D01*
G01X484688Y21608D01*
G01X484650Y21509D01*
G01X484619Y21401D01*
G01X484594Y21283D01*
G01X484576Y21154D01*
G01X484565Y21016D01*
G01X484560Y20867D01*
G01X484560Y20400D01*
G01X484564Y20246D01*
G01X484574Y20102D01*
G01X484591Y19969D01*
G01X484614Y19846D01*
G01X484645Y19733D01*
G01X484682Y19630D01*
G01X484725Y19537D01*
G01X484776Y19455D01*
G01X484856Y19361D01*
G01X484948Y19284D01*
G01X485055Y19224D01*
G01X485175Y19181D01*
G01X485308Y19156D01*
G01X485454Y19147D01*
G01X485599Y19156D01*
G01X485731Y19181D01*
G01X485850Y19222D01*
G01X485956Y19280D01*
G01X486048Y19356D01*
G01X486128Y19447D01*
G01X486179Y19527D01*
G01X486225Y19617D01*
G01X486263Y19716D01*
G01X486295Y19824D01*
G01X486321Y19941D01*
G01X486339Y20068D01*
G01X486351Y20204D01*
G01X486356Y20349D01*
G01X486356Y20831D01*
G01X486353Y20983D01*
G01X486342Y21125D01*
G01X486326Y21257D01*
G01X486302Y21378D01*
G01X486271Y21490D01*
G01X486233Y21591D01*
G01X486189Y21682D01*
G01X486138Y21764D01*
G01X486059Y21857D01*
G01X485967Y21933D01*
G01X485860Y21992D01*
G01X485740Y22034D01*
G01X485607Y22060D01*
G37*

%LPC*%
G36*
G01X485589Y21758D02*
G01X485460Y21771D01*
G01X485329Y21758D01*
G01X485218Y21718D01*
G01X485125Y21653D01*
G01X485051Y21560D01*
G01X485011Y21484D01*
G01X484978Y21394D01*
G01X484954Y21289D01*
G01X484935Y21171D01*
G01X484925Y21039D01*
G01X484921Y20892D01*
G01X484921Y20301D01*
G01X484926Y20159D01*
G01X484938Y20030D01*
G01X484958Y19915D01*
G01X484984Y19813D01*
G01X485018Y19724D01*
G01X485058Y19648D01*
G01X485131Y19558D01*
G01X485222Y19493D01*
G01X485329Y19455D01*
G01X485454Y19442D01*
G01X485582Y19456D01*
G01X485692Y19496D01*
G01X485785Y19565D01*
G01X485861Y19660D01*
G01X485901Y19741D01*
G01X485934Y19834D01*
G01X485960Y19941D01*
G01X485978Y20061D01*
G01X485989Y20194D01*
G01X485993Y20341D01*
G01X485993Y20920D01*
G01X485989Y21059D01*
G01X485977Y21185D01*
G01X485959Y21298D01*
G01X485934Y21399D01*
G01X485903Y21487D01*
G01X485863Y21563D01*
G01X485791Y21654D01*
G01X485699Y21719D01*
G01X485589Y21758D01*
G37*

%LPD*%
G36*
G01X490098Y22060D02*
G01X489950Y22068D01*
G01X489804Y22060D01*
G01X489672Y22036D01*
G01X489553Y21995D01*
G01X489447Y21937D01*
G01X489354Y21864D01*
G01X489275Y21774D01*
G01X489224Y21696D01*
G01X489180Y21608D01*
G01X489142Y21509D01*
G01X489111Y21401D01*
G01X489086Y21283D01*
G01X489068Y21154D01*
G01X489056Y21016D01*
G01X489051Y20867D01*
G01X489051Y20400D01*
G01X489055Y20246D01*
G01X489065Y20102D01*
G01X489082Y19969D01*
G01X489106Y19846D01*
G01X489136Y19733D01*
G01X489174Y19630D01*
G01X489218Y19537D01*
G01X489270Y19455D01*
G01X489348Y19361D01*
G01X489441Y19284D01*
G01X489547Y19224D01*
G01X489667Y19181D01*
G01X489800Y19156D01*
G01X489948Y19147D01*
G01X490093Y19156D01*
G01X490225Y19181D01*
G01X490343Y19222D01*
G01X490449Y19280D01*
G01X490542Y19356D01*
G01X490621Y19447D01*
G01X490672Y19527D01*
G01X490717Y19617D01*
G01X490755Y19716D01*
G01X490786Y19824D01*
G01X490811Y19941D01*
G01X490830Y20068D01*
G01X490842Y20204D01*
G01X490847Y20349D01*
G01X490847Y20831D01*
G01X490843Y20983D01*
G01X490833Y21125D01*
G01X490816Y21257D01*
G01X490793Y21378D01*
G01X490763Y21490D01*
G01X490725Y21591D01*
G01X490682Y21682D01*
G01X490631Y21764D01*
G01X490551Y21857D01*
G01X490458Y21933D01*
G01X490352Y21992D01*
G01X490231Y22034D01*
G01X490098Y22060D01*
G37*

%LPC*%
G36*
G01X490079Y21758D02*
G01X489950Y21771D01*
G01X489820Y21758D01*
G01X489709Y21718D01*
G01X489617Y21653D01*
G01X489544Y21560D01*
G01X489504Y21484D01*
G01X489472Y21394D01*
G01X489447Y21289D01*
G01X489429Y21171D01*
G01X489418Y21039D01*
G01X489414Y20892D01*
G01X489414Y20301D01*
G01X489419Y20159D01*
G01X489432Y20030D01*
G01X489450Y19915D01*
G01X489476Y19813D01*
G01X489509Y19724D01*
G01X489549Y19648D01*
G01X489623Y19558D01*
G01X489714Y19493D01*
G01X489822Y19455D01*
G01X489948Y19442D01*
G01X490075Y19456D01*
G01X490184Y19496D01*
G01X490277Y19565D01*
G01X490352Y19660D01*
G01X490393Y19741D01*
G01X490426Y19834D01*
G01X490453Y19941D01*
G01X490471Y20061D01*
G01X490483Y20194D01*
G01X490486Y20341D01*
G01X490486Y20920D01*
G01X490481Y21059D01*
G01X490469Y21185D01*
G01X490451Y21298D01*
G01X490425Y21399D01*
G01X490393Y21487D01*
G01X490354Y21563D01*
G01X490281Y21654D01*
G01X490190Y21719D01*
G01X490079Y21758D01*
G37*

%LPD*%
G36*
G01X495446Y21328D02*
G01X495322Y21337D01*
G01X495190Y21329D01*
G01X495068Y21307D01*
G01X494957Y21269D01*
G01X494855Y21216D01*
G01X494764Y21148D01*
G01X494682Y21065D01*
G01X494613Y20969D01*
G01X494555Y20859D01*
G01X494511Y20736D01*
G01X494479Y20600D01*
G01X494460Y20450D01*
G01X494454Y20288D01*
G01X494454Y20138D01*
G01X495884Y20138D01*
G01X495869Y19989D01*
G01X495834Y19856D01*
G01X495778Y19737D01*
G01X495701Y19633D01*
G01X495608Y19549D01*
G01X495503Y19490D01*
G01X495386Y19454D01*
G01X495256Y19442D01*
G01X495081Y19461D01*
G01X494934Y19518D01*
G01X494809Y19610D01*
G01X494700Y19727D01*
G01X494479Y19554D01*
G01X494550Y19458D01*
G01X494629Y19376D01*
G01X494716Y19306D01*
G01X494812Y19249D01*
G01X494915Y19204D01*
G01X495028Y19173D01*
G01X495148Y19153D01*
G01X495277Y19147D01*
G01X495415Y19155D01*
G01X495545Y19179D01*
G01X495666Y19218D01*
G01X495778Y19273D01*
G01X495881Y19343D01*
G01X495975Y19429D01*
G01X496058Y19528D01*
G01X496126Y19639D01*
G01X496179Y19759D01*
G01X496217Y19890D01*
G01X496239Y20031D01*
G01X496247Y20184D01*
G01X496247Y20250D01*
G01X496239Y20403D01*
G01X496216Y20547D01*
G01X496178Y20684D01*
G01X496125Y20811D01*
G01X496059Y20927D01*
G01X495981Y21031D01*
G01X495892Y21120D01*
G01X495790Y21197D01*
G01X495679Y21258D01*
G01X495565Y21302D01*
G01X495446Y21328D01*
G37*

%LPC*%
G36*
G01X495427Y21030D02*
G01X495322Y21040D01*
G01X495215Y21031D01*
G01X495119Y21002D01*
G01X495035Y20955D01*
G01X494962Y20890D01*
G01X494903Y20806D01*
G01X494859Y20707D01*
G01X494829Y20593D01*
G01X494814Y20463D01*
G01X494814Y20435D01*
G01X495874Y20435D01*
G01X495849Y20571D01*
G01X495810Y20690D01*
G01X495756Y20794D01*
G01X495688Y20882D01*
G01X495610Y20951D01*
G01X495523Y21001D01*
G01X495427Y21030D01*
G37*

%LPD*%
G36*
G01X499272Y21299D02*
G01X498909Y21299D01*
G01X498909Y19185D01*
G01X499254Y19185D01*
G01X499262Y19394D01*
G01X499338Y19319D01*
G01X499424Y19257D01*
G01X499523Y19209D01*
G01X499631Y19175D01*
G01X499751Y19154D01*
G01X499882Y19147D01*
G01X500041Y19160D01*
G01X500179Y19196D01*
G01X500297Y19258D01*
G01X500395Y19343D01*
G01X500449Y19414D01*
G01X500494Y19494D01*
G01X500529Y19586D01*
G01X500554Y19688D01*
G01X500569Y19801D01*
G01X500575Y19925D01*
G01X500575Y21299D01*
G01X500212Y21299D01*
G01X500212Y19935D01*
G01X500201Y19787D01*
G01X500168Y19667D01*
G01X500114Y19573D01*
G01X500038Y19506D01*
G01X499940Y19465D01*
G01X499821Y19452D01*
G01X499691Y19461D01*
G01X499576Y19487D01*
G01X499477Y19530D01*
G01X499393Y19590D01*
G01X499325Y19668D01*
G01X499272Y19762D01*
G01X499272Y21299D01*
G37*

%LPD*%
G36*
G01X501525Y22030D02*
G01X501149Y22030D01*
G01X501149Y20016D01*
G01X501156Y19884D01*
G01X501176Y19763D01*
G01X501210Y19651D01*
G01X501257Y19550D01*
G01X501318Y19458D01*
G01X501393Y19376D01*
G01X501479Y19306D01*
G01X501575Y19249D01*
G01X501679Y19205D01*
G01X501793Y19173D01*
G01X501915Y19153D01*
G01X502046Y19147D01*
G01X502182Y19153D01*
G01X502308Y19171D01*
G01X502423Y19201D01*
G01X502528Y19243D01*
G01X502622Y19297D01*
G01X502706Y19363D01*
G01X502778Y19440D01*
G01X502837Y19527D01*
G01X502883Y19623D01*
G01X502916Y19729D01*
G01X502936Y19845D01*
G01X502942Y19970D01*
G01X502569Y19970D01*
G01X502560Y19855D01*
G01X502535Y19753D01*
G01X502493Y19665D01*
G01X502434Y19589D01*
G01X502360Y19529D01*
G01X502270Y19487D01*
G01X502165Y19461D01*
G01X502046Y19452D01*
G01X501936Y19461D01*
G01X501836Y19489D01*
G01X501748Y19535D01*
G01X501670Y19600D01*
G01X501607Y19680D01*
G01X501563Y19775D01*
G01X501535Y19885D01*
G01X501525Y20008D01*
G01X501525Y22030D01*
G37*

%LPD*%

%LPD*%
G36*
G01X489230Y26595D02*
G01X489168Y26600D01*
G01X489106Y26595D01*
G01X489052Y26580D01*
G01X489005Y26557D01*
G01X488967Y26524D01*
G01X488937Y26484D01*
G01X488916Y26441D01*
G01X488903Y26393D01*
G01X488899Y26341D01*
G01X488903Y26288D01*
G01X488916Y26240D01*
G01X488937Y26197D01*
G01X488967Y26158D01*
G01X489005Y26126D01*
G01X489052Y26102D01*
G01X489106Y26089D01*
G01X489168Y26084D01*
G01X489230Y26089D01*
G01X489284Y26102D01*
G01X489329Y26126D01*
G01X489366Y26158D01*
G01X489395Y26197D01*
G01X489415Y26240D01*
G01X489428Y26288D01*
G01X489432Y26341D01*
G01X489428Y26393D01*
G01X489415Y26441D01*
G01X489395Y26484D01*
G01X489366Y26524D01*
G01X489329Y26557D01*
G01X489284Y26581D01*
G01X489230Y26595D01*
G37*

%LPD*%
G36*
G01X431760Y26595D02*
G01X431698Y26600D01*
G01X431637Y26595D01*
G01X431584Y26580D01*
G01X431538Y26557D01*
G01X431500Y26524D01*
G01X431470Y26483D01*
G01X431448Y26439D01*
G01X431435Y26390D01*
G01X431431Y26338D01*
G01X431435Y26286D01*
G01X431448Y26238D01*
G01X431470Y26194D01*
G01X431500Y26155D01*
G01X431538Y26123D01*
G01X431584Y26100D01*
G01X431637Y26086D01*
G01X431698Y26082D01*
G01X431760Y26086D01*
G01X431814Y26100D01*
G01X431860Y26123D01*
G01X431899Y26155D01*
G01X431928Y26194D01*
G01X431948Y26238D01*
G01X431961Y26286D01*
G01X431965Y26338D01*
G01X431961Y26390D01*
G01X431948Y26439D01*
G01X431928Y26483D01*
G01X431899Y26524D01*
G01X431860Y26557D01*
G01X431814Y26581D01*
G01X431760Y26595D01*
G37*

%LPD*%
G36*
G01X461988Y26595D02*
G01X461926Y26600D01*
G01X461864Y26595D01*
G01X461810Y26580D01*
G01X461764Y26557D01*
G01X461726Y26524D01*
G01X461696Y26483D01*
G01X461674Y26439D01*
G01X461661Y26390D01*
G01X461657Y26338D01*
G01X461661Y26286D01*
G01X461674Y26238D01*
G01X461696Y26194D01*
G01X461726Y26155D01*
G01X461764Y26123D01*
G01X461810Y26100D01*
G01X461864Y26086D01*
G01X461926Y26082D01*
G01X461988Y26086D01*
G01X462042Y26100D01*
G01X462087Y26123D01*
G01X462125Y26155D01*
G01X462155Y26194D01*
G01X462176Y26238D01*
G01X462189Y26286D01*
G01X462193Y26338D01*
G01X462189Y26390D01*
G01X462176Y26439D01*
G01X462155Y26483D01*
G01X462125Y26524D01*
G01X462087Y26557D01*
G01X462042Y26581D01*
G01X461988Y26595D01*
G37*

%LPD*%
G36*
G01X488178Y26593D02*
G01X488116Y26597D01*
G01X488054Y26593D01*
G01X488001Y26578D01*
G01X487955Y26555D01*
G01X487918Y26521D01*
G01X487888Y26481D01*
G01X487867Y26437D01*
G01X487854Y26388D01*
G01X487850Y26336D01*
G01X487854Y26283D01*
G01X487867Y26235D01*
G01X487888Y26192D01*
G01X487918Y26153D01*
G01X487955Y26121D01*
G01X488001Y26097D01*
G01X488054Y26084D01*
G01X488116Y26079D01*
G01X488178Y26084D01*
G01X488233Y26097D01*
G01X488279Y26121D01*
G01X488317Y26153D01*
G01X488346Y26192D01*
G01X488367Y26235D01*
G01X488379Y26283D01*
G01X488383Y26336D01*
G01X488379Y26388D01*
G01X488367Y26437D01*
G01X488346Y26481D01*
G01X488317Y26521D01*
G01X488279Y26555D01*
G01X488233Y26578D01*
G01X488178Y26593D01*
G37*

%LPD*%
G36*
G01X460702Y26745D02*
G01X460159Y26745D01*
G01X459684Y26028D01*
G01X460072Y26028D01*
G01X460702Y26745D01*
G37*

%LPD*%
G36*
G01X485185Y26745D02*
G01X484822Y26745D01*
G01X484822Y26475D01*
G01X484873Y25576D01*
G01X485188Y25576D01*
G01X485185Y26745D01*
G37*

%LPD*%
G36*
G01X431929Y25637D02*
G01X431477Y25637D01*
G01X431477Y22995D01*
G01X431929Y22995D01*
G01X431929Y25637D01*
G37*

%LPD*%
G36*
G01X439948Y26745D02*
G01X439496Y26745D01*
G01X439496Y25317D01*
G01X439418Y25403D01*
G01X439335Y25478D01*
G01X439246Y25542D01*
G01X439151Y25593D01*
G01X439051Y25634D01*
G01X438945Y25662D01*
G01X438833Y25680D01*
G01X438716Y25685D01*
G01X438601Y25681D01*
G01X438493Y25666D01*
G01X438395Y25642D01*
G01X438305Y25608D01*
G01X438223Y25565D01*
G01X438150Y25512D01*
G01X438085Y25449D01*
G01X438029Y25377D01*
G01X437981Y25295D01*
G01X437942Y25203D01*
G01X437912Y25102D01*
G01X437889Y24991D01*
G01X437875Y24871D01*
G01X437870Y24740D01*
G01X437870Y22995D01*
G01X438322Y22995D01*
G01X438322Y24743D01*
G01X438331Y24877D01*
G01X438357Y24992D01*
G01X438397Y25088D01*
G01X438454Y25165D01*
G01X438527Y25225D01*
G01X438617Y25267D01*
G01X438726Y25293D01*
G01X438853Y25302D01*
G01X438959Y25295D01*
G01X439059Y25272D01*
G01X439152Y25236D01*
G01X439239Y25185D01*
G01X439317Y25122D01*
G01X439386Y25050D01*
G01X439445Y24968D01*
G01X439496Y24878D01*
G01X439496Y22995D01*
G01X439948Y22995D01*
G01X439948Y26745D01*
G37*

%LPD*%
G36*
G01X443153Y26549D02*
G01X440405Y26549D01*
G01X440405Y26165D01*
G01X441548Y26165D01*
G01X441548Y22995D01*
G01X442013Y22995D01*
G01X442013Y26165D01*
G01X443153Y26165D01*
G01X443153Y26549D01*
G37*

%LPD*%
G36*
G01X449646Y26745D02*
G01X449193Y26745D01*
G01X449193Y25317D01*
G01X449116Y25403D01*
G01X449032Y25478D01*
G01X448943Y25542D01*
G01X448848Y25593D01*
G01X448748Y25634D01*
G01X448642Y25662D01*
G01X448531Y25680D01*
G01X448414Y25685D01*
G01X448298Y25681D01*
G01X448191Y25666D01*
G01X448093Y25642D01*
G01X448003Y25608D01*
G01X447921Y25565D01*
G01X447848Y25512D01*
G01X447783Y25449D01*
G01X447727Y25377D01*
G01X447679Y25295D01*
G01X447640Y25203D01*
G01X447609Y25102D01*
G01X447587Y24991D01*
G01X447573Y24871D01*
G01X447568Y24740D01*
G01X447568Y22995D01*
G01X448020Y22995D01*
G01X448020Y24743D01*
G01X448029Y24877D01*
G01X448053Y24992D01*
G01X448094Y25088D01*
G01X448149Y25165D01*
G01X448223Y25225D01*
G01X448314Y25267D01*
G01X448422Y25293D01*
G01X448548Y25302D01*
G01X448655Y25295D01*
G01X448756Y25272D01*
G01X448848Y25236D01*
G01X448934Y25185D01*
G01X449014Y25122D01*
G01X449083Y25050D01*
G01X449143Y24968D01*
G01X449193Y24878D01*
G01X449193Y22995D01*
G01X449646Y22995D01*
G01X449646Y26745D01*
G37*

%LPD*%
G36*
G01X452729Y26549D02*
G01X451418Y26549D01*
G01X451276Y26544D01*
G01X451142Y26530D01*
G01X451016Y26507D01*
G01X450898Y26475D01*
G01X450788Y26433D01*
G01X450685Y26382D01*
G01X450590Y26321D01*
G01X450504Y26252D01*
G01X450427Y26175D01*
G01X450360Y26091D01*
G01X450303Y26002D01*
G01X450257Y25906D01*
G01X450220Y25805D01*
G01X450195Y25698D01*
G01X450179Y25584D01*
G01X450174Y25464D01*
G01X450179Y25338D01*
G01X450194Y25220D01*
G01X450219Y25109D01*
G01X450255Y25006D01*
G01X450300Y24910D01*
G01X450355Y24821D01*
G01X450421Y24740D01*
G01X450496Y24667D01*
G01X450581Y24601D01*
G01X450675Y24544D01*
G01X450778Y24497D01*
G01X450890Y24457D01*
G01X451010Y24427D01*
G01X451139Y24405D01*
G01X451277Y24392D01*
G01X451424Y24387D01*
G01X452259Y24387D01*
G01X452259Y22995D01*
G01X452729Y22995D01*
G01X452729Y26549D01*
G37*

%LPC*%
G36*
G01X452259Y26165D02*
G01X451391Y26165D01*
G01X451226Y26150D01*
G01X451080Y26112D01*
G01X450952Y26051D01*
G01X450842Y25967D01*
G01X450754Y25864D01*
G01X450692Y25745D01*
G01X450654Y25610D01*
G01X450641Y25459D01*
G01X450654Y25301D01*
G01X450692Y25163D01*
G01X450754Y25045D01*
G01X450842Y24946D01*
G01X450914Y24893D01*
G01X450995Y24849D01*
G01X451086Y24815D01*
G01X451187Y24790D01*
G01X451298Y24776D01*
G01X451418Y24771D01*
G01X452259Y24771D01*
G01X452259Y26165D01*
G37*

%LPD*%
G36*
G01X457386Y25676D02*
G01X457255Y25685D01*
G01X457193Y25683D01*
G01X457139Y25677D01*
G01X457093Y25667D01*
G01X457055Y25652D01*
G01X457055Y25231D01*
G01X457108Y25238D01*
G01X457163Y25244D01*
G01X457219Y25247D01*
G01X457278Y25248D01*
G01X457418Y25238D01*
G01X457543Y25206D01*
G01X457651Y25154D01*
G01X457744Y25080D01*
G01X457820Y24986D01*
G01X457880Y24870D01*
G01X457880Y22995D01*
G01X458332Y22995D01*
G01X458332Y25637D01*
G01X457893Y25637D01*
G01X457885Y25332D01*
G01X457807Y25440D01*
G01X457717Y25528D01*
G01X457618Y25597D01*
G01X457507Y25646D01*
G01X457386Y25676D01*
G37*

%LPD*%
G36*
G01X462155Y25637D02*
G01X461703Y25637D01*
G01X461703Y22995D01*
G01X462155Y22995D01*
G01X462155Y25637D01*
G37*

%LPD*%
G36*
G01X465519Y25676D02*
G01X465388Y25685D01*
G01X465326Y25683D01*
G01X465272Y25677D01*
G01X465226Y25667D01*
G01X465188Y25652D01*
G01X465188Y25231D01*
G01X465240Y25238D01*
G01X465294Y25244D01*
G01X465350Y25247D01*
G01X465409Y25248D01*
G01X465549Y25238D01*
G01X465673Y25206D01*
G01X465782Y25154D01*
G01X465875Y25080D01*
G01X465952Y24986D01*
G01X466013Y24870D01*
G01X466013Y22995D01*
G01X466465Y22995D01*
G01X466465Y25637D01*
G01X466026Y25637D01*
G01X466018Y25332D01*
G01X465939Y25440D01*
G01X465849Y25528D01*
G01X465749Y25597D01*
G01X465639Y25646D01*
G01X465519Y25676D01*
G37*

%LPD*%
G36*
G01X480537Y26549D02*
G01X479361Y26549D01*
G01X479215Y26545D01*
G01X479078Y26532D01*
G01X478949Y26511D01*
G01X478829Y26481D01*
G01X478718Y26443D01*
G01X478615Y26396D01*
G01X478521Y26341D01*
G01X478436Y26277D01*
G01X478360Y26205D01*
G01X478294Y26124D01*
G01X478238Y26036D01*
G01X478193Y25941D01*
G01X478157Y25837D01*
G01X478132Y25725D01*
G01X478116Y25607D01*
G01X478111Y25480D01*
G01X478116Y25372D01*
G01X478131Y25269D01*
G01X478157Y25170D01*
G01X478192Y25077D01*
G01X478237Y24987D01*
G01X478292Y24903D01*
G01X478356Y24824D01*
G01X478427Y24753D01*
G01X478507Y24688D01*
G01X478594Y24630D01*
G01X478689Y24579D01*
G01X478792Y24535D01*
G01X477956Y23026D01*
G01X477956Y22995D01*
G01X478459Y22995D01*
G01X479231Y24433D01*
G01X480065Y24433D01*
G01X480065Y22995D01*
G01X480537Y22995D01*
G01X480537Y26549D01*
G37*

%LPC*%
G36*
G01X480065Y26165D02*
G01X479348Y26165D01*
G01X479229Y26160D01*
G01X479120Y26144D01*
G01X479021Y26119D01*
G01X478931Y26084D01*
G01X478850Y26039D01*
G01X478779Y25985D01*
G01X478694Y25888D01*
G01X478633Y25771D01*
G01X478596Y25635D01*
G01X478584Y25480D01*
G01X478596Y25336D01*
G01X478635Y25208D01*
G01X478700Y25095D01*
G01X478790Y24997D01*
G01X478901Y24918D01*
G01X479031Y24862D01*
G01X479180Y24828D01*
G01X479346Y24817D01*
G01X480065Y24817D01*
G01X480065Y26165D01*
G37*

%LPD*%
G36*
G01X488886Y25637D02*
G01X488431Y25637D01*
G01X488431Y22995D01*
G01X488886Y22995D01*
G01X488886Y25637D01*
G37*

%LPD*%
G36*
G01X494395Y26549D02*
G01X493923Y26549D01*
G01X493923Y23379D01*
G01X492239Y23379D01*
G01X492239Y22995D01*
G01X494395Y22995D01*
G01X494395Y26549D01*
G37*

%LPD*%
G36*
G01X496449Y25676D02*
G01X496318Y25685D01*
G01X496256Y25683D01*
G01X496202Y25677D01*
G01X496155Y25667D01*
G01X496117Y25652D01*
G01X496117Y25231D01*
G01X496170Y25238D01*
G01X496226Y25244D01*
G01X496282Y25247D01*
G01X496341Y25248D01*
G01X496481Y25238D01*
G01X496606Y25206D01*
G01X496714Y25154D01*
G01X496806Y25080D01*
G01X496882Y24986D01*
G01X496943Y24870D01*
G01X496943Y22995D01*
G01X497395Y22995D01*
G01X497395Y25637D01*
G01X496956Y25637D01*
G01X496948Y25332D01*
G01X496869Y25440D01*
G01X496780Y25528D01*
G01X496680Y25597D01*
G01X496570Y25646D01*
G01X496449Y25676D01*
G37*

%LPD*%
G36*
G01X502889Y26549D02*
G01X500687Y26549D01*
G01X500687Y26165D01*
G01X502419Y26165D01*
G01X502419Y24949D01*
G01X500928Y24949D01*
G01X500928Y24565D01*
G01X502419Y24565D01*
G01X502419Y22995D01*
G01X502889Y22995D01*
G01X502889Y26549D01*
G37*

%LPD*%
G36*
G01X429936Y25679D02*
G01X429798Y25685D01*
G01X429653Y25679D01*
G01X429517Y25659D01*
G01X429391Y25627D01*
G01X429274Y25583D01*
G01X429167Y25525D01*
G01X429069Y25454D01*
G01X428984Y25373D01*
G01X428914Y25286D01*
G01X428859Y25190D01*
G01X428821Y25087D01*
G01X428797Y24977D01*
G01X428790Y24860D01*
G01X429242Y24860D01*
G01X429251Y24949D01*
G01X429281Y25033D01*
G01X429330Y25109D01*
G01X429399Y25180D01*
G01X429483Y25239D01*
G01X429578Y25281D01*
G01X429683Y25306D01*
G01X429798Y25315D01*
G01X429914Y25308D01*
G01X430018Y25288D01*
G01X430107Y25255D01*
G01X430184Y25208D01*
G01X430287Y25084D01*
G01X430321Y24926D01*
G01X430289Y24783D01*
G01X430192Y24680D01*
G01X430114Y24639D01*
G01X430010Y24599D01*
G01X429880Y24561D01*
G01X429724Y24522D01*
G01X429563Y24482D01*
G01X429419Y24439D01*
G01X429290Y24392D01*
G01X429178Y24342D01*
G01X429080Y24286D01*
G01X428995Y24225D01*
G01X428923Y24159D01*
G01X428866Y24088D01*
G01X428822Y24010D01*
G01X428790Y23924D01*
G01X428771Y23830D01*
G01X428764Y23727D01*
G01X428772Y23613D01*
G01X428796Y23507D01*
G01X428835Y23409D01*
G01X428891Y23319D01*
G01X428962Y23236D01*
G01X429049Y23161D01*
G01X429147Y23096D01*
G01X429255Y23042D01*
G01X429373Y23001D01*
G01X429500Y22971D01*
G01X429637Y22953D01*
G01X429783Y22947D01*
G01X429937Y22954D01*
G01X430082Y22975D01*
G01X430218Y23010D01*
G01X430344Y23059D01*
G01X430459Y23120D01*
G01X430562Y23194D01*
G01X430650Y23278D01*
G01X430725Y23374D01*
G01X430786Y23477D01*
G01X430830Y23583D01*
G01X430856Y23693D01*
G01X430865Y23808D01*
G01X430413Y23808D01*
G01X430396Y23701D01*
G01X430361Y23605D01*
G01X430305Y23521D01*
G01X430230Y23448D01*
G01X430138Y23390D01*
G01X430033Y23349D01*
G01X429914Y23324D01*
G01X429783Y23316D01*
G01X429661Y23322D01*
G01X429552Y23341D01*
G01X429455Y23374D01*
G01X429371Y23420D01*
G01X429255Y23541D01*
G01X429216Y23697D01*
G01X429250Y23859D01*
G01X429353Y23981D01*
G01X429435Y24030D01*
G01X429543Y24075D01*
G01X429677Y24118D01*
G01X429836Y24156D01*
G01X429999Y24194D01*
G01X430143Y24236D01*
G01X430270Y24282D01*
G01X430380Y24332D01*
G01X430474Y24385D01*
G01X430554Y24443D01*
G01X430622Y24507D01*
G01X430677Y24575D01*
G01X430749Y24731D01*
G01X430773Y24913D01*
G01X430766Y25018D01*
G01X430743Y25117D01*
G01X430705Y25212D01*
G01X430651Y25300D01*
G01X430583Y25384D01*
G01X430499Y25462D01*
G01X430404Y25530D01*
G01X430299Y25586D01*
G01X430187Y25629D01*
G01X430066Y25660D01*
G01X429936Y25679D01*
G37*

%LPD*%
G36*
G01X433726Y25679D02*
G01X433588Y25685D01*
G01X433443Y25679D01*
G01X433308Y25659D01*
G01X433182Y25627D01*
G01X433065Y25583D01*
G01X432957Y25525D01*
G01X432859Y25454D01*
G01X432773Y25373D01*
G01X432703Y25286D01*
G01X432649Y25190D01*
G01X432610Y25087D01*
G01X432587Y24977D01*
G01X432579Y24860D01*
G01X433034Y24860D01*
G01X433044Y24949D01*
G01X433073Y25033D01*
G01X433122Y25109D01*
G01X433191Y25180D01*
G01X433275Y25239D01*
G01X433369Y25281D01*
G01X433473Y25306D01*
G01X433588Y25315D01*
G01X433704Y25308D01*
G01X433808Y25288D01*
G01X433897Y25255D01*
G01X433974Y25208D01*
G01X434078Y25084D01*
G01X434113Y24926D01*
G01X434081Y24783D01*
G01X433984Y24680D01*
G01X433906Y24639D01*
G01X433803Y24599D01*
G01X433672Y24561D01*
G01X433517Y24522D01*
G01X433356Y24482D01*
G01X433211Y24439D01*
G01X433081Y24392D01*
G01X432968Y24342D01*
G01X432870Y24286D01*
G01X432787Y24225D01*
G01X432715Y24159D01*
G01X432658Y24088D01*
G01X432613Y24010D01*
G01X432582Y23924D01*
G01X432563Y23830D01*
G01X432556Y23727D01*
G01X432564Y23613D01*
G01X432588Y23507D01*
G01X432627Y23409D01*
G01X432682Y23319D01*
G01X432752Y23236D01*
G01X432838Y23161D01*
G01X432938Y23096D01*
G01X433047Y23042D01*
G01X433165Y23001D01*
G01X433292Y22971D01*
G01X433429Y22953D01*
G01X433575Y22947D01*
G01X433729Y22954D01*
G01X433874Y22975D01*
G01X434010Y23010D01*
G01X434136Y23059D01*
G01X434252Y23120D01*
G01X434354Y23194D01*
G01X434442Y23278D01*
G01X434517Y23374D01*
G01X434577Y23477D01*
G01X434620Y23583D01*
G01X434646Y23693D01*
G01X434654Y23808D01*
G01X434205Y23808D01*
G01X434189Y23701D01*
G01X434153Y23605D01*
G01X434097Y23521D01*
G01X434022Y23448D01*
G01X433930Y23390D01*
G01X433825Y23349D01*
G01X433707Y23324D01*
G01X433575Y23316D01*
G01X433453Y23322D01*
G01X433344Y23341D01*
G01X433247Y23374D01*
G01X433163Y23420D01*
G01X433047Y23541D01*
G01X433009Y23697D01*
G01X433043Y23859D01*
G01X433146Y23981D01*
G01X433227Y24030D01*
G01X433334Y24075D01*
G01X433467Y24118D01*
G01X433626Y24156D01*
G01X433788Y24194D01*
G01X433934Y24236D01*
G01X434062Y24282D01*
G01X434172Y24332D01*
G01X434266Y24385D01*
G01X434347Y24443D01*
G01X434414Y24507D01*
G01X434469Y24575D01*
G01X434542Y24731D01*
G01X434566Y24913D01*
G01X434558Y25018D01*
G01X434535Y25117D01*
G01X434497Y25212D01*
G01X434444Y25300D01*
G01X434375Y25384D01*
G01X434291Y25462D01*
G01X434196Y25530D01*
G01X434091Y25586D01*
G01X433978Y25629D01*
G01X433856Y25660D01*
G01X433726Y25679D01*
G37*

%LPD*%
G36*
G01X436259Y25680D02*
G01X436156Y25685D01*
G01X436030Y25680D01*
G01X435912Y25664D01*
G01X435801Y25638D01*
G01X435697Y25601D01*
G01X435600Y25553D01*
G01X435511Y25495D01*
G01X435428Y25427D01*
G01X435353Y25348D01*
G01X435286Y25258D01*
G01X435229Y25159D01*
G01X435180Y25051D01*
G01X435140Y24934D01*
G01X435109Y24808D01*
G01X435086Y24673D01*
G01X435073Y24528D01*
G01X435068Y24375D01*
G01X435068Y24187D01*
G01X436857Y24187D01*
G01X436848Y24061D01*
G01X436828Y23943D01*
G01X436796Y23834D01*
G01X436753Y23733D01*
G01X436698Y23641D01*
G01X436631Y23557D01*
G01X436554Y23483D01*
G01X436471Y23423D01*
G01X436381Y23376D01*
G01X436285Y23342D01*
G01X436183Y23322D01*
G01X436074Y23316D01*
G01X435960Y23322D01*
G01X435853Y23339D01*
G01X435756Y23370D01*
G01X435668Y23412D01*
G01X435588Y23465D01*
G01X435513Y23526D01*
G01X435443Y23595D01*
G01X435378Y23671D01*
G01X435102Y23458D01*
G01X435172Y23361D01*
G01X435248Y23274D01*
G01X435331Y23197D01*
G01X435421Y23131D01*
G01X435517Y23075D01*
G01X435620Y23029D01*
G01X435729Y22993D01*
G01X435845Y22968D01*
G01X435968Y22952D01*
G01X436097Y22947D01*
G01X436229Y22953D01*
G01X436354Y22969D01*
G01X436473Y22997D01*
G01X436585Y23036D01*
G01X436692Y23085D01*
G01X436792Y23146D01*
G01X436886Y23217D01*
G01X436973Y23300D01*
G01X437052Y23392D01*
G01X437120Y23492D01*
G01X437178Y23598D01*
G01X437225Y23712D01*
G01X437262Y23834D01*
G01X437288Y23963D01*
G01X437304Y24099D01*
G01X437309Y24243D01*
G01X437309Y24326D01*
G01X437305Y24455D01*
G01X437292Y24579D01*
G01X437271Y24698D01*
G01X437242Y24813D01*
G01X437205Y24923D01*
G01X437159Y25027D01*
G01X437106Y25127D01*
G01X437046Y25219D01*
G01X436979Y25303D01*
G01X436906Y25380D01*
G01X436826Y25449D01*
G01X436740Y25510D01*
G01X436649Y25563D01*
G01X436555Y25608D01*
G01X436459Y25642D01*
G01X436360Y25666D01*
G01X436259Y25680D01*
G37*

%LPC*%
G36*
G01X436286Y25302D02*
G01X436156Y25315D01*
G01X436021Y25303D01*
G01X435901Y25267D01*
G01X435796Y25209D01*
G01X435706Y25127D01*
G01X435631Y25022D01*
G01X435576Y24898D01*
G01X435539Y24755D01*
G01X435521Y24593D01*
G01X435521Y24558D01*
G01X436844Y24558D01*
G01X436812Y24727D01*
G01X436763Y24876D01*
G01X436697Y25006D01*
G01X436613Y25116D01*
G01X436515Y25203D01*
G01X436406Y25265D01*
G01X436286Y25302D01*
G37*

%LPD*%
G36*
G01X445223Y26745D02*
G01X444774Y26745D01*
G01X444774Y22995D01*
G01X445188Y22995D01*
G01X445211Y23277D01*
G01X445281Y23200D01*
G01X445359Y23133D01*
G01X445443Y23076D01*
G01X445534Y23030D01*
G01X445632Y22993D01*
G01X445736Y22968D01*
G01X445847Y22952D01*
G01X445965Y22947D01*
G01X446077Y22953D01*
G01X446183Y22971D01*
G01X446285Y23000D01*
G01X446381Y23041D01*
G01X446471Y23094D01*
G01X446556Y23159D01*
G01X446637Y23235D01*
G01X446712Y23323D01*
G01X446780Y23421D01*
G01X446838Y23525D01*
G01X446888Y23637D01*
G01X446929Y23756D01*
G01X446961Y23882D01*
G01X446983Y24016D01*
G01X446997Y24156D01*
G01X447001Y24304D01*
G01X447001Y24339D01*
G01X446997Y24487D01*
G01X446984Y24628D01*
G01X446961Y24761D01*
G01X446930Y24887D01*
G01X446889Y25006D01*
G01X446840Y25117D01*
G01X446781Y25221D01*
G01X446714Y25317D01*
G01X446639Y25403D01*
G01X446558Y25478D01*
G01X446473Y25542D01*
G01X446381Y25593D01*
G01X446284Y25634D01*
G01X446181Y25662D01*
G01X446073Y25680D01*
G01X445960Y25685D01*
G01X445811Y25677D01*
G01X445671Y25650D01*
G01X445543Y25606D01*
G01X445426Y25544D01*
G01X445319Y25465D01*
G01X445223Y25368D01*
G01X445223Y26745D01*
G37*

%LPC*%
G36*
G01X445952Y25295D02*
G01X445846Y25302D01*
G01X445712Y25292D01*
G01X445590Y25260D01*
G01X445480Y25208D01*
G01X445383Y25136D01*
G01X445297Y25043D01*
G01X445223Y24928D01*
G01X445223Y23717D01*
G01X445296Y23599D01*
G01X445381Y23502D01*
G01X445479Y23427D01*
G01X445590Y23373D01*
G01X445714Y23341D01*
G01X445851Y23331D01*
G01X445956Y23338D01*
G01X446053Y23359D01*
G01X446143Y23394D01*
G01X446225Y23444D01*
G01X446298Y23507D01*
G01X446364Y23585D01*
G01X446421Y23675D01*
G01X446467Y23776D01*
G01X446503Y23887D01*
G01X446528Y24009D01*
G01X446544Y24142D01*
G01X446549Y24286D01*
G01X446544Y24447D01*
G01X446528Y24594D01*
G01X446503Y24727D01*
G01X446467Y24847D01*
G01X446421Y24953D01*
G01X446364Y25045D01*
G01X446298Y25124D01*
G01X446224Y25188D01*
G01X446142Y25238D01*
G01X446051Y25273D01*
G01X445952Y25295D01*
G37*

%LPD*%
G36*
G01X455751Y25680D02*
G01X455648Y25685D01*
G01X455522Y25680D01*
G01X455404Y25664D01*
G01X455293Y25638D01*
G01X455189Y25601D01*
G01X455092Y25553D01*
G01X455003Y25495D01*
G01X454920Y25427D01*
G01X454845Y25348D01*
G01X454778Y25258D01*
G01X454720Y25159D01*
G01X454672Y25051D01*
G01X454632Y24934D01*
G01X454601Y24808D01*
G01X454578Y24673D01*
G01X454565Y24528D01*
G01X454560Y24375D01*
G01X454560Y24187D01*
G01X456349Y24187D01*
G01X456340Y24061D01*
G01X456320Y23943D01*
G01X456288Y23834D01*
G01X456245Y23733D01*
G01X456190Y23641D01*
G01X456123Y23557D01*
G01X456046Y23483D01*
G01X455964Y23423D01*
G01X455874Y23376D01*
G01X455778Y23342D01*
G01X455676Y23322D01*
G01X455566Y23316D01*
G01X455451Y23322D01*
G01X455345Y23339D01*
G01X455248Y23370D01*
G01X455160Y23412D01*
G01X455080Y23465D01*
G01X455005Y23526D01*
G01X454935Y23595D01*
G01X454870Y23671D01*
G01X454593Y23458D01*
G01X454664Y23361D01*
G01X454740Y23274D01*
G01X454823Y23197D01*
G01X454913Y23131D01*
G01X455010Y23075D01*
G01X455113Y23029D01*
G01X455222Y22993D01*
G01X455339Y22968D01*
G01X455462Y22952D01*
G01X455592Y22947D01*
G01X455723Y22953D01*
G01X455847Y22969D01*
G01X455966Y22997D01*
G01X456078Y23036D01*
G01X456184Y23085D01*
G01X456284Y23146D01*
G01X456378Y23217D01*
G01X456465Y23300D01*
G01X456544Y23392D01*
G01X456612Y23492D01*
G01X456670Y23598D01*
G01X456717Y23712D01*
G01X456753Y23834D01*
G01X456780Y23963D01*
G01X456796Y24099D01*
G01X456801Y24243D01*
G01X456801Y24326D01*
G01X456797Y24455D01*
G01X456784Y24579D01*
G01X456763Y24698D01*
G01X456734Y24813D01*
G01X456697Y24923D01*
G01X456651Y25027D01*
G01X456598Y25127D01*
G01X456538Y25219D01*
G01X456471Y25303D01*
G01X456398Y25380D01*
G01X456318Y25449D01*
G01X456232Y25510D01*
G01X456141Y25563D01*
G01X456047Y25608D01*
G01X455951Y25642D01*
G01X455852Y25666D01*
G01X455751Y25680D01*
G37*

%LPC*%
G36*
G01X455778Y25302D02*
G01X455648Y25315D01*
G01X455513Y25303D01*
G01X455393Y25267D01*
G01X455288Y25209D01*
G01X455198Y25127D01*
G01X455123Y25022D01*
G01X455068Y24898D01*
G01X455031Y24755D01*
G01X455013Y24593D01*
G01X455013Y24558D01*
G01X456336Y24558D01*
G01X456304Y24727D01*
G01X456255Y24876D01*
G01X456189Y25006D01*
G01X456105Y25116D01*
G01X456007Y25203D01*
G01X455898Y25265D01*
G01X455778Y25302D01*
G37*

%LPD*%
G36*
G01X460044Y25680D02*
G01X459940Y25685D01*
G01X459815Y25680D01*
G01X459698Y25664D01*
G01X459587Y25638D01*
G01X459483Y25601D01*
G01X459387Y25553D01*
G01X459298Y25495D01*
G01X459215Y25427D01*
G01X459140Y25348D01*
G01X459074Y25258D01*
G01X459016Y25159D01*
G01X458967Y25051D01*
G01X458927Y24934D01*
G01X458896Y24808D01*
G01X458873Y24673D01*
G01X458860Y24528D01*
G01X458856Y24375D01*
G01X458856Y24187D01*
G01X460644Y24187D01*
G01X460635Y24061D01*
G01X460614Y23943D01*
G01X460582Y23834D01*
G01X460538Y23733D01*
G01X460482Y23641D01*
G01X460415Y23557D01*
G01X460339Y23483D01*
G01X460257Y23423D01*
G01X460168Y23376D01*
G01X460072Y23342D01*
G01X459970Y23322D01*
G01X459861Y23316D01*
G01X459746Y23322D01*
G01X459639Y23339D01*
G01X459542Y23370D01*
G01X459455Y23412D01*
G01X459375Y23465D01*
G01X459300Y23526D01*
G01X459230Y23595D01*
G01X459165Y23671D01*
G01X458889Y23458D01*
G01X458959Y23361D01*
G01X459035Y23274D01*
G01X459118Y23197D01*
G01X459208Y23131D01*
G01X459304Y23075D01*
G01X459407Y23029D01*
G01X459516Y22993D01*
G01X459632Y22968D01*
G01X459755Y22952D01*
G01X459884Y22947D01*
G01X460016Y22953D01*
G01X460141Y22969D01*
G01X460260Y22997D01*
G01X460372Y23036D01*
G01X460478Y23085D01*
G01X460578Y23146D01*
G01X460671Y23217D01*
G01X460758Y23300D01*
G01X460837Y23392D01*
G01X460906Y23492D01*
G01X460964Y23598D01*
G01X461012Y23712D01*
G01X461048Y23834D01*
G01X461075Y23963D01*
G01X461091Y24099D01*
G01X461096Y24243D01*
G01X461096Y24326D01*
G01X461092Y24455D01*
G01X461079Y24579D01*
G01X461058Y24698D01*
G01X461029Y24813D01*
G01X460992Y24923D01*
G01X460946Y25027D01*
G01X460893Y25127D01*
G01X460833Y25219D01*
G01X460766Y25303D01*
G01X460693Y25380D01*
G01X460613Y25449D01*
G01X460527Y25510D01*
G01X460435Y25563D01*
G01X460341Y25608D01*
G01X460244Y25642D01*
G01X460145Y25666D01*
G01X460044Y25680D01*
G37*

%LPC*%
G36*
G01X460072Y25302D02*
G01X459940Y25315D01*
G01X459807Y25303D01*
G01X459688Y25267D01*
G01X459583Y25209D01*
G01X459493Y25127D01*
G01X459418Y25022D01*
G01X459362Y24898D01*
G01X459324Y24755D01*
G01X459305Y24593D01*
G01X459305Y24558D01*
G01X460629Y24558D01*
G01X460598Y24727D01*
G01X460550Y24876D01*
G01X460484Y25006D01*
G01X460400Y25116D01*
G01X460302Y25203D01*
G01X460192Y25265D01*
G01X460072Y25302D01*
G37*

%LPD*%
G36*
G01X463954Y25679D02*
G01X463816Y25685D01*
G01X463671Y25679D01*
G01X463535Y25659D01*
G01X463409Y25627D01*
G01X463292Y25583D01*
G01X463185Y25525D01*
G01X463087Y25454D01*
G01X463002Y25373D01*
G01X462932Y25286D01*
G01X462878Y25190D01*
G01X462839Y25087D01*
G01X462815Y24977D01*
G01X462808Y24860D01*
G01X463262Y24860D01*
G01X463272Y24949D01*
G01X463302Y25033D01*
G01X463351Y25109D01*
G01X463420Y25180D01*
G01X463504Y25239D01*
G01X463598Y25281D01*
G01X463702Y25306D01*
G01X463816Y25315D01*
G01X463933Y25308D01*
G01X464036Y25288D01*
G01X464126Y25255D01*
G01X464202Y25208D01*
G01X464305Y25084D01*
G01X464339Y24926D01*
G01X464307Y24783D01*
G01X464210Y24680D01*
G01X464133Y24639D01*
G01X464030Y24599D01*
G01X463900Y24561D01*
G01X463743Y24522D01*
G01X463582Y24482D01*
G01X463437Y24439D01*
G01X463309Y24392D01*
G01X463196Y24342D01*
G01X463098Y24286D01*
G01X463013Y24225D01*
G01X462941Y24159D01*
G01X462884Y24088D01*
G01X462839Y24010D01*
G01X462808Y23924D01*
G01X462789Y23830D01*
G01X462782Y23727D01*
G01X462791Y23613D01*
G01X462814Y23507D01*
G01X462854Y23409D01*
G01X462909Y23319D01*
G01X462980Y23236D01*
G01X463067Y23161D01*
G01X463165Y23096D01*
G01X463274Y23042D01*
G01X463392Y23001D01*
G01X463519Y22971D01*
G01X463655Y22953D01*
G01X463801Y22947D01*
G01X463955Y22954D01*
G01X464100Y22975D01*
G01X464236Y23010D01*
G01X464362Y23059D01*
G01X464478Y23120D01*
G01X464580Y23194D01*
G01X464670Y23278D01*
G01X464746Y23374D01*
G01X464806Y23477D01*
G01X464849Y23583D01*
G01X464874Y23693D01*
G01X464883Y23808D01*
G01X464431Y23808D01*
G01X464415Y23701D01*
G01X464379Y23605D01*
G01X464323Y23521D01*
G01X464248Y23448D01*
G01X464157Y23390D01*
G01X464052Y23349D01*
G01X463934Y23324D01*
G01X463801Y23316D01*
G01X463679Y23322D01*
G01X463570Y23341D01*
G01X463473Y23374D01*
G01X463389Y23420D01*
G01X463273Y23541D01*
G01X463235Y23697D01*
G01X463269Y23859D01*
G01X463372Y23981D01*
G01X463455Y24030D01*
G01X463562Y24075D01*
G01X463696Y24118D01*
G01X463854Y24156D01*
G01X464017Y24194D01*
G01X464162Y24236D01*
G01X464289Y24282D01*
G01X464398Y24332D01*
G01X464492Y24385D01*
G01X464573Y24443D01*
G01X464640Y24507D01*
G01X464695Y24575D01*
G01X464768Y24731D01*
G01X464792Y24913D01*
G01X464784Y25018D01*
G01X464761Y25117D01*
G01X464723Y25212D01*
G01X464670Y25300D01*
G01X464601Y25384D01*
G01X464517Y25462D01*
G01X464422Y25530D01*
G01X464318Y25586D01*
G01X464205Y25629D01*
G01X464084Y25660D01*
G01X463954Y25679D01*
G37*

%LPD*%
G36*
G01X467603Y25637D02*
G01X467151Y25637D01*
G01X467151Y22995D01*
G01X467580Y22995D01*
G01X467591Y23257D01*
G01X467660Y23184D01*
G01X467738Y23121D01*
G01X467823Y23068D01*
G01X467916Y23024D01*
G01X468016Y22991D01*
G01X468124Y22967D01*
G01X468240Y22952D01*
G01X468363Y22947D01*
G01X468498Y22954D01*
G01X468623Y22974D01*
G01X468736Y23008D01*
G01X468838Y23055D01*
G01X468929Y23116D01*
G01X469008Y23191D01*
G01X469076Y23279D01*
G01X469131Y23381D01*
G01X469174Y23496D01*
G01X469206Y23623D01*
G01X469224Y23764D01*
G01X469231Y23918D01*
G01X469231Y25637D01*
G01X468779Y25637D01*
G01X468779Y23930D01*
G01X468772Y23789D01*
G01X468749Y23668D01*
G01X468711Y23565D01*
G01X468657Y23481D01*
G01X468589Y23415D01*
G01X468505Y23368D01*
G01X468406Y23340D01*
G01X468292Y23331D01*
G01X468168Y23337D01*
G01X468054Y23355D01*
G01X467952Y23385D01*
G01X467860Y23427D01*
G01X467780Y23482D01*
G01X467710Y23548D01*
G01X467651Y23626D01*
G01X467603Y23717D01*
G01X467603Y25637D01*
G37*

%LPD*%
G36*
G01X471108Y25681D02*
G01X470994Y25685D01*
G01X470862Y25680D01*
G01X470737Y25662D01*
G01X470618Y25633D01*
G01X470506Y25592D01*
G01X470399Y25540D01*
G01X470300Y25476D01*
G01X470207Y25399D01*
G01X470120Y25312D01*
G01X470042Y25215D01*
G01X469975Y25110D01*
G01X469918Y24998D01*
G01X469871Y24877D01*
G01X469834Y24749D01*
G01X469809Y24613D01*
G01X469793Y24470D01*
G01X469788Y24319D01*
G01X469788Y24286D01*
G01X469792Y24160D01*
G01X469804Y24038D01*
G01X469825Y23922D01*
G01X469853Y23808D01*
G01X469890Y23700D01*
G01X469935Y23595D01*
G01X469988Y23496D01*
G01X470047Y23405D01*
G01X470114Y23322D01*
G01X470188Y23246D01*
G01X470269Y23178D01*
G01X470357Y23117D01*
G01X470451Y23066D01*
G01X470549Y23023D01*
G01X470652Y22990D01*
G01X470760Y22966D01*
G01X470872Y22952D01*
G01X470989Y22947D01*
G01X471120Y22953D01*
G01X471245Y22971D01*
G01X471363Y23000D01*
G01X471474Y23041D01*
G01X471580Y23093D01*
G01X471679Y23157D01*
G01X471771Y23233D01*
G01X471858Y23321D01*
G01X471937Y23418D01*
G01X472005Y23522D01*
G01X472062Y23635D01*
G01X472109Y23754D01*
G01X472146Y23881D01*
G01X472172Y24017D01*
G01X472188Y24159D01*
G01X472193Y24309D01*
G01X472193Y24342D01*
G01X472189Y24468D01*
G01X472176Y24591D01*
G01X472155Y24709D01*
G01X472126Y24824D01*
G01X472087Y24934D01*
G01X472041Y25040D01*
G01X471986Y25140D01*
G01X471924Y25231D01*
G01X471857Y25315D01*
G01X471782Y25390D01*
G01X471701Y25458D01*
G01X471614Y25518D01*
G01X471522Y25569D01*
G01X471425Y25611D01*
G01X471323Y25643D01*
G01X471218Y25667D01*
G01X471108Y25681D01*
G37*

%LPC*%
G36*
G01X471101Y25307D02*
G01X470994Y25315D01*
G01X470884Y25307D01*
G01X470781Y25285D01*
G01X470686Y25247D01*
G01X470598Y25195D01*
G01X470518Y25128D01*
G01X470446Y25045D01*
G01X470383Y24951D01*
G01X470331Y24848D01*
G01X470291Y24735D01*
G01X470263Y24613D01*
G01X470245Y24482D01*
G01X470240Y24342D01*
G01X470245Y24185D01*
G01X470262Y24041D01*
G01X470290Y23909D01*
G01X470329Y23788D01*
G01X470379Y23681D01*
G01X470441Y23585D01*
G01X470512Y23502D01*
G01X470592Y23435D01*
G01X470679Y23383D01*
G01X470775Y23346D01*
G01X470878Y23323D01*
G01X470989Y23316D01*
G01X471099Y23323D01*
G01X471201Y23345D01*
G01X471296Y23382D01*
G01X471383Y23434D01*
G01X471463Y23501D01*
G01X471535Y23582D01*
G01X471597Y23675D01*
G01X471648Y23778D01*
G01X471688Y23890D01*
G01X471716Y24013D01*
G01X471733Y24144D01*
G01X471738Y24286D01*
G01X471733Y24445D01*
G01X471716Y24592D01*
G01X471687Y24725D01*
G01X471647Y24846D01*
G01X471596Y24953D01*
G01X471533Y25048D01*
G01X471461Y25129D01*
G01X471381Y25196D01*
G01X471295Y25248D01*
G01X471202Y25285D01*
G01X471101Y25307D01*
G37*

%LPD*%
G36*
G01X474878Y26745D02*
G01X474426Y26745D01*
G01X474426Y25348D01*
G01X474354Y25427D01*
G01X474276Y25495D01*
G01X474191Y25553D01*
G01X474100Y25601D01*
G01X474003Y25638D01*
G01X473898Y25664D01*
G01X473788Y25680D01*
G01X473671Y25685D01*
G01X473555Y25680D01*
G01X473444Y25662D01*
G01X473340Y25634D01*
G01X473243Y25594D01*
G01X473152Y25544D01*
G01X473067Y25481D01*
G01X472989Y25407D01*
G01X472917Y25322D01*
G01X472852Y25227D01*
G01X472796Y25124D01*
G01X472748Y25012D01*
G01X472709Y24891D01*
G01X472679Y24763D01*
G01X472657Y24626D01*
G01X472645Y24480D01*
G01X472640Y24326D01*
G01X472640Y24286D01*
G01X472645Y24138D01*
G01X472657Y23998D01*
G01X472679Y23866D01*
G01X472710Y23740D01*
G01X472749Y23622D01*
G01X472797Y23512D01*
G01X472854Y23409D01*
G01X472920Y23313D01*
G01X472992Y23227D01*
G01X473071Y23153D01*
G01X473156Y23090D01*
G01X473246Y23039D01*
G01X473342Y22999D01*
G01X473444Y22970D01*
G01X473553Y22953D01*
G01X473666Y22947D01*
G01X473788Y22953D01*
G01X473903Y22969D01*
G01X474010Y22997D01*
G01X474110Y23036D01*
G01X474203Y23085D01*
G01X474290Y23146D01*
G01X474369Y23217D01*
G01X474441Y23300D01*
G01X474461Y22995D01*
G01X474878Y22995D01*
G01X474878Y26745D01*
G37*

%LPC*%
G36*
G01X473891Y25295D02*
G01X473783Y25302D01*
G01X473676Y25295D01*
G01X473578Y25274D01*
G01X473489Y25239D01*
G01X473407Y25190D01*
G01X473335Y25127D01*
G01X473270Y25050D01*
G01X473216Y24961D01*
G01X473172Y24859D01*
G01X473137Y24747D01*
G01X473112Y24623D01*
G01X473097Y24486D01*
G01X473092Y24339D01*
G01X473097Y24178D01*
G01X473112Y24030D01*
G01X473137Y23897D01*
G01X473173Y23778D01*
G01X473218Y23673D01*
G01X473273Y23582D01*
G01X473373Y23472D01*
G01X473491Y23394D01*
G01X473626Y23347D01*
G01X473778Y23331D01*
G01X473884Y23337D01*
G01X473983Y23357D01*
G01X474075Y23389D01*
G01X474160Y23434D01*
G01X474237Y23492D01*
G01X474307Y23563D01*
G01X474370Y23648D01*
G01X474426Y23745D01*
G01X474426Y24888D01*
G01X474373Y24985D01*
G01X474312Y25069D01*
G01X474244Y25140D01*
G01X474167Y25198D01*
G01X474083Y25243D01*
G01X473991Y25276D01*
G01X473891Y25295D01*
G37*

%LPD*%
G36*
G01X476589Y25680D02*
G01X476486Y25685D01*
G01X476361Y25680D01*
G01X476243Y25664D01*
G01X476133Y25638D01*
G01X476029Y25601D01*
G01X475933Y25553D01*
G01X475843Y25495D01*
G01X475761Y25427D01*
G01X475686Y25348D01*
G01X475619Y25258D01*
G01X475561Y25159D01*
G01X475512Y25051D01*
G01X475472Y24934D01*
G01X475441Y24808D01*
G01X475419Y24673D01*
G01X475406Y24528D01*
G01X475401Y24375D01*
G01X475401Y24187D01*
G01X477189Y24187D01*
G01X477180Y24061D01*
G01X477159Y23943D01*
G01X477127Y23834D01*
G01X477083Y23733D01*
G01X477028Y23641D01*
G01X476961Y23557D01*
G01X476885Y23483D01*
G01X476802Y23423D01*
G01X476713Y23376D01*
G01X476617Y23342D01*
G01X476516Y23322D01*
G01X476407Y23316D01*
G01X476291Y23322D01*
G01X476185Y23339D01*
G01X476088Y23370D01*
G01X476001Y23412D01*
G01X475921Y23465D01*
G01X475846Y23526D01*
G01X475776Y23595D01*
G01X475711Y23671D01*
G01X475434Y23458D01*
G01X475504Y23361D01*
G01X475580Y23274D01*
G01X475663Y23197D01*
G01X475753Y23131D01*
G01X475850Y23075D01*
G01X475952Y23029D01*
G01X476062Y22993D01*
G01X476178Y22968D01*
G01X476301Y22952D01*
G01X476430Y22947D01*
G01X476561Y22953D01*
G01X476686Y22969D01*
G01X476805Y22997D01*
G01X476918Y23036D01*
G01X477024Y23085D01*
G01X477123Y23146D01*
G01X477217Y23217D01*
G01X477304Y23300D01*
G01X477383Y23392D01*
G01X477451Y23492D01*
G01X477509Y23598D01*
G01X477557Y23712D01*
G01X477594Y23834D01*
G01X477620Y23963D01*
G01X477636Y24099D01*
G01X477641Y24243D01*
G01X477641Y24326D01*
G01X477637Y24455D01*
G01X477625Y24579D01*
G01X477604Y24698D01*
G01X477575Y24813D01*
G01X477537Y24923D01*
G01X477492Y25027D01*
G01X477438Y25127D01*
G01X477378Y25219D01*
G01X477312Y25303D01*
G01X477239Y25380D01*
G01X477159Y25449D01*
G01X477072Y25510D01*
G01X476981Y25563D01*
G01X476887Y25608D01*
G01X476790Y25642D01*
G01X476691Y25666D01*
G01X476589Y25680D01*
G37*

%LPC*%
G36*
G01X476617Y25302D02*
G01X476486Y25315D01*
G01X476352Y25303D01*
G01X476232Y25267D01*
G01X476127Y25209D01*
G01X476036Y25127D01*
G01X475962Y25022D01*
G01X475907Y24898D01*
G01X475870Y24755D01*
G01X475851Y24593D01*
G01X475851Y24558D01*
G01X477174Y24558D01*
G01X477144Y24727D01*
G01X477095Y24876D01*
G01X477029Y25006D01*
G01X476945Y25116D01*
G01X476847Y25203D01*
G01X476738Y25265D01*
G01X476617Y25302D01*
G37*

%LPD*%
G36*
G01X483602Y25679D02*
G01X483463Y25685D01*
G01X483319Y25679D01*
G01X483183Y25659D01*
G01X483057Y25627D01*
G01X482940Y25583D01*
G01X482833Y25525D01*
G01X482734Y25454D01*
G01X482649Y25373D01*
G01X482579Y25286D01*
G01X482525Y25190D01*
G01X482486Y25087D01*
G01X482462Y24977D01*
G01X482455Y24860D01*
G01X482909Y24860D01*
G01X482919Y24949D01*
G01X482949Y25033D01*
G01X482998Y25109D01*
G01X483067Y25180D01*
G01X483151Y25239D01*
G01X483245Y25281D01*
G01X483349Y25306D01*
G01X483463Y25315D01*
G01X483579Y25308D01*
G01X483683Y25288D01*
G01X483772Y25255D01*
G01X483849Y25208D01*
G01X483954Y25084D01*
G01X483989Y24926D01*
G01X483956Y24783D01*
G01X483859Y24680D01*
G01X483782Y24639D01*
G01X483678Y24599D01*
G01X483548Y24561D01*
G01X483392Y24522D01*
G01X483231Y24482D01*
G01X483086Y24439D01*
G01X482957Y24392D01*
G01X482843Y24342D01*
G01X482746Y24286D01*
G01X482662Y24225D01*
G01X482591Y24159D01*
G01X482533Y24088D01*
G01X482489Y24010D01*
G01X482457Y23924D01*
G01X482438Y23830D01*
G01X482432Y23727D01*
G01X482439Y23613D01*
G01X482463Y23507D01*
G01X482502Y23409D01*
G01X482557Y23319D01*
G01X482627Y23236D01*
G01X482714Y23161D01*
G01X482813Y23096D01*
G01X482922Y23042D01*
G01X483040Y23001D01*
G01X483167Y22971D01*
G01X483305Y22953D01*
G01X483450Y22947D01*
G01X483604Y22954D01*
G01X483750Y22975D01*
G01X483885Y23010D01*
G01X484012Y23059D01*
G01X484127Y23120D01*
G01X484229Y23194D01*
G01X484318Y23278D01*
G01X484393Y23374D01*
G01X484453Y23477D01*
G01X484496Y23583D01*
G01X484521Y23693D01*
G01X484530Y23808D01*
G01X484080Y23808D01*
G01X484064Y23701D01*
G01X484029Y23605D01*
G01X483973Y23521D01*
G01X483897Y23448D01*
G01X483805Y23390D01*
G01X483700Y23349D01*
G01X483582Y23324D01*
G01X483450Y23316D01*
G01X483328Y23322D01*
G01X483219Y23341D01*
G01X483123Y23374D01*
G01X483039Y23420D01*
G01X482923Y23541D01*
G01X482884Y23697D01*
G01X482919Y23859D01*
G01X483021Y23981D01*
G01X483102Y24030D01*
G01X483210Y24075D01*
G01X483343Y24118D01*
G01X483501Y24156D01*
G01X483664Y24194D01*
G01X483809Y24236D01*
G01X483937Y24282D01*
G01X484047Y24332D01*
G01X484141Y24385D01*
G01X484222Y24443D01*
G01X484290Y24507D01*
G01X484344Y24575D01*
G01X484417Y24731D01*
G01X484441Y24913D01*
G01X484433Y25018D01*
G01X484411Y25117D01*
G01X484372Y25212D01*
G01X484319Y25300D01*
G01X484251Y25384D01*
G01X484167Y25462D01*
G01X484071Y25530D01*
G01X483967Y25586D01*
G01X483854Y25629D01*
G01X483732Y25660D01*
G01X483602Y25679D01*
G37*

%LPD*%
G36*
G01X486748Y25681D02*
G01X486630Y25685D01*
G01X486487Y25678D01*
G01X486351Y25656D01*
G01X486224Y25619D01*
G01X486104Y25567D01*
G01X485994Y25500D01*
G01X485891Y25419D01*
G01X485801Y25326D01*
G01X485726Y25225D01*
G01X485666Y25114D01*
G01X485622Y24994D01*
G01X485593Y24865D01*
G01X485579Y24728D01*
G01X486006Y24728D01*
G01X486025Y24850D01*
G01X486064Y24961D01*
G01X486122Y25061D01*
G01X486199Y25149D01*
G01X486292Y25222D01*
G01X486394Y25273D01*
G01X486508Y25304D01*
G01X486630Y25315D01*
G01X486741Y25308D01*
G01X486843Y25287D01*
G01X486937Y25253D01*
G01X487021Y25205D01*
G01X487097Y25143D01*
G01X487164Y25068D01*
G01X487222Y24979D01*
G01X487270Y24878D01*
G01X487307Y24764D01*
G01X487333Y24638D01*
G01X487349Y24500D01*
G01X487354Y24349D01*
G01X487354Y24265D01*
G01X487349Y24119D01*
G01X487334Y23984D01*
G01X487308Y23861D01*
G01X487271Y23749D01*
G01X487224Y23650D01*
G01X487166Y23562D01*
G01X487099Y23487D01*
G01X487023Y23425D01*
G01X486938Y23377D01*
G01X486843Y23343D01*
G01X486740Y23322D01*
G01X486628Y23316D01*
G01X486511Y23325D01*
G01X486402Y23352D01*
G01X486300Y23398D01*
G01X486206Y23463D01*
G01X486126Y23540D01*
G01X486066Y23626D01*
G01X486026Y23723D01*
G01X486006Y23829D01*
G01X485579Y23829D01*
G01X485593Y23716D01*
G01X485624Y23606D01*
G01X485671Y23500D01*
G01X485734Y23397D01*
G01X485812Y23299D01*
G01X485903Y23212D01*
G01X486005Y23135D01*
G01X486120Y23069D01*
G01X486241Y23016D01*
G01X486366Y22978D01*
G01X486495Y22955D01*
G01X486628Y22947D01*
G01X486759Y22953D01*
G01X486883Y22970D01*
G01X487001Y22998D01*
G01X487112Y23037D01*
G01X487216Y23088D01*
G01X487313Y23150D01*
G01X487403Y23224D01*
G01X487486Y23308D01*
G01X487561Y23401D01*
G01X487625Y23503D01*
G01X487680Y23614D01*
G01X487725Y23733D01*
G01X487759Y23860D01*
G01X487784Y23995D01*
G01X487799Y24139D01*
G01X487804Y24291D01*
G01X487804Y24367D01*
G01X487800Y24494D01*
G01X487788Y24615D01*
G01X487769Y24731D01*
G01X487742Y24844D01*
G01X487707Y24951D01*
G01X487664Y25053D01*
G01X487613Y25150D01*
G01X487556Y25239D01*
G01X487492Y25321D01*
G01X487420Y25395D01*
G01X487343Y25461D01*
G01X487258Y25520D01*
G01X487166Y25571D01*
G01X487069Y25612D01*
G01X486968Y25644D01*
G01X486861Y25667D01*
G01X486748Y25681D01*
G37*

%LPD*%
G36*
G01X490809Y25681D02*
G01X490694Y25685D01*
G01X490563Y25680D01*
G01X490438Y25662D01*
G01X490320Y25633D01*
G01X490207Y25592D01*
G01X490102Y25540D01*
G01X490003Y25476D01*
G01X489910Y25399D01*
G01X489823Y25312D01*
G01X489745Y25215D01*
G01X489677Y25110D01*
G01X489621Y24998D01*
G01X489574Y24877D01*
G01X489537Y24749D01*
G01X489511Y24613D01*
G01X489496Y24470D01*
G01X489491Y24319D01*
G01X489491Y24286D01*
G01X489495Y24160D01*
G01X489507Y24038D01*
G01X489528Y23922D01*
G01X489556Y23808D01*
G01X489593Y23700D01*
G01X489638Y23595D01*
G01X489691Y23496D01*
G01X489750Y23405D01*
G01X489817Y23322D01*
G01X489891Y23246D01*
G01X489972Y23178D01*
G01X490059Y23117D01*
G01X490153Y23066D01*
G01X490252Y23023D01*
G01X490354Y22990D01*
G01X490461Y22966D01*
G01X490573Y22952D01*
G01X490689Y22947D01*
G01X490821Y22953D01*
G01X490946Y22971D01*
G01X491064Y23000D01*
G01X491177Y23041D01*
G01X491282Y23093D01*
G01X491381Y23157D01*
G01X491474Y23233D01*
G01X491561Y23321D01*
G01X491639Y23418D01*
G01X491706Y23522D01*
G01X491763Y23635D01*
G01X491810Y23754D01*
G01X491847Y23881D01*
G01X491873Y24017D01*
G01X491888Y24159D01*
G01X491893Y24309D01*
G01X491893Y24342D01*
G01X491889Y24468D01*
G01X491877Y24591D01*
G01X491855Y24709D01*
G01X491826Y24824D01*
G01X491788Y24934D01*
G01X491741Y25040D01*
G01X491687Y25140D01*
G01X491626Y25231D01*
G01X491559Y25315D01*
G01X491485Y25390D01*
G01X491404Y25458D01*
G01X491317Y25518D01*
G01X491224Y25569D01*
G01X491127Y25611D01*
G01X491025Y25643D01*
G01X490920Y25667D01*
G01X490809Y25681D01*
G37*

%LPC*%
G36*
G01X490803Y25307D02*
G01X490694Y25315D01*
G01X490585Y25307D01*
G01X490483Y25285D01*
G01X490388Y25247D01*
G01X490300Y25195D01*
G01X490221Y25128D01*
G01X490148Y25045D01*
G01X490085Y24951D01*
G01X490033Y24848D01*
G01X489992Y24735D01*
G01X489963Y24613D01*
G01X489946Y24482D01*
G01X489940Y24342D01*
G01X489946Y24185D01*
G01X489962Y24041D01*
G01X489991Y23909D01*
G01X490031Y23788D01*
G01X490081Y23681D01*
G01X490143Y23585D01*
G01X490215Y23502D01*
G01X490294Y23435D01*
G01X490382Y23383D01*
G01X490477Y23346D01*
G01X490579Y23323D01*
G01X490689Y23316D01*
G01X490800Y23323D01*
G01X490902Y23345D01*
G01X490997Y23382D01*
G01X491085Y23434D01*
G01X491164Y23501D01*
G01X491236Y23582D01*
G01X491298Y23675D01*
G01X491350Y23778D01*
G01X491390Y23890D01*
G01X491418Y24013D01*
G01X491436Y24144D01*
G01X491441Y24286D01*
G01X491436Y24445D01*
G01X491418Y24592D01*
G01X491390Y24725D01*
G01X491350Y24846D01*
G01X491298Y24953D01*
G01X491236Y25048D01*
G01X491163Y25129D01*
G01X491084Y25196D01*
G01X490997Y25248D01*
G01X490904Y25285D01*
G01X490803Y25307D01*
G37*

%LPD*%
G36*
G01X499282Y25681D02*
G01X499168Y25685D01*
G01X499036Y25680D01*
G01X498910Y25662D01*
G01X498791Y25633D01*
G01X498679Y25592D01*
G01X498573Y25540D01*
G01X498473Y25476D01*
G01X498381Y25399D01*
G01X498294Y25312D01*
G01X498216Y25215D01*
G01X498148Y25110D01*
G01X498091Y24998D01*
G01X498045Y24877D01*
G01X498008Y24749D01*
G01X497982Y24613D01*
G01X497967Y24470D01*
G01X497961Y24319D01*
G01X497961Y24286D01*
G01X497965Y24160D01*
G01X497978Y24038D01*
G01X497999Y23922D01*
G01X498027Y23808D01*
G01X498064Y23700D01*
G01X498109Y23595D01*
G01X498162Y23496D01*
G01X498221Y23405D01*
G01X498288Y23322D01*
G01X498362Y23246D01*
G01X498442Y23178D01*
G01X498530Y23117D01*
G01X498624Y23066D01*
G01X498722Y23023D01*
G01X498826Y22990D01*
G01X498933Y22966D01*
G01X499046Y22952D01*
G01X499163Y22947D01*
G01X499293Y22953D01*
G01X499418Y22971D01*
G01X499536Y23000D01*
G01X499648Y23041D01*
G01X499754Y23093D01*
G01X499852Y23157D01*
G01X499945Y23233D01*
G01X500032Y23321D01*
G01X500110Y23418D01*
G01X500178Y23522D01*
G01X500236Y23635D01*
G01X500283Y23754D01*
G01X500320Y23881D01*
G01X500346Y24017D01*
G01X500362Y24159D01*
G01X500367Y24309D01*
G01X500367Y24342D01*
G01X500363Y24468D01*
G01X500350Y24591D01*
G01X500329Y24709D01*
G01X500299Y24824D01*
G01X500261Y24934D01*
G01X500214Y25040D01*
G01X500160Y25140D01*
G01X500099Y25231D01*
G01X500032Y25315D01*
G01X499957Y25390D01*
G01X499876Y25458D01*
G01X499788Y25518D01*
G01X499695Y25569D01*
G01X499598Y25611D01*
G01X499497Y25643D01*
G01X499391Y25667D01*
G01X499282Y25681D01*
G37*

%LPC*%
G36*
G01X499275Y25307D02*
G01X499168Y25315D01*
G01X499058Y25307D01*
G01X498955Y25285D01*
G01X498860Y25247D01*
G01X498772Y25195D01*
G01X498692Y25128D01*
G01X498619Y25045D01*
G01X498556Y24951D01*
G01X498505Y24848D01*
G01X498465Y24735D01*
G01X498436Y24613D01*
G01X498419Y24482D01*
G01X498414Y24342D01*
G01X498419Y24185D01*
G01X498436Y24041D01*
G01X498464Y23909D01*
G01X498503Y23788D01*
G01X498553Y23681D01*
G01X498614Y23585D01*
G01X498686Y23502D01*
G01X498766Y23435D01*
G01X498853Y23383D01*
G01X498948Y23346D01*
G01X499052Y23323D01*
G01X499163Y23316D01*
G01X499273Y23323D01*
G01X499375Y23345D01*
G01X499470Y23382D01*
G01X499557Y23434D01*
G01X499637Y23501D01*
G01X499709Y23582D01*
G01X499771Y23675D01*
G01X499822Y23778D01*
G01X499861Y23890D01*
G01X499890Y24013D01*
G01X499907Y24144D01*
G01X499912Y24286D01*
G01X499907Y24445D01*
G01X499889Y24592D01*
G01X499861Y24725D01*
G01X499821Y24846D01*
G01X499769Y24953D01*
G01X499706Y25048D01*
G01X499634Y25129D01*
G01X499555Y25196D01*
G01X499469Y25248D01*
G01X499376Y25285D01*
G01X499275Y25307D01*
G37*

%LPD*%

%LPD*%
G36*
G01X471226Y46534D02*
G01X471164Y46539D01*
G01X471102Y46534D01*
G01X471048Y46519D01*
G01X471002Y46496D01*
G01X470964Y46463D01*
G01X470934Y46422D01*
G01X470912Y46378D01*
G01X470899Y46329D01*
G01X470895Y46277D01*
G01X470899Y46225D01*
G01X470912Y46177D01*
G01X470934Y46133D01*
G01X470964Y46094D01*
G01X471002Y46062D01*
G01X471048Y46039D01*
G01X471102Y46025D01*
G01X471164Y46021D01*
G01X471226Y46025D01*
G01X471280Y46039D01*
G01X471325Y46062D01*
G01X471363Y46094D01*
G01X471393Y46133D01*
G01X471414Y46177D01*
G01X471427Y46225D01*
G01X471431Y46277D01*
G01X471427Y46329D01*
G01X471414Y46378D01*
G01X471393Y46422D01*
G01X471363Y46463D01*
G01X471325Y46496D01*
G01X471280Y46520D01*
G01X471226Y46534D01*
G37*

%LPD*%
G36*
G01X494246Y46534D02*
G01X494184Y46539D01*
G01X494122Y46534D01*
G01X494068Y46519D01*
G01X494022Y46496D01*
G01X493984Y46463D01*
G01X493954Y46422D01*
G01X493932Y46378D01*
G01X493919Y46329D01*
G01X493915Y46277D01*
G01X493919Y46225D01*
G01X493932Y46177D01*
G01X493954Y46133D01*
G01X493984Y46094D01*
G01X494022Y46062D01*
G01X494068Y46039D01*
G01X494122Y46025D01*
G01X494184Y46021D01*
G01X494246Y46025D01*
G01X494300Y46039D01*
G01X494345Y46062D01*
G01X494383Y46094D01*
G01X494413Y46133D01*
G01X494434Y46177D01*
G01X494447Y46225D01*
G01X494451Y46277D01*
G01X494447Y46329D01*
G01X494434Y46378D01*
G01X494413Y46422D01*
G01X494383Y46463D01*
G01X494345Y46496D01*
G01X494300Y46520D01*
G01X494246Y46534D01*
G37*

%LPD*%
G36*
G01X460275Y46488D02*
G01X458965Y46488D01*
G01X458823Y46483D01*
G01X458688Y46469D01*
G01X458562Y46446D01*
G01X458444Y46414D01*
G01X458334Y46372D01*
G01X458231Y46321D01*
G01X458137Y46260D01*
G01X458050Y46191D01*
G01X457973Y46114D01*
G01X457906Y46030D01*
G01X457849Y45941D01*
G01X457803Y45845D01*
G01X457766Y45744D01*
G01X457741Y45637D01*
G01X457725Y45523D01*
G01X457720Y45403D01*
G01X457725Y45277D01*
G01X457741Y45159D01*
G01X457765Y45048D01*
G01X457801Y44945D01*
G01X457846Y44849D01*
G01X457902Y44760D01*
G01X457967Y44679D01*
G01X458043Y44606D01*
G01X458128Y44540D01*
G01X458222Y44483D01*
G01X458324Y44436D01*
G01X458436Y44396D01*
G01X458556Y44366D01*
G01X458685Y44344D01*
G01X458823Y44331D01*
G01X458970Y44326D01*
G01X459808Y44326D01*
G01X459808Y42934D01*
G01X460275Y42934D01*
G01X460275Y46488D01*
G37*

%LPC*%
G36*
G01X459808Y46104D02*
G01X458937Y46104D01*
G01X458772Y46089D01*
G01X458626Y46051D01*
G01X458498Y45990D01*
G01X458388Y45906D01*
G01X458300Y45803D01*
G01X458238Y45684D01*
G01X458200Y45549D01*
G01X458188Y45398D01*
G01X458200Y45240D01*
G01X458238Y45102D01*
G01X458300Y44984D01*
G01X458388Y44885D01*
G01X458460Y44832D01*
G01X458542Y44788D01*
G01X458633Y44754D01*
G01X458734Y44729D01*
G01X458844Y44715D01*
G01X458965Y44710D01*
G01X459808Y44710D01*
G01X459808Y46104D01*
G37*

%LPD*%
G36*
G01X464933Y45615D02*
G01X464802Y45624D01*
G01X464740Y45622D01*
G01X464685Y45616D01*
G01X464639Y45606D01*
G01X464601Y45591D01*
G01X464601Y45170D01*
G01X464654Y45177D01*
G01X464709Y45183D01*
G01X464766Y45186D01*
G01X464825Y45187D01*
G01X464965Y45177D01*
G01X465089Y45145D01*
G01X465197Y45093D01*
G01X465290Y45019D01*
G01X465366Y44925D01*
G01X465427Y44809D01*
G01X465427Y42934D01*
G01X465879Y42934D01*
G01X465879Y45576D01*
G01X465439Y45576D01*
G01X465432Y45271D01*
G01X465353Y45379D01*
G01X465263Y45467D01*
G01X465164Y45536D01*
G01X465054Y45585D01*
G01X464933Y45615D01*
G37*

%LPD*%
G36*
G01X466624Y45615D02*
G01X466493Y45624D01*
G01X466431Y45622D01*
G01X466377Y45616D01*
G01X466331Y45606D01*
G01X466293Y45591D01*
G01X466293Y45170D01*
G01X466346Y45177D01*
G01X466401Y45183D01*
G01X466457Y45186D01*
G01X466516Y45187D01*
G01X466656Y45177D01*
G01X466781Y45145D01*
G01X466889Y45093D01*
G01X466982Y45019D01*
G01X467058Y44925D01*
G01X467118Y44809D01*
G01X467118Y42934D01*
G01X467570Y42934D01*
G01X467570Y45576D01*
G01X467131Y45576D01*
G01X467123Y45271D01*
G01X467045Y45379D01*
G01X466955Y45467D01*
G01X466856Y45536D01*
G01X466745Y45585D01*
G01X466624Y45615D01*
G37*

%LPD*%
G36*
G01X471393Y45576D02*
G01X470941Y45576D01*
G01X470941Y42934D01*
G01X471393Y42934D01*
G01X471393Y45576D01*
G37*

%LPD*%
G36*
G01X474517Y46488D02*
G01X473204Y46488D01*
G01X473062Y46483D01*
G01X472929Y46469D01*
G01X472803Y46446D01*
G01X472685Y46414D01*
G01X472575Y46372D01*
G01X472473Y46321D01*
G01X472379Y46260D01*
G01X472292Y46191D01*
G01X472214Y46114D01*
G01X472146Y46030D01*
G01X472089Y45941D01*
G01X472043Y45845D01*
G01X472006Y45744D01*
G01X471980Y45637D01*
G01X471965Y45523D01*
G01X471959Y45403D01*
G01X471965Y45277D01*
G01X471980Y45159D01*
G01X472005Y45048D01*
G01X472041Y44945D01*
G01X472086Y44849D01*
G01X472142Y44760D01*
G01X472208Y44679D01*
G01X472285Y44606D01*
G01X472369Y44540D01*
G01X472463Y44483D01*
G01X472566Y44436D01*
G01X472677Y44396D01*
G01X472797Y44366D01*
G01X472926Y44344D01*
G01X473063Y44331D01*
G01X473209Y44326D01*
G01X474047Y44326D01*
G01X474047Y42934D01*
G01X474517Y42934D01*
G01X474517Y46488D01*
G37*

%LPC*%
G36*
G01X474047Y46104D02*
G01X473179Y46104D01*
G01X473013Y46089D01*
G01X472866Y46051D01*
G01X472739Y45990D01*
G01X472630Y45906D01*
G01X472542Y45803D01*
G01X472480Y45684D01*
G01X472442Y45549D01*
G01X472429Y45398D01*
G01X472442Y45240D01*
G01X472480Y45102D01*
G01X472542Y44984D01*
G01X472630Y44885D01*
G01X472701Y44832D01*
G01X472782Y44788D01*
G01X472873Y44754D01*
G01X472973Y44729D01*
G01X473084Y44715D01*
G01X473204Y44710D01*
G01X474047Y44710D01*
G01X474047Y46104D01*
G37*

%LPD*%
G36*
G01X489320Y45618D02*
G01X489201Y45624D01*
G01X489086Y45620D01*
G01X488978Y45605D01*
G01X488880Y45581D01*
G01X488790Y45547D01*
G01X488709Y45504D01*
G01X488636Y45451D01*
G01X488571Y45388D01*
G01X488515Y45316D01*
G01X488467Y45234D01*
G01X488429Y45142D01*
G01X488398Y45041D01*
G01X488376Y44930D01*
G01X488363Y44810D01*
G01X488358Y44679D01*
G01X488358Y42934D01*
G01X488807Y42934D01*
G01X488807Y44682D01*
G01X488816Y44816D01*
G01X488842Y44931D01*
G01X488882Y45027D01*
G01X488939Y45104D01*
G01X489012Y45164D01*
G01X489102Y45206D01*
G01X489211Y45232D01*
G01X489338Y45241D01*
G01X489444Y45234D01*
G01X489544Y45211D01*
G01X489637Y45175D01*
G01X489724Y45124D01*
G01X489802Y45061D01*
G01X489872Y44989D01*
G01X489932Y44907D01*
G01X489983Y44817D01*
G01X489983Y42934D01*
G01X490435Y42934D01*
G01X490435Y45576D01*
G01X490006Y45576D01*
G01X489993Y45243D01*
G01X489914Y45333D01*
G01X489830Y45410D01*
G01X489739Y45476D01*
G01X489643Y45529D01*
G01X489541Y45571D01*
G01X489434Y45600D01*
G01X489320Y45618D01*
G37*

%LPD*%
G36*
G01X494413Y45576D02*
G01X493961Y45576D01*
G01X493961Y42934D01*
G01X494413Y42934D01*
G01X494413Y45576D01*
G37*

%LPD*%
G36*
G01X502889Y46488D02*
G01X501886Y46488D01*
G01X501734Y46482D01*
G01X501588Y46466D01*
G01X501448Y46437D01*
G01X501315Y46398D01*
G01X501187Y46347D01*
G01X501065Y46285D01*
G01X500950Y46212D01*
G01X500845Y46128D01*
G01X500748Y46036D01*
G01X500661Y45934D01*
G01X500583Y45822D01*
G01X500514Y45701D01*
G01X500468Y45604D01*
G01X500428Y45504D01*
G01X500395Y45401D01*
G01X500367Y45294D01*
G01X500345Y45184D01*
G01X500329Y45070D01*
G01X500320Y44953D01*
G01X500316Y44832D01*
G01X500316Y44603D01*
G01X500319Y44479D01*
G01X500328Y44359D01*
G01X500343Y44244D01*
G01X500365Y44131D01*
G01X500392Y44023D01*
G01X500426Y43919D01*
G01X500466Y43818D01*
G01X500512Y43722D01*
G01X500581Y43600D01*
G01X500659Y43489D01*
G01X500747Y43388D01*
G01X500843Y43296D01*
G01X500950Y43214D01*
G01X501065Y43143D01*
G01X501157Y43095D01*
G01X501253Y43053D01*
G01X501352Y43018D01*
G01X501455Y42989D01*
G01X501562Y42966D01*
G01X501672Y42949D01*
G01X501786Y42939D01*
G01X501904Y42934D01*
G01X502889Y42934D01*
G01X502889Y46488D01*
G37*

%LPC*%
G36*
G01X502419Y46104D02*
G01X501873Y46104D01*
G01X501746Y46098D01*
G01X501626Y46081D01*
G01X501514Y46054D01*
G01X501410Y46017D01*
G01X501312Y45969D01*
G01X501222Y45911D01*
G01X501140Y45843D01*
G01X501065Y45764D01*
G01X500999Y45676D01*
G01X500941Y45579D01*
G01X500892Y45473D01*
G01X500852Y45360D01*
G01X500821Y45238D01*
G01X500799Y45107D01*
G01X500785Y44969D01*
G01X500781Y44822D01*
G01X500781Y44613D01*
G01X500785Y44463D01*
G01X500800Y44320D01*
G01X500823Y44187D01*
G01X500857Y44063D01*
G01X500899Y43947D01*
G01X500951Y43841D01*
G01X501012Y43744D01*
G01X501083Y43656D01*
G01X501162Y43577D01*
G01X501248Y43508D01*
G01X501342Y43450D01*
G01X501444Y43402D01*
G01X501553Y43366D01*
G01X501670Y43339D01*
G01X501794Y43323D01*
G01X501926Y43318D01*
G01X502419Y43318D01*
G01X502419Y46104D01*
G37*

%LPD*%
G36*
G01X447964Y45619D02*
G01X447860Y45624D01*
G01X447735Y45619D01*
G01X447618Y45603D01*
G01X447507Y45577D01*
G01X447403Y45540D01*
G01X447307Y45492D01*
G01X447217Y45434D01*
G01X447135Y45366D01*
G01X447060Y45287D01*
G01X446993Y45197D01*
G01X446935Y45098D01*
G01X446887Y44990D01*
G01X446846Y44873D01*
G01X446815Y44747D01*
G01X446793Y44612D01*
G01X446780Y44467D01*
G01X446775Y44314D01*
G01X446775Y44126D01*
G01X448564Y44126D01*
G01X448554Y44000D01*
G01X448534Y43882D01*
G01X448501Y43773D01*
G01X448457Y43672D01*
G01X448402Y43580D01*
G01X448335Y43496D01*
G01X448259Y43422D01*
G01X448176Y43362D01*
G01X448088Y43315D01*
G01X447991Y43281D01*
G01X447890Y43261D01*
G01X447781Y43255D01*
G01X447666Y43261D01*
G01X447560Y43278D01*
G01X447463Y43309D01*
G01X447375Y43351D01*
G01X447295Y43404D01*
G01X447220Y43465D01*
G01X447150Y43534D01*
G01X447085Y43610D01*
G01X446808Y43397D01*
G01X446878Y43300D01*
G01X446955Y43213D01*
G01X447037Y43136D01*
G01X447127Y43070D01*
G01X447224Y43014D01*
G01X447327Y42968D01*
G01X447436Y42932D01*
G01X447552Y42907D01*
G01X447675Y42891D01*
G01X447804Y42886D01*
G01X447936Y42892D01*
G01X448061Y42908D01*
G01X448179Y42936D01*
G01X448292Y42975D01*
G01X448398Y43024D01*
G01X448497Y43085D01*
G01X448591Y43156D01*
G01X448678Y43239D01*
G01X448757Y43331D01*
G01X448826Y43431D01*
G01X448884Y43537D01*
G01X448931Y43651D01*
G01X448968Y43773D01*
G01X448994Y43902D01*
G01X449011Y44038D01*
G01X449016Y44182D01*
G01X449016Y44265D01*
G01X449012Y44394D01*
G01X448999Y44518D01*
G01X448978Y44637D01*
G01X448949Y44752D01*
G01X448911Y44862D01*
G01X448866Y44966D01*
G01X448812Y45066D01*
G01X448752Y45158D01*
G01X448686Y45242D01*
G01X448613Y45319D01*
G01X448533Y45388D01*
G01X448447Y45449D01*
G01X448355Y45502D01*
G01X448261Y45547D01*
G01X448164Y45581D01*
G01X448065Y45605D01*
G01X447964Y45619D01*
G37*

%LPC*%
G36*
G01X447991Y45241D02*
G01X447860Y45254D01*
G01X447726Y45242D01*
G01X447607Y45206D01*
G01X447503Y45148D01*
G01X447413Y45066D01*
G01X447338Y44961D01*
G01X447283Y44837D01*
G01X447246Y44694D01*
G01X447227Y44532D01*
G01X447227Y44497D01*
G01X448548Y44497D01*
G01X448518Y44666D01*
G01X448470Y44815D01*
G01X448403Y44945D01*
G01X448320Y45055D01*
G01X448222Y45142D01*
G01X448112Y45204D01*
G01X447991Y45241D01*
G37*

%LPD*%
G36*
G01X450039Y45576D02*
G01X449587Y45576D01*
G01X449587Y42934D01*
G01X450016Y42934D01*
G01X450027Y43196D01*
G01X450097Y43123D01*
G01X450174Y43060D01*
G01X450259Y43007D01*
G01X450352Y42963D01*
G01X450453Y42930D01*
G01X450561Y42906D01*
G01X450677Y42891D01*
G01X450801Y42886D01*
G01X450936Y42893D01*
G01X451060Y42913D01*
G01X451173Y42947D01*
G01X451274Y42994D01*
G01X451365Y43055D01*
G01X451444Y43130D01*
G01X451511Y43218D01*
G01X451567Y43320D01*
G01X451610Y43435D01*
G01X451641Y43562D01*
G01X451660Y43703D01*
G01X451667Y43857D01*
G01X451667Y45576D01*
G01X451215Y45576D01*
G01X451215Y43869D01*
G01X451208Y43728D01*
G01X451185Y43607D01*
G01X451147Y43504D01*
G01X451093Y43420D01*
G01X451025Y43354D01*
G01X450941Y43307D01*
G01X450842Y43279D01*
G01X450728Y43270D01*
G01X450604Y43276D01*
G01X450490Y43294D01*
G01X450388Y43324D01*
G01X450296Y43366D01*
G01X450216Y43421D01*
G01X450146Y43487D01*
G01X450087Y43565D01*
G01X450039Y43656D01*
G01X450039Y45576D01*
G37*

%LPD*%
G36*
G01X456332Y45618D02*
G01X456191Y45624D01*
G01X456044Y45618D01*
G01X455908Y45599D01*
G01X455783Y45567D01*
G01X455669Y45523D01*
G01X455567Y45465D01*
G01X455475Y45396D01*
G01X455396Y45315D01*
G01X455330Y45225D01*
G01X455279Y45124D01*
G01X455241Y45015D01*
G01X455218Y44896D01*
G01X455208Y44768D01*
G01X455208Y43552D01*
G01X455202Y43379D01*
G01X455185Y43225D01*
G01X455155Y43090D01*
G01X455114Y42973D01*
G01X455114Y42934D01*
G01X455589Y42934D01*
G01X455624Y43044D01*
G01X455653Y43214D01*
G01X455733Y43137D01*
G01X455818Y43071D01*
G01X455906Y43014D01*
G01X455998Y42968D01*
G01X456094Y42932D01*
G01X456194Y42907D01*
G01X456297Y42891D01*
G01X456404Y42886D01*
G01X456530Y42892D01*
G01X456648Y42911D01*
G01X456759Y42942D01*
G01X456862Y42984D01*
G01X456957Y43040D01*
G01X457045Y43107D01*
G01X457121Y43184D01*
G01X457183Y43268D01*
G01X457232Y43357D01*
G01X457266Y43454D01*
G01X457286Y43557D01*
G01X457293Y43666D01*
G01X457285Y43799D01*
G01X457259Y43922D01*
G01X457215Y44034D01*
G01X457155Y44135D01*
G01X457077Y44227D01*
G01X456981Y44309D01*
G01X456898Y44362D01*
G01X456808Y44409D01*
G01X456709Y44448D01*
G01X456603Y44480D01*
G01X456488Y44505D01*
G01X456366Y44523D01*
G01X456235Y44534D01*
G01X456097Y44537D01*
G01X455658Y44537D01*
G01X455658Y44743D01*
G01X455667Y44855D01*
G01X455693Y44956D01*
G01X455738Y45044D01*
G01X455800Y45121D01*
G01X455880Y45182D01*
G01X455976Y45226D01*
G01X456089Y45252D01*
G01X456219Y45261D01*
G01X456335Y45254D01*
G01X456441Y45231D01*
G01X456537Y45193D01*
G01X456623Y45139D01*
G01X456747Y45005D01*
G01X456788Y44845D01*
G01X457240Y44845D01*
G01X457232Y44943D01*
G01X457205Y45039D01*
G01X457161Y45133D01*
G01X457100Y45226D01*
G01X457024Y45313D01*
G01X456935Y45391D01*
G01X456834Y45459D01*
G01X456719Y45518D01*
G01X456596Y45564D01*
G01X456467Y45597D01*
G01X456332Y45618D01*
G37*

%LPC*%
G36*
G01X456013Y44217D02*
G01X455658Y44217D01*
G01X455658Y43674D01*
G01X455708Y43590D01*
G01X455770Y43515D01*
G01X455846Y43448D01*
G01X455935Y43389D01*
G01X456031Y43341D01*
G01X456131Y43307D01*
G01X456233Y43287D01*
G01X456338Y43280D01*
G01X456444Y43288D01*
G01X456540Y43310D01*
G01X456625Y43347D01*
G01X456702Y43399D01*
G01X456764Y43465D01*
G01X456808Y43542D01*
G01X456835Y43630D01*
G01X456844Y43730D01*
G01X456836Y43822D01*
G01X456811Y43905D01*
G01X456769Y43978D01*
G01X456711Y44041D01*
G01X456636Y44095D01*
G01X456545Y44139D01*
G01X456437Y44174D01*
G01X456313Y44198D01*
G01X456171Y44212D01*
G01X456013Y44217D01*
G37*

%LPD*%
G36*
G01X463298Y45619D02*
G01X463194Y45624D01*
G01X463068Y45619D01*
G01X462951Y45603D01*
G01X462839Y45577D01*
G01X462735Y45540D01*
G01X462639Y45492D01*
G01X462549Y45434D01*
G01X462466Y45366D01*
G01X462391Y45287D01*
G01X462325Y45197D01*
G01X462267Y45098D01*
G01X462218Y44990D01*
G01X462178Y44873D01*
G01X462147Y44747D01*
G01X462125Y44612D01*
G01X462111Y44467D01*
G01X462107Y44314D01*
G01X462107Y44126D01*
G01X463895Y44126D01*
G01X463886Y44000D01*
G01X463866Y43882D01*
G01X463834Y43773D01*
G01X463791Y43672D01*
G01X463736Y43580D01*
G01X463669Y43496D01*
G01X463593Y43422D01*
G01X463510Y43362D01*
G01X463420Y43315D01*
G01X463324Y43281D01*
G01X463222Y43261D01*
G01X463113Y43255D01*
G01X462998Y43261D01*
G01X462892Y43278D01*
G01X462795Y43309D01*
G01X462706Y43351D01*
G01X462626Y43404D01*
G01X462551Y43465D01*
G01X462482Y43534D01*
G01X462417Y43610D01*
G01X462140Y43397D01*
G01X462210Y43300D01*
G01X462286Y43213D01*
G01X462369Y43136D01*
G01X462459Y43070D01*
G01X462556Y43014D01*
G01X462659Y42968D01*
G01X462769Y42932D01*
G01X462885Y42907D01*
G01X463008Y42891D01*
G01X463138Y42886D01*
G01X463269Y42892D01*
G01X463394Y42908D01*
G01X463512Y42936D01*
G01X463625Y42975D01*
G01X463730Y43024D01*
G01X463830Y43085D01*
G01X463924Y43156D01*
G01X464012Y43239D01*
G01X464091Y43331D01*
G01X464159Y43431D01*
G01X464216Y43537D01*
G01X464263Y43651D01*
G01X464300Y43773D01*
G01X464326Y43902D01*
G01X464342Y44038D01*
G01X464347Y44182D01*
G01X464347Y44265D01*
G01X464343Y44394D01*
G01X464330Y44518D01*
G01X464309Y44637D01*
G01X464281Y44752D01*
G01X464243Y44862D01*
G01X464197Y44966D01*
G01X464144Y45066D01*
G01X464084Y45158D01*
G01X464017Y45242D01*
G01X463944Y45319D01*
G01X463864Y45388D01*
G01X463778Y45449D01*
G01X463687Y45502D01*
G01X463594Y45547D01*
G01X463498Y45581D01*
G01X463399Y45605D01*
G01X463298Y45619D01*
G37*

%LPC*%
G36*
G01X463324Y45241D02*
G01X463194Y45254D01*
G01X463059Y45242D01*
G01X462939Y45206D01*
G01X462834Y45148D01*
G01X462744Y45066D01*
G01X462670Y44961D01*
G01X462614Y44837D01*
G01X462577Y44694D01*
G01X462559Y44532D01*
G01X462559Y44497D01*
G01X463882Y44497D01*
G01X463851Y44666D01*
G01X463801Y44815D01*
G01X463735Y44945D01*
G01X463651Y45055D01*
G01X463553Y45142D01*
G01X463444Y45204D01*
G01X463324Y45241D01*
G37*

%LPD*%
G36*
G01X469282Y45619D02*
G01X469178Y45624D01*
G01X469053Y45619D01*
G01X468936Y45603D01*
G01X468825Y45577D01*
G01X468721Y45540D01*
G01X468625Y45492D01*
G01X468536Y45434D01*
G01X468453Y45366D01*
G01X468378Y45287D01*
G01X468311Y45197D01*
G01X468254Y45098D01*
G01X468205Y44990D01*
G01X468165Y44873D01*
G01X468134Y44747D01*
G01X468111Y44612D01*
G01X468098Y44467D01*
G01X468094Y44314D01*
G01X468094Y44126D01*
G01X469882Y44126D01*
G01X469873Y44000D01*
G01X469852Y43882D01*
G01X469819Y43773D01*
G01X469776Y43672D01*
G01X469720Y43580D01*
G01X469653Y43496D01*
G01X469577Y43422D01*
G01X469495Y43362D01*
G01X469406Y43315D01*
G01X469310Y43281D01*
G01X469208Y43261D01*
G01X469099Y43255D01*
G01X468985Y43261D01*
G01X468878Y43278D01*
G01X468781Y43309D01*
G01X468693Y43351D01*
G01X468613Y43404D01*
G01X468538Y43465D01*
G01X468468Y43534D01*
G01X468403Y43610D01*
G01X468127Y43397D01*
G01X468197Y43300D01*
G01X468273Y43213D01*
G01X468356Y43136D01*
G01X468446Y43070D01*
G01X468542Y43014D01*
G01X468645Y42968D01*
G01X468754Y42932D01*
G01X468870Y42907D01*
G01X468993Y42891D01*
G01X469122Y42886D01*
G01X469254Y42892D01*
G01X469379Y42908D01*
G01X469498Y42936D01*
G01X469610Y42975D01*
G01X469716Y43024D01*
G01X469816Y43085D01*
G01X469909Y43156D01*
G01X469996Y43239D01*
G01X470075Y43331D01*
G01X470144Y43431D01*
G01X470202Y43537D01*
G01X470250Y43651D01*
G01X470286Y43773D01*
G01X470313Y43902D01*
G01X470329Y44038D01*
G01X470334Y44182D01*
G01X470334Y44265D01*
G01X470330Y44394D01*
G01X470317Y44518D01*
G01X470296Y44637D01*
G01X470267Y44752D01*
G01X470230Y44862D01*
G01X470184Y44966D01*
G01X470131Y45066D01*
G01X470071Y45158D01*
G01X470004Y45242D01*
G01X469931Y45319D01*
G01X469851Y45388D01*
G01X469765Y45449D01*
G01X469673Y45502D01*
G01X469579Y45547D01*
G01X469482Y45581D01*
G01X469383Y45605D01*
G01X469282Y45619D01*
G37*

%LPC*%
G36*
G01X469310Y45241D02*
G01X469178Y45254D01*
G01X469045Y45242D01*
G01X468926Y45206D01*
G01X468821Y45148D01*
G01X468731Y45066D01*
G01X468656Y44961D01*
G01X468601Y44837D01*
G01X468564Y44694D01*
G01X468546Y44532D01*
G01X468546Y44497D01*
G01X469869Y44497D01*
G01X469838Y44666D01*
G01X469788Y44815D01*
G01X469722Y44945D01*
G01X469638Y45055D01*
G01X469540Y45142D01*
G01X469430Y45204D01*
G01X469310Y45241D01*
G37*

%LPD*%
G36*
G01X480969Y46684D02*
G01X480517Y46684D01*
G01X480517Y45287D01*
G01X480446Y45366D01*
G01X480368Y45434D01*
G01X480283Y45492D01*
G01X480192Y45540D01*
G01X480095Y45577D01*
G01X479990Y45603D01*
G01X479880Y45619D01*
G01X479762Y45624D01*
G01X479645Y45619D01*
G01X479535Y45601D01*
G01X479431Y45573D01*
G01X479334Y45533D01*
G01X479243Y45483D01*
G01X479158Y45420D01*
G01X479080Y45346D01*
G01X479008Y45261D01*
G01X478943Y45166D01*
G01X478888Y45063D01*
G01X478841Y44951D01*
G01X478802Y44830D01*
G01X478772Y44702D01*
G01X478751Y44565D01*
G01X478738Y44419D01*
G01X478734Y44265D01*
G01X478734Y44225D01*
G01X478738Y44077D01*
G01X478751Y43937D01*
G01X478773Y43805D01*
G01X478803Y43679D01*
G01X478842Y43561D01*
G01X478890Y43451D01*
G01X478945Y43348D01*
G01X479010Y43252D01*
G01X479083Y43166D01*
G01X479162Y43092D01*
G01X479247Y43029D01*
G01X479337Y42978D01*
G01X479433Y42938D01*
G01X479535Y42909D01*
G01X479643Y42892D01*
G01X479757Y42886D01*
G01X479879Y42892D01*
G01X479993Y42908D01*
G01X480101Y42936D01*
G01X480201Y42975D01*
G01X480294Y43024D01*
G01X480381Y43085D01*
G01X480460Y43156D01*
G01X480532Y43239D01*
G01X480555Y42934D01*
G01X480969Y42934D01*
G01X480969Y46684D01*
G37*

%LPC*%
G36*
G01X479982Y45234D02*
G01X479874Y45241D01*
G01X479767Y45234D01*
G01X479669Y45213D01*
G01X479580Y45178D01*
G01X479499Y45129D01*
G01X479427Y45066D01*
G01X479364Y44989D01*
G01X479309Y44900D01*
G01X479263Y44798D01*
G01X479228Y44686D01*
G01X479203Y44562D01*
G01X479188Y44425D01*
G01X479183Y44278D01*
G01X479188Y44117D01*
G01X479204Y43969D01*
G01X479229Y43836D01*
G01X479264Y43717D01*
G01X479310Y43612D01*
G01X479366Y43521D01*
G01X479465Y43411D01*
G01X479582Y43333D01*
G01X479718Y43286D01*
G01X479872Y43270D01*
G01X479978Y43276D01*
G01X480077Y43296D01*
G01X480168Y43328D01*
G01X480253Y43373D01*
G01X480330Y43431D01*
G01X480399Y43502D01*
G01X480462Y43587D01*
G01X480517Y43684D01*
G01X480517Y44827D01*
G01X480464Y44924D01*
G01X480403Y45008D01*
G01X480335Y45079D01*
G01X480258Y45137D01*
G01X480174Y45182D01*
G01X480082Y45215D01*
G01X479982Y45234D01*
G37*

%LPD*%
G36*
G01X483359Y46684D02*
G01X482907Y46684D01*
G01X482907Y42934D01*
G01X483323Y42934D01*
G01X483344Y43216D01*
G01X483415Y43139D01*
G01X483493Y43072D01*
G01X483577Y43015D01*
G01X483668Y42969D01*
G01X483766Y42932D01*
G01X483870Y42907D01*
G01X483981Y42891D01*
G01X484098Y42886D01*
G01X484210Y42892D01*
G01X484318Y42910D01*
G01X484419Y42939D01*
G01X484515Y42980D01*
G01X484606Y43033D01*
G01X484692Y43098D01*
G01X484772Y43174D01*
G01X484847Y43262D01*
G01X484915Y43360D01*
G01X484974Y43464D01*
G01X485024Y43576D01*
G01X485065Y43695D01*
G01X485096Y43821D01*
G01X485119Y43955D01*
G01X485132Y44095D01*
G01X485137Y44243D01*
G01X485137Y44278D01*
G01X485132Y44426D01*
G01X485119Y44567D01*
G01X485096Y44700D01*
G01X485065Y44826D01*
G01X485024Y44945D01*
G01X484974Y45056D01*
G01X484915Y45160D01*
G01X484847Y45256D01*
G01X484773Y45342D01*
G01X484692Y45417D01*
G01X484607Y45481D01*
G01X484515Y45532D01*
G01X484418Y45573D01*
G01X484316Y45601D01*
G01X484207Y45619D01*
G01X484093Y45624D01*
G01X483944Y45616D01*
G01X483806Y45589D01*
G01X483678Y45545D01*
G01X483561Y45483D01*
G01X483455Y45404D01*
G01X483359Y45307D01*
G01X483359Y46684D01*
G37*

%LPC*%
G36*
G01X484088Y45234D02*
G01X483981Y45241D01*
G01X483848Y45231D01*
G01X483726Y45199D01*
G01X483616Y45147D01*
G01X483518Y45075D01*
G01X483433Y44982D01*
G01X483359Y44867D01*
G01X483359Y43656D01*
G01X483432Y43538D01*
G01X483517Y43441D01*
G01X483615Y43366D01*
G01X483726Y43312D01*
G01X483850Y43280D01*
G01X483986Y43270D01*
G01X484091Y43277D01*
G01X484189Y43298D01*
G01X484278Y43333D01*
G01X484360Y43383D01*
G01X484434Y43446D01*
G01X484499Y43524D01*
G01X484556Y43614D01*
G01X484603Y43715D01*
G01X484639Y43826D01*
G01X484664Y43948D01*
G01X484680Y44081D01*
G01X484685Y44225D01*
G01X484680Y44386D01*
G01X484664Y44533D01*
G01X484639Y44666D01*
G01X484603Y44786D01*
G01X484556Y44892D01*
G01X484499Y44984D01*
G01X484433Y45063D01*
G01X484359Y45127D01*
G01X484277Y45177D01*
G01X484186Y45212D01*
G01X484088Y45234D01*
G37*

%LPD*%
G36*
G01X486739Y45619D02*
G01X486636Y45624D01*
G01X486510Y45619D01*
G01X486392Y45603D01*
G01X486281Y45577D01*
G01X486178Y45540D01*
G01X486081Y45492D01*
G01X485992Y45434D01*
G01X485910Y45366D01*
G01X485835Y45287D01*
G01X485768Y45197D01*
G01X485710Y45098D01*
G01X485661Y44990D01*
G01X485620Y44873D01*
G01X485589Y44747D01*
G01X485566Y44612D01*
G01X485553Y44467D01*
G01X485548Y44314D01*
G01X485548Y44126D01*
G01X487339Y44126D01*
G01X487330Y44000D01*
G01X487309Y43882D01*
G01X487277Y43773D01*
G01X487233Y43672D01*
G01X487178Y43580D01*
G01X487111Y43496D01*
G01X487034Y43422D01*
G01X486952Y43362D01*
G01X486862Y43315D01*
G01X486766Y43281D01*
G01X486664Y43261D01*
G01X486554Y43255D01*
G01X486439Y43261D01*
G01X486334Y43278D01*
G01X486238Y43309D01*
G01X486150Y43351D01*
G01X486069Y43404D01*
G01X485993Y43465D01*
G01X485923Y43534D01*
G01X485858Y43610D01*
G01X485584Y43397D01*
G01X485654Y43300D01*
G01X485729Y43213D01*
G01X485812Y43136D01*
G01X485902Y43070D01*
G01X485998Y43014D01*
G01X486101Y42968D01*
G01X486210Y42932D01*
G01X486327Y42907D01*
G01X486450Y42891D01*
G01X486580Y42886D01*
G01X486711Y42892D01*
G01X486835Y42908D01*
G01X486954Y42936D01*
G01X487066Y42975D01*
G01X487172Y43024D01*
G01X487272Y43085D01*
G01X487366Y43156D01*
G01X487453Y43239D01*
G01X487533Y43331D01*
G01X487601Y43431D01*
G01X487659Y43537D01*
G01X487707Y43651D01*
G01X487744Y43773D01*
G01X487770Y43902D01*
G01X487786Y44038D01*
G01X487791Y44182D01*
G01X487791Y44265D01*
G01X487787Y44394D01*
G01X487774Y44518D01*
G01X487753Y44637D01*
G01X487724Y44752D01*
G01X487686Y44862D01*
G01X487639Y44966D01*
G01X487586Y45066D01*
G01X487526Y45158D01*
G01X487459Y45242D01*
G01X487386Y45319D01*
G01X487306Y45388D01*
G01X487220Y45449D01*
G01X487129Y45502D01*
G01X487035Y45547D01*
G01X486939Y45581D01*
G01X486840Y45605D01*
G01X486739Y45619D01*
G37*

%LPC*%
G36*
G01X486767Y45241D02*
G01X486636Y45254D01*
G01X486501Y45242D01*
G01X486381Y45206D01*
G01X486276Y45148D01*
G01X486186Y45066D01*
G01X486112Y44961D01*
G01X486057Y44837D01*
G01X486020Y44694D01*
G01X486001Y44532D01*
G01X486001Y44497D01*
G01X487324Y44497D01*
G01X487293Y44666D01*
G01X487245Y44815D01*
G01X487179Y44945D01*
G01X487095Y45055D01*
G01X486997Y45142D01*
G01X486888Y45204D01*
G01X486767Y45241D01*
G37*

%LPD*%
G36*
G01X496212Y45618D02*
G01X496074Y45624D01*
G01X495929Y45618D01*
G01X495793Y45598D01*
G01X495667Y45566D01*
G01X495550Y45522D01*
G01X495443Y45464D01*
G01X495345Y45393D01*
G01X495260Y45312D01*
G01X495190Y45225D01*
G01X495136Y45129D01*
G01X495097Y45026D01*
G01X495073Y44916D01*
G01X495066Y44799D01*
G01X495520Y44799D01*
G01X495530Y44888D01*
G01X495560Y44972D01*
G01X495609Y45048D01*
G01X495678Y45119D01*
G01X495762Y45178D01*
G01X495856Y45220D01*
G01X495960Y45245D01*
G01X496074Y45254D01*
G01X496191Y45247D01*
G01X496294Y45227D01*
G01X496384Y45194D01*
G01X496460Y45147D01*
G01X496565Y45023D01*
G01X496600Y44865D01*
G01X496567Y44722D01*
G01X496470Y44619D01*
G01X496393Y44578D01*
G01X496289Y44538D01*
G01X496159Y44500D01*
G01X496003Y44461D01*
G01X495841Y44421D01*
G01X495696Y44378D01*
G01X495567Y44331D01*
G01X495454Y44281D01*
G01X495356Y44225D01*
G01X495271Y44164D01*
G01X495199Y44098D01*
G01X495142Y44027D01*
G01X495097Y43949D01*
G01X495066Y43863D01*
G01X495047Y43769D01*
G01X495040Y43666D01*
G01X495049Y43552D01*
G01X495072Y43446D01*
G01X495112Y43348D01*
G01X495167Y43258D01*
G01X495238Y43175D01*
G01X495325Y43100D01*
G01X495423Y43035D01*
G01X495532Y42981D01*
G01X495650Y42940D01*
G01X495777Y42910D01*
G01X495913Y42892D01*
G01X496059Y42886D01*
G01X496213Y42893D01*
G01X496358Y42914D01*
G01X496494Y42949D01*
G01X496620Y42998D01*
G01X496736Y43059D01*
G01X496838Y43133D01*
G01X496928Y43217D01*
G01X497004Y43313D01*
G01X497064Y43416D01*
G01X497107Y43522D01*
G01X497132Y43632D01*
G01X497141Y43747D01*
G01X496689Y43747D01*
G01X496673Y43640D01*
G01X496638Y43544D01*
G01X496583Y43460D01*
G01X496509Y43387D01*
G01X496417Y43329D01*
G01X496311Y43288D01*
G01X496192Y43263D01*
G01X496059Y43255D01*
G01X495937Y43261D01*
G01X495828Y43280D01*
G01X495731Y43313D01*
G01X495647Y43359D01*
G01X495531Y43480D01*
G01X495493Y43636D01*
G01X495527Y43798D01*
G01X495630Y43920D01*
G01X495713Y43969D01*
G01X495820Y44014D01*
G01X495954Y44057D01*
G01X496112Y44095D01*
G01X496275Y44133D01*
G01X496420Y44175D01*
G01X496547Y44221D01*
G01X496656Y44271D01*
G01X496750Y44324D01*
G01X496831Y44382D01*
G01X496898Y44446D01*
G01X496953Y44514D01*
G01X497026Y44670D01*
G01X497050Y44852D01*
G01X497042Y44957D01*
G01X497019Y45056D01*
G01X496981Y45151D01*
G01X496928Y45239D01*
G01X496859Y45323D01*
G01X496775Y45401D01*
G01X496680Y45469D01*
G01X496576Y45525D01*
G01X496463Y45568D01*
G01X496342Y45599D01*
G01X496212Y45618D01*
G37*

%LPD*%
G36*
G01X498743Y45619D02*
G01X498640Y45624D01*
G01X498514Y45619D01*
G01X498396Y45603D01*
G01X498286Y45577D01*
G01X498182Y45540D01*
G01X498085Y45492D01*
G01X497996Y45434D01*
G01X497914Y45366D01*
G01X497840Y45287D01*
G01X497772Y45197D01*
G01X497714Y45098D01*
G01X497665Y44990D01*
G01X497624Y44873D01*
G01X497593Y44747D01*
G01X497570Y44612D01*
G01X497557Y44467D01*
G01X497552Y44314D01*
G01X497552Y44126D01*
G01X499343Y44126D01*
G01X499334Y44000D01*
G01X499313Y43882D01*
G01X499281Y43773D01*
G01X499237Y43672D01*
G01X499182Y43580D01*
G01X499115Y43496D01*
G01X499038Y43422D01*
G01X498956Y43362D01*
G01X498866Y43315D01*
G01X498770Y43281D01*
G01X498668Y43261D01*
G01X498558Y43255D01*
G01X498444Y43261D01*
G01X498338Y43278D01*
G01X498242Y43309D01*
G01X498154Y43351D01*
G01X498073Y43404D01*
G01X497997Y43465D01*
G01X497927Y43534D01*
G01X497862Y43610D01*
G01X497588Y43397D01*
G01X497658Y43300D01*
G01X497734Y43213D01*
G01X497818Y43136D01*
G01X497907Y43070D01*
G01X498004Y43014D01*
G01X498106Y42968D01*
G01X498216Y42932D01*
G01X498332Y42907D01*
G01X498455Y42891D01*
G01X498584Y42886D01*
G01X498715Y42892D01*
G01X498839Y42908D01*
G01X498958Y42936D01*
G01X499070Y42975D01*
G01X499176Y43024D01*
G01X499276Y43085D01*
G01X499370Y43156D01*
G01X499457Y43239D01*
G01X499537Y43331D01*
G01X499605Y43431D01*
G01X499663Y43537D01*
G01X499711Y43651D01*
G01X499748Y43773D01*
G01X499774Y43902D01*
G01X499790Y44038D01*
G01X499795Y44182D01*
G01X499795Y44265D01*
G01X499791Y44394D01*
G01X499779Y44518D01*
G01X499758Y44637D01*
G01X499729Y44752D01*
G01X499691Y44862D01*
G01X499645Y44966D01*
G01X499592Y45066D01*
G01X499532Y45158D01*
G01X499465Y45242D01*
G01X499391Y45319D01*
G01X499311Y45388D01*
G01X499224Y45449D01*
G01X499133Y45502D01*
G01X499039Y45547D01*
G01X498943Y45581D01*
G01X498844Y45605D01*
G01X498743Y45619D01*
G37*

%LPC*%
G36*
G01X498771Y45241D02*
G01X498640Y45254D01*
G01X498506Y45242D01*
G01X498386Y45206D01*
G01X498281Y45148D01*
G01X498190Y45066D01*
G01X498116Y44961D01*
G01X498061Y44837D01*
G01X498024Y44694D01*
G01X498005Y44532D01*
G01X498005Y44497D01*
G01X499328Y44497D01*
G01X499297Y44666D01*
G01X499249Y44815D01*
G01X499183Y44945D01*
G01X499099Y45055D01*
G01X499001Y45142D01*
G01X498892Y45204D01*
G01X498771Y45241D01*
G37*

%LPD*%
G36*
G01X453674Y45619D02*
G01X453557Y45624D01*
G01X453406Y45616D01*
G01X453266Y45589D01*
G01X453138Y45546D01*
G01X453020Y45484D01*
G01X452914Y45405D01*
G01X452818Y45309D01*
G01X452798Y45576D01*
G01X452384Y45576D01*
G01X452384Y41918D01*
G01X452833Y41918D01*
G01X452833Y43178D01*
G01X452930Y43089D01*
G01X453036Y43016D01*
G01X453153Y42959D01*
G01X453279Y42919D01*
G01X453416Y42894D01*
G01X453562Y42886D01*
G01X453679Y42892D01*
G01X453789Y42910D01*
G01X453893Y42939D01*
G01X453991Y42979D01*
G01X454084Y43031D01*
G01X454170Y43095D01*
G01X454250Y43170D01*
G01X454324Y43257D01*
G01X454391Y43354D01*
G01X454449Y43459D01*
G01X454497Y43571D01*
G01X454538Y43691D01*
G01X454569Y43818D01*
G01X454591Y43953D01*
G01X454604Y44095D01*
G01X454609Y44245D01*
G01X454609Y44278D01*
G01X454604Y44430D01*
G01X454591Y44573D01*
G01X454569Y44708D01*
G01X454538Y44835D01*
G01X454497Y44954D01*
G01X454449Y45065D01*
G01X454391Y45167D01*
G01X454324Y45261D01*
G01X454250Y45346D01*
G01X454169Y45420D01*
G01X454082Y45483D01*
G01X453989Y45533D01*
G01X453890Y45573D01*
G01X453785Y45601D01*
G01X453674Y45619D01*
G37*

%LPC*%
G36*
G01X453550Y45246D02*
G01X453445Y45254D01*
G01X453318Y45244D01*
G01X453201Y45215D01*
G01X453094Y45167D01*
G01X452997Y45099D01*
G01X452910Y45012D01*
G01X452833Y44906D01*
G01X452833Y43610D01*
G01X452909Y43501D01*
G01X452997Y43413D01*
G01X453094Y43343D01*
G01X453203Y43294D01*
G01X453321Y43264D01*
G01X453450Y43255D01*
G01X453555Y43262D01*
G01X453651Y43283D01*
G01X453741Y43320D01*
G01X453823Y43370D01*
G01X453898Y43434D01*
G01X453966Y43514D01*
G01X454025Y43606D01*
G01X454072Y43708D01*
G01X454109Y43821D01*
G01X454135Y43945D01*
G01X454152Y44080D01*
G01X454157Y44225D01*
G01X454151Y44387D01*
G01X454135Y44536D01*
G01X454108Y44671D01*
G01X454071Y44793D01*
G01X454022Y44900D01*
G01X453964Y44994D01*
G01X453895Y45074D01*
G01X453820Y45138D01*
G01X453737Y45188D01*
G01X453648Y45225D01*
G01X453550Y45246D01*
G37*

%LPD*%
G36*
G01X492420Y45619D02*
G01X492305Y45624D01*
G01X492187Y45619D01*
G01X492077Y45603D01*
G01X491973Y45577D01*
G01X491875Y45539D01*
G01X491784Y45491D01*
G01X491699Y45433D01*
G01X491622Y45364D01*
G01X491550Y45284D01*
G01X491528Y45576D01*
G01X491116Y45576D01*
G01X491116Y42998D01*
G01X491121Y42873D01*
G01X491135Y42755D01*
G01X491159Y42644D01*
G01X491192Y42539D01*
G01X491234Y42442D01*
G01X491286Y42351D01*
G01X491348Y42267D01*
G01X491418Y42190D01*
G01X491498Y42121D01*
G01X491584Y42061D01*
G01X491676Y42011D01*
G01X491776Y41969D01*
G01X491881Y41937D01*
G01X491993Y41914D01*
G01X492111Y41900D01*
G01X492236Y41896D01*
G01X492378Y41903D01*
G01X492518Y41926D01*
G01X492657Y41964D01*
G01X492795Y42018D01*
G01X492924Y42084D01*
G01X493036Y42162D01*
G01X493132Y42250D01*
G01X493212Y42350D01*
G01X492978Y42622D01*
G01X492878Y42513D01*
G01X492770Y42423D01*
G01X492655Y42353D01*
G01X492533Y42304D01*
G01X492403Y42274D01*
G01X492267Y42264D01*
G01X492112Y42276D01*
G01X491975Y42310D01*
G01X491855Y42368D01*
G01X491754Y42449D01*
G01X491674Y42551D01*
G01X491617Y42672D01*
G01X491582Y42812D01*
G01X491571Y42970D01*
G01X491571Y43199D01*
G01X491666Y43103D01*
G01X491772Y43025D01*
G01X491890Y42964D01*
G01X492019Y42921D01*
G01X492159Y42895D01*
G01X492310Y42886D01*
G01X492423Y42892D01*
G01X492530Y42910D01*
G01X492632Y42939D01*
G01X492729Y42980D01*
G01X492819Y43032D01*
G01X492905Y43096D01*
G01X492985Y43172D01*
G01X493059Y43260D01*
G01X493126Y43357D01*
G01X493185Y43463D01*
G01X493234Y43578D01*
G01X493275Y43701D01*
G01X493306Y43833D01*
G01X493328Y43972D01*
G01X493342Y44121D01*
G01X493346Y44278D01*
G01X493342Y44429D01*
G01X493328Y44571D01*
G01X493306Y44706D01*
G01X493275Y44832D01*
G01X493235Y44951D01*
G01X493186Y45063D01*
G01X493128Y45166D01*
G01X493062Y45261D01*
G01X492987Y45346D01*
G01X492907Y45420D01*
G01X492821Y45483D01*
G01X492729Y45533D01*
G01X492631Y45573D01*
G01X492528Y45601D01*
G01X492420Y45619D01*
G37*

%LPC*%
G36*
G01X492298Y45234D02*
G01X492193Y45241D01*
G01X492060Y45230D01*
G01X491939Y45199D01*
G01X491829Y45146D01*
G01X491731Y45073D01*
G01X491645Y44978D01*
G01X491571Y44862D01*
G01X491571Y43658D01*
G01X491643Y43540D01*
G01X491729Y43442D01*
G01X491827Y43367D01*
G01X491938Y43313D01*
G01X492062Y43280D01*
G01X492198Y43270D01*
G01X492303Y43277D01*
G01X492400Y43298D01*
G01X492490Y43333D01*
G01X492571Y43383D01*
G01X492644Y43446D01*
G01X492709Y43524D01*
G01X492765Y43615D01*
G01X492810Y43716D01*
G01X492846Y43827D01*
G01X492871Y43949D01*
G01X492887Y44082D01*
G01X492892Y44225D01*
G01X492887Y44386D01*
G01X492871Y44533D01*
G01X492845Y44666D01*
G01X492809Y44786D01*
G01X492763Y44892D01*
G01X492706Y44984D01*
G01X492641Y45063D01*
G01X492567Y45127D01*
G01X492485Y45177D01*
G01X492396Y45212D01*
G01X492298Y45234D01*
G37*

%LPD*%
G36*
G01X476712Y45576D02*
G01X476227Y45576D01*
G01X477291Y42526D01*
G01X477343Y42401D01*
G01X477401Y42289D01*
G01X477465Y42190D01*
G01X477534Y42104D01*
G01X477610Y42032D01*
G01X477691Y41973D01*
G01X477778Y41927D01*
G01X477871Y41894D01*
G01X477969Y41874D01*
G01X478073Y41868D01*
G01X478160Y41875D01*
G01X478327Y41906D01*
G01X478327Y42274D01*
G01X478205Y42264D01*
G01X478097Y42270D01*
G01X478002Y42287D01*
G01X477918Y42315D01*
G01X477847Y42355D01*
G01X477786Y42412D01*
G01X477731Y42487D01*
G01X477681Y42582D01*
G01X477636Y42696D01*
G01X477537Y42965D01*
G01X478480Y45576D01*
G01X477984Y45576D01*
G01X477326Y43595D01*
G01X476712Y45576D01*
G37*

%LPD*%
G36*
G01X420997Y41033D02*
G01X420936Y41037D01*
G01X420874Y41033D01*
G01X420820Y41019D01*
G01X420773Y40995D01*
G01X420735Y40963D01*
G01X420705Y40923D01*
G01X420684Y40879D01*
G01X420671Y40830D01*
G01X420667Y40778D01*
G01X420671Y40725D01*
G01X420684Y40676D01*
G01X420705Y40632D01*
G01X420735Y40593D01*
G01X420773Y40562D01*
G01X420820Y40539D01*
G01X420874Y40526D01*
G01X420936Y40521D01*
G01X420997Y40526D01*
G01X421050Y40539D01*
G01X421096Y40562D01*
G01X421134Y40593D01*
G01X421163Y40632D01*
G01X421184Y40676D01*
G01X421196Y40725D01*
G01X421200Y40778D01*
G01X421196Y40830D01*
G01X421184Y40879D01*
G01X421163Y40923D01*
G01X421134Y40963D01*
G01X421096Y40995D01*
G01X421050Y41019D01*
G01X420997Y41033D01*
G37*

%LPD*%
G36*
G01X439327Y41033D02*
G01X439265Y41037D01*
G01X439203Y41033D01*
G01X439148Y41019D01*
G01X439102Y40995D01*
G01X439064Y40963D01*
G01X439034Y40923D01*
G01X439013Y40879D01*
G01X438999Y40830D01*
G01X438995Y40778D01*
G01X438999Y40725D01*
G01X439013Y40676D01*
G01X439034Y40632D01*
G01X439064Y40593D01*
G01X439102Y40562D01*
G01X439148Y40539D01*
G01X439203Y40526D01*
G01X439265Y40521D01*
G01X439327Y40526D01*
G01X439380Y40539D01*
G01X439426Y40562D01*
G01X439463Y40593D01*
G01X439493Y40632D01*
G01X439514Y40676D01*
G01X439527Y40725D01*
G01X439531Y40778D01*
G01X439527Y40830D01*
G01X439514Y40879D01*
G01X439493Y40923D01*
G01X439463Y40963D01*
G01X439426Y40995D01*
G01X439380Y41019D01*
G01X439327Y41033D01*
G37*

%LPD*%
G36*
G01X498994Y41033D02*
G01X498932Y41037D01*
G01X498871Y41033D01*
G01X498817Y41019D01*
G01X498772Y40995D01*
G01X498734Y40963D01*
G01X498704Y40923D01*
G01X498682Y40879D01*
G01X498669Y40830D01*
G01X498665Y40778D01*
G01X498669Y40725D01*
G01X498682Y40676D01*
G01X498704Y40632D01*
G01X498734Y40593D01*
G01X498772Y40562D01*
G01X498817Y40539D01*
G01X498871Y40526D01*
G01X498932Y40521D01*
G01X498994Y40526D01*
G01X499048Y40539D01*
G01X499094Y40562D01*
G01X499132Y40593D01*
G01X499161Y40632D01*
G01X499182Y40676D01*
G01X499194Y40725D01*
G01X499198Y40778D01*
G01X499194Y40830D01*
G01X499182Y40879D01*
G01X499161Y40923D01*
G01X499132Y40963D01*
G01X499094Y40995D01*
G01X499048Y41019D01*
G01X498994Y41033D01*
G37*

%LPD*%
G36*
G01X421165Y40077D02*
G01X420712Y40077D01*
G01X420712Y37435D01*
G01X421165Y37435D01*
G01X421165Y40077D01*
G37*

%LPD*%
G36*
G01X421948Y40116D02*
G01X421817Y40125D01*
G01X421756Y40123D01*
G01X421703Y40116D01*
G01X421657Y40105D01*
G01X421619Y40090D01*
G01X421619Y39671D01*
G01X421671Y39678D01*
G01X421725Y39684D01*
G01X421782Y39687D01*
G01X421840Y39688D01*
G01X421980Y39678D01*
G01X422105Y39646D01*
G01X422214Y39594D01*
G01X422307Y39520D01*
G01X422383Y39426D01*
G01X422445Y39310D01*
G01X422445Y37435D01*
G01X422894Y37435D01*
G01X422894Y40077D01*
G01X422455Y40077D01*
G01X422447Y39770D01*
G01X422368Y39878D01*
G01X422279Y39967D01*
G01X422180Y40036D01*
G01X422069Y40086D01*
G01X421948Y40116D01*
G37*

%LPD*%
G36*
G01X428500Y41184D02*
G01X428048Y41184D01*
G01X428048Y39757D01*
G01X427970Y39843D01*
G01X427887Y39918D01*
G01X427798Y39981D01*
G01X427703Y40033D01*
G01X427603Y40073D01*
G01X427497Y40102D01*
G01X427385Y40120D01*
G01X427268Y40125D01*
G01X427153Y40121D01*
G01X427046Y40106D01*
G01X426947Y40082D01*
G01X426857Y40048D01*
G01X426775Y40005D01*
G01X426702Y39952D01*
G01X426638Y39889D01*
G01X426581Y39817D01*
G01X426534Y39735D01*
G01X426494Y39643D01*
G01X426464Y39542D01*
G01X426442Y39431D01*
G01X426427Y39310D01*
G01X426422Y39180D01*
G01X426422Y37435D01*
G01X426874Y37435D01*
G01X426874Y39183D01*
G01X426884Y39316D01*
G01X426909Y39430D01*
G01X426950Y39527D01*
G01X427007Y39605D01*
G01X427079Y39664D01*
G01X427170Y39707D01*
G01X427278Y39733D01*
G01X427405Y39742D01*
G01X427511Y39735D01*
G01X427611Y39712D01*
G01X427705Y39676D01*
G01X427791Y39625D01*
G01X427869Y39562D01*
G01X427938Y39490D01*
G01X427998Y39408D01*
G01X428048Y39318D01*
G01X428048Y37435D01*
G01X428500Y37435D01*
G01X428500Y41184D01*
G37*

%LPD*%
G36*
G01X439493Y40077D02*
G01X439044Y40077D01*
G01X439044Y37435D01*
G01X439493Y37435D01*
G01X439493Y40077D01*
G37*

%LPD*%
G36*
G01X440280Y40116D02*
G01X440148Y40125D01*
G01X440087Y40123D01*
G01X440032Y40116D01*
G01X439986Y40105D01*
G01X439948Y40090D01*
G01X439948Y39671D01*
G01X440001Y39678D01*
G01X440056Y39684D01*
G01X440112Y39687D01*
G01X440171Y39688D01*
G01X440312Y39678D01*
G01X440436Y39646D01*
G01X440544Y39594D01*
G01X440637Y39520D01*
G01X440713Y39426D01*
G01X440773Y39310D01*
G01X440773Y37435D01*
G01X441225Y37435D01*
G01X441225Y40077D01*
G01X440786Y40077D01*
G01X440778Y39770D01*
G01X440700Y39878D01*
G01X440610Y39967D01*
G01X440510Y40036D01*
G01X440400Y40086D01*
G01X440280Y40116D01*
G37*

%LPD*%
G36*
G01X443979Y41184D02*
G01X443527Y41184D01*
G01X443527Y39757D01*
G01X443449Y39843D01*
G01X443366Y39918D01*
G01X443277Y39981D01*
G01X443182Y40033D01*
G01X443082Y40073D01*
G01X442976Y40102D01*
G01X442864Y40120D01*
G01X442747Y40125D01*
G01X442632Y40121D01*
G01X442524Y40106D01*
G01X442426Y40082D01*
G01X442336Y40048D01*
G01X442254Y40005D01*
G01X442181Y39952D01*
G01X442116Y39889D01*
G01X442060Y39817D01*
G01X442012Y39735D01*
G01X441973Y39643D01*
G01X441943Y39542D01*
G01X441920Y39431D01*
G01X441906Y39310D01*
G01X441901Y39180D01*
G01X441901Y37435D01*
G01X442353Y37435D01*
G01X442353Y39183D01*
G01X442362Y39316D01*
G01X442387Y39430D01*
G01X442427Y39527D01*
G01X442483Y39605D01*
G01X442556Y39664D01*
G01X442648Y39707D01*
G01X442757Y39733D01*
G01X442884Y39742D01*
G01X442990Y39735D01*
G01X443089Y39712D01*
G01X443182Y39676D01*
G01X443268Y39625D01*
G01X443347Y39562D01*
G01X443416Y39490D01*
G01X443476Y39408D01*
G01X443527Y39318D01*
G01X443527Y37435D01*
G01X443979Y37435D01*
G01X443979Y41184D01*
G37*

%LPD*%
G36*
G01X452452Y40989D02*
G01X451449Y40989D01*
G01X451298Y40983D01*
G01X451152Y40966D01*
G01X451013Y40938D01*
G01X450879Y40897D01*
G01X450751Y40846D01*
G01X450629Y40783D01*
G01X450515Y40710D01*
G01X450410Y40628D01*
G01X450314Y40536D01*
G01X450227Y40434D01*
G01X450149Y40323D01*
G01X450080Y40201D01*
G01X450034Y40105D01*
G01X449994Y40005D01*
G01X449961Y39902D01*
G01X449933Y39795D01*
G01X449911Y39684D01*
G01X449895Y39569D01*
G01X449885Y39452D01*
G01X449882Y39330D01*
G01X449882Y39104D01*
G01X449885Y38980D01*
G01X449894Y38860D01*
G01X449909Y38745D01*
G01X449931Y38632D01*
G01X449958Y38524D01*
G01X449992Y38420D01*
G01X450032Y38319D01*
G01X450077Y38223D01*
G01X450146Y38101D01*
G01X450225Y37990D01*
G01X450313Y37888D01*
G01X450409Y37796D01*
G01X450516Y37714D01*
G01X450631Y37641D01*
G01X450723Y37594D01*
G01X450819Y37553D01*
G01X450918Y37518D01*
G01X451021Y37489D01*
G01X451127Y37467D01*
G01X451238Y37450D01*
G01X451352Y37440D01*
G01X451469Y37435D01*
G01X452452Y37435D01*
G01X452452Y40989D01*
G37*

%LPC*%
G36*
G01X451985Y40603D02*
G01X451439Y40603D01*
G01X451312Y40596D01*
G01X451192Y40579D01*
G01X451080Y40552D01*
G01X450975Y40515D01*
G01X450878Y40468D01*
G01X450788Y40409D01*
G01X450706Y40341D01*
G01X450631Y40262D01*
G01X450565Y40175D01*
G01X450507Y40078D01*
G01X450458Y39973D01*
G01X450418Y39860D01*
G01X450387Y39738D01*
G01X450364Y39608D01*
G01X450351Y39469D01*
G01X450347Y39323D01*
G01X450347Y39114D01*
G01X450351Y38963D01*
G01X450365Y38821D01*
G01X450389Y38688D01*
G01X450422Y38563D01*
G01X450464Y38447D01*
G01X450517Y38341D01*
G01X450578Y38243D01*
G01X450649Y38154D01*
G01X450728Y38075D01*
G01X450814Y38007D01*
G01X450908Y37950D01*
G01X451010Y37903D01*
G01X451119Y37866D01*
G01X451236Y37840D01*
G01X451360Y37824D01*
G01X451492Y37819D01*
G01X451985Y37819D01*
G01X451985Y40603D01*
G37*

%LPD*%
G36*
G01X455406Y40119D02*
G01X455287Y40125D01*
G01X455172Y40121D01*
G01X455065Y40106D01*
G01X454967Y40082D01*
G01X454877Y40048D01*
G01X454796Y40005D01*
G01X454722Y39952D01*
G01X454658Y39889D01*
G01X454602Y39817D01*
G01X454555Y39735D01*
G01X454516Y39643D01*
G01X454485Y39542D01*
G01X454463Y39431D01*
G01X454449Y39310D01*
G01X454444Y39180D01*
G01X454444Y37435D01*
G01X454896Y37435D01*
G01X454896Y39183D01*
G01X454905Y39316D01*
G01X454929Y39430D01*
G01X454969Y39527D01*
G01X455025Y39605D01*
G01X455098Y39664D01*
G01X455188Y39707D01*
G01X455297Y39733D01*
G01X455424Y39742D01*
G01X455531Y39735D01*
G01X455631Y39712D01*
G01X455724Y39676D01*
G01X455810Y39625D01*
G01X455888Y39562D01*
G01X455957Y39490D01*
G01X456018Y39408D01*
G01X456069Y39318D01*
G01X456069Y37435D01*
G01X456521Y37435D01*
G01X456521Y40077D01*
G01X456095Y40077D01*
G01X456079Y39744D01*
G01X456001Y39834D01*
G01X455916Y39911D01*
G01X455826Y39976D01*
G01X455730Y40030D01*
G01X455628Y40072D01*
G01X455520Y40101D01*
G01X455406Y40119D01*
G37*

%LPD*%
G36*
G01X461995Y41184D02*
G01X461543Y41184D01*
G01X461543Y39757D01*
G01X461465Y39843D01*
G01X461382Y39918D01*
G01X461292Y39981D01*
G01X461197Y40033D01*
G01X461097Y40073D01*
G01X460991Y40102D01*
G01X460878Y40120D01*
G01X460761Y40125D01*
G01X460645Y40121D01*
G01X460539Y40106D01*
G01X460441Y40082D01*
G01X460351Y40048D01*
G01X460269Y40005D01*
G01X460196Y39952D01*
G01X460132Y39889D01*
G01X460076Y39817D01*
G01X460029Y39735D01*
G01X459989Y39643D01*
G01X459958Y39542D01*
G01X459937Y39431D01*
G01X459922Y39310D01*
G01X459917Y39180D01*
G01X459917Y37435D01*
G01X460369Y37435D01*
G01X460369Y39183D01*
G01X460379Y39316D01*
G01X460403Y39430D01*
G01X460443Y39527D01*
G01X460499Y39605D01*
G01X460572Y39664D01*
G01X460662Y39707D01*
G01X460771Y39733D01*
G01X460898Y39742D01*
G01X461005Y39735D01*
G01X461105Y39712D01*
G01X461198Y39676D01*
G01X461284Y39625D01*
G01X461362Y39562D01*
G01X461431Y39490D01*
G01X461492Y39408D01*
G01X461543Y39318D01*
G01X461543Y37435D01*
G01X461995Y37435D01*
G01X461995Y41184D01*
G37*

%LPD*%
G36*
G01X469621Y41229D02*
G01X469488Y41235D01*
G01X469332Y41225D01*
G01X469178Y41195D01*
G01X469201Y40829D01*
G01X469259Y40837D01*
G01X469319Y40844D01*
G01X469381Y40848D01*
G01X469445Y40849D01*
G01X469549Y40841D01*
G01X469640Y40817D01*
G01X469719Y40778D01*
G01X469785Y40722D01*
G01X469838Y40651D01*
G01X469875Y40565D01*
G01X469897Y40467D01*
G01X469905Y40354D01*
G01X469905Y40077D01*
G01X469341Y40077D01*
G01X469341Y39726D01*
G01X469905Y39726D01*
G01X469905Y37435D01*
G01X470357Y37435D01*
G01X470357Y39726D01*
G01X470773Y39726D01*
G01X470773Y40077D01*
G01X470357Y40077D01*
G01X470357Y40346D01*
G01X470351Y40483D01*
G01X470331Y40609D01*
G01X470300Y40724D01*
G01X470255Y40828D01*
G01X470198Y40922D01*
G01X470128Y41004D01*
G01X470047Y41075D01*
G01X469956Y41133D01*
G01X469855Y41177D01*
G01X469743Y41209D01*
G01X469621Y41229D01*
G37*

%LPD*%
G36*
G01X478647Y41184D02*
G01X478195Y41184D01*
G01X478195Y37435D01*
G01X478647Y37435D01*
G01X478647Y41184D01*
G37*

%LPD*%
G36*
G01X484088Y41184D02*
G01X483638Y41184D01*
G01X483638Y39757D01*
G01X483560Y39843D01*
G01X483476Y39918D01*
G01X483387Y39981D01*
G01X483292Y40033D01*
G01X483191Y40073D01*
G01X483085Y40102D01*
G01X482973Y40120D01*
G01X482856Y40125D01*
G01X482741Y40121D01*
G01X482634Y40106D01*
G01X482535Y40082D01*
G01X482445Y40048D01*
G01X482363Y40005D01*
G01X482290Y39952D01*
G01X482226Y39889D01*
G01X482169Y39817D01*
G01X482121Y39735D01*
G01X482082Y39643D01*
G01X482052Y39542D01*
G01X482030Y39431D01*
G01X482015Y39310D01*
G01X482010Y39180D01*
G01X482010Y37435D01*
G01X482462Y37435D01*
G01X482462Y39183D01*
G01X482471Y39316D01*
G01X482497Y39430D01*
G01X482538Y39527D01*
G01X482594Y39605D01*
G01X482667Y39664D01*
G01X482757Y39707D01*
G01X482866Y39733D01*
G01X482993Y39742D01*
G01X483099Y39735D01*
G01X483199Y39712D01*
G01X483292Y39676D01*
G01X483379Y39625D01*
G01X483458Y39562D01*
G01X483527Y39490D01*
G01X483587Y39408D01*
G01X483638Y39318D01*
G01X483638Y37435D01*
G01X484088Y37435D01*
G01X484088Y41184D01*
G37*

%LPD*%
G36*
G01X490730Y41184D02*
G01X490278Y41184D01*
G01X490278Y39757D01*
G01X490200Y39843D01*
G01X490116Y39918D01*
G01X490027Y39981D01*
G01X489932Y40033D01*
G01X489832Y40073D01*
G01X489726Y40102D01*
G01X489613Y40120D01*
G01X489496Y40125D01*
G01X489380Y40121D01*
G01X489274Y40106D01*
G01X489176Y40082D01*
G01X489086Y40048D01*
G01X489004Y40005D01*
G01X488931Y39952D01*
G01X488867Y39889D01*
G01X488811Y39817D01*
G01X488764Y39735D01*
G01X488724Y39643D01*
G01X488693Y39542D01*
G01X488672Y39431D01*
G01X488657Y39310D01*
G01X488652Y39180D01*
G01X488652Y37435D01*
G01X489104Y37435D01*
G01X489104Y39183D01*
G01X489114Y39316D01*
G01X489138Y39430D01*
G01X489178Y39527D01*
G01X489234Y39605D01*
G01X489308Y39664D01*
G01X489399Y39707D01*
G01X489507Y39733D01*
G01X489633Y39742D01*
G01X489740Y39735D01*
G01X489840Y39712D01*
G01X489933Y39676D01*
G01X490019Y39625D01*
G01X490098Y39562D01*
G01X490168Y39490D01*
G01X490228Y39408D01*
G01X490278Y39318D01*
G01X490278Y37435D01*
G01X490730Y37435D01*
G01X490730Y41184D01*
G37*

%LPD*%
G36*
G01X496354Y41184D02*
G01X495904Y41184D01*
G01X495904Y39757D01*
G01X495826Y39843D01*
G01X495742Y39918D01*
G01X495653Y39981D01*
G01X495557Y40033D01*
G01X495457Y40073D01*
G01X495351Y40102D01*
G01X495239Y40120D01*
G01X495122Y40125D01*
G01X495006Y40121D01*
G01X494899Y40106D01*
G01X494801Y40082D01*
G01X494711Y40048D01*
G01X494629Y40005D01*
G01X494556Y39952D01*
G01X494491Y39889D01*
G01X494435Y39817D01*
G01X494387Y39735D01*
G01X494348Y39643D01*
G01X494318Y39542D01*
G01X494295Y39431D01*
G01X494281Y39310D01*
G01X494276Y39180D01*
G01X494276Y37435D01*
G01X494728Y37435D01*
G01X494728Y39183D01*
G01X494737Y39316D01*
G01X494763Y39430D01*
G01X494803Y39527D01*
G01X494860Y39605D01*
G01X494933Y39664D01*
G01X495023Y39707D01*
G01X495132Y39733D01*
G01X495259Y39742D01*
G01X495365Y39735D01*
G01X495465Y39712D01*
G01X495558Y39676D01*
G01X495645Y39625D01*
G01X495723Y39562D01*
G01X495792Y39490D01*
G01X495853Y39408D01*
G01X495904Y39318D01*
G01X495904Y37435D01*
G01X496354Y37435D01*
G01X496354Y41184D01*
G37*

%LPD*%
G36*
G01X499163Y40077D02*
G01X498711Y40077D01*
G01X498711Y37435D01*
G01X499163Y37435D01*
G01X499163Y40077D01*
G37*

%LPD*%
G36*
G01X500113Y40077D02*
G01X499661Y40077D01*
G01X500430Y37435D01*
G01X500796Y37435D01*
G01X501439Y39437D01*
G01X502064Y37435D01*
G01X502429Y37435D01*
G01X503196Y40077D01*
G01X502747Y40077D01*
G01X502226Y38098D01*
G01X501611Y40077D01*
G01X501248Y40077D01*
G01X500621Y38058D01*
G01X500113Y40077D01*
G37*

%LPD*%
G36*
G01X419172Y40119D02*
G01X419033Y40125D01*
G01X418888Y40119D01*
G01X418753Y40099D01*
G01X418627Y40067D01*
G01X418510Y40023D01*
G01X418403Y39965D01*
G01X418304Y39894D01*
G01X418219Y39813D01*
G01X418149Y39724D01*
G01X418095Y39628D01*
G01X418056Y39526D01*
G01X418033Y39417D01*
G01X418025Y39300D01*
G01X418480Y39300D01*
G01X418489Y39389D01*
G01X418519Y39472D01*
G01X418568Y39549D01*
G01X418637Y39620D01*
G01X418721Y39679D01*
G01X418815Y39721D01*
G01X418919Y39746D01*
G01X419033Y39754D01*
G01X419150Y39748D01*
G01X419253Y39727D01*
G01X419343Y39693D01*
G01X419420Y39645D01*
G01X419523Y39522D01*
G01X419557Y39366D01*
G01X419524Y39223D01*
G01X419427Y39119D01*
G01X419350Y39078D01*
G01X419247Y39038D01*
G01X419117Y38998D01*
G01X418960Y38959D01*
G01X418799Y38920D01*
G01X418654Y38878D01*
G01X418526Y38830D01*
G01X418414Y38779D01*
G01X418315Y38724D01*
G01X418230Y38664D01*
G01X418159Y38599D01*
G01X418101Y38528D01*
G01X418057Y38450D01*
G01X418025Y38364D01*
G01X418006Y38270D01*
G01X418000Y38167D01*
G01X418008Y38053D01*
G01X418031Y37947D01*
G01X418071Y37849D01*
G01X418126Y37758D01*
G01X418197Y37676D01*
G01X418284Y37600D01*
G01X418383Y37534D01*
G01X418491Y37481D01*
G01X418609Y37438D01*
G01X418736Y37408D01*
G01X418872Y37391D01*
G01X419018Y37385D01*
G01X419172Y37392D01*
G01X419317Y37413D01*
G01X419453Y37449D01*
G01X419580Y37499D01*
G01X419695Y37560D01*
G01X419797Y37633D01*
G01X419887Y37716D01*
G01X419963Y37811D01*
G01X420023Y37914D01*
G01X420066Y38021D01*
G01X420092Y38132D01*
G01X420100Y38248D01*
G01X419648Y38248D01*
G01X419632Y38140D01*
G01X419596Y38043D01*
G01X419540Y37960D01*
G01X419465Y37888D01*
G01X419374Y37830D01*
G01X419270Y37788D01*
G01X419151Y37764D01*
G01X419018Y37755D01*
G01X418896Y37762D01*
G01X418787Y37781D01*
G01X418691Y37812D01*
G01X418607Y37857D01*
G01X418490Y37979D01*
G01X418452Y38136D01*
G01X418486Y38298D01*
G01X418589Y38418D01*
G01X418672Y38468D01*
G01X418779Y38513D01*
G01X418913Y38555D01*
G01X419072Y38594D01*
G01X419234Y38632D01*
G01X419379Y38674D01*
G01X419506Y38720D01*
G01X419615Y38769D01*
G01X419709Y38823D01*
G01X419790Y38883D01*
G01X419857Y38947D01*
G01X419912Y39015D01*
G01X419985Y39169D01*
G01X420009Y39351D01*
G01X420001Y39456D01*
G01X419978Y39556D01*
G01X419940Y39650D01*
G01X419887Y39739D01*
G01X419818Y39822D01*
G01X419735Y39899D01*
G01X419639Y39968D01*
G01X419535Y40025D01*
G01X419422Y40069D01*
G01X419301Y40100D01*
G01X419172Y40119D01*
G37*

%LPD*%
G36*
G01X424782Y40121D02*
G01X424667Y40125D01*
G01X424536Y40120D01*
G01X424411Y40102D01*
G01X424292Y40073D01*
G01X424180Y40032D01*
G01X424074Y39979D01*
G01X423975Y39915D01*
G01X423882Y39839D01*
G01X423796Y39752D01*
G01X423717Y39655D01*
G01X423649Y39550D01*
G01X423592Y39437D01*
G01X423545Y39317D01*
G01X423508Y39189D01*
G01X423482Y39053D01*
G01X423466Y38910D01*
G01X423461Y38759D01*
G01X423461Y38726D01*
G01X423465Y38599D01*
G01X423477Y38477D01*
G01X423498Y38360D01*
G01X423527Y38247D01*
G01X423565Y38138D01*
G01X423611Y38035D01*
G01X423663Y37936D01*
G01X423723Y37845D01*
G01X423790Y37762D01*
G01X423864Y37686D01*
G01X423944Y37618D01*
G01X424032Y37557D01*
G01X424126Y37504D01*
G01X424224Y37461D01*
G01X424327Y37428D01*
G01X424434Y37404D01*
G01X424546Y37389D01*
G01X424662Y37385D01*
G01X424794Y37390D01*
G01X424919Y37408D01*
G01X425037Y37437D01*
G01X425149Y37478D01*
G01X425255Y37530D01*
G01X425354Y37594D01*
G01X425447Y37671D01*
G01X425533Y37758D01*
G01X425612Y37856D01*
G01X425679Y37961D01*
G01X425736Y38073D01*
G01X425783Y38193D01*
G01X425819Y38321D01*
G01X425845Y38456D01*
G01X425861Y38599D01*
G01X425866Y38749D01*
G01X425866Y38779D01*
G01X425862Y38907D01*
G01X425849Y39029D01*
G01X425828Y39148D01*
G01X425798Y39262D01*
G01X425760Y39372D01*
G01X425714Y39478D01*
G01X425659Y39577D01*
G01X425599Y39669D01*
G01X425531Y39752D01*
G01X425458Y39829D01*
G01X425377Y39897D01*
G01X425289Y39958D01*
G01X425197Y40009D01*
G01X425099Y40051D01*
G01X424998Y40083D01*
G01X424892Y40106D01*
G01X424782Y40121D01*
G37*

%LPC*%
G36*
G01X424775Y39747D02*
G01X424667Y39754D01*
G01X424557Y39747D01*
G01X424455Y39724D01*
G01X424360Y39687D01*
G01X424272Y39635D01*
G01X424192Y39567D01*
G01X424119Y39485D01*
G01X424056Y39390D01*
G01X424004Y39286D01*
G01X423964Y39173D01*
G01X423936Y39050D01*
G01X423918Y38919D01*
G01X423913Y38779D01*
G01X423918Y38623D01*
G01X423935Y38480D01*
G01X423964Y38348D01*
G01X424003Y38228D01*
G01X424054Y38120D01*
G01X424116Y38025D01*
G01X424188Y37942D01*
G01X424267Y37875D01*
G01X424354Y37822D01*
G01X424449Y37785D01*
G01X424552Y37763D01*
G01X424662Y37755D01*
G01X424772Y37763D01*
G01X424875Y37785D01*
G01X424970Y37821D01*
G01X425057Y37873D01*
G01X425137Y37939D01*
G01X425208Y38020D01*
G01X425270Y38113D01*
G01X425321Y38217D01*
G01X425361Y38329D01*
G01X425389Y38452D01*
G01X425406Y38584D01*
G01X425411Y38726D01*
G01X425406Y38884D01*
G01X425389Y39031D01*
G01X425361Y39164D01*
G01X425321Y39285D01*
G01X425270Y39392D01*
G01X425208Y39488D01*
G01X425136Y39569D01*
G01X425057Y39636D01*
G01X424970Y39688D01*
G01X424876Y39725D01*
G01X424775Y39747D01*
G37*

%LPD*%
G36*
G01X433192Y40121D02*
G01X433077Y40125D01*
G01X432946Y40120D01*
G01X432821Y40102D01*
G01X432702Y40073D01*
G01X432590Y40032D01*
G01X432484Y39979D01*
G01X432385Y39915D01*
G01X432292Y39839D01*
G01X432206Y39752D01*
G01X432128Y39655D01*
G01X432060Y39550D01*
G01X432003Y39437D01*
G01X431956Y39317D01*
G01X431920Y39189D01*
G01X431894Y39053D01*
G01X431878Y38910D01*
G01X431873Y38759D01*
G01X431873Y38726D01*
G01X431877Y38599D01*
G01X431889Y38477D01*
G01X431910Y38360D01*
G01X431939Y38247D01*
G01X431975Y38138D01*
G01X432020Y38035D01*
G01X432073Y37936D01*
G01X432133Y37845D01*
G01X432200Y37762D01*
G01X432273Y37686D01*
G01X432354Y37618D01*
G01X432442Y37557D01*
G01X432536Y37504D01*
G01X432634Y37461D01*
G01X432737Y37428D01*
G01X432845Y37404D01*
G01X432958Y37389D01*
G01X433075Y37385D01*
G01X433206Y37390D01*
G01X433330Y37408D01*
G01X433448Y37437D01*
G01X433560Y37478D01*
G01X433665Y37530D01*
G01X433764Y37594D01*
G01X433857Y37671D01*
G01X433943Y37758D01*
G01X434021Y37856D01*
G01X434089Y37961D01*
G01X434146Y38073D01*
G01X434193Y38193D01*
G01X434229Y38321D01*
G01X434255Y38456D01*
G01X434271Y38599D01*
G01X434276Y38749D01*
G01X434276Y38779D01*
G01X434272Y38907D01*
G01X434259Y39029D01*
G01X434238Y39148D01*
G01X434208Y39262D01*
G01X434170Y39372D01*
G01X434124Y39478D01*
G01X434069Y39577D01*
G01X434009Y39669D01*
G01X433941Y39752D01*
G01X433868Y39829D01*
G01X433787Y39897D01*
G01X433699Y39958D01*
G01X433606Y40009D01*
G01X433509Y40051D01*
G01X433408Y40083D01*
G01X433302Y40106D01*
G01X433192Y40121D01*
G37*

%LPC*%
G36*
G01X433185Y39747D02*
G01X433077Y39754D01*
G01X432967Y39747D01*
G01X432865Y39724D01*
G01X432770Y39687D01*
G01X432683Y39635D01*
G01X432603Y39567D01*
G01X432531Y39485D01*
G01X432468Y39390D01*
G01X432415Y39286D01*
G01X432375Y39173D01*
G01X432346Y39050D01*
G01X432328Y38919D01*
G01X432323Y38779D01*
G01X432328Y38623D01*
G01X432345Y38480D01*
G01X432374Y38348D01*
G01X432413Y38228D01*
G01X432464Y38120D01*
G01X432526Y38025D01*
G01X432598Y37942D01*
G01X432677Y37875D01*
G01X432765Y37822D01*
G01X432860Y37785D01*
G01X432963Y37763D01*
G01X433075Y37755D01*
G01X433184Y37763D01*
G01X433286Y37785D01*
G01X433380Y37821D01*
G01X433467Y37873D01*
G01X433547Y37939D01*
G01X433618Y38020D01*
G01X433681Y38113D01*
G01X433732Y38217D01*
G01X433773Y38329D01*
G01X433801Y38452D01*
G01X433818Y38584D01*
G01X433824Y38726D01*
G01X433818Y38884D01*
G01X433801Y39031D01*
G01X433773Y39164D01*
G01X433732Y39285D01*
G01X433681Y39392D01*
G01X433618Y39488D01*
G01X433546Y39569D01*
G01X433467Y39636D01*
G01X433380Y39688D01*
G01X433286Y39725D01*
G01X433185Y39747D01*
G37*

%LPD*%
G36*
G01X435582Y40715D02*
G01X435129Y40715D01*
G01X435129Y40077D01*
G01X434637Y40077D01*
G01X434637Y39726D01*
G01X435129Y39726D01*
G01X435129Y38088D01*
G01X435113Y37951D01*
G01X435063Y37852D01*
G01X434974Y37791D01*
G01X434837Y37771D01*
G01X434796Y37773D01*
G01X434746Y37778D01*
G01X434689Y37788D01*
G01X434624Y37801D01*
G01X434624Y37435D01*
G01X434799Y37397D01*
G01X434969Y37385D01*
G01X435112Y37396D01*
G01X435236Y37431D01*
G01X435341Y37489D01*
G01X435427Y37570D01*
G01X435494Y37671D01*
G01X435543Y37791D01*
G01X435572Y37930D01*
G01X435582Y38088D01*
G01X435582Y39726D01*
G01X436062Y39726D01*
G01X436062Y40077D01*
G01X435582Y40077D01*
G01X435582Y40715D01*
G37*

%LPD*%
G36*
G01X437501Y40119D02*
G01X437362Y40125D01*
G01X437217Y40119D01*
G01X437081Y40099D01*
G01X436955Y40067D01*
G01X436838Y40023D01*
G01X436731Y39965D01*
G01X436633Y39894D01*
G01X436548Y39813D01*
G01X436478Y39724D01*
G01X436424Y39628D01*
G01X436385Y39526D01*
G01X436361Y39417D01*
G01X436354Y39300D01*
G01X436808Y39300D01*
G01X436818Y39389D01*
G01X436848Y39472D01*
G01X436897Y39549D01*
G01X436966Y39620D01*
G01X437050Y39679D01*
G01X437144Y39721D01*
G01X437248Y39746D01*
G01X437362Y39754D01*
G01X437478Y39748D01*
G01X437582Y39727D01*
G01X437671Y39693D01*
G01X437748Y39645D01*
G01X437853Y39522D01*
G01X437888Y39366D01*
G01X437855Y39223D01*
G01X437758Y39119D01*
G01X437681Y39078D01*
G01X437577Y39038D01*
G01X437447Y38998D01*
G01X437291Y38959D01*
G01X437130Y38920D01*
G01X436985Y38878D01*
G01X436856Y38830D01*
G01X436742Y38779D01*
G01X436645Y38724D01*
G01X436561Y38664D01*
G01X436490Y38599D01*
G01X436432Y38528D01*
G01X436388Y38450D01*
G01X436356Y38364D01*
G01X436337Y38270D01*
G01X436331Y38167D01*
G01X436338Y38053D01*
G01X436362Y37947D01*
G01X436401Y37849D01*
G01X436456Y37758D01*
G01X436526Y37676D01*
G01X436613Y37600D01*
G01X436712Y37534D01*
G01X436821Y37481D01*
G01X436939Y37438D01*
G01X437066Y37408D01*
G01X437204Y37391D01*
G01X437349Y37385D01*
G01X437503Y37392D01*
G01X437649Y37413D01*
G01X437784Y37449D01*
G01X437911Y37499D01*
G01X438026Y37560D01*
G01X438128Y37633D01*
G01X438217Y37716D01*
G01X438292Y37811D01*
G01X438352Y37914D01*
G01X438395Y38021D01*
G01X438420Y38132D01*
G01X438429Y38248D01*
G01X437979Y38248D01*
G01X437963Y38140D01*
G01X437928Y38043D01*
G01X437872Y37960D01*
G01X437796Y37888D01*
G01X437704Y37830D01*
G01X437599Y37788D01*
G01X437481Y37764D01*
G01X437349Y37755D01*
G01X437227Y37762D01*
G01X437118Y37781D01*
G01X437022Y37812D01*
G01X436938Y37857D01*
G01X436822Y37979D01*
G01X436783Y38136D01*
G01X436818Y38298D01*
G01X436920Y38418D01*
G01X437001Y38468D01*
G01X437109Y38513D01*
G01X437242Y38555D01*
G01X437400Y38594D01*
G01X437563Y38632D01*
G01X437708Y38674D01*
G01X437836Y38720D01*
G01X437946Y38769D01*
G01X438040Y38823D01*
G01X438121Y38883D01*
G01X438189Y38947D01*
G01X438243Y39015D01*
G01X438316Y39169D01*
G01X438340Y39351D01*
G01X438332Y39456D01*
G01X438310Y39556D01*
G01X438271Y39650D01*
G01X438218Y39739D01*
G01X438150Y39822D01*
G01X438066Y39899D01*
G01X437970Y39968D01*
G01X437866Y40025D01*
G01X437753Y40069D01*
G01X437631Y40100D01*
G01X437501Y40119D01*
G37*

%LPD*%
G36*
G01X445657Y40121D02*
G01X445538Y40125D01*
G01X445395Y40118D01*
G01X445259Y40096D01*
G01X445132Y40059D01*
G01X445014Y40007D01*
G01X444903Y39940D01*
G01X444802Y39859D01*
G01X444711Y39765D01*
G01X444636Y39663D01*
G01X444576Y39552D01*
G01X444531Y39433D01*
G01X444501Y39305D01*
G01X444487Y39168D01*
G01X444914Y39168D01*
G01X444933Y39290D01*
G01X444972Y39401D01*
G01X445031Y39501D01*
G01X445109Y39589D01*
G01X445201Y39661D01*
G01X445303Y39713D01*
G01X445415Y39744D01*
G01X445538Y39754D01*
G01X445649Y39747D01*
G01X445751Y39727D01*
G01X445844Y39692D01*
G01X445929Y39644D01*
G01X446005Y39582D01*
G01X446072Y39505D01*
G01X446130Y39417D01*
G01X446177Y39317D01*
G01X446215Y39203D01*
G01X446241Y39078D01*
G01X446257Y38940D01*
G01X446262Y38789D01*
G01X446262Y38703D01*
G01X446257Y38557D01*
G01X446241Y38423D01*
G01X446216Y38300D01*
G01X446179Y38189D01*
G01X446132Y38090D01*
G01X446074Y38002D01*
G01X446007Y37927D01*
G01X445931Y37865D01*
G01X445846Y37817D01*
G01X445751Y37783D01*
G01X445648Y37762D01*
G01X445536Y37755D01*
G01X445419Y37765D01*
G01X445310Y37791D01*
G01X445208Y37837D01*
G01X445114Y37900D01*
G01X445034Y37978D01*
G01X444974Y38065D01*
G01X444934Y38161D01*
G01X444914Y38266D01*
G01X444487Y38266D01*
G01X444502Y38154D01*
G01X444533Y38045D01*
G01X444580Y37938D01*
G01X444644Y37834D01*
G01X444721Y37738D01*
G01X444811Y37651D01*
G01X444914Y37574D01*
G01X445028Y37507D01*
G01X445150Y37453D01*
G01X445276Y37415D01*
G01X445404Y37392D01*
G01X445536Y37385D01*
G01X445667Y37390D01*
G01X445792Y37407D01*
G01X445910Y37435D01*
G01X446021Y37475D01*
G01X446125Y37525D01*
G01X446222Y37587D01*
G01X446312Y37661D01*
G01X446394Y37745D01*
G01X446470Y37840D01*
G01X446535Y37942D01*
G01X446589Y38053D01*
G01X446635Y38172D01*
G01X446669Y38299D01*
G01X446695Y38435D01*
G01X446709Y38579D01*
G01X446714Y38731D01*
G01X446714Y38807D01*
G01X446710Y38933D01*
G01X446699Y39055D01*
G01X446679Y39172D01*
G01X446651Y39283D01*
G01X446616Y39391D01*
G01X446572Y39493D01*
G01X446521Y39589D01*
G01X446464Y39678D01*
G01X446399Y39759D01*
G01X446328Y39834D01*
G01X446251Y39901D01*
G01X446166Y39960D01*
G01X446075Y40010D01*
G01X445979Y40052D01*
G01X445877Y40084D01*
G01X445770Y40107D01*
G01X445657Y40121D01*
G37*

%LPD*%
G36*
G01X448309Y40120D02*
G01X448205Y40125D01*
G01X448080Y40120D01*
G01X447962Y40104D01*
G01X447851Y40077D01*
G01X447748Y40040D01*
G01X447651Y39992D01*
G01X447562Y39934D01*
G01X447480Y39865D01*
G01X447405Y39785D01*
G01X447338Y39696D01*
G01X447280Y39597D01*
G01X447231Y39490D01*
G01X447190Y39373D01*
G01X447158Y39247D01*
G01X447136Y39112D01*
G01X447123Y38968D01*
G01X447118Y38815D01*
G01X447118Y38627D01*
G01X448909Y38627D01*
G01X448900Y38501D01*
G01X448879Y38382D01*
G01X448847Y38273D01*
G01X448803Y38171D01*
G01X448747Y38079D01*
G01X448680Y37994D01*
G01X448604Y37921D01*
G01X448521Y37862D01*
G01X448432Y37815D01*
G01X448336Y37782D01*
G01X448233Y37762D01*
G01X448124Y37755D01*
G01X448009Y37762D01*
G01X447904Y37779D01*
G01X447808Y37810D01*
G01X447720Y37852D01*
G01X447639Y37904D01*
G01X447563Y37965D01*
G01X447493Y38034D01*
G01X447428Y38111D01*
G01X447154Y37895D01*
G01X447223Y37798D01*
G01X447299Y37711D01*
G01X447382Y37635D01*
G01X447472Y37568D01*
G01X447568Y37512D01*
G01X447671Y37466D01*
G01X447780Y37430D01*
G01X447896Y37405D01*
G01X448020Y37390D01*
G01X448149Y37385D01*
G01X448281Y37390D01*
G01X448405Y37406D01*
G01X448523Y37434D01*
G01X448636Y37473D01*
G01X448742Y37522D01*
G01X448842Y37583D01*
G01X448936Y37655D01*
G01X449023Y37738D01*
G01X449102Y37830D01*
G01X449171Y37929D01*
G01X449229Y38036D01*
G01X449277Y38150D01*
G01X449313Y38272D01*
G01X449340Y38402D01*
G01X449356Y38538D01*
G01X449361Y38683D01*
G01X449361Y38764D01*
G01X449357Y38893D01*
G01X449344Y39017D01*
G01X449323Y39137D01*
G01X449293Y39251D01*
G01X449255Y39362D01*
G01X449209Y39467D01*
G01X449155Y39566D01*
G01X449095Y39657D01*
G01X449029Y39742D01*
G01X448956Y39818D01*
G01X448876Y39888D01*
G01X448790Y39950D01*
G01X448699Y40003D01*
G01X448605Y40048D01*
G01X448509Y40082D01*
G01X448410Y40106D01*
G01X448309Y40120D01*
G37*

%LPC*%
G36*
G01X448337Y39742D02*
G01X448205Y39754D01*
G01X448071Y39743D01*
G01X447951Y39707D01*
G01X447846Y39647D01*
G01X447756Y39564D01*
G01X447682Y39460D01*
G01X447627Y39336D01*
G01X447590Y39194D01*
G01X447570Y39031D01*
G01X447570Y38997D01*
G01X448894Y38997D01*
G01X448863Y39167D01*
G01X448815Y39315D01*
G01X448749Y39445D01*
G01X448665Y39554D01*
G01X448567Y39642D01*
G01X448457Y39704D01*
G01X448337Y39742D01*
G37*

%LPD*%
G36*
G01X458354Y40119D02*
G01X458213Y40125D01*
G01X458066Y40119D01*
G01X457930Y40100D01*
G01X457806Y40068D01*
G01X457691Y40024D01*
G01X457589Y39966D01*
G01X457497Y39897D01*
G01X457417Y39816D01*
G01X457352Y39725D01*
G01X457301Y39625D01*
G01X457263Y39515D01*
G01X457240Y39396D01*
G01X457230Y39267D01*
G01X457230Y38053D01*
G01X457224Y37880D01*
G01X457207Y37726D01*
G01X457177Y37591D01*
G01X457136Y37473D01*
G01X457136Y37435D01*
G01X457608Y37435D01*
G01X457645Y37543D01*
G01X457672Y37712D01*
G01X457753Y37636D01*
G01X457837Y37569D01*
G01X457925Y37513D01*
G01X458017Y37466D01*
G01X458113Y37431D01*
G01X458213Y37405D01*
G01X458317Y37390D01*
G01X458424Y37385D01*
G01X458550Y37391D01*
G01X458669Y37409D01*
G01X458780Y37440D01*
G01X458883Y37483D01*
G01X458979Y37538D01*
G01X459066Y37606D01*
G01X459143Y37683D01*
G01X459205Y37766D01*
G01X459253Y37857D01*
G01X459288Y37953D01*
G01X459308Y38057D01*
G01X459315Y38167D01*
G01X459307Y38299D01*
G01X459281Y38421D01*
G01X459237Y38533D01*
G01X459177Y38634D01*
G01X459098Y38726D01*
G01X459003Y38807D01*
G01X458920Y38860D01*
G01X458830Y38907D01*
G01X458731Y38946D01*
G01X458624Y38978D01*
G01X458510Y39004D01*
G01X458388Y39021D01*
G01X458257Y39032D01*
G01X458119Y39036D01*
G01X457680Y39036D01*
G01X457680Y39244D01*
G01X457689Y39356D01*
G01X457715Y39456D01*
G01X457760Y39544D01*
G01X457822Y39620D01*
G01X457901Y39682D01*
G01X457997Y39726D01*
G01X458109Y39753D01*
G01X458238Y39762D01*
G01X458355Y39754D01*
G01X458462Y39732D01*
G01X458558Y39693D01*
G01X458645Y39640D01*
G01X458767Y39505D01*
G01X458807Y39343D01*
G01X459262Y39343D01*
G01X459253Y39441D01*
G01X459227Y39538D01*
G01X459183Y39633D01*
G01X459122Y39726D01*
G01X459046Y39813D01*
G01X458957Y39891D01*
G01X458856Y39959D01*
G01X458741Y40019D01*
G01X458618Y40065D01*
G01X458488Y40098D01*
G01X458354Y40119D01*
G37*

%LPC*%
G36*
G01X458035Y38716D02*
G01X457680Y38716D01*
G01X457680Y38175D01*
G01X457729Y38091D01*
G01X457792Y38015D01*
G01X457868Y37947D01*
G01X457956Y37888D01*
G01X458053Y37840D01*
G01X458153Y37806D01*
G01X458255Y37785D01*
G01X458360Y37778D01*
G01X458466Y37786D01*
G01X458561Y37808D01*
G01X458647Y37845D01*
G01X458724Y37898D01*
G01X458784Y37963D01*
G01X458828Y38040D01*
G01X458855Y38130D01*
G01X458863Y38230D01*
G01X458855Y38322D01*
G01X458830Y38405D01*
G01X458789Y38478D01*
G01X458731Y38541D01*
G01X458656Y38594D01*
G01X458565Y38638D01*
G01X458457Y38672D01*
G01X458333Y38696D01*
G01X458193Y38710D01*
G01X458035Y38716D01*
G37*

%LPD*%
G36*
G01X463882Y40121D02*
G01X463768Y40125D01*
G01X463636Y40120D01*
G01X463510Y40102D01*
G01X463392Y40073D01*
G01X463279Y40032D01*
G01X463173Y39979D01*
G01X463074Y39915D01*
G01X462981Y39839D01*
G01X462894Y39752D01*
G01X462816Y39655D01*
G01X462748Y39550D01*
G01X462691Y39437D01*
G01X462645Y39317D01*
G01X462608Y39189D01*
G01X462582Y39053D01*
G01X462567Y38910D01*
G01X462561Y38759D01*
G01X462561Y38726D01*
G01X462566Y38599D01*
G01X462578Y38477D01*
G01X462598Y38360D01*
G01X462627Y38247D01*
G01X462664Y38138D01*
G01X462709Y38035D01*
G01X462762Y37936D01*
G01X462821Y37845D01*
G01X462888Y37762D01*
G01X462962Y37686D01*
G01X463043Y37618D01*
G01X463130Y37557D01*
G01X463224Y37504D01*
G01X463322Y37461D01*
G01X463426Y37428D01*
G01X463533Y37404D01*
G01X463646Y37389D01*
G01X463763Y37385D01*
G01X463894Y37390D01*
G01X464018Y37408D01*
G01X464136Y37437D01*
G01X464248Y37478D01*
G01X464354Y37530D01*
G01X464453Y37594D01*
G01X464545Y37671D01*
G01X464632Y37758D01*
G01X464710Y37856D01*
G01X464777Y37961D01*
G01X464834Y38073D01*
G01X464881Y38193D01*
G01X464918Y38321D01*
G01X464943Y38456D01*
G01X464959Y38599D01*
G01X464964Y38749D01*
G01X464964Y38779D01*
G01X464960Y38907D01*
G01X464948Y39029D01*
G01X464926Y39148D01*
G01X464897Y39262D01*
G01X464859Y39372D01*
G01X464812Y39478D01*
G01X464758Y39577D01*
G01X464697Y39669D01*
G01X464630Y39752D01*
G01X464556Y39829D01*
G01X464475Y39897D01*
G01X464388Y39958D01*
G01X464295Y40009D01*
G01X464198Y40051D01*
G01X464097Y40083D01*
G01X463991Y40106D01*
G01X463882Y40121D01*
G37*

%LPC*%
G36*
G01X463875Y39747D02*
G01X463768Y39754D01*
G01X463658Y39747D01*
G01X463555Y39724D01*
G01X463460Y39687D01*
G01X463372Y39635D01*
G01X463292Y39567D01*
G01X463219Y39485D01*
G01X463156Y39390D01*
G01X463105Y39286D01*
G01X463065Y39173D01*
G01X463036Y39050D01*
G01X463019Y38919D01*
G01X463014Y38779D01*
G01X463019Y38623D01*
G01X463036Y38480D01*
G01X463064Y38348D01*
G01X463103Y38228D01*
G01X463153Y38120D01*
G01X463214Y38025D01*
G01X463286Y37942D01*
G01X463366Y37875D01*
G01X463453Y37822D01*
G01X463548Y37785D01*
G01X463652Y37763D01*
G01X463763Y37755D01*
G01X463873Y37763D01*
G01X463975Y37785D01*
G01X464069Y37821D01*
G01X464156Y37873D01*
G01X464235Y37939D01*
G01X464306Y38020D01*
G01X464369Y38113D01*
G01X464421Y38217D01*
G01X464461Y38329D01*
G01X464489Y38452D01*
G01X464507Y38584D01*
G01X464512Y38726D01*
G01X464507Y38884D01*
G01X464489Y39031D01*
G01X464461Y39164D01*
G01X464421Y39285D01*
G01X464369Y39392D01*
G01X464306Y39488D01*
G01X464234Y39569D01*
G01X464155Y39636D01*
G01X464069Y39688D01*
G01X463976Y39725D01*
G01X463875Y39747D01*
G37*

%LPD*%
G36*
G01X466044Y40989D02*
G01X465574Y40989D01*
G01X465574Y38472D01*
G01X465578Y38348D01*
G01X465593Y38230D01*
G01X465617Y38120D01*
G01X465650Y38017D01*
G01X465693Y37921D01*
G01X465746Y37832D01*
G01X465807Y37749D01*
G01X465879Y37674D01*
G01X465959Y37606D01*
G01X466045Y37548D01*
G01X466138Y37498D01*
G01X466237Y37457D01*
G01X466342Y37425D01*
G01X466454Y37403D01*
G01X466572Y37389D01*
G01X466697Y37385D01*
G01X466826Y37389D01*
G01X466947Y37401D01*
G01X467061Y37423D01*
G01X467168Y37453D01*
G01X467268Y37491D01*
G01X467360Y37537D01*
G01X467445Y37593D01*
G01X467522Y37656D01*
G01X467612Y37753D01*
G01X467686Y37862D01*
G01X467743Y37982D01*
G01X467784Y38115D01*
G01X467809Y38259D01*
G01X467817Y38416D01*
G01X467349Y38416D01*
G01X467339Y38272D01*
G01X467308Y38145D01*
G01X467255Y38034D01*
G01X467182Y37941D01*
G01X467089Y37865D01*
G01X466976Y37811D01*
G01X466846Y37779D01*
G01X466697Y37768D01*
G01X466558Y37779D01*
G01X466434Y37814D01*
G01X466324Y37871D01*
G01X466227Y37951D01*
G01X466147Y38053D01*
G01X466091Y38172D01*
G01X466056Y38309D01*
G01X466044Y38464D01*
G01X466044Y40989D01*
G37*

%LPD*%
G36*
G01X472465Y40121D02*
G01X472351Y40125D01*
G01X472219Y40120D01*
G01X472094Y40102D01*
G01X471975Y40073D01*
G01X471863Y40032D01*
G01X471757Y39979D01*
G01X471657Y39915D01*
G01X471564Y39839D01*
G01X471477Y39752D01*
G01X471399Y39655D01*
G01X471331Y39550D01*
G01X471274Y39437D01*
G01X471227Y39317D01*
G01X471191Y39189D01*
G01X471165Y39053D01*
G01X471149Y38910D01*
G01X471144Y38759D01*
G01X471144Y38726D01*
G01X471148Y38599D01*
G01X471160Y38477D01*
G01X471181Y38360D01*
G01X471210Y38247D01*
G01X471246Y38138D01*
G01X471291Y38035D01*
G01X471345Y37936D01*
G01X471405Y37845D01*
G01X471472Y37762D01*
G01X471546Y37686D01*
G01X471628Y37618D01*
G01X471716Y37557D01*
G01X471809Y37504D01*
G01X471908Y37461D01*
G01X472010Y37428D01*
G01X472117Y37404D01*
G01X472229Y37389D01*
G01X472346Y37385D01*
G01X472477Y37390D01*
G01X472602Y37408D01*
G01X472720Y37437D01*
G01X472833Y37478D01*
G01X472938Y37530D01*
G01X473037Y37594D01*
G01X473130Y37671D01*
G01X473217Y37758D01*
G01X473295Y37856D01*
G01X473363Y37961D01*
G01X473419Y38073D01*
G01X473466Y38193D01*
G01X473503Y38321D01*
G01X473529Y38456D01*
G01X473544Y38599D01*
G01X473549Y38749D01*
G01X473549Y38779D01*
G01X473545Y38907D01*
G01X473533Y39029D01*
G01X473511Y39148D01*
G01X473482Y39262D01*
G01X473444Y39372D01*
G01X473397Y39478D01*
G01X473343Y39577D01*
G01X473282Y39669D01*
G01X473215Y39752D01*
G01X473141Y39829D01*
G01X473060Y39897D01*
G01X472973Y39958D01*
G01X472880Y40009D01*
G01X472783Y40051D01*
G01X472681Y40083D01*
G01X472576Y40106D01*
G01X472465Y40121D01*
G37*

%LPC*%
G36*
G01X472459Y39747D02*
G01X472351Y39754D01*
G01X472241Y39747D01*
G01X472138Y39724D01*
G01X472043Y39687D01*
G01X471955Y39635D01*
G01X471875Y39567D01*
G01X471802Y39485D01*
G01X471739Y39390D01*
G01X471688Y39286D01*
G01X471648Y39173D01*
G01X471619Y39050D01*
G01X471602Y38919D01*
G01X471596Y38779D01*
G01X471602Y38623D01*
G01X471619Y38480D01*
G01X471647Y38348D01*
G01X471687Y38228D01*
G01X471737Y38120D01*
G01X471799Y38025D01*
G01X471871Y37942D01*
G01X471950Y37875D01*
G01X472038Y37822D01*
G01X472133Y37785D01*
G01X472235Y37763D01*
G01X472346Y37755D01*
G01X472456Y37763D01*
G01X472558Y37785D01*
G01X472653Y37821D01*
G01X472741Y37873D01*
G01X472820Y37939D01*
G01X472892Y38020D01*
G01X472954Y38113D01*
G01X473004Y38217D01*
G01X473044Y38329D01*
G01X473072Y38452D01*
G01X473089Y38584D01*
G01X473095Y38726D01*
G01X473089Y38884D01*
G01X473072Y39031D01*
G01X473044Y39164D01*
G01X473003Y39285D01*
G01X472952Y39392D01*
G01X472889Y39488D01*
G01X472817Y39569D01*
G01X472739Y39636D01*
G01X472653Y39688D01*
G01X472559Y39725D01*
G01X472459Y39747D01*
G37*

%LPD*%
G36*
G01X480399Y40120D02*
G01X480296Y40125D01*
G01X480170Y40120D01*
G01X480052Y40104D01*
G01X479941Y40077D01*
G01X479838Y40040D01*
G01X479740Y39992D01*
G01X479651Y39934D01*
G01X479568Y39865D01*
G01X479493Y39785D01*
G01X479427Y39696D01*
G01X479369Y39597D01*
G01X479320Y39490D01*
G01X479280Y39373D01*
G01X479249Y39247D01*
G01X479226Y39112D01*
G01X479213Y38968D01*
G01X479209Y38815D01*
G01X479209Y38627D01*
G01X480999Y38627D01*
G01X480990Y38501D01*
G01X480969Y38382D01*
G01X480937Y38273D01*
G01X480893Y38171D01*
G01X480838Y38079D01*
G01X480771Y37994D01*
G01X480695Y37921D01*
G01X480612Y37862D01*
G01X480522Y37815D01*
G01X480426Y37782D01*
G01X480324Y37762D01*
G01X480214Y37755D01*
G01X480100Y37762D01*
G01X479993Y37779D01*
G01X479896Y37810D01*
G01X479808Y37852D01*
G01X479728Y37904D01*
G01X479653Y37965D01*
G01X479584Y38034D01*
G01X479518Y38111D01*
G01X479242Y37895D01*
G01X479312Y37798D01*
G01X479388Y37711D01*
G01X479471Y37635D01*
G01X479561Y37568D01*
G01X479658Y37512D01*
G01X479761Y37466D01*
G01X479871Y37430D01*
G01X479987Y37405D01*
G01X480110Y37390D01*
G01X480240Y37385D01*
G01X480371Y37390D01*
G01X480495Y37406D01*
G01X480614Y37434D01*
G01X480727Y37473D01*
G01X480832Y37522D01*
G01X480932Y37583D01*
G01X481026Y37655D01*
G01X481114Y37738D01*
G01X481192Y37830D01*
G01X481260Y37929D01*
G01X481318Y38036D01*
G01X481365Y38150D01*
G01X481402Y38272D01*
G01X481428Y38402D01*
G01X481444Y38538D01*
G01X481449Y38683D01*
G01X481449Y38764D01*
G01X481445Y38893D01*
G01X481432Y39017D01*
G01X481411Y39137D01*
G01X481382Y39251D01*
G01X481345Y39362D01*
G01X481299Y39467D01*
G01X481246Y39566D01*
G01X481186Y39657D01*
G01X481119Y39742D01*
G01X481046Y39818D01*
G01X480966Y39888D01*
G01X480880Y39950D01*
G01X480789Y40003D01*
G01X480696Y40048D01*
G01X480600Y40082D01*
G01X480500Y40106D01*
G01X480399Y40120D01*
G37*

%LPC*%
G36*
G01X480426Y39742D02*
G01X480296Y39754D01*
G01X480161Y39743D01*
G01X480041Y39707D01*
G01X479936Y39647D01*
G01X479846Y39564D01*
G01X479772Y39460D01*
G01X479717Y39336D01*
G01X479680Y39194D01*
G01X479661Y39031D01*
G01X479661Y38997D01*
G01X480984Y38997D01*
G01X480954Y39167D01*
G01X480905Y39315D01*
G01X480838Y39445D01*
G01X480753Y39554D01*
G01X480655Y39642D01*
G01X480546Y39704D01*
G01X480426Y39742D01*
G37*

%LPD*%
G36*
G01X487039Y40120D02*
G01X486935Y40125D01*
G01X486810Y40120D01*
G01X486692Y40104D01*
G01X486581Y40077D01*
G01X486478Y40040D01*
G01X486381Y39992D01*
G01X486292Y39934D01*
G01X486210Y39865D01*
G01X486135Y39785D01*
G01X486068Y39696D01*
G01X486010Y39597D01*
G01X485960Y39490D01*
G01X485920Y39373D01*
G01X485888Y39247D01*
G01X485866Y39112D01*
G01X485853Y38968D01*
G01X485848Y38815D01*
G01X485848Y38627D01*
G01X487639Y38627D01*
G01X487630Y38501D01*
G01X487609Y38382D01*
G01X487577Y38273D01*
G01X487533Y38171D01*
G01X487477Y38079D01*
G01X487410Y37994D01*
G01X487334Y37921D01*
G01X487251Y37862D01*
G01X487162Y37815D01*
G01X487066Y37782D01*
G01X486963Y37762D01*
G01X486854Y37755D01*
G01X486739Y37762D01*
G01X486634Y37779D01*
G01X486538Y37810D01*
G01X486450Y37852D01*
G01X486370Y37904D01*
G01X486295Y37965D01*
G01X486226Y38034D01*
G01X486161Y38111D01*
G01X485884Y37895D01*
G01X485954Y37798D01*
G01X486030Y37711D01*
G01X486113Y37635D01*
G01X486203Y37568D01*
G01X486299Y37512D01*
G01X486402Y37466D01*
G01X486512Y37430D01*
G01X486627Y37405D01*
G01X486750Y37390D01*
G01X486879Y37385D01*
G01X487011Y37390D01*
G01X487136Y37406D01*
G01X487255Y37434D01*
G01X487367Y37473D01*
G01X487473Y37522D01*
G01X487573Y37583D01*
G01X487666Y37655D01*
G01X487753Y37738D01*
G01X487832Y37830D01*
G01X487901Y37929D01*
G01X487959Y38036D01*
G01X488007Y38150D01*
G01X488043Y38272D01*
G01X488070Y38402D01*
G01X488086Y38538D01*
G01X488091Y38683D01*
G01X488091Y38764D01*
G01X488087Y38893D01*
G01X488074Y39017D01*
G01X488053Y39137D01*
G01X488024Y39251D01*
G01X487987Y39362D01*
G01X487941Y39467D01*
G01X487888Y39566D01*
G01X487828Y39657D01*
G01X487761Y39742D01*
G01X487687Y39818D01*
G01X487607Y39888D01*
G01X487519Y39950D01*
G01X487429Y40003D01*
G01X487335Y40048D01*
G01X487239Y40082D01*
G01X487140Y40106D01*
G01X487039Y40120D01*
G37*

%LPC*%
G36*
G01X487067Y39742D02*
G01X486935Y39754D01*
G01X486802Y39743D01*
G01X486682Y39707D01*
G01X486577Y39647D01*
G01X486486Y39564D01*
G01X486412Y39460D01*
G01X486357Y39336D01*
G01X486320Y39194D01*
G01X486300Y39031D01*
G01X486300Y38997D01*
G01X487624Y38997D01*
G01X487593Y39167D01*
G01X487545Y39315D01*
G01X487479Y39445D01*
G01X487395Y39554D01*
G01X487297Y39642D01*
G01X487187Y39704D01*
G01X487067Y39742D01*
G37*

%LPD*%
G36*
G01X492201Y40715D02*
G01X491751Y40715D01*
G01X491751Y40077D01*
G01X491256Y40077D01*
G01X491256Y39726D01*
G01X491751Y39726D01*
G01X491751Y38088D01*
G01X491735Y37951D01*
G01X491685Y37852D01*
G01X491596Y37791D01*
G01X491459Y37771D01*
G01X491417Y37773D01*
G01X491368Y37778D01*
G01X491311Y37788D01*
G01X491246Y37801D01*
G01X491246Y37435D01*
G01X491421Y37397D01*
G01X491591Y37385D01*
G01X491733Y37396D01*
G01X491857Y37431D01*
G01X491961Y37489D01*
G01X492048Y37570D01*
G01X492115Y37671D01*
G01X492163Y37791D01*
G01X492191Y37930D01*
G01X492201Y38088D01*
G01X492201Y39726D01*
G01X492683Y39726D01*
G01X492683Y40077D01*
G01X492201Y40077D01*
G01X492201Y40715D01*
G37*

%LPD*%
G36*
G01X497827Y40715D02*
G01X497375Y40715D01*
G01X497375Y40077D01*
G01X496882Y40077D01*
G01X496882Y39726D01*
G01X497375Y39726D01*
G01X497375Y38088D01*
G01X497358Y37951D01*
G01X497309Y37852D01*
G01X497220Y37791D01*
G01X497085Y37771D01*
G01X497042Y37773D01*
G01X496992Y37778D01*
G01X496934Y37788D01*
G01X496869Y37801D01*
G01X496869Y37435D01*
G01X497045Y37397D01*
G01X497217Y37385D01*
G01X497359Y37396D01*
G01X497482Y37431D01*
G01X497587Y37489D01*
G01X497672Y37570D01*
G01X497739Y37671D01*
G01X497788Y37791D01*
G01X497817Y37930D01*
G01X497827Y38088D01*
G01X497827Y39726D01*
G01X498307Y39726D01*
G01X498307Y40077D01*
G01X497827Y40077D01*
G01X497827Y40715D01*
G37*

%LPD*%
G36*
G01X430225Y40120D02*
G01X430105Y40125D01*
G01X429989Y40120D01*
G01X429879Y40103D01*
G01X429776Y40075D01*
G01X429678Y40036D01*
G01X429587Y39986D01*
G01X429502Y39924D01*
G01X429423Y39851D01*
G01X429351Y39767D01*
G01X429286Y39673D01*
G01X429230Y39569D01*
G01X429182Y39457D01*
G01X429143Y39336D01*
G01X429113Y39207D01*
G01X429091Y39069D01*
G01X429079Y38922D01*
G01X429074Y38766D01*
G01X429074Y38726D01*
G01X429079Y38579D01*
G01X429091Y38439D01*
G01X429113Y38307D01*
G01X429143Y38182D01*
G01X429182Y38064D01*
G01X429230Y37954D01*
G01X429286Y37851D01*
G01X429351Y37755D01*
G01X429423Y37669D01*
G01X429500Y37593D01*
G01X429585Y37529D01*
G01X429675Y37477D01*
G01X429771Y37437D01*
G01X429874Y37408D01*
G01X429983Y37390D01*
G01X430098Y37385D01*
G01X430215Y37389D01*
G01X430325Y37404D01*
G01X430429Y37428D01*
G01X430527Y37461D01*
G01X430618Y37504D01*
G01X430703Y37557D01*
G01X430782Y37620D01*
G01X430855Y37692D01*
G01X430855Y36419D01*
G01X431307Y36419D01*
G01X431307Y40077D01*
G01X430893Y40077D01*
G01X430872Y39782D01*
G01X430800Y39863D01*
G01X430721Y39932D01*
G01X430635Y39991D01*
G01X430542Y40039D01*
G01X430443Y40077D01*
G01X430337Y40104D01*
G01X430225Y40120D01*
G37*

%LPC*%
G36*
G01X430370Y39732D02*
G01X430240Y39742D01*
G01X430133Y39735D01*
G01X430034Y39713D01*
G01X429943Y39677D01*
G01X429859Y39626D01*
G01X429784Y39562D01*
G01X429717Y39483D01*
G01X429658Y39391D01*
G01X429611Y39289D01*
G01X429574Y39176D01*
G01X429548Y39054D01*
G01X429531Y38920D01*
G01X429526Y38777D01*
G01X429531Y38614D01*
G01X429548Y38466D01*
G01X429574Y38332D01*
G01X429611Y38211D01*
G01X429658Y38104D01*
G01X429717Y38012D01*
G01X429785Y37934D01*
G01X429860Y37869D01*
G01X429943Y37819D01*
G01X430033Y37784D01*
G01X430130Y37763D01*
G01X430235Y37755D01*
G01X430368Y37766D01*
G01X430489Y37796D01*
G01X430598Y37845D01*
G01X430696Y37916D01*
G01X430781Y38006D01*
G01X430855Y38116D01*
G01X430855Y39378D01*
G01X430780Y39489D01*
G01X430695Y39580D01*
G01X430598Y39651D01*
G01X430490Y39702D01*
G01X430370Y39732D01*
G37*

%LPD*%
G36*
G01X476392Y40120D02*
G01X476272Y40125D01*
G01X476156Y40120D01*
G01X476046Y40103D01*
G01X475943Y40075D01*
G01X475845Y40036D01*
G01X475754Y39986D01*
G01X475669Y39924D01*
G01X475590Y39851D01*
G01X475518Y39767D01*
G01X475453Y39673D01*
G01X475397Y39569D01*
G01X475349Y39457D01*
G01X475310Y39336D01*
G01X475280Y39207D01*
G01X475258Y39069D01*
G01X475246Y38922D01*
G01X475241Y38766D01*
G01X475241Y38726D01*
G01X475246Y38579D01*
G01X475258Y38439D01*
G01X475280Y38307D01*
G01X475310Y38182D01*
G01X475349Y38064D01*
G01X475397Y37954D01*
G01X475453Y37851D01*
G01X475518Y37755D01*
G01X475590Y37669D01*
G01X475667Y37593D01*
G01X475752Y37529D01*
G01X475842Y37477D01*
G01X475938Y37437D01*
G01X476041Y37408D01*
G01X476150Y37390D01*
G01X476265Y37385D01*
G01X476382Y37389D01*
G01X476492Y37404D01*
G01X476596Y37428D01*
G01X476694Y37461D01*
G01X476785Y37504D01*
G01X476871Y37557D01*
G01X476950Y37620D01*
G01X477022Y37692D01*
G01X477022Y36419D01*
G01X477474Y36419D01*
G01X477474Y40077D01*
G01X477060Y40077D01*
G01X477039Y39782D01*
G01X476967Y39863D01*
G01X476888Y39932D01*
G01X476802Y39991D01*
G01X476709Y40039D01*
G01X476610Y40077D01*
G01X476504Y40104D01*
G01X476392Y40120D01*
G37*

%LPC*%
G36*
G01X476538Y39732D02*
G01X476407Y39742D01*
G01X476300Y39735D01*
G01X476201Y39713D01*
G01X476110Y39677D01*
G01X476026Y39626D01*
G01X475951Y39562D01*
G01X475884Y39483D01*
G01X475825Y39391D01*
G01X475778Y39289D01*
G01X475741Y39176D01*
G01X475715Y39054D01*
G01X475698Y38920D01*
G01X475693Y38777D01*
G01X475698Y38614D01*
G01X475715Y38466D01*
G01X475741Y38332D01*
G01X475778Y38211D01*
G01X475825Y38104D01*
G01X475884Y38012D01*
G01X475952Y37934D01*
G01X476027Y37869D01*
G01X476110Y37819D01*
G01X476200Y37784D01*
G01X476297Y37763D01*
G01X476402Y37755D01*
G01X476535Y37766D01*
G01X476656Y37796D01*
G01X476765Y37845D01*
G01X476863Y37916D01*
G01X476948Y38006D01*
G01X477022Y38116D01*
G01X477022Y39378D01*
G01X476947Y39489D01*
G01X476862Y39580D01*
G01X476765Y39651D01*
G01X476657Y39702D01*
G01X476538Y39732D01*
G37*

%LPD*%
G54D36*
G01X61341Y8909D02*
G01X61341Y8129D01*
G01X61290Y7974D01*
G01X61186Y7870D01*
G01X61028Y7819D01*
G01X60924Y7819D01*
G01X60769Y7870D01*
G01X60665Y7974D01*
G01X60614Y8129D01*
G01X60614Y8909D01*
G01X59542Y8909D02*
G01X60063Y7819D01*
G01X60271Y8909D02*
G01X59542Y8909D01*
G01X61341Y53994D02*
G01X61341Y53214D01*
G01X61290Y53059D01*
G01X61186Y52955D01*
G01X61028Y52904D01*
G01X60924Y52904D01*
G01X60769Y52955D01*
G01X60665Y53059D01*
G01X60614Y53214D01*
G01X60614Y53994D01*
G01X59596Y53630D02*
G01X59646Y53475D01*
G01X59751Y53371D01*
G01X59906Y53318D01*
G01X59959Y53318D01*
G01X60114Y53371D01*
G01X60218Y53475D01*
G01X60271Y53630D01*
G01X60271Y53681D01*
G01X60218Y53839D01*
G01X60114Y53943D01*
G01X59959Y53994D01*
G01X59906Y53994D01*
G01X59751Y53943D01*
G01X59646Y53839D01*
G01X59596Y53630D01*
G01X59596Y53371D01*
G01X59646Y53110D01*
G01X59751Y52955D01*
G01X59906Y52904D01*
G01X60010Y52904D01*
G01X60167Y52955D01*
G01X60218Y53059D01*
G01X247904Y42945D02*
G01X247904Y42165D01*
G01X247853Y42010D01*
G01X247749Y41906D01*
G01X247591Y41855D01*
G01X247487Y41855D01*
G01X247332Y41906D01*
G01X247228Y42010D01*
G01X247177Y42165D01*
G01X247177Y42945D01*
G01X246730Y42945D02*
G01X246159Y42945D01*
G01X246468Y42528D01*
G01X246313Y42528D01*
G01X246209Y42477D01*
G01X246159Y42426D01*
G01X246105Y42269D01*
G01X246105Y42165D01*
G01X246159Y42010D01*
G01X246263Y41906D01*
G01X246418Y41855D01*
G01X246573Y41855D01*
G01X246730Y41906D01*
G01X246781Y41957D01*
G01X246834Y42061D01*
G01X17907Y42945D02*
G01X17907Y42165D01*
G01X17856Y42010D01*
G01X17752Y41906D01*
G01X17594Y41855D01*
G01X17490Y41855D01*
G01X17335Y41906D01*
G01X17231Y42010D01*
G01X17180Y42165D01*
G01X17180Y42945D01*
G01X16316Y42945D02*
G01X16837Y42218D01*
G01X16057Y42218D01*
G01X16316Y42945D02*
G01X16316Y41855D01*
G01X82169Y44215D02*
G01X82169Y43435D01*
G01X82118Y43280D01*
G01X82014Y43176D01*
G01X81856Y43125D01*
G01X81752Y43125D01*
G01X81597Y43176D01*
G01X81493Y43280D01*
G01X81442Y43435D01*
G01X81442Y44215D01*
G01X80474Y44215D02*
G01X80995Y44215D01*
G01X81046Y43747D01*
G01X80995Y43798D01*
G01X80838Y43851D01*
G01X80683Y43851D01*
G01X80528Y43798D01*
G01X80424Y43696D01*
G01X80370Y43539D01*
G01X80370Y43435D01*
G01X80424Y43280D01*
G01X80528Y43176D01*
G01X80683Y43125D01*
G01X80838Y43125D01*
G01X80995Y43176D01*
G01X81046Y43227D01*
G01X81099Y43331D01*
G01X93217Y23514D02*
G01X93217Y22734D01*
G01X93167Y22579D01*
G01X93063Y22475D01*
G01X92905Y22424D01*
G01X92801Y22424D01*
G01X92646Y22475D01*
G01X92542Y22579D01*
G01X92491Y22734D01*
G01X92491Y23514D01*
G01X91523Y23359D02*
G01X91577Y23463D01*
G01X91732Y23514D01*
G01X91836Y23514D01*
G01X91991Y23463D01*
G01X92095Y23305D01*
G01X92148Y23046D01*
G01X92148Y22787D01*
G01X92095Y22579D01*
G01X91991Y22475D01*
G01X91836Y22424D01*
G01X91782Y22424D01*
G01X91627Y22475D01*
G01X91523Y22579D01*
G01X91472Y22734D01*
G01X91472Y22787D01*
G01X91523Y22942D01*
G01X91627Y23046D01*
G01X91782Y23097D01*
G01X91836Y23097D01*
G01X91991Y23046D01*
G01X92095Y22942D01*
G01X92148Y22787D01*
G01X60070Y32277D02*
G01X60070Y31497D01*
G01X60020Y31342D01*
G01X59915Y31238D01*
G01X59758Y31187D01*
G01X59654Y31187D01*
G01X59499Y31238D01*
G01X59395Y31342D01*
G01X59344Y31497D01*
G01X59344Y32277D01*
G01X58739Y32277D02*
G01X58897Y32226D01*
G01X58948Y32122D01*
G01X58948Y32018D01*
G01X58897Y31913D01*
G01X58793Y31860D01*
G01X58584Y31809D01*
G01X58430Y31758D01*
G01X58325Y31654D01*
G01X58272Y31550D01*
G01X58272Y31393D01*
G01X58325Y31289D01*
G01X58376Y31238D01*
G01X58534Y31187D01*
G01X58739Y31187D01*
G01X58897Y31238D01*
G01X58948Y31289D01*
G01X59001Y31393D01*
G01X59001Y31550D01*
G01X58948Y31654D01*
G01X58844Y31758D01*
G01X58689Y31809D01*
G01X58480Y31860D01*
G01X58376Y31913D01*
G01X58325Y32018D01*
G01X58325Y32122D01*
G01X58376Y32226D01*
G01X58534Y32277D01*
G01X58739Y32277D01*
G01X96265Y30499D02*
G01X96265Y29409D01*
G01X96265Y29409D02*
G01X95643Y29409D01*
G01X95300Y30499D02*
G01X95300Y29409D01*
G01X95300Y30499D02*
G01X94625Y30499D01*
G01X95300Y29980D02*
G01X94884Y29980D01*
G01X95300Y29409D02*
G01X94625Y29409D01*
G01X94282Y30499D02*
G01X94282Y29409D01*
G01X94282Y30499D02*
G01X93916Y30499D01*
G01X93761Y30448D01*
G01X93657Y30344D01*
G01X93606Y30240D01*
G01X93553Y30082D01*
G01X93553Y29823D01*
G01X93606Y29668D01*
G01X93657Y29564D01*
G01X93761Y29460D01*
G01X93916Y29409D01*
G01X94282Y29409D01*
G01X92951Y30499D02*
G01X93106Y30448D01*
G01X93159Y30344D01*
G01X93159Y30240D01*
G01X93106Y30135D01*
G01X93002Y30082D01*
G01X92796Y30031D01*
G01X92638Y29980D01*
G01X92534Y29876D01*
G01X92483Y29772D01*
G01X92483Y29615D01*
G01X92534Y29511D01*
G01X92588Y29460D01*
G01X92742Y29409D01*
G01X92951Y29409D01*
G01X93106Y29460D01*
G01X93159Y29511D01*
G01X93210Y29615D01*
G01X93210Y29772D01*
G01X93159Y29876D01*
G01X93055Y29980D01*
G01X92900Y30031D01*
G01X92692Y30082D01*
G01X92588Y30135D01*
G01X92534Y30240D01*
G01X92534Y30344D01*
G01X92588Y30448D01*
G01X92742Y30499D01*
G01X92951Y30499D01*
G01X22606Y53740D02*
G01X22606Y52960D01*
G01X22555Y52805D01*
G01X22451Y52701D01*
G01X22293Y52650D01*
G01X22189Y52650D01*
G01X22034Y52701D01*
G01X21930Y52805D01*
G01X21879Y52960D01*
G01X21879Y53740D01*
G01X21536Y53531D02*
G01X21432Y53585D01*
G01X21275Y53740D01*
G01X21275Y52650D01*
G01X22606Y8909D02*
G01X22606Y8129D01*
G01X22555Y7974D01*
G01X22451Y7870D01*
G01X22293Y7819D01*
G01X22189Y7819D01*
G01X22034Y7870D01*
G01X21930Y7974D01*
G01X21879Y8129D01*
G01X21879Y8909D01*
G01X21483Y8649D02*
G01X21483Y8700D01*
G01X21432Y8804D01*
G01X21379Y8858D01*
G01X21275Y8909D01*
G01X21069Y8909D01*
G01X20965Y8858D01*
G01X20911Y8804D01*
G01X20861Y8700D01*
G01X20861Y8596D01*
G01X20911Y8492D01*
G01X21016Y8337D01*
G01X21536Y7819D01*
G01X20807Y7819D01*
G01X22842Y15000D02*
G01X22895Y15104D01*
G01X22999Y15208D01*
G01X23101Y15259D01*
G01X23309Y15259D01*
G01X23413Y15208D01*
G01X23517Y15104D01*
G01X23571Y15000D01*
G01X23622Y14842D01*
G01X23622Y14583D01*
G01X23571Y14428D01*
G01X23517Y14324D01*
G01X23413Y14220D01*
G01X23309Y14169D01*
G01X23101Y14169D01*
G01X22999Y14220D01*
G01X22895Y14324D01*
G01X22842Y14428D01*
G01X22499Y15050D02*
G01X22395Y15104D01*
G01X22240Y15259D01*
G01X22240Y14169D01*
G01X7602Y15127D02*
G01X7655Y15231D01*
G01X7759Y15335D01*
G01X7861Y15386D01*
G01X8069Y15386D01*
G01X8173Y15335D01*
G01X8277Y15231D01*
G01X8331Y15127D01*
G01X8382Y14969D01*
G01X8382Y14710D01*
G01X8331Y14555D01*
G01X8277Y14451D01*
G01X8173Y14347D01*
G01X8069Y14296D01*
G01X7861Y14296D01*
G01X7759Y14347D01*
G01X7655Y14451D01*
G01X7602Y14555D01*
G01X7208Y15127D02*
G01X7208Y15177D01*
G01X7155Y15281D01*
G01X7104Y15335D01*
G01X7000Y15386D01*
G01X6791Y15386D01*
G01X6687Y15335D01*
G01X6637Y15281D01*
G01X6583Y15177D01*
G01X6583Y15073D01*
G01X6637Y14969D01*
G01X6741Y14814D01*
G01X7259Y14296D01*
G01X6532Y14296D01*
G01X253220Y15000D02*
G01X253273Y15104D01*
G01X253377Y15208D01*
G01X253479Y15259D01*
G01X253687Y15259D01*
G01X253791Y15208D01*
G01X253895Y15104D01*
G01X253949Y15000D01*
G01X254000Y14842D01*
G01X254000Y14583D01*
G01X253949Y14428D01*
G01X253895Y14324D01*
G01X253791Y14220D01*
G01X253687Y14169D01*
G01X253479Y14169D01*
G01X253377Y14220D01*
G01X253273Y14324D01*
G01X253220Y14428D01*
G01X252773Y15259D02*
G01X252201Y15259D01*
G01X252514Y14842D01*
G01X252359Y14842D01*
G01X252255Y14791D01*
G01X252201Y14740D01*
G01X252150Y14583D01*
G01X252150Y14479D01*
G01X252201Y14324D01*
G01X252305Y14220D01*
G01X252463Y14169D01*
G01X252618Y14169D01*
G01X252773Y14220D01*
G01X252826Y14271D01*
G01X252877Y14375D01*
G01X237599Y15127D02*
G01X237652Y15231D01*
G01X237756Y15335D01*
G01X237858Y15386D01*
G01X238066Y15386D01*
G01X238170Y15335D01*
G01X238274Y15231D01*
G01X238328Y15127D01*
G01X238379Y14969D01*
G01X238379Y14710D01*
G01X238328Y14555D01*
G01X238274Y14451D01*
G01X238170Y14347D01*
G01X238066Y14296D01*
G01X237858Y14296D01*
G01X237756Y14347D01*
G01X237652Y14451D01*
G01X237599Y14555D01*
G01X236738Y15386D02*
G01X237256Y14659D01*
G01X236476Y14659D01*
G01X236738Y15386D02*
G01X236738Y14296D01*
G01X58148Y45226D02*
G01X58201Y45330D01*
G01X58305Y45434D01*
G01X58407Y45485D01*
G01X58615Y45485D01*
G01X58719Y45434D01*
G01X58823Y45330D01*
G01X58877Y45226D01*
G01X58928Y45068D01*
G01X58928Y44809D01*
G01X58877Y44654D01*
G01X58823Y44550D01*
G01X58719Y44446D01*
G01X58615Y44395D01*
G01X58407Y44395D01*
G01X58305Y44446D01*
G01X58201Y44550D01*
G01X58148Y44654D01*
G01X57805Y45276D02*
G01X57701Y45330D01*
G01X57546Y45485D01*
G01X57546Y44395D01*
G01X57150Y45226D02*
G01X57150Y45276D01*
G01X57099Y45381D01*
G01X57048Y45434D01*
G01X56944Y45485D01*
G01X56735Y45485D01*
G01X56631Y45434D01*
G01X56578Y45381D01*
G01X56527Y45276D01*
G01X56527Y45172D01*
G01X56578Y45068D01*
G01X56682Y44913D01*
G01X57203Y44395D01*
G01X56476Y44395D01*
G01X106281Y12714D02*
G01X106334Y12818D01*
G01X106438Y12922D01*
G01X106540Y12973D01*
G01X106748Y12973D01*
G01X106852Y12922D01*
G01X106956Y12818D01*
G01X107010Y12714D01*
G01X107060Y12556D01*
G01X107060Y12297D01*
G01X107010Y12142D01*
G01X106956Y12038D01*
G01X106852Y11934D01*
G01X106748Y11883D01*
G01X106540Y11883D01*
G01X106438Y11934D01*
G01X106334Y12038D01*
G01X106281Y12142D01*
G01X105938Y12764D02*
G01X105834Y12818D01*
G01X105679Y12973D01*
G01X105679Y11883D01*
G01X105232Y12973D02*
G01X104660Y12973D01*
G01X104973Y12556D01*
G01X104815Y12556D01*
G01X104711Y12505D01*
G01X104660Y12455D01*
G01X104609Y12297D01*
G01X104609Y12193D01*
G01X104660Y12038D01*
G01X104764Y11934D01*
G01X104919Y11883D01*
G01X105077Y11883D01*
G01X105232Y11934D01*
G01X105282Y11985D01*
G01X105336Y12089D01*
G01X82786Y33415D02*
G01X82839Y33519D01*
G01X82943Y33623D01*
G01X83045Y33674D01*
G01X83253Y33674D01*
G01X83357Y33623D01*
G01X83461Y33519D01*
G01X83515Y33415D01*
G01X83566Y33257D01*
G01X83566Y32998D01*
G01X83515Y32843D01*
G01X83461Y32739D01*
G01X83357Y32635D01*
G01X83253Y32584D01*
G01X83045Y32584D01*
G01X82943Y32635D01*
G01X82839Y32739D01*
G01X82786Y32843D01*
G01X82443Y33465D02*
G01X82339Y33519D01*
G01X82184Y33674D01*
G01X82184Y32584D01*
G01X81320Y33674D02*
G01X81841Y32947D01*
G01X81061Y32947D01*
G01X81320Y33674D02*
G01X81320Y32584D01*
G01X92836Y37865D02*
G01X92836Y36775D01*
G01X92836Y37865D02*
G01X92369Y37865D01*
G01X92214Y37814D01*
G01X92161Y37761D01*
G01X92110Y37656D01*
G01X92110Y37552D01*
G01X92161Y37448D01*
G01X92214Y37397D01*
G01X92369Y37347D01*
G01X92836Y37347D01*
G01X92473Y37347D02*
G01X92110Y36775D01*
G01X91767Y37656D02*
G01X91663Y37710D01*
G01X91506Y37865D01*
G01X91506Y36775D01*
G01X4173Y28208D02*
G01X4226Y28312D01*
G01X4330Y28416D01*
G01X4432Y28467D01*
G01X4640Y28467D01*
G01X4744Y28416D01*
G01X4848Y28312D01*
G01X4902Y28208D01*
G01X4953Y28050D01*
G01X4953Y27791D01*
G01X4902Y27636D01*
G01X4848Y27532D01*
G01X4744Y27428D01*
G01X4640Y27377D01*
G01X4432Y27377D01*
G01X4330Y27428D01*
G01X4226Y27532D01*
G01X4173Y27636D01*
G01X3830Y28258D02*
G01X3726Y28312D01*
G01X3571Y28467D01*
G01X3571Y27377D01*
G01X2603Y28467D02*
G01X3124Y28467D01*
G01X3175Y27999D01*
G01X3124Y28050D01*
G01X2969Y28103D01*
G01X2811Y28103D01*
G01X2656Y28050D01*
G01X2552Y27948D01*
G01X2501Y27791D01*
G01X2501Y27687D01*
G01X2552Y27532D01*
G01X2656Y27428D01*
G01X2811Y27377D01*
G01X2969Y27377D01*
G01X3124Y27428D01*
G01X3175Y27479D01*
G01X3228Y27583D01*
G01X13190Y15254D02*
G01X13243Y15358D01*
G01X13347Y15462D01*
G01X13449Y15513D01*
G01X13657Y15513D01*
G01X13761Y15462D01*
G01X13865Y15358D01*
G01X13919Y15254D01*
G01X13970Y15096D01*
G01X13970Y14837D01*
G01X13919Y14682D01*
G01X13865Y14578D01*
G01X13761Y14474D01*
G01X13657Y14423D01*
G01X13449Y14423D01*
G01X13347Y14474D01*
G01X13243Y14578D01*
G01X13190Y14682D01*
G01X12847Y15304D02*
G01X12743Y15358D01*
G01X12588Y15513D01*
G01X12588Y14423D01*
G01X11620Y15358D02*
G01X11673Y15462D01*
G01X11828Y15513D01*
G01X11932Y15513D01*
G01X12090Y15462D01*
G01X12192Y15304D01*
G01X12245Y15045D01*
G01X12245Y14786D01*
G01X12192Y14578D01*
G01X12090Y14474D01*
G01X11932Y14423D01*
G01X11882Y14423D01*
G01X11724Y14474D01*
G01X11620Y14578D01*
G01X11569Y14733D01*
G01X11569Y14786D01*
G01X11620Y14941D01*
G01X11724Y15045D01*
G01X11882Y15096D01*
G01X11932Y15096D01*
G01X12090Y15045D01*
G01X12192Y14941D01*
G01X12245Y14786D01*
G01X246235Y10300D02*
G01X246288Y10405D01*
G01X246392Y10509D01*
G01X246494Y10560D01*
G01X246702Y10560D01*
G01X246806Y10509D01*
G01X246910Y10405D01*
G01X246964Y10300D01*
G01X247015Y10143D01*
G01X247015Y9884D01*
G01X246964Y9729D01*
G01X246910Y9625D01*
G01X246806Y9521D01*
G01X246702Y9470D01*
G01X246494Y9470D01*
G01X246392Y9521D01*
G01X246288Y9625D01*
G01X246235Y9729D01*
G01X245892Y10351D02*
G01X245788Y10405D01*
G01X245633Y10560D01*
G01X245633Y9470D01*
G01X244563Y10560D02*
G01X245082Y9470D01*
G01X245290Y10560D02*
G01X244563Y10560D01*
G01X226296Y25287D02*
G01X226349Y25391D01*
G01X226453Y25495D01*
G01X226555Y25546D01*
G01X226763Y25546D01*
G01X226867Y25495D01*
G01X226971Y25391D01*
G01X227025Y25287D01*
G01X227075Y25129D01*
G01X227075Y24870D01*
G01X227025Y24715D01*
G01X226971Y24611D01*
G01X226867Y24507D01*
G01X226763Y24456D01*
G01X226555Y24456D01*
G01X226453Y24507D01*
G01X226349Y24611D01*
G01X226296Y24715D01*
G01X225953Y25337D02*
G01X225849Y25391D01*
G01X225694Y25546D01*
G01X225694Y24456D01*
G01X225092Y25546D02*
G01X225247Y25495D01*
G01X225297Y25391D01*
G01X225297Y25287D01*
G01X225247Y25182D01*
G01X225143Y25129D01*
G01X224934Y25078D01*
G01X224779Y25027D01*
G01X224675Y24923D01*
G01X224624Y24819D01*
G01X224624Y24662D01*
G01X224675Y24558D01*
G01X224726Y24507D01*
G01X224883Y24456D01*
G01X225092Y24456D01*
G01X225247Y24507D01*
G01X225297Y24558D01*
G01X225351Y24662D01*
G01X225351Y24819D01*
G01X225297Y24923D01*
G01X225196Y25027D01*
G01X225038Y25078D01*
G01X224830Y25129D01*
G01X224726Y25182D01*
G01X224675Y25287D01*
G01X224675Y25391D01*
G01X224726Y25495D01*
G01X224883Y25546D01*
G01X225092Y25546D01*
G54D37*
G75*
G01X246743Y20149D02*
G02X246741Y20149I-1J-200D01*
G01*
G75*
G01X16746Y20149D02*
G02X16744Y20149I-1J-200D01*
G01*
G54D10*
G75*
G01X60000Y40000D02*
G03X60050Y42000I25J1000D01*
G01*
G75*
G01X102818Y17738D02*
G03X102819Y15808I1J-965D01*
G01*
G75*
G01X79600Y29965D02*
G03X79601Y28035I1J-965D01*
G01*
G75*
G01X88735Y28319D02*
G02X91269Y28319I1267J1547D01*
G01*
G75*
G01X244156Y38048D02*
G03X244156Y38048I-1700J0D01*
G01*
G75*
G01X14159Y38048D02*
G03X14159Y38048I-1700J0D01*
G01*
G75*
G01X102794Y12099D02*
G03X102794Y12099I-127J0D01*
G01*
G75*
G01X79576Y24326D02*
G03X79576Y24326I-127J0D01*
G01*
G75*
G01X6310Y24520D02*
G03X6310Y24520I-2500J0D01*
G01*
G75*
G01X15200Y11312D02*
G03X15200Y11312I-2500J0D01*
G01*
G75*
G01X252500Y10000D02*
G03X252500Y10000I-2500J0D01*
G01*
G75*
G01X232500Y25000D02*
G03X232500Y25000I-2500J0D01*
G01*
G01X270510Y33282D02*
G01X324612Y33282D01*
G01X324612Y17534D01*
G01X270510Y17534D01*
G01X270510Y33282D01*
M00*
M02*
