G04 Layer: BoardOutline*
G04 EasyEDA v6.3.53, 2020-06-17T09:27:07+02:00*
G04 37cbf060f6a34a52bf7e715697852531,a119ccecc66d453fa3e160aadb19915c,10*
G04 Gerber Generator version 0.2*
G04 Scale: 100 percent, Rotated: No, Reflected: No *
G04 Dimensions in millimeters *
G04 leading zeros omitted , absolute positions ,3 integer and 3 decimal *
%FSLAX33Y33*%
%MOMM*%
G90*
G71D02*

%ADD10C,0.254000*%
G54D10*
G01X0Y7999D02*
G01X0Y46999D01*
G01X542000Y0D02*
G01X8000Y0D01*
G01X549999Y46999D02*
G01X549999Y7999D01*
G01X8000Y54999D02*
G01X542000Y54999D01*
G01X41572Y23554D02*
G01X43985Y23554D01*
G01X43985Y22030D01*
G01X41572Y22030D01*
G01X41572Y23554D01*
G01X30015Y23554D02*
G01X32428Y23554D01*
G01X32428Y22030D01*
G01X30015Y22030D01*
G01X30015Y23554D01*
G01X41572Y33968D02*
G01X43985Y33968D01*
G01X43985Y32444D01*
G01X41572Y32444D01*
G01X41572Y33968D01*
G01X30015Y33968D02*
G01X32428Y33968D01*
G01X32428Y32444D01*
G01X30015Y32444D01*
G01X30015Y33968D01*
G75*
G01X76700Y50000D02*
G03X76700Y50000I-2200J0D01*
G01*
G75*
G01X76700Y6000D02*
G03X76700Y6000I-2200J0D01*
G01*
G75*
G01X19200Y5000D02*
G03X19200Y5000I-2200J0D01*
G01*
G75*
G01X19200Y51000D02*
G03X19200Y51000I-2200J0D01*
G01*
G01X116572Y23554D02*
G01X118985Y23554D01*
G01X118985Y22030D01*
G01X116572Y22030D01*
G01X116572Y23554D01*
G01X105015Y23554D02*
G01X107428Y23554D01*
G01X107428Y22030D01*
G01X105015Y22030D01*
G01X105015Y23554D01*
G01X116572Y33968D02*
G01X118985Y33968D01*
G01X118985Y32444D01*
G01X116572Y32444D01*
G01X116572Y33968D01*
G01X105015Y33968D02*
G01X107428Y33968D01*
G01X107428Y32444D01*
G01X105015Y32444D01*
G01X105015Y33968D01*
G75*
G01X151700Y50000D02*
G03X151700Y50000I-2200J0D01*
G01*
G75*
G01X151700Y6000D02*
G03X151700Y6000I-2200J0D01*
G01*
G75*
G01X76700Y6000D02*
G03X76700Y6000I-2200J0D01*
G01*
G75*
G01X76700Y50000D02*
G03X76700Y50000I-2200J0D01*
G01*
G01X191572Y23554D02*
G01X193985Y23554D01*
G01X193985Y22030D01*
G01X191572Y22030D01*
G01X191572Y23554D01*
G01X180015Y23554D02*
G01X182428Y23554D01*
G01X182428Y22030D01*
G01X180015Y22030D01*
G01X180015Y23554D01*
G01X191572Y33968D02*
G01X193985Y33968D01*
G01X193985Y32444D01*
G01X191572Y32444D01*
G01X191572Y33968D01*
G01X180015Y33968D02*
G01X182428Y33968D01*
G01X182428Y32444D01*
G01X180015Y32444D01*
G01X180015Y33968D01*
G75*
G01X226700Y50000D02*
G03X226700Y50000I-2200J0D01*
G01*
G75*
G01X226700Y6000D02*
G03X226700Y6000I-2200J0D01*
G01*
G75*
G01X151700Y6000D02*
G03X151700Y6000I-2200J0D01*
G01*
G75*
G01X151700Y50000D02*
G03X151700Y50000I-2200J0D01*
G01*
G01X266572Y23554D02*
G01X268985Y23554D01*
G01X268985Y22030D01*
G01X266572Y22030D01*
G01X266572Y23554D01*
G01X255015Y23554D02*
G01X257428Y23554D01*
G01X257428Y22030D01*
G01X255015Y22030D01*
G01X255015Y23554D01*
G01X266572Y33968D02*
G01X268985Y33968D01*
G01X268985Y32444D01*
G01X266572Y32444D01*
G01X266572Y33968D01*
G01X255015Y33968D02*
G01X257428Y33968D01*
G01X257428Y32444D01*
G01X255015Y32444D01*
G01X255015Y33968D01*
G75*
G01X301700Y50000D02*
G03X301700Y50000I-2200J0D01*
G01*
G75*
G01X301700Y6000D02*
G03X301700Y6000I-2200J0D01*
G01*
G75*
G01X226700Y6000D02*
G03X226700Y6000I-2200J0D01*
G01*
G75*
G01X226700Y50000D02*
G03X226700Y50000I-2200J0D01*
G01*
G01X341572Y23554D02*
G01X343985Y23554D01*
G01X343985Y22030D01*
G01X341572Y22030D01*
G01X341572Y23554D01*
G01X330015Y23554D02*
G01X332428Y23554D01*
G01X332428Y22030D01*
G01X330015Y22030D01*
G01X330015Y23554D01*
G01X341572Y33968D02*
G01X343985Y33968D01*
G01X343985Y32444D01*
G01X341572Y32444D01*
G01X341572Y33968D01*
G01X330015Y33968D02*
G01X332428Y33968D01*
G01X332428Y32444D01*
G01X330015Y32444D01*
G01X330015Y33968D01*
G75*
G01X376700Y50000D02*
G03X376700Y50000I-2200J0D01*
G01*
G75*
G01X376700Y6000D02*
G03X376700Y6000I-2200J0D01*
G01*
G75*
G01X301700Y6000D02*
G03X301700Y6000I-2200J0D01*
G01*
G75*
G01X301700Y50000D02*
G03X301700Y50000I-2200J0D01*
G01*
G01X416571Y23554D02*
G01X418984Y23554D01*
G01X418984Y22030D01*
G01X416571Y22030D01*
G01X416571Y23554D01*
G01X405014Y23554D02*
G01X407427Y23554D01*
G01X407427Y22030D01*
G01X405014Y22030D01*
G01X405014Y23554D01*
G01X416571Y33968D02*
G01X418984Y33968D01*
G01X418984Y32444D01*
G01X416571Y32444D01*
G01X416571Y33968D01*
G01X405014Y33968D02*
G01X407427Y33968D01*
G01X407427Y32444D01*
G01X405014Y32444D01*
G01X405014Y33968D01*
G75*
G01X451700Y50000D02*
G03X451700Y50000I-2200J0D01*
G01*
G75*
G01X451700Y6000D02*
G03X451700Y6000I-2200J0D01*
G01*
G75*
G01X376700Y6000D02*
G03X376700Y6000I-2200J0D01*
G01*
G75*
G01X376700Y50000D02*
G03X376700Y50000I-2200J0D01*
G01*
G01X516572Y23554D02*
G01X518985Y23554D01*
G01X518985Y22030D01*
G01X516572Y22030D01*
G01X516572Y23554D01*
G01X505015Y23554D02*
G01X507428Y23554D01*
G01X507428Y22030D01*
G01X505015Y22030D01*
G01X505015Y23554D01*
G01X516572Y33968D02*
G01X518985Y33968D01*
G01X518985Y32444D01*
G01X516572Y32444D01*
G01X516572Y33968D01*
G01X505015Y33968D02*
G01X507428Y33968D01*
G01X507428Y32444D01*
G01X505015Y32444D01*
G01X505015Y33968D01*
G75*
G01X534200Y50000D02*
G03X534200Y50000I-2200J0D01*
G01*
G75*
G01X534200Y6000D02*
G03X534200Y6000I-2200J0D01*
G01*
G75*
G01X476700Y6000D02*
G03X476700Y6000I-2200J0D01*
G01*
G75*
G01X476700Y50000D02*
G03X476700Y50000I-2200J0D01*
G01*
G75*
G01X0Y47000D02*
G02X8000Y55000I8000J0D01*
G01*
G75*
G01X8000Y0D02*
G02X0Y8000I0J8000D01*
G01*
G75*
G01X550000Y8000D02*
G02X542000Y0I-8000J0D01*
G01*
G75*
G01X542000Y55000D02*
G02X550000Y47000I0J-8000D01*
G01*

%LPD*%
M00*
M02*
