G04 Layer: TopPasteMaskLayer*
G04 EasyEDA v6.3.53, 2020-06-17T09:27:07+02:00*
G04 37cbf060f6a34a52bf7e715697852531,a119ccecc66d453fa3e160aadb19915c,10*
G04 Gerber Generator version 0.2*
G04 Scale: 100 percent, Rotated: No, Reflected: No *
G04 Dimensions in millimeters *
G04 leading zeros omitted , absolute positions ,3 integer and 3 decimal *
%FSLAX33Y33*%
%MOMM*%
G90*
G71D02*

%ADD15R,1.999996X1.800860*%

%LPD*%
G54D15*
G01X93218Y25662D03*
G01X95504Y25662D03*
G36*
G01X246569Y27987D02*
G01X246569Y35987D01*
G01X238570Y35987D01*
G01X238570Y27987D01*
G01X246569Y27987D01*
G37*
G36*
G01X16572Y27987D02*
G01X16572Y35987D01*
G01X8573Y35987D01*
G01X8573Y27987D01*
G01X16572Y27987D01*
G37*
G36*
G01X35001Y36750D02*
G01X35001Y38249D01*
G01X35999Y38249D01*
G01X35999Y36750D01*
G01X35001Y36750D01*
G37*
G36*
G01X38000Y36750D02*
G01X38000Y38249D01*
G01X38998Y38249D01*
G01X38998Y36750D01*
G01X38000Y36750D01*
G37*
G36*
G01X38000Y41749D02*
G01X38000Y43250D01*
G01X38998Y43250D01*
G01X38998Y41749D01*
G01X38000Y41749D01*
G37*
G36*
G01X35001Y41749D02*
G01X35001Y43250D01*
G01X35999Y43250D01*
G01X35999Y41749D01*
G01X35001Y41749D01*
G37*
G36*
G01X110001Y36750D02*
G01X110001Y38249D01*
G01X110999Y38249D01*
G01X110999Y36750D01*
G01X110001Y36750D01*
G37*
G36*
G01X113000Y36750D02*
G01X113000Y38249D01*
G01X113998Y38249D01*
G01X113998Y36750D01*
G01X113000Y36750D01*
G37*
G36*
G01X113000Y41749D02*
G01X113000Y43250D01*
G01X113998Y43250D01*
G01X113998Y41749D01*
G01X113000Y41749D01*
G37*
G36*
G01X110001Y41749D02*
G01X110001Y43250D01*
G01X110999Y43250D01*
G01X110999Y41749D01*
G01X110001Y41749D01*
G37*
G36*
G01X185001Y36750D02*
G01X185001Y38249D01*
G01X185999Y38249D01*
G01X185999Y36750D01*
G01X185001Y36750D01*
G37*
G36*
G01X188000Y36750D02*
G01X188000Y38249D01*
G01X188998Y38249D01*
G01X188998Y36750D01*
G01X188000Y36750D01*
G37*
G36*
G01X188000Y41749D02*
G01X188000Y43250D01*
G01X188998Y43250D01*
G01X188998Y41749D01*
G01X188000Y41749D01*
G37*
G36*
G01X185001Y41749D02*
G01X185001Y43250D01*
G01X185999Y43250D01*
G01X185999Y41749D01*
G01X185001Y41749D01*
G37*
G36*
G01X260001Y36750D02*
G01X260001Y38249D01*
G01X260999Y38249D01*
G01X260999Y36750D01*
G01X260001Y36750D01*
G37*
G36*
G01X263000Y36750D02*
G01X263000Y38249D01*
G01X263998Y38249D01*
G01X263998Y36750D01*
G01X263000Y36750D01*
G37*
G36*
G01X263000Y41749D02*
G01X263000Y43250D01*
G01X263998Y43250D01*
G01X263998Y41749D01*
G01X263000Y41749D01*
G37*
G36*
G01X260001Y41749D02*
G01X260001Y43250D01*
G01X260999Y43250D01*
G01X260999Y41749D01*
G01X260001Y41749D01*
G37*
G36*
G01X335001Y36750D02*
G01X335001Y38249D01*
G01X335999Y38249D01*
G01X335999Y36750D01*
G01X335001Y36750D01*
G37*
G36*
G01X338000Y36750D02*
G01X338000Y38249D01*
G01X338998Y38249D01*
G01X338998Y36750D01*
G01X338000Y36750D01*
G37*
G36*
G01X338000Y41749D02*
G01X338000Y43250D01*
G01X338998Y43250D01*
G01X338998Y41749D01*
G01X338000Y41749D01*
G37*
G36*
G01X335001Y41749D02*
G01X335001Y43250D01*
G01X335999Y43250D01*
G01X335999Y41749D01*
G01X335001Y41749D01*
G37*
G36*
G01X410001Y36750D02*
G01X410001Y38249D01*
G01X410999Y38249D01*
G01X410999Y36750D01*
G01X410001Y36750D01*
G37*
G36*
G01X413000Y36750D02*
G01X413000Y38249D01*
G01X413998Y38249D01*
G01X413998Y36750D01*
G01X413000Y36750D01*
G37*
G36*
G01X413000Y41749D02*
G01X413000Y43250D01*
G01X413998Y43250D01*
G01X413998Y41749D01*
G01X413000Y41749D01*
G37*
G36*
G01X410001Y41749D02*
G01X410001Y43250D01*
G01X410999Y43250D01*
G01X410999Y41749D01*
G01X410001Y41749D01*
G37*
G36*
G01X510001Y36750D02*
G01X510001Y38249D01*
G01X510999Y38249D01*
G01X510999Y36750D01*
G01X510001Y36750D01*
G37*
G36*
G01X513000Y36750D02*
G01X513000Y38249D01*
G01X513998Y38249D01*
G01X513998Y36750D01*
G01X513000Y36750D01*
G37*
G36*
G01X513000Y41749D02*
G01X513000Y43250D01*
G01X513998Y43250D01*
G01X513998Y41749D01*
G01X513000Y41749D01*
G37*
G36*
G01X510001Y41749D02*
G01X510001Y43250D01*
G01X510999Y43250D01*
G01X510999Y41749D01*
G01X510001Y41749D01*
G37*
G01X99360Y16772D03*
G01X97074Y16772D03*
G01X76143Y29000D03*
G01X73857Y29000D03*
G01X70143Y29000D03*
G01X67857Y29000D03*
G01X64143Y29000D03*
G01X61857Y29000D03*
M00*
M02*
