G04 Layer: BottomSolderMaskLayer*
G04 EasyEDA v6.3.53, 2020-06-17T09:27:07+02:00*
G04 37cbf060f6a34a52bf7e715697852531,a119ccecc66d453fa3e160aadb19915c,10*
G04 Gerber Generator version 0.2*
G04 Scale: 100 percent, Rotated: No, Reflected: No *
G04 Dimensions in millimeters *
G04 leading zeros omitted , absolute positions ,3 integer and 3 decimal *
%FSLAX33Y33*%
%MOMM*%
G90*
G71D02*

%ADD38C,2.203196*%
%ADD40C,1.903197*%
%ADD44C,1.803197*%
%ADD47C,1.803400*%
%ADD48C,1.854200*%
%ADD49C,2.703195*%
%ADD50C,2.082800*%
%ADD51C,1.727200*%
%ADD53C,2.003196*%
%ADD54C,1.503197*%
%ADD55C,2.403196*%

%LPD*%
G54D38*
G01X239903Y20197D02*
G01X239903Y19697D01*
G01X242443Y20197D02*
G01X242443Y19697D01*
G01X9906Y20197D02*
G01X9906Y19697D01*
G01X12446Y20197D02*
G01X12446Y19697D01*
G54D40*
G01X49919Y6270D03*
G01X49919Y3730D03*
G01X52459Y6270D03*
G01X52459Y3730D03*
G01X54999Y6270D03*
G01X54999Y3730D03*
G01X57539Y6270D03*
G01X57539Y3730D03*
G01X60079Y6270D03*
G36*
G01X59192Y2777D02*
G01X59192Y4682D01*
G01X60970Y4682D01*
G01X60970Y2777D01*
G01X59192Y2777D01*
G37*
G01X49919Y51270D03*
G01X49919Y48730D03*
G01X52459Y51270D03*
G01X52459Y48730D03*
G01X54999Y51270D03*
G01X54999Y48730D03*
G01X57539Y51270D03*
G01X57539Y48730D03*
G01X60079Y51270D03*
G36*
G01X59192Y47778D02*
G01X59192Y49681D01*
G01X60970Y49681D01*
G01X60970Y47778D01*
G01X59192Y47778D01*
G37*
G36*
G01X238467Y27885D02*
G01X238467Y36089D01*
G01X246672Y36089D01*
G01X246672Y27885D01*
G01X238467Y27885D01*
G37*
G36*
G01X243880Y18596D02*
G01X243880Y21299D01*
G01X246085Y21299D01*
G01X246085Y18596D01*
G01X243880Y18596D01*
G37*
G36*
G01X8470Y27885D02*
G01X8470Y36089D01*
G01X16675Y36089D01*
G01X16675Y27885D01*
G01X8470Y27885D01*
G37*
G36*
G01X13883Y18596D02*
G01X13883Y21299D01*
G01X16088Y21299D01*
G01X16088Y18596D01*
G01X13883Y18596D01*
G37*
G54D44*
G01X61110Y37190D03*
G01X63650Y37190D03*
G01X66190Y37190D03*
G01X68730Y37190D03*
G01X71270Y37190D03*
G01X73810Y37190D03*
G01X76350Y37190D03*
G01X78890Y37190D03*
G01X78890Y44810D03*
G01X76350Y44810D03*
G01X73810Y44810D03*
G01X71270Y44810D03*
G01X68730Y44810D03*
G01X66190Y44810D03*
G01X63650Y44810D03*
G36*
G01X60208Y43907D02*
G01X60208Y45711D01*
G01X62011Y45711D01*
G01X62011Y43907D01*
G01X60208Y43907D01*
G37*
G36*
G01X99936Y11670D02*
G01X99936Y13473D01*
G01X101739Y13473D01*
G01X101739Y11670D01*
G01X99936Y11670D01*
G37*
G54D47*
G01X98298Y12573D03*
G01X90678Y12573D03*
G01X88138Y12573D03*
G01X95758Y12573D03*
G01X93218Y12573D03*
G01X85598Y12573D03*
G01X85598Y20972D03*
G01X88138Y20972D03*
G01X90678Y20972D03*
G01X93218Y20972D03*
G01X95758Y20972D03*
G01X98298Y20972D03*
G01X100838Y20972D03*
G36*
G01X76718Y23897D02*
G01X76718Y25701D01*
G01X78521Y25701D01*
G01X78521Y23897D01*
G01X76718Y23897D01*
G37*
G01X75080Y24800D03*
G01X67460Y24800D03*
G01X64920Y24800D03*
G01X72540Y24800D03*
G01X70000Y24800D03*
G01X62380Y24800D03*
G01X62380Y33199D03*
G01X64920Y33199D03*
G01X67460Y33199D03*
G01X70000Y33199D03*
G01X72540Y33199D03*
G01X75080Y33199D03*
G01X77620Y33199D03*
G54D48*
G01X90000Y31270D03*
G01X90000Y28730D03*
G54D49*
G01X25500Y50000D03*
G01X30500Y50000D03*
G01X30499Y5000D03*
G01X25499Y5000D03*
G54D44*
G01X20320Y14232D03*
G01X20320Y19312D03*
G01X4572Y14232D03*
G01X4572Y19312D03*
G01X250317Y14232D03*
G01X250317Y19312D03*
G01X234569Y14232D03*
G01X234569Y19312D03*
G01X57404Y43315D03*
G01X57404Y38235D03*
G01X105386Y14259D03*
G01X105386Y19339D03*
G01X82169Y26424D03*
G01X82169Y31504D03*
G54D50*
G01X90000Y45080D03*
G01X90000Y34920D03*
G54D51*
G01X5059Y24519D03*
G01X2560Y24519D03*
G01X11450Y11311D03*
G01X13949Y11311D03*
G01X251249Y10000D03*
G01X248750Y10000D03*
G01X231249Y25000D03*
G01X228750Y25000D03*
G54D40*
G01X490728Y30488D03*
G01X488188Y30488D03*
G01X485648Y30488D03*
G01X483108Y30488D03*
G01X480568Y30488D03*
G01X478028Y30488D03*
G01X475488Y30488D03*
G01X472948Y30488D03*
G01X470408Y30488D03*
G36*
G01X466979Y29536D02*
G01X466979Y31441D01*
G01X468757Y31441D01*
G01X468757Y29536D01*
G01X466979Y29536D01*
G37*
G54D53*
G01X49999Y32000D03*
G01X49999Y24000D03*
G01X125000Y32000D03*
G01X125000Y24000D03*
G01X200000Y32000D03*
G01X200000Y24000D03*
G01X274999Y32000D03*
G01X274999Y24000D03*
G01X350000Y32000D03*
G01X350000Y24000D03*
G01X424999Y32000D03*
G01X424999Y24000D03*
G01X524999Y32000D03*
G01X524999Y24000D03*
G54D44*
G01X29999Y37460D03*
G01X29999Y42540D03*
G01X105000Y37460D03*
G01X105000Y42540D03*
G01X179999Y37460D03*
G01X179999Y42540D03*
G01X254999Y37460D03*
G01X254999Y42540D03*
G01X330000Y37460D03*
G01X330000Y42540D03*
G01X505000Y37460D03*
G01X505000Y42540D03*
G01X404999Y37460D03*
G01X404999Y42540D03*
G54D54*
G01X39499Y40000D03*
G01X37899Y40000D03*
G01X36100Y40000D03*
G01X34500Y40000D03*
G01X114499Y40000D03*
G01X112899Y40000D03*
G01X111100Y40000D03*
G01X109500Y40000D03*
G01X189499Y40000D03*
G01X187899Y40000D03*
G01X186100Y40000D03*
G01X184500Y40000D03*
G01X264499Y40000D03*
G01X262899Y40000D03*
G01X261100Y40000D03*
G01X259500Y40000D03*
G01X339499Y40000D03*
G01X337899Y40000D03*
G01X336100Y40000D03*
G01X334500Y40000D03*
G01X414499Y40000D03*
G01X412899Y40000D03*
G01X411100Y40000D03*
G01X409500Y40000D03*
G01X514499Y40000D03*
G01X512899Y40000D03*
G01X511100Y40000D03*
G01X509500Y40000D03*
G54D55*
G01X33000Y30499D03*
G01X37000Y30499D03*
G01X41000Y30499D03*
G01X108000Y30499D03*
G01X112000Y30499D03*
G01X116000Y30499D03*
G01X183000Y30499D03*
G01X187000Y30499D03*
G01X191000Y30499D03*
G01X257999Y30499D03*
G01X261999Y30499D03*
G01X265999Y30499D03*
G01X333000Y30499D03*
G01X337000Y30499D03*
G01X341000Y30499D03*
G01X407999Y30499D03*
G01X411999Y30499D03*
G01X415999Y30499D03*
G01X508000Y30499D03*
G01X512000Y30499D03*
G01X516000Y30499D03*
G54D53*
G01X47433Y51316D03*
G01X39434Y51316D03*
G54D50*
G01X153670Y28710D03*
G01X153670Y18550D03*
M00*
M02*
